G04 #@! TF.GenerationSoftware,KiCad,Pcbnew,(5.1.10)-1*
G04 #@! TF.CreationDate,2021-06-12T21:42:46+02:00*
G04 #@! TF.ProjectId,EspressoV1,45737072-6573-4736-9f56-312e6b696361,rev?*
G04 #@! TF.SameCoordinates,Original*
G04 #@! TF.FileFunction,Copper,L2,Bot*
G04 #@! TF.FilePolarity,Positive*
%FSLAX46Y46*%
G04 Gerber Fmt 4.6, Leading zero omitted, Abs format (unit mm)*
G04 Created by KiCad (PCBNEW (5.1.10)-1) date 2021-06-12 21:42:46*
%MOMM*%
%LPD*%
G01*
G04 APERTURE LIST*
G04 #@! TA.AperFunction,ComponentPad*
%ADD10R,2.200000X2.200000*%
G04 #@! TD*
G04 #@! TA.AperFunction,ComponentPad*
%ADD11C,2.200000*%
G04 #@! TD*
G04 #@! TA.AperFunction,ComponentPad*
%ADD12O,1.600000X1.600000*%
G04 #@! TD*
G04 #@! TA.AperFunction,ComponentPad*
%ADD13C,1.600000*%
G04 #@! TD*
G04 #@! TA.AperFunction,ComponentPad*
%ADD14O,1.700000X1.700000*%
G04 #@! TD*
G04 #@! TA.AperFunction,ComponentPad*
%ADD15R,1.700000X1.700000*%
G04 #@! TD*
G04 #@! TA.AperFunction,ComponentPad*
%ADD16C,1.700000*%
G04 #@! TD*
G04 #@! TA.AperFunction,ComponentPad*
%ADD17C,2.000000*%
G04 #@! TD*
G04 #@! TA.AperFunction,ViaPad*
%ADD18C,0.800000*%
G04 #@! TD*
G04 #@! TA.AperFunction,Conductor*
%ADD19C,0.350000*%
G04 #@! TD*
G04 #@! TA.AperFunction,Conductor*
%ADD20C,0.254000*%
G04 #@! TD*
G04 #@! TA.AperFunction,Conductor*
%ADD21C,0.100000*%
G04 #@! TD*
G04 APERTURE END LIST*
D10*
G04 #@! TO.P,SSR1,2*
G04 #@! TO.N,GND*
X173990000Y-74930000D03*
D11*
G04 #@! TO.P,SSR1,1*
G04 #@! TO.N,Net-(ESP321-PadP21)*
X173990000Y-77470000D03*
G04 #@! TD*
D10*
G04 #@! TO.P,SENS4,2*
G04 #@! TO.N,GND*
X173990000Y-63500000D03*
D11*
G04 #@! TO.P,SENS4,1*
G04 #@! TO.N,Net-(0x48-Pad7)*
X176530000Y-63500000D03*
G04 #@! TD*
D10*
G04 #@! TO.P,SENS3,2*
G04 #@! TO.N,GND*
X163830000Y-63500000D03*
D11*
G04 #@! TO.P,SENS3,1*
G04 #@! TO.N,Net-(0x48-Pad6)*
X166370000Y-63500000D03*
G04 #@! TD*
G04 #@! TO.P,SENS2,2*
G04 #@! TO.N,Net-(0x49-Pad7)*
X153670000Y-63500000D03*
G04 #@! TO.P,SENS2,1*
G04 #@! TO.N,Net-(0x48-Pad8)*
G04 #@! TA.AperFunction,ComponentPad*
G36*
G01*
X157310000Y-62950000D02*
X157310000Y-64050000D01*
G75*
G02*
X156760000Y-64600000I-550000J0D01*
G01*
X155660000Y-64600000D01*
G75*
G02*
X155110000Y-64050000I0J550000D01*
G01*
X155110000Y-62950000D01*
G75*
G02*
X155660000Y-62400000I550000J0D01*
G01*
X156760000Y-62400000D01*
G75*
G02*
X157310000Y-62950000I0J-550000D01*
G01*
G37*
G04 #@! TD.AperFunction*
G04 #@! TD*
G04 #@! TO.P,SENS1,2*
G04 #@! TO.N,Net-(0x49-Pad5)*
X143510000Y-63500000D03*
G04 #@! TO.P,SENS1,1*
G04 #@! TO.N,Net-(0x48-Pad8)*
G04 #@! TA.AperFunction,ComponentPad*
G36*
G01*
X147150000Y-62950000D02*
X147150000Y-64050000D01*
G75*
G02*
X146600000Y-64600000I-550000J0D01*
G01*
X145500000Y-64600000D01*
G75*
G02*
X144950000Y-64050000I0J550000D01*
G01*
X144950000Y-62950000D01*
G75*
G02*
X145500000Y-62400000I550000J0D01*
G01*
X146600000Y-62400000D01*
G75*
G02*
X147150000Y-62950000I0J-550000D01*
G01*
G37*
G04 #@! TD.AperFunction*
G04 #@! TD*
D12*
G04 #@! TO.P,R3-4,2*
G04 #@! TO.N,GND*
X124460000Y-100330000D03*
D13*
G04 #@! TO.P,R3-4,1*
G04 #@! TO.N,Net-(0x49-Pad7)*
X114300000Y-100330000D03*
G04 #@! TD*
D12*
G04 #@! TO.P,R3-2,2*
G04 #@! TO.N,GND*
X124460000Y-105410000D03*
D13*
G04 #@! TO.P,R3-2,1*
G04 #@! TO.N,Net-(0x49-Pad6)*
X114300000Y-105410000D03*
G04 #@! TD*
D12*
G04 #@! TO.P,R3-1,2*
G04 #@! TO.N,Net-(0x49-Pad6)*
X114300000Y-110490000D03*
D13*
G04 #@! TO.P,R3-1,1*
G04 #@! TO.N,Net-(0x48-Pad8)*
X124460000Y-110490000D03*
G04 #@! TD*
D12*
G04 #@! TO.P,R2-4,2*
G04 #@! TO.N,GND*
X124460000Y-80010000D03*
D13*
G04 #@! TO.P,R2-4,1*
G04 #@! TO.N,Net-(0x49-Pad5)*
X114300000Y-80010000D03*
G04 #@! TD*
D12*
G04 #@! TO.P,R2-2,2*
G04 #@! TO.N,GND*
X124460000Y-85090000D03*
D13*
G04 #@! TO.P,R2-2,1*
G04 #@! TO.N,Net-(0x49-Pad4)*
X114300000Y-85090000D03*
G04 #@! TD*
D12*
G04 #@! TO.P,R2-1,2*
G04 #@! TO.N,Net-(0x49-Pad4)*
X114300000Y-90170000D03*
D13*
G04 #@! TO.P,R2-1,1*
G04 #@! TO.N,Net-(0x48-Pad8)*
X124460000Y-90170000D03*
G04 #@! TD*
D10*
G04 #@! TO.P,PSU1,2*
G04 #@! TO.N,GND*
X175260000Y-105410000D03*
G04 #@! TO.P,PSU1,1*
G04 #@! TO.N,Net-(ESP321-PadVUSB)*
G04 #@! TA.AperFunction,ComponentPad*
G36*
G01*
X175810000Y-109050000D02*
X174710000Y-109050000D01*
G75*
G02*
X174160000Y-108500000I0J550000D01*
G01*
X174160000Y-107400000D01*
G75*
G02*
X174710000Y-106850000I550000J0D01*
G01*
X175810000Y-106850000D01*
G75*
G02*
X176360000Y-107400000I0J-550000D01*
G01*
X176360000Y-108500000D01*
G75*
G02*
X175810000Y-109050000I-550000J0D01*
G01*
G37*
G04 #@! TD.AperFunction*
G04 #@! TD*
G04 #@! TO.P,J1,6*
G04 #@! TO.N,Net-(ESP321-PadVUSB)*
G04 #@! TA.AperFunction,ComponentPad*
G36*
G01*
X173140000Y-98215000D02*
X173140000Y-97365000D01*
G75*
G02*
X173565000Y-96940000I425000J0D01*
G01*
X174415000Y-96940000D01*
G75*
G02*
X174840000Y-97365000I0J-425000D01*
G01*
X174840000Y-98215000D01*
G75*
G02*
X174415000Y-98640000I-425000J0D01*
G01*
X173565000Y-98640000D01*
G75*
G02*
X173140000Y-98215000I0J425000D01*
G01*
G37*
G04 #@! TD.AperFunction*
D14*
G04 #@! TO.P,J1,5*
G04 #@! TO.N,Net-(ESP321-PadP33)*
X173990000Y-95250000D03*
G04 #@! TO.P,J1,4*
G04 #@! TO.N,Net-(ESP321-PadP27)*
X173990000Y-92710000D03*
G04 #@! TO.P,J1,3*
G04 #@! TO.N,Net-(ESP321-PadP12)*
X173990000Y-90170000D03*
G04 #@! TO.P,J1,2*
G04 #@! TO.N,Net-(ESP321-PadP13)*
X173990000Y-87630000D03*
D15*
G04 #@! TO.P,J1,1*
G04 #@! TO.N,GND*
X173990000Y-85090000D03*
G04 #@! TD*
D14*
G04 #@! TO.P,ESP321,P34*
G04 #@! TO.N,Net-(ESP321-PadP34)*
X156765000Y-97075000D03*
G04 #@! TO.P,ESP321,P25*
G04 #@! TO.N,Net-(ESP321-PadP25)*
X156765000Y-99615000D03*
G04 #@! TO.P,ESP321,P04*
G04 #@! TO.N,Net-(ESP321-PadP04)*
X156765000Y-89455000D03*
G04 #@! TO.P,ESP321,P26*
G04 #@! TO.N,Net-(ESP321-PadP26)*
X156765000Y-102155000D03*
G04 #@! TO.P,ESP321,P39*
G04 #@! TO.N,Net-(ESP321-PadP39)*
X156765000Y-94535000D03*
G04 #@! TO.P,ESP321,P18*
G04 #@! TO.N,Net-(ESP321-PadP18)*
X156765000Y-84375000D03*
G04 #@! TO.P,ESP321,NC*
G04 #@! TO.N,Net-(ESP321-PadNC)*
X156765000Y-107235000D03*
D15*
G04 #@! TO.P,ESP321,GND*
G04 #@! TO.N,GND*
X156765000Y-104695000D03*
G04 #@! TO.P,ESP321,3V3*
G04 #@! TO.N,Net-(0x48-Pad8)*
G04 #@! TA.AperFunction,ComponentPad*
G36*
G01*
X155915000Y-110200000D02*
X155915000Y-109350000D01*
G75*
G02*
X156340000Y-108925000I425000J0D01*
G01*
X157190000Y-108925000D01*
G75*
G02*
X157615000Y-109350000I0J-425000D01*
G01*
X157615000Y-110200000D01*
G75*
G02*
X157190000Y-110625000I-425000J0D01*
G01*
X156340000Y-110625000D01*
G75*
G02*
X155915000Y-110200000I0J425000D01*
G01*
G37*
G04 #@! TD.AperFunction*
D16*
G04 #@! TO.P,ESP321,P21*
G04 #@! TO.N,Net-(ESP321-PadP21)*
X156765000Y-74215000D03*
D14*
G04 #@! TO.P,ESP321,P05*
G04 #@! TO.N,Net-(ESP321-PadP05)*
X156765000Y-86915000D03*
G04 #@! TO.P,ESP321,P16*
G04 #@! TO.N,Net-(ESP321-PadP16)*
X156765000Y-79295000D03*
G04 #@! TO.P,ESP321,P36*
G04 #@! TO.N,Net-(ESP321-PadP36)*
X156765000Y-91995000D03*
G04 #@! TO.P,ESP321,P17*
G04 #@! TO.N,Net-(ESP321-PadP17)*
X156765000Y-76755000D03*
G04 #@! TO.P,ESP321,P19*
G04 #@! TO.N,Net-(ESP321-PadP19)*
X156765000Y-81835000D03*
G04 #@! TO.P,ESP321,RESET*
G04 #@! TO.N,Net-(ESP321-PadRESET)*
X156765000Y-112315000D03*
G04 #@! TO.P,ESP321,P12*
G04 #@! TO.N,Net-(ESP321-PadP12)*
X136445000Y-91995000D03*
G04 #@! TO.P,ESP321,P22*
G04 #@! TO.N,Net-(0x48-Pad10)*
X136445000Y-76755000D03*
G04 #@! TO.P,ESP321,P13*
G04 #@! TO.N,Net-(ESP321-PadP13)*
X136445000Y-94535000D03*
G04 #@! TO.P,ESP321,VBAT*
G04 #@! TO.N,Net-(ESP321-PadVBAT)*
X136445000Y-102155000D03*
G04 #@! TO.P,ESP321,P33*
G04 #@! TO.N,Net-(ESP321-PadP33)*
X136445000Y-86915000D03*
G04 #@! TO.P,ESP321,P14*
G04 #@! TO.N,Net-(0x48-Pad2)*
X136445000Y-79295000D03*
G04 #@! TO.P,ESP321,VUSB*
G04 #@! TO.N,Net-(ESP321-PadVUSB)*
G04 #@! TA.AperFunction,ComponentPad*
G36*
G01*
X135595000Y-97500000D02*
X135595000Y-96650000D01*
G75*
G02*
X136020000Y-96225000I425000J0D01*
G01*
X136870000Y-96225000D01*
G75*
G02*
X137295000Y-96650000I0J-425000D01*
G01*
X137295000Y-97500000D01*
G75*
G02*
X136870000Y-97925000I-425000J0D01*
G01*
X136020000Y-97925000D01*
G75*
G02*
X135595000Y-97500000I0J425000D01*
G01*
G37*
G04 #@! TD.AperFunction*
G04 #@! TO.P,ESP321,EN*
G04 #@! TO.N,Net-(ESP321-PadEN)*
X136445000Y-99615000D03*
G04 #@! TO.P,ESP321,P27*
G04 #@! TO.N,Net-(ESP321-PadP27)*
X136445000Y-89455000D03*
G04 #@! TO.P,ESP321,P32*
G04 #@! TO.N,Net-(0x49-Pad2)*
X136445000Y-81835000D03*
G04 #@! TO.P,ESP321,P23*
G04 #@! TO.N,Net-(0x48-Pad9)*
X136445000Y-74215000D03*
G04 #@! TO.P,ESP321,P15*
G04 #@! TO.N,Net-(ESP321-PadP15)*
X136445000Y-84375000D03*
G04 #@! TD*
D15*
G04 #@! TO.P,0x48,3*
G04 #@! TO.N,GND*
X106680000Y-62230000D03*
G04 #@! TO.P,0x48,8*
G04 #@! TO.N,Net-(0x48-Pad8)*
G04 #@! TA.AperFunction,ComponentPad*
G36*
G01*
X105830000Y-60115000D02*
X105830000Y-59265000D01*
G75*
G02*
X106255000Y-58840000I425000J0D01*
G01*
X107105000Y-58840000D01*
G75*
G02*
X107530000Y-59265000I0J-425000D01*
G01*
X107530000Y-60115000D01*
G75*
G02*
X107105000Y-60540000I-425000J0D01*
G01*
X106255000Y-60540000D01*
G75*
G02*
X105830000Y-60115000I0J425000D01*
G01*
G37*
G04 #@! TD.AperFunction*
D14*
G04 #@! TO.P,0x48,1*
G04 #@! TO.N,GND*
X106680000Y-69850000D03*
G04 #@! TO.P,0x48,5*
G04 #@! TO.N,Net-(0x48-Pad5)*
X106680000Y-77470000D03*
G04 #@! TO.P,0x48,9*
G04 #@! TO.N,Net-(0x48-Pad9)*
X106680000Y-67310000D03*
G04 #@! TO.P,0x48,7*
G04 #@! TO.N,Net-(0x48-Pad7)*
X106680000Y-82550000D03*
G04 #@! TO.P,0x48,10*
G04 #@! TO.N,Net-(0x48-Pad10)*
X106680000Y-64770000D03*
G04 #@! TO.P,0x48,2*
G04 #@! TO.N,Net-(0x48-Pad2)*
X106680000Y-72390000D03*
G04 #@! TO.P,0x48,4*
G04 #@! TO.N,Net-(0x48-Pad4)*
X106680000Y-74930000D03*
G04 #@! TO.P,0x48,6*
G04 #@! TO.N,Net-(0x48-Pad6)*
X106680000Y-80010000D03*
G04 #@! TD*
D15*
G04 #@! TO.P,0x49,3*
G04 #@! TO.N,GND*
X106680000Y-93980000D03*
G04 #@! TO.P,0x49,8*
G04 #@! TO.N,Net-(0x48-Pad8)*
G04 #@! TA.AperFunction,ComponentPad*
G36*
G01*
X105830000Y-91865000D02*
X105830000Y-91015000D01*
G75*
G02*
X106255000Y-90590000I425000J0D01*
G01*
X107105000Y-90590000D01*
G75*
G02*
X107530000Y-91015000I0J-425000D01*
G01*
X107530000Y-91865000D01*
G75*
G02*
X107105000Y-92290000I-425000J0D01*
G01*
X106255000Y-92290000D01*
G75*
G02*
X105830000Y-91865000I0J425000D01*
G01*
G37*
G04 #@! TD.AperFunction*
D14*
G04 #@! TO.P,0x49,1*
X106680000Y-101600000D03*
G04 #@! TO.P,0x49,5*
G04 #@! TO.N,Net-(0x49-Pad5)*
X106680000Y-109220000D03*
G04 #@! TO.P,0x49,9*
G04 #@! TO.N,Net-(0x48-Pad9)*
X106680000Y-99060000D03*
G04 #@! TO.P,0x49,7*
G04 #@! TO.N,Net-(0x49-Pad7)*
X106680000Y-114300000D03*
G04 #@! TO.P,0x49,10*
G04 #@! TO.N,Net-(0x48-Pad10)*
X106680000Y-96520000D03*
G04 #@! TO.P,0x49,2*
G04 #@! TO.N,Net-(0x49-Pad2)*
X106680000Y-104140000D03*
G04 #@! TO.P,0x49,4*
G04 #@! TO.N,Net-(0x49-Pad4)*
X106680000Y-106680000D03*
G04 #@! TO.P,0x49,6*
G04 #@! TO.N,Net-(0x49-Pad6)*
X106680000Y-111760000D03*
G04 #@! TD*
D12*
G04 #@! TO.P,R3,2*
G04 #@! TO.N,Net-(0x48-Pad9)*
X149860000Y-90170000D03*
D13*
G04 #@! TO.P,R3,1*
G04 #@! TO.N,Net-(0x48-Pad8)*
X149860000Y-100330000D03*
G04 #@! TD*
D12*
G04 #@! TO.P,R7,2*
G04 #@! TO.N,Net-(0x48-Pad10)*
X143510000Y-74930000D03*
D13*
G04 #@! TO.P,R7,1*
G04 #@! TO.N,Net-(0x48-Pad8)*
X143510000Y-85090000D03*
G04 #@! TD*
D12*
G04 #@! TO.P,R5,2*
G04 #@! TO.N,Net-(0x49-Pad2)*
X149860000Y-74930000D03*
D13*
G04 #@! TO.P,R5,1*
G04 #@! TO.N,Net-(0x48-Pad8)*
X149860000Y-85090000D03*
G04 #@! TD*
D12*
G04 #@! TO.P,R6,2*
G04 #@! TO.N,Net-(0x48-Pad2)*
X143510000Y-90170000D03*
D13*
G04 #@! TO.P,R6,1*
G04 #@! TO.N,Net-(0x48-Pad8)*
X143510000Y-100330000D03*
G04 #@! TD*
D17*
G04 #@! TO.P,C1,2*
G04 #@! TO.N,GND*
X142240000Y-111760000D03*
G04 #@! TO.P,C1,1*
G04 #@! TO.N,Net-(0x48-Pad8)*
X152240000Y-111760000D03*
G04 #@! TD*
D12*
G04 #@! TO.P,R4,2*
G04 #@! TO.N,GND*
X114300000Y-59690000D03*
D13*
G04 #@! TO.P,R4,1*
G04 #@! TO.N,Net-(0x48-Pad5)*
X124460000Y-59690000D03*
G04 #@! TD*
D12*
G04 #@! TO.P,R2,2*
G04 #@! TO.N,GND*
X114300000Y-64770000D03*
D13*
G04 #@! TO.P,R2,1*
G04 #@! TO.N,Net-(0x48-Pad4)*
X124460000Y-64770000D03*
G04 #@! TD*
D12*
G04 #@! TO.P,R1,2*
G04 #@! TO.N,Net-(0x48-Pad4)*
X124460000Y-69850000D03*
D13*
G04 #@! TO.P,R1,1*
G04 #@! TO.N,Net-(0x48-Pad8)*
X114300000Y-69850000D03*
G04 #@! TD*
D11*
G04 #@! TO.P,PT1000,2*
G04 #@! TO.N,Net-(0x48-Pad5)*
X133350000Y-63500000D03*
G04 #@! TO.P,PT1000,1*
G04 #@! TO.N,Net-(0x48-Pad8)*
G04 #@! TA.AperFunction,ComponentPad*
G36*
G01*
X136990000Y-62950000D02*
X136990000Y-64050000D01*
G75*
G02*
X136440000Y-64600000I-550000J0D01*
G01*
X135340000Y-64600000D01*
G75*
G02*
X134790000Y-64050000I0J550000D01*
G01*
X134790000Y-62950000D01*
G75*
G02*
X135340000Y-62400000I550000J0D01*
G01*
X136440000Y-62400000D01*
G75*
G02*
X136990000Y-62950000I0J-550000D01*
G01*
G37*
G04 #@! TD.AperFunction*
G04 #@! TD*
D18*
G04 #@! TO.N,Net-(0x48-Pad7)*
X135373400Y-70214000D03*
G04 #@! TD*
D19*
G04 #@! TO.N,Net-(0x48-Pad2)*
X143510000Y-90170000D02*
X143510000Y-88894700D01*
X143510000Y-88894700D02*
X142234700Y-87619400D01*
X142234700Y-87619400D02*
X142234700Y-85084700D01*
X142234700Y-85084700D02*
X136445000Y-79295000D01*
G04 #@! TO.N,Net-(0x48-Pad4)*
X124460000Y-69850000D02*
X124460000Y-64770000D01*
G04 #@! TO.N,Net-(0x48-Pad5)*
X124460000Y-61507200D02*
X108497200Y-77470000D01*
X108497200Y-77470000D02*
X106680000Y-77470000D01*
X124460000Y-59690000D02*
X124460000Y-61507200D01*
X133350000Y-63500000D02*
X126452800Y-63500000D01*
X126452800Y-63500000D02*
X124460000Y-61507200D01*
G04 #@! TO.N,Net-(0x48-Pad6)*
X106680000Y-80010000D02*
X108005300Y-80010000D01*
X108005300Y-80010000D02*
X115591100Y-72424200D01*
X115591100Y-72424200D02*
X129552000Y-72424200D01*
X129552000Y-72424200D02*
X142056700Y-59919500D01*
X142056700Y-59919500D02*
X156637100Y-59919500D01*
X156637100Y-59919500D02*
X161793000Y-65075400D01*
X161793000Y-65075400D02*
X165176300Y-65075400D01*
X165176300Y-65075400D02*
X166370000Y-63881700D01*
X166370000Y-63881700D02*
X166370000Y-63500000D01*
G04 #@! TO.N,Net-(0x48-Pad7)*
X106680000Y-82550000D02*
X108005300Y-82550000D01*
X108005300Y-82550000D02*
X115625300Y-74930000D01*
X115625300Y-74930000D02*
X130657400Y-74930000D01*
X130657400Y-74930000D02*
X135373400Y-70214000D01*
G04 #@! TO.N,Net-(0x48-Pad8)*
X149860000Y-85090000D02*
X143510000Y-85090000D01*
X114300000Y-67310000D02*
X106680000Y-59690000D01*
X114300000Y-69850000D02*
X114300000Y-67310000D01*
X135890000Y-63500000D02*
X134620000Y-62230000D01*
X134620000Y-62230000D02*
X134620000Y-60709800D01*
X134620000Y-60709800D02*
X132313500Y-58403300D01*
X132313500Y-58403300D02*
X123206700Y-58403300D01*
X123206700Y-58403300D02*
X114300000Y-67310000D01*
X106680000Y-91440000D02*
X108007000Y-92767000D01*
X108007000Y-92767000D02*
X108007000Y-100273000D01*
X108007000Y-100273000D02*
X106680000Y-101600000D01*
X125743300Y-103505700D02*
X125743300Y-109206700D01*
X125743300Y-109206700D02*
X124460000Y-110490000D01*
X124460000Y-90170000D02*
X125743300Y-91453300D01*
X125743300Y-91453300D02*
X125743300Y-103505700D01*
X125743300Y-103505700D02*
X140334300Y-103505700D01*
X140334300Y-103505700D02*
X143510000Y-100330000D01*
G04 #@! TO.N,Net-(0x48-Pad9)*
X149860000Y-90170000D02*
X149860000Y-88894700D01*
X149860000Y-88894700D02*
X151135300Y-87619400D01*
X151135300Y-87619400D02*
X151135300Y-84521900D01*
X151135300Y-84521900D02*
X140828400Y-74215000D01*
X140828400Y-74215000D02*
X136445000Y-74215000D01*
G04 #@! TO.N,Net-(0x48-Pad10)*
X104140000Y-95180500D02*
X106680000Y-96520000D01*
X104140000Y-67310000D02*
X104140000Y-95180500D01*
X106680000Y-64770000D02*
X104140000Y-67310000D01*
G04 #@! TO.N,Net-(0x49-Pad7)*
X106680000Y-114300000D02*
X112041500Y-108938500D01*
X112041500Y-108938500D02*
X112041500Y-102588500D01*
X112041500Y-102588500D02*
X114300000Y-100330000D01*
X114300000Y-100330000D02*
X114300000Y-98503000D01*
X114300000Y-98503000D02*
X129982300Y-82820700D01*
X129982300Y-82820700D02*
X129982300Y-78795500D01*
X129982300Y-78795500D02*
X139953500Y-68824300D01*
X139953500Y-68824300D02*
X148345700Y-68824300D01*
X148345700Y-68824300D02*
X153670000Y-63500000D01*
G04 #@! TO.N,Net-(0x49-Pad6)*
X114300000Y-110490000D02*
X114300000Y-105410000D01*
G04 #@! TO.N,Net-(0x49-Pad5)*
X115607800Y-81317800D02*
X114300000Y-80010000D01*
X106680000Y-109220000D02*
X111336900Y-104563100D01*
X111336900Y-104563100D02*
X111336900Y-95868800D01*
X111336900Y-95868800D02*
X115607800Y-91597900D01*
X115607800Y-91597900D02*
X115607800Y-81317800D01*
X115607800Y-81317800D02*
X125692200Y-81317800D01*
X125692200Y-81317800D02*
X143510000Y-63500000D01*
G04 #@! TO.N,Net-(0x49-Pad4)*
X114300000Y-90170000D02*
X114300000Y-91445300D01*
X106680000Y-106680000D02*
X109458800Y-103901200D01*
X109458800Y-103901200D02*
X109458800Y-96286500D01*
X109458800Y-96286500D02*
X114300000Y-91445300D01*
X114300000Y-90170000D02*
X114300000Y-85090000D01*
G04 #@! TO.N,Net-(ESP321-PadP21)*
X156765000Y-74215000D02*
X160020000Y-77470000D01*
X160020000Y-77470000D02*
X173990000Y-77470000D01*
G04 #@! TO.N,Net-(ESP321-PadP33)*
X136445000Y-86915000D02*
X148453100Y-98923100D01*
X148453100Y-98923100D02*
X148453100Y-105882600D01*
X148453100Y-105882600D02*
X156220700Y-113650200D01*
X156220700Y-113650200D02*
X157311200Y-113650200D01*
X157311200Y-113650200D02*
X170400200Y-100561200D01*
X170400200Y-100561200D02*
X170400200Y-98839800D01*
X170400200Y-98839800D02*
X173990000Y-95250000D01*
G04 #@! TO.N,GND*
X106680000Y-62230000D02*
X107950000Y-63500000D01*
G04 #@! TD*
D20*
G04 #@! TO.N,GND*
X185293000Y-121788517D02*
X95377000Y-121797484D01*
X95377000Y-119159872D01*
X95555000Y-119159872D01*
X95555000Y-119600128D01*
X95640890Y-120031925D01*
X95809369Y-120438669D01*
X96053962Y-120804729D01*
X96365271Y-121116038D01*
X96731331Y-121360631D01*
X97138075Y-121529110D01*
X97569872Y-121615000D01*
X98010128Y-121615000D01*
X98441925Y-121529110D01*
X98848669Y-121360631D01*
X99214729Y-121116038D01*
X99526038Y-120804729D01*
X99770631Y-120438669D01*
X99939110Y-120031925D01*
X100025000Y-119600128D01*
X100025000Y-119159872D01*
X180645000Y-119159872D01*
X180645000Y-119600128D01*
X180730890Y-120031925D01*
X180899369Y-120438669D01*
X181143962Y-120804729D01*
X181455271Y-121116038D01*
X181821331Y-121360631D01*
X182228075Y-121529110D01*
X182659872Y-121615000D01*
X183100128Y-121615000D01*
X183531925Y-121529110D01*
X183938669Y-121360631D01*
X184304729Y-121116038D01*
X184616038Y-120804729D01*
X184860631Y-120438669D01*
X185029110Y-120031925D01*
X185115000Y-119600128D01*
X185115000Y-119159872D01*
X185029110Y-118728075D01*
X184860631Y-118321331D01*
X184616038Y-117955271D01*
X184304729Y-117643962D01*
X183938669Y-117399369D01*
X183531925Y-117230890D01*
X183100128Y-117145000D01*
X182659872Y-117145000D01*
X182228075Y-117230890D01*
X181821331Y-117399369D01*
X181455271Y-117643962D01*
X181143962Y-117955271D01*
X180899369Y-118321331D01*
X180730890Y-118728075D01*
X180645000Y-119159872D01*
X100025000Y-119159872D01*
X99939110Y-118728075D01*
X99770631Y-118321331D01*
X99526038Y-117955271D01*
X99214729Y-117643962D01*
X98848669Y-117399369D01*
X98441925Y-117230890D01*
X98010128Y-117145000D01*
X97569872Y-117145000D01*
X97138075Y-117230890D01*
X96731331Y-117399369D01*
X96365271Y-117643962D01*
X96053962Y-117955271D01*
X95809369Y-118321331D01*
X95640890Y-118728075D01*
X95555000Y-119159872D01*
X95377000Y-119159872D01*
X95377000Y-67310000D01*
X103326081Y-67310000D01*
X103330000Y-67349788D01*
X103330001Y-95103004D01*
X103329569Y-95105241D01*
X103330001Y-95182773D01*
X103330001Y-95220291D01*
X103330223Y-95222541D01*
X103330458Y-95264793D01*
X103338024Y-95301752D01*
X103341721Y-95339288D01*
X103353984Y-95379712D01*
X103362458Y-95421108D01*
X103377090Y-95455883D01*
X103388038Y-95491973D01*
X103407951Y-95529227D01*
X103424339Y-95568176D01*
X103445472Y-95599425D01*
X103463252Y-95632689D01*
X103490054Y-95665348D01*
X103513722Y-95700345D01*
X103540541Y-95726867D01*
X103564473Y-95756028D01*
X103597134Y-95782832D01*
X103627172Y-95812537D01*
X103658653Y-95833319D01*
X103687812Y-95857249D01*
X103725068Y-95877163D01*
X103726962Y-95878413D01*
X103760258Y-95895972D01*
X103828528Y-95932463D01*
X103830706Y-95933124D01*
X105195000Y-96652601D01*
X105195000Y-96666260D01*
X105252068Y-96953158D01*
X105364010Y-97223411D01*
X105526525Y-97466632D01*
X105733368Y-97673475D01*
X105907760Y-97790000D01*
X105733368Y-97906525D01*
X105526525Y-98113368D01*
X105364010Y-98356589D01*
X105252068Y-98626842D01*
X105195000Y-98913740D01*
X105195000Y-99206260D01*
X105252068Y-99493158D01*
X105364010Y-99763411D01*
X105526525Y-100006632D01*
X105733368Y-100213475D01*
X105907760Y-100330000D01*
X105733368Y-100446525D01*
X105526525Y-100653368D01*
X105364010Y-100896589D01*
X105252068Y-101166842D01*
X105195000Y-101453740D01*
X105195000Y-101746260D01*
X105252068Y-102033158D01*
X105364010Y-102303411D01*
X105526525Y-102546632D01*
X105733368Y-102753475D01*
X105907760Y-102870000D01*
X105733368Y-102986525D01*
X105526525Y-103193368D01*
X105364010Y-103436589D01*
X105252068Y-103706842D01*
X105195000Y-103993740D01*
X105195000Y-104286260D01*
X105252068Y-104573158D01*
X105364010Y-104843411D01*
X105526525Y-105086632D01*
X105733368Y-105293475D01*
X105907760Y-105410000D01*
X105733368Y-105526525D01*
X105526525Y-105733368D01*
X105364010Y-105976589D01*
X105252068Y-106246842D01*
X105195000Y-106533740D01*
X105195000Y-106826260D01*
X105252068Y-107113158D01*
X105364010Y-107383411D01*
X105526525Y-107626632D01*
X105733368Y-107833475D01*
X105907760Y-107950000D01*
X105733368Y-108066525D01*
X105526525Y-108273368D01*
X105364010Y-108516589D01*
X105252068Y-108786842D01*
X105195000Y-109073740D01*
X105195000Y-109366260D01*
X105252068Y-109653158D01*
X105364010Y-109923411D01*
X105526525Y-110166632D01*
X105733368Y-110373475D01*
X105907760Y-110490000D01*
X105733368Y-110606525D01*
X105526525Y-110813368D01*
X105364010Y-111056589D01*
X105252068Y-111326842D01*
X105195000Y-111613740D01*
X105195000Y-111906260D01*
X105252068Y-112193158D01*
X105364010Y-112463411D01*
X105526525Y-112706632D01*
X105733368Y-112913475D01*
X105907760Y-113030000D01*
X105733368Y-113146525D01*
X105526525Y-113353368D01*
X105364010Y-113596589D01*
X105252068Y-113866842D01*
X105195000Y-114153740D01*
X105195000Y-114446260D01*
X105252068Y-114733158D01*
X105364010Y-115003411D01*
X105526525Y-115246632D01*
X105733368Y-115453475D01*
X105976589Y-115615990D01*
X106246842Y-115727932D01*
X106533740Y-115785000D01*
X106826260Y-115785000D01*
X107113158Y-115727932D01*
X107383411Y-115615990D01*
X107626632Y-115453475D01*
X107833475Y-115246632D01*
X107995990Y-115003411D01*
X108107932Y-114733158D01*
X108165000Y-114446260D01*
X108165000Y-114153740D01*
X108132941Y-113992571D01*
X109230099Y-112895413D01*
X141284192Y-112895413D01*
X141379956Y-113159814D01*
X141669571Y-113300704D01*
X141981108Y-113382384D01*
X142302595Y-113401718D01*
X142621675Y-113357961D01*
X142926088Y-113252795D01*
X143100044Y-113159814D01*
X143195808Y-112895413D01*
X142240000Y-111939605D01*
X141284192Y-112895413D01*
X109230099Y-112895413D01*
X112586119Y-109539394D01*
X112617028Y-109514028D01*
X112672619Y-109446290D01*
X112718249Y-109390690D01*
X112793462Y-109249974D01*
X112793463Y-109249973D01*
X112839780Y-109097288D01*
X112851500Y-108978291D01*
X112851500Y-108978289D01*
X112855419Y-108938501D01*
X112851500Y-108898713D01*
X112851500Y-105268665D01*
X112865000Y-105268665D01*
X112865000Y-105551335D01*
X112920147Y-105828574D01*
X113028320Y-106089727D01*
X113185363Y-106324759D01*
X113385241Y-106524637D01*
X113490001Y-106594635D01*
X113490000Y-109305365D01*
X113385241Y-109375363D01*
X113185363Y-109575241D01*
X113028320Y-109810273D01*
X112920147Y-110071426D01*
X112865000Y-110348665D01*
X112865000Y-110631335D01*
X112920147Y-110908574D01*
X113028320Y-111169727D01*
X113185363Y-111404759D01*
X113385241Y-111604637D01*
X113620273Y-111761680D01*
X113881426Y-111869853D01*
X114158665Y-111925000D01*
X114441335Y-111925000D01*
X114718574Y-111869853D01*
X114979727Y-111761680D01*
X115214759Y-111604637D01*
X115414637Y-111404759D01*
X115571680Y-111169727D01*
X115679853Y-110908574D01*
X115735000Y-110631335D01*
X115735000Y-110348665D01*
X115679853Y-110071426D01*
X115571680Y-109810273D01*
X115414637Y-109575241D01*
X115214759Y-109375363D01*
X115110000Y-109305365D01*
X115110000Y-106594635D01*
X115214759Y-106524637D01*
X115414637Y-106324759D01*
X115571680Y-106089727D01*
X115679853Y-105828574D01*
X115693684Y-105759039D01*
X123068096Y-105759039D01*
X123108754Y-105893087D01*
X123228963Y-106147420D01*
X123396481Y-106373414D01*
X123604869Y-106562385D01*
X123846119Y-106707070D01*
X124110960Y-106801909D01*
X124333000Y-106680624D01*
X124333000Y-105537000D01*
X123190085Y-105537000D01*
X123068096Y-105759039D01*
X115693684Y-105759039D01*
X115735000Y-105551335D01*
X115735000Y-105268665D01*
X115693685Y-105060961D01*
X123068096Y-105060961D01*
X123190085Y-105283000D01*
X124333000Y-105283000D01*
X124333000Y-104139376D01*
X124110960Y-104018091D01*
X123846119Y-104112930D01*
X123604869Y-104257615D01*
X123396481Y-104446586D01*
X123228963Y-104672580D01*
X123108754Y-104926913D01*
X123068096Y-105060961D01*
X115693685Y-105060961D01*
X115679853Y-104991426D01*
X115571680Y-104730273D01*
X115414637Y-104495241D01*
X115214759Y-104295363D01*
X114979727Y-104138320D01*
X114718574Y-104030147D01*
X114441335Y-103975000D01*
X114158665Y-103975000D01*
X113881426Y-104030147D01*
X113620273Y-104138320D01*
X113385241Y-104295363D01*
X113185363Y-104495241D01*
X113028320Y-104730273D01*
X112920147Y-104991426D01*
X112865000Y-105268665D01*
X112851500Y-105268665D01*
X112851500Y-102924012D01*
X114035093Y-101740420D01*
X114158665Y-101765000D01*
X114441335Y-101765000D01*
X114718574Y-101709853D01*
X114979727Y-101601680D01*
X115214759Y-101444637D01*
X115414637Y-101244759D01*
X115571680Y-101009727D01*
X115679853Y-100748574D01*
X115693684Y-100679039D01*
X123068096Y-100679039D01*
X123108754Y-100813087D01*
X123228963Y-101067420D01*
X123396481Y-101293414D01*
X123604869Y-101482385D01*
X123846119Y-101627070D01*
X124110960Y-101721909D01*
X124333000Y-101600624D01*
X124333000Y-100457000D01*
X123190085Y-100457000D01*
X123068096Y-100679039D01*
X115693684Y-100679039D01*
X115735000Y-100471335D01*
X115735000Y-100188665D01*
X115693685Y-99980961D01*
X123068096Y-99980961D01*
X123190085Y-100203000D01*
X124333000Y-100203000D01*
X124333000Y-99059376D01*
X124110960Y-98938091D01*
X123846119Y-99032930D01*
X123604869Y-99177615D01*
X123396481Y-99366586D01*
X123228963Y-99592580D01*
X123108754Y-99846913D01*
X123068096Y-99980961D01*
X115693685Y-99980961D01*
X115679853Y-99911426D01*
X115571680Y-99650273D01*
X115414637Y-99415241D01*
X115214759Y-99215363D01*
X115110000Y-99145365D01*
X115110000Y-98838512D01*
X123162096Y-90786417D01*
X123188320Y-90849727D01*
X123345363Y-91084759D01*
X123545241Y-91284637D01*
X123780273Y-91441680D01*
X124041426Y-91549853D01*
X124318665Y-91605000D01*
X124601335Y-91605000D01*
X124724907Y-91580420D01*
X124933300Y-91788813D01*
X124933301Y-98982588D01*
X124809040Y-98938091D01*
X124587000Y-99059376D01*
X124587000Y-100203000D01*
X124607000Y-100203000D01*
X124607000Y-100457000D01*
X124587000Y-100457000D01*
X124587000Y-101600624D01*
X124809040Y-101721909D01*
X124933301Y-101677411D01*
X124933301Y-103465899D01*
X124929381Y-103505700D01*
X124933300Y-103545491D01*
X124933300Y-104062588D01*
X124809040Y-104018091D01*
X124587000Y-104139376D01*
X124587000Y-105283000D01*
X124607000Y-105283000D01*
X124607000Y-105537000D01*
X124587000Y-105537000D01*
X124587000Y-106680624D01*
X124809040Y-106801909D01*
X124933301Y-106757412D01*
X124933301Y-108871186D01*
X124724907Y-109079580D01*
X124601335Y-109055000D01*
X124318665Y-109055000D01*
X124041426Y-109110147D01*
X123780273Y-109218320D01*
X123545241Y-109375363D01*
X123345363Y-109575241D01*
X123188320Y-109810273D01*
X123080147Y-110071426D01*
X123025000Y-110348665D01*
X123025000Y-110631335D01*
X123080147Y-110908574D01*
X123188320Y-111169727D01*
X123345363Y-111404759D01*
X123545241Y-111604637D01*
X123780273Y-111761680D01*
X124041426Y-111869853D01*
X124318665Y-111925000D01*
X124601335Y-111925000D01*
X124878574Y-111869853D01*
X124992665Y-111822595D01*
X140598282Y-111822595D01*
X140642039Y-112141675D01*
X140747205Y-112446088D01*
X140840186Y-112620044D01*
X141104587Y-112715808D01*
X142060395Y-111760000D01*
X142419605Y-111760000D01*
X143375413Y-112715808D01*
X143639814Y-112620044D01*
X143780704Y-112330429D01*
X143862384Y-112018892D01*
X143881718Y-111697405D01*
X143837961Y-111378325D01*
X143732795Y-111073912D01*
X143639814Y-110899956D01*
X143375413Y-110804192D01*
X142419605Y-111760000D01*
X142060395Y-111760000D01*
X141104587Y-110804192D01*
X140840186Y-110899956D01*
X140699296Y-111189571D01*
X140617616Y-111501108D01*
X140598282Y-111822595D01*
X124992665Y-111822595D01*
X125139727Y-111761680D01*
X125374759Y-111604637D01*
X125574637Y-111404759D01*
X125731680Y-111169727D01*
X125839853Y-110908574D01*
X125895000Y-110631335D01*
X125895000Y-110624587D01*
X141284192Y-110624587D01*
X142240000Y-111580395D01*
X143195808Y-110624587D01*
X143100044Y-110360186D01*
X142810429Y-110219296D01*
X142498892Y-110137616D01*
X142177405Y-110118282D01*
X141858325Y-110162039D01*
X141553912Y-110267205D01*
X141379956Y-110360186D01*
X141284192Y-110624587D01*
X125895000Y-110624587D01*
X125895000Y-110348665D01*
X125870420Y-110225093D01*
X126287918Y-109807595D01*
X126318828Y-109782228D01*
X126394137Y-109690463D01*
X126420049Y-109658890D01*
X126495262Y-109518174D01*
X126495263Y-109518173D01*
X126541580Y-109365488D01*
X126553300Y-109246491D01*
X126553300Y-109246489D01*
X126557219Y-109206701D01*
X126553300Y-109166913D01*
X126553300Y-104315700D01*
X140294512Y-104315700D01*
X140334300Y-104319619D01*
X140374088Y-104315700D01*
X140374091Y-104315700D01*
X140493088Y-104303980D01*
X140645773Y-104257663D01*
X140786489Y-104182449D01*
X140909828Y-104081228D01*
X140935200Y-104050312D01*
X143245093Y-101740420D01*
X143368665Y-101765000D01*
X143651335Y-101765000D01*
X143928574Y-101709853D01*
X144189727Y-101601680D01*
X144424759Y-101444637D01*
X144624637Y-101244759D01*
X144781680Y-101009727D01*
X144889853Y-100748574D01*
X144945000Y-100471335D01*
X144945000Y-100188665D01*
X144889853Y-99911426D01*
X144781680Y-99650273D01*
X144624637Y-99415241D01*
X144424759Y-99215363D01*
X144189727Y-99058320D01*
X143928574Y-98950147D01*
X143651335Y-98895000D01*
X143368665Y-98895000D01*
X143091426Y-98950147D01*
X142830273Y-99058320D01*
X142595241Y-99215363D01*
X142395363Y-99415241D01*
X142238320Y-99650273D01*
X142130147Y-99911426D01*
X142075000Y-100188665D01*
X142075000Y-100471335D01*
X142099580Y-100594907D01*
X139998788Y-102695700D01*
X137828387Y-102695700D01*
X137872932Y-102588158D01*
X137930000Y-102301260D01*
X137930000Y-102008740D01*
X137872932Y-101721842D01*
X137760990Y-101451589D01*
X137598475Y-101208368D01*
X137391632Y-101001525D01*
X137217240Y-100885000D01*
X137391632Y-100768475D01*
X137598475Y-100561632D01*
X137760990Y-100318411D01*
X137872932Y-100048158D01*
X137930000Y-99761260D01*
X137930000Y-99468740D01*
X137872932Y-99181842D01*
X137760990Y-98911589D01*
X137598475Y-98668368D01*
X137391632Y-98461525D01*
X137357755Y-98438889D01*
X137460611Y-98383912D01*
X137621705Y-98251705D01*
X137753912Y-98090611D01*
X137852150Y-97906820D01*
X137912645Y-97707395D01*
X137933072Y-97500000D01*
X137933072Y-96650000D01*
X137912645Y-96442605D01*
X137852150Y-96243180D01*
X137753912Y-96059389D01*
X137621705Y-95898295D01*
X137460611Y-95766088D01*
X137357755Y-95711111D01*
X137391632Y-95688475D01*
X137598475Y-95481632D01*
X137760990Y-95238411D01*
X137872932Y-94968158D01*
X137930000Y-94681260D01*
X137930000Y-94388740D01*
X137872932Y-94101842D01*
X137760990Y-93831589D01*
X137598475Y-93588368D01*
X137391632Y-93381525D01*
X137217240Y-93265000D01*
X137391632Y-93148475D01*
X137598475Y-92941632D01*
X137760990Y-92698411D01*
X137872932Y-92428158D01*
X137930000Y-92141260D01*
X137930000Y-91848740D01*
X137872932Y-91561842D01*
X137760990Y-91291589D01*
X137598475Y-91048368D01*
X137391632Y-90841525D01*
X137217240Y-90725000D01*
X137391632Y-90608475D01*
X137598475Y-90401632D01*
X137760990Y-90158411D01*
X137872932Y-89888158D01*
X137930000Y-89601260D01*
X137930000Y-89545512D01*
X147643100Y-99258613D01*
X147643101Y-105842802D01*
X147639181Y-105882600D01*
X147648439Y-105976589D01*
X147654821Y-106041388D01*
X147686986Y-106147420D01*
X147701138Y-106194073D01*
X147776351Y-106334789D01*
X147808050Y-106373414D01*
X147877573Y-106458128D01*
X147908483Y-106483495D01*
X151656832Y-110231845D01*
X151465537Y-110311082D01*
X151197748Y-110490013D01*
X150970013Y-110717748D01*
X150791082Y-110985537D01*
X150667832Y-111283088D01*
X150605000Y-111598967D01*
X150605000Y-111921033D01*
X150667832Y-112236912D01*
X150791082Y-112534463D01*
X150970013Y-112802252D01*
X151197748Y-113029987D01*
X151465537Y-113208918D01*
X151763088Y-113332168D01*
X152078967Y-113395000D01*
X152401033Y-113395000D01*
X152716912Y-113332168D01*
X153014463Y-113208918D01*
X153282252Y-113029987D01*
X153509987Y-112802252D01*
X153688918Y-112534463D01*
X153768155Y-112343168D01*
X155619805Y-114194818D01*
X155645172Y-114225728D01*
X155712910Y-114281319D01*
X155768510Y-114326949D01*
X155843724Y-114367151D01*
X155909227Y-114402163D01*
X156061912Y-114448480D01*
X156180909Y-114460200D01*
X156180911Y-114460200D01*
X156220699Y-114464119D01*
X156260487Y-114460200D01*
X157271412Y-114460200D01*
X157311200Y-114464119D01*
X157350988Y-114460200D01*
X157350991Y-114460200D01*
X157469988Y-114448480D01*
X157622673Y-114402163D01*
X157763389Y-114326949D01*
X157886728Y-114225728D01*
X157912100Y-114194812D01*
X165596912Y-106510000D01*
X173521928Y-106510000D01*
X173534188Y-106634482D01*
X173570498Y-106754180D01*
X173629463Y-106864494D01*
X173645279Y-106883766D01*
X173612365Y-106945345D01*
X173544756Y-107168219D01*
X173521928Y-107400000D01*
X173521928Y-108500000D01*
X173544756Y-108731781D01*
X173612365Y-108954655D01*
X173722154Y-109160057D01*
X173869906Y-109340094D01*
X174049943Y-109487846D01*
X174255345Y-109597635D01*
X174478219Y-109665244D01*
X174710000Y-109688072D01*
X175810000Y-109688072D01*
X176041781Y-109665244D01*
X176264655Y-109597635D01*
X176470057Y-109487846D01*
X176650094Y-109340094D01*
X176797846Y-109160057D01*
X176907635Y-108954655D01*
X176959113Y-108784957D01*
X177044606Y-108870450D01*
X177238692Y-109000134D01*
X177454348Y-109089461D01*
X177683288Y-109135000D01*
X177916712Y-109135000D01*
X178145652Y-109089461D01*
X178361308Y-109000134D01*
X178555394Y-108870450D01*
X178720450Y-108705394D01*
X178850134Y-108511308D01*
X178939461Y-108295652D01*
X178985000Y-108066712D01*
X178985000Y-107833288D01*
X178939461Y-107604348D01*
X178850134Y-107388692D01*
X178720450Y-107194606D01*
X178555394Y-107029550D01*
X178361308Y-106899866D01*
X178145652Y-106810539D01*
X177916712Y-106765000D01*
X177683288Y-106765000D01*
X177454348Y-106810539D01*
X177238692Y-106899866D01*
X177044606Y-107029550D01*
X176959113Y-107115043D01*
X176907635Y-106945345D01*
X176874721Y-106883766D01*
X176890537Y-106864494D01*
X176949502Y-106754180D01*
X176985812Y-106634482D01*
X176998072Y-106510000D01*
X176997216Y-106283060D01*
X177044606Y-106330450D01*
X177238692Y-106460134D01*
X177454348Y-106549461D01*
X177683288Y-106595000D01*
X177916712Y-106595000D01*
X178145652Y-106549461D01*
X178361308Y-106460134D01*
X178555394Y-106330450D01*
X178720450Y-106165394D01*
X178850134Y-105971308D01*
X178939461Y-105755652D01*
X178985000Y-105526712D01*
X178985000Y-105293288D01*
X178939461Y-105064348D01*
X178850134Y-104848692D01*
X178720450Y-104654606D01*
X178555394Y-104489550D01*
X178361308Y-104359866D01*
X178145652Y-104270539D01*
X177916712Y-104225000D01*
X177683288Y-104225000D01*
X177454348Y-104270539D01*
X177238692Y-104359866D01*
X177044606Y-104489550D01*
X176997216Y-104536940D01*
X176998072Y-104310000D01*
X176985812Y-104185518D01*
X176949502Y-104065820D01*
X176890537Y-103955506D01*
X176811185Y-103858815D01*
X176714494Y-103779463D01*
X176604180Y-103720498D01*
X176484482Y-103684188D01*
X176360000Y-103671928D01*
X175545750Y-103675000D01*
X175387000Y-103833750D01*
X175387000Y-105283000D01*
X175407000Y-105283000D01*
X175407000Y-105537000D01*
X175387000Y-105537000D01*
X175387000Y-105557000D01*
X175133000Y-105557000D01*
X175133000Y-105537000D01*
X173683750Y-105537000D01*
X173525000Y-105695750D01*
X173521928Y-106510000D01*
X165596912Y-106510000D01*
X167796912Y-104310000D01*
X173521928Y-104310000D01*
X173525000Y-105124250D01*
X173683750Y-105283000D01*
X175133000Y-105283000D01*
X175133000Y-103833750D01*
X174974250Y-103675000D01*
X174160000Y-103671928D01*
X174035518Y-103684188D01*
X173915820Y-103720498D01*
X173805506Y-103779463D01*
X173708815Y-103858815D01*
X173629463Y-103955506D01*
X173570498Y-104065820D01*
X173534188Y-104185518D01*
X173521928Y-104310000D01*
X167796912Y-104310000D01*
X170944819Y-101162094D01*
X170975728Y-101136728D01*
X171067451Y-101024963D01*
X171076949Y-101013390D01*
X171120992Y-100930990D01*
X171152163Y-100872673D01*
X171198480Y-100719988D01*
X171210200Y-100600991D01*
X171210200Y-100600989D01*
X171214119Y-100561201D01*
X171210200Y-100521413D01*
X171210200Y-99175312D01*
X172501928Y-97883584D01*
X172501928Y-98215000D01*
X172522355Y-98422395D01*
X172582850Y-98621820D01*
X172681088Y-98805611D01*
X172813295Y-98966705D01*
X172974389Y-99098912D01*
X173158180Y-99197150D01*
X173357605Y-99257645D01*
X173565000Y-99278072D01*
X174415000Y-99278072D01*
X174622395Y-99257645D01*
X174821820Y-99197150D01*
X175005611Y-99098912D01*
X175166705Y-98966705D01*
X175298912Y-98805611D01*
X175397150Y-98621820D01*
X175457645Y-98422395D01*
X175478072Y-98215000D01*
X175478072Y-97365000D01*
X175457645Y-97157605D01*
X175397150Y-96958180D01*
X175298912Y-96774389D01*
X175166705Y-96613295D01*
X175005611Y-96481088D01*
X174902755Y-96426111D01*
X174936632Y-96403475D01*
X175143475Y-96196632D01*
X175305990Y-95953411D01*
X175417932Y-95683158D01*
X175475000Y-95396260D01*
X175475000Y-95103740D01*
X175417932Y-94816842D01*
X175305990Y-94546589D01*
X175143475Y-94303368D01*
X174936632Y-94096525D01*
X174762240Y-93980000D01*
X174936632Y-93863475D01*
X175143475Y-93656632D01*
X175305990Y-93413411D01*
X175417932Y-93143158D01*
X175475000Y-92856260D01*
X175475000Y-92563740D01*
X175417932Y-92276842D01*
X175305990Y-92006589D01*
X175143475Y-91763368D01*
X174936632Y-91556525D01*
X174762240Y-91440000D01*
X174936632Y-91323475D01*
X175143475Y-91116632D01*
X175305990Y-90873411D01*
X175417932Y-90603158D01*
X175475000Y-90316260D01*
X175475000Y-90023740D01*
X175417932Y-89736842D01*
X175305990Y-89466589D01*
X175143475Y-89223368D01*
X174936632Y-89016525D01*
X174762240Y-88900000D01*
X174936632Y-88783475D01*
X175143475Y-88576632D01*
X175305990Y-88333411D01*
X175417932Y-88063158D01*
X175475000Y-87776260D01*
X175475000Y-87483740D01*
X175417932Y-87196842D01*
X175305990Y-86926589D01*
X175143475Y-86683368D01*
X175011620Y-86551513D01*
X175084180Y-86529502D01*
X175194494Y-86470537D01*
X175291185Y-86391185D01*
X175370537Y-86294494D01*
X175429502Y-86184180D01*
X175465812Y-86064482D01*
X175478072Y-85940000D01*
X175475000Y-85375750D01*
X175316250Y-85217000D01*
X174117000Y-85217000D01*
X174117000Y-85237000D01*
X173863000Y-85237000D01*
X173863000Y-85217000D01*
X172663750Y-85217000D01*
X172505000Y-85375750D01*
X172501928Y-85940000D01*
X172514188Y-86064482D01*
X172550498Y-86184180D01*
X172609463Y-86294494D01*
X172688815Y-86391185D01*
X172785506Y-86470537D01*
X172895820Y-86529502D01*
X172968380Y-86551513D01*
X172836525Y-86683368D01*
X172674010Y-86926589D01*
X172562068Y-87196842D01*
X172505000Y-87483740D01*
X172505000Y-87776260D01*
X172562068Y-88063158D01*
X172674010Y-88333411D01*
X172836525Y-88576632D01*
X173043368Y-88783475D01*
X173217760Y-88900000D01*
X173043368Y-89016525D01*
X172836525Y-89223368D01*
X172674010Y-89466589D01*
X172562068Y-89736842D01*
X172505000Y-90023740D01*
X172505000Y-90316260D01*
X172562068Y-90603158D01*
X172674010Y-90873411D01*
X172836525Y-91116632D01*
X173043368Y-91323475D01*
X173217760Y-91440000D01*
X173043368Y-91556525D01*
X172836525Y-91763368D01*
X172674010Y-92006589D01*
X172562068Y-92276842D01*
X172505000Y-92563740D01*
X172505000Y-92856260D01*
X172562068Y-93143158D01*
X172674010Y-93413411D01*
X172836525Y-93656632D01*
X173043368Y-93863475D01*
X173217760Y-93980000D01*
X173043368Y-94096525D01*
X172836525Y-94303368D01*
X172674010Y-94546589D01*
X172562068Y-94816842D01*
X172505000Y-95103740D01*
X172505000Y-95396260D01*
X172537059Y-95557429D01*
X169855583Y-98238905D01*
X169824673Y-98264272D01*
X169779052Y-98319861D01*
X169723451Y-98387611D01*
X169648238Y-98528327D01*
X169618354Y-98626842D01*
X169601921Y-98681013D01*
X169586281Y-98839800D01*
X169590201Y-98879598D01*
X169590200Y-100225687D01*
X158117106Y-111698782D01*
X158080990Y-111611589D01*
X157918475Y-111368368D01*
X157711632Y-111161525D01*
X157677755Y-111138889D01*
X157780611Y-111083912D01*
X157941705Y-110951705D01*
X158073912Y-110790611D01*
X158172150Y-110606820D01*
X158232645Y-110407395D01*
X158253072Y-110200000D01*
X158253072Y-109350000D01*
X158232645Y-109142605D01*
X158172150Y-108943180D01*
X158073912Y-108759389D01*
X157941705Y-108598295D01*
X157780611Y-108466088D01*
X157677755Y-108411111D01*
X157711632Y-108388475D01*
X157918475Y-108181632D01*
X158080990Y-107938411D01*
X158192932Y-107668158D01*
X158250000Y-107381260D01*
X158250000Y-107088740D01*
X158192932Y-106801842D01*
X158080990Y-106531589D01*
X157918475Y-106288368D01*
X157786620Y-106156513D01*
X157859180Y-106134502D01*
X157969494Y-106075537D01*
X158066185Y-105996185D01*
X158145537Y-105899494D01*
X158204502Y-105789180D01*
X158240812Y-105669482D01*
X158253072Y-105545000D01*
X158250000Y-104980750D01*
X158091250Y-104822000D01*
X156892000Y-104822000D01*
X156892000Y-104842000D01*
X156638000Y-104842000D01*
X156638000Y-104822000D01*
X155438750Y-104822000D01*
X155280000Y-104980750D01*
X155276928Y-105545000D01*
X155289188Y-105669482D01*
X155325498Y-105789180D01*
X155384463Y-105899494D01*
X155463815Y-105996185D01*
X155560506Y-106075537D01*
X155670820Y-106134502D01*
X155743380Y-106156513D01*
X155611525Y-106288368D01*
X155449010Y-106531589D01*
X155337068Y-106801842D01*
X155280000Y-107088740D01*
X155280000Y-107381260D01*
X155337068Y-107668158D01*
X155449010Y-107938411D01*
X155611525Y-108181632D01*
X155818368Y-108388475D01*
X155852245Y-108411111D01*
X155749389Y-108466088D01*
X155588295Y-108598295D01*
X155456088Y-108759389D01*
X155357850Y-108943180D01*
X155297355Y-109142605D01*
X155276928Y-109350000D01*
X155276928Y-110200000D01*
X155297355Y-110407395D01*
X155357850Y-110606820D01*
X155456088Y-110790611D01*
X155588295Y-110951705D01*
X155749389Y-111083912D01*
X155852245Y-111138889D01*
X155818368Y-111161525D01*
X155611525Y-111368368D01*
X155449010Y-111611589D01*
X155413450Y-111697438D01*
X149263100Y-105547088D01*
X149263100Y-103845000D01*
X155276928Y-103845000D01*
X155280000Y-104409250D01*
X155438750Y-104568000D01*
X156638000Y-104568000D01*
X156638000Y-104548000D01*
X156892000Y-104548000D01*
X156892000Y-104568000D01*
X158091250Y-104568000D01*
X158250000Y-104409250D01*
X158253072Y-103845000D01*
X158240812Y-103720518D01*
X158204502Y-103600820D01*
X158145537Y-103490506D01*
X158066185Y-103393815D01*
X157969494Y-103314463D01*
X157859180Y-103255498D01*
X157786620Y-103233487D01*
X157918475Y-103101632D01*
X158080990Y-102858411D01*
X158192932Y-102588158D01*
X158250000Y-102301260D01*
X158250000Y-102008740D01*
X158192932Y-101721842D01*
X158080990Y-101451589D01*
X157918475Y-101208368D01*
X157711632Y-101001525D01*
X157537240Y-100885000D01*
X157711632Y-100768475D01*
X157918475Y-100561632D01*
X158080990Y-100318411D01*
X158192932Y-100048158D01*
X158250000Y-99761260D01*
X158250000Y-99468740D01*
X158192932Y-99181842D01*
X158080990Y-98911589D01*
X157918475Y-98668368D01*
X157711632Y-98461525D01*
X157537240Y-98345000D01*
X157711632Y-98228475D01*
X157918475Y-98021632D01*
X158080990Y-97778411D01*
X158192932Y-97508158D01*
X158250000Y-97221260D01*
X158250000Y-96928740D01*
X158192932Y-96641842D01*
X158080990Y-96371589D01*
X157918475Y-96128368D01*
X157711632Y-95921525D01*
X157537240Y-95805000D01*
X157711632Y-95688475D01*
X157918475Y-95481632D01*
X158080990Y-95238411D01*
X158192932Y-94968158D01*
X158250000Y-94681260D01*
X158250000Y-94388740D01*
X158192932Y-94101842D01*
X158080990Y-93831589D01*
X157918475Y-93588368D01*
X157711632Y-93381525D01*
X157537240Y-93265000D01*
X157711632Y-93148475D01*
X157918475Y-92941632D01*
X158080990Y-92698411D01*
X158192932Y-92428158D01*
X158250000Y-92141260D01*
X158250000Y-91848740D01*
X158192932Y-91561842D01*
X158080990Y-91291589D01*
X157918475Y-91048368D01*
X157711632Y-90841525D01*
X157537240Y-90725000D01*
X157711632Y-90608475D01*
X157918475Y-90401632D01*
X158080990Y-90158411D01*
X158192932Y-89888158D01*
X158250000Y-89601260D01*
X158250000Y-89308740D01*
X158192932Y-89021842D01*
X158080990Y-88751589D01*
X157918475Y-88508368D01*
X157711632Y-88301525D01*
X157537240Y-88185000D01*
X157711632Y-88068475D01*
X157918475Y-87861632D01*
X158080990Y-87618411D01*
X158192932Y-87348158D01*
X158250000Y-87061260D01*
X158250000Y-86768740D01*
X158192932Y-86481842D01*
X158080990Y-86211589D01*
X157918475Y-85968368D01*
X157711632Y-85761525D01*
X157537240Y-85645000D01*
X157711632Y-85528475D01*
X157918475Y-85321632D01*
X158080990Y-85078411D01*
X158192932Y-84808158D01*
X158250000Y-84521260D01*
X158250000Y-84240000D01*
X172501928Y-84240000D01*
X172505000Y-84804250D01*
X172663750Y-84963000D01*
X173863000Y-84963000D01*
X173863000Y-83763750D01*
X174117000Y-83763750D01*
X174117000Y-84963000D01*
X175316250Y-84963000D01*
X175475000Y-84804250D01*
X175478072Y-84240000D01*
X175465812Y-84115518D01*
X175429502Y-83995820D01*
X175370537Y-83885506D01*
X175291185Y-83788815D01*
X175194494Y-83709463D01*
X175084180Y-83650498D01*
X174964482Y-83614188D01*
X174840000Y-83601928D01*
X174275750Y-83605000D01*
X174117000Y-83763750D01*
X173863000Y-83763750D01*
X173704250Y-83605000D01*
X173140000Y-83601928D01*
X173015518Y-83614188D01*
X172895820Y-83650498D01*
X172785506Y-83709463D01*
X172688815Y-83788815D01*
X172609463Y-83885506D01*
X172550498Y-83995820D01*
X172514188Y-84115518D01*
X172501928Y-84240000D01*
X158250000Y-84240000D01*
X158250000Y-84228740D01*
X158192932Y-83941842D01*
X158080990Y-83671589D01*
X157918475Y-83428368D01*
X157711632Y-83221525D01*
X157537240Y-83105000D01*
X157711632Y-82988475D01*
X157918475Y-82781632D01*
X158080990Y-82538411D01*
X158192932Y-82268158D01*
X158250000Y-81981260D01*
X158250000Y-81688740D01*
X158192932Y-81401842D01*
X158080990Y-81131589D01*
X157918475Y-80888368D01*
X157711632Y-80681525D01*
X157537240Y-80565000D01*
X157711632Y-80448475D01*
X157918475Y-80241632D01*
X158080990Y-79998411D01*
X158192932Y-79728158D01*
X158250000Y-79441260D01*
X158250000Y-79148740D01*
X158192932Y-78861842D01*
X158080990Y-78591589D01*
X157918475Y-78348368D01*
X157711632Y-78141525D01*
X157537240Y-78025000D01*
X157711632Y-77908475D01*
X157918475Y-77701632D01*
X158080990Y-77458411D01*
X158192932Y-77188158D01*
X158250000Y-76901260D01*
X158250000Y-76845513D01*
X159419105Y-78014618D01*
X159444472Y-78045528D01*
X159475498Y-78070990D01*
X159567810Y-78146749D01*
X159617692Y-78173411D01*
X159708527Y-78221963D01*
X159861212Y-78268280D01*
X159980209Y-78280000D01*
X159980211Y-78280000D01*
X160019999Y-78283919D01*
X160059787Y-78280000D01*
X172447562Y-78280000D01*
X172452463Y-78291831D01*
X172642337Y-78575998D01*
X172884002Y-78817663D01*
X173168169Y-79007537D01*
X173483919Y-79138325D01*
X173819117Y-79205000D01*
X174160883Y-79205000D01*
X174496081Y-79138325D01*
X174811831Y-79007537D01*
X175095998Y-78817663D01*
X175337663Y-78575998D01*
X175527537Y-78291831D01*
X175575910Y-78175048D01*
X175609550Y-78225394D01*
X175774606Y-78390450D01*
X175968692Y-78520134D01*
X176184348Y-78609461D01*
X176413288Y-78655000D01*
X176646712Y-78655000D01*
X176875652Y-78609461D01*
X177091308Y-78520134D01*
X177285394Y-78390450D01*
X177450450Y-78225394D01*
X177580134Y-78031308D01*
X177669461Y-77815652D01*
X177715000Y-77586712D01*
X177715000Y-77353288D01*
X177669461Y-77124348D01*
X177580134Y-76908692D01*
X177450450Y-76714606D01*
X177285394Y-76549550D01*
X177091308Y-76419866D01*
X176875652Y-76330539D01*
X176646712Y-76285000D01*
X176413288Y-76285000D01*
X176184348Y-76330539D01*
X175968692Y-76419866D01*
X175774606Y-76549550D01*
X175609550Y-76714606D01*
X175575910Y-76764952D01*
X175527537Y-76648169D01*
X175460310Y-76547557D01*
X175541185Y-76481185D01*
X175620537Y-76384494D01*
X175679502Y-76274180D01*
X175715812Y-76154482D01*
X175728072Y-76030000D01*
X175727216Y-75803060D01*
X175774606Y-75850450D01*
X175968692Y-75980134D01*
X176184348Y-76069461D01*
X176413288Y-76115000D01*
X176646712Y-76115000D01*
X176875652Y-76069461D01*
X177091308Y-75980134D01*
X177285394Y-75850450D01*
X177450450Y-75685394D01*
X177580134Y-75491308D01*
X177669461Y-75275652D01*
X177715000Y-75046712D01*
X177715000Y-74813288D01*
X177669461Y-74584348D01*
X177580134Y-74368692D01*
X177450450Y-74174606D01*
X177285394Y-74009550D01*
X177091308Y-73879866D01*
X176875652Y-73790539D01*
X176646712Y-73745000D01*
X176413288Y-73745000D01*
X176184348Y-73790539D01*
X175968692Y-73879866D01*
X175774606Y-74009550D01*
X175727216Y-74056940D01*
X175728072Y-73830000D01*
X175715812Y-73705518D01*
X175679502Y-73585820D01*
X175620537Y-73475506D01*
X175541185Y-73378815D01*
X175444494Y-73299463D01*
X175334180Y-73240498D01*
X175214482Y-73204188D01*
X175090000Y-73191928D01*
X174275750Y-73195000D01*
X174117000Y-73353750D01*
X174117000Y-74803000D01*
X174137000Y-74803000D01*
X174137000Y-75057000D01*
X174117000Y-75057000D01*
X174117000Y-75077000D01*
X173863000Y-75077000D01*
X173863000Y-75057000D01*
X172413750Y-75057000D01*
X172255000Y-75215750D01*
X172251928Y-76030000D01*
X172264188Y-76154482D01*
X172300498Y-76274180D01*
X172359463Y-76384494D01*
X172438815Y-76481185D01*
X172519690Y-76547557D01*
X172452463Y-76648169D01*
X172447562Y-76660000D01*
X160355513Y-76660000D01*
X158217941Y-74522429D01*
X158250000Y-74361260D01*
X158250000Y-74068740D01*
X158202512Y-73830000D01*
X172251928Y-73830000D01*
X172255000Y-74644250D01*
X172413750Y-74803000D01*
X173863000Y-74803000D01*
X173863000Y-73353750D01*
X173704250Y-73195000D01*
X172890000Y-73191928D01*
X172765518Y-73204188D01*
X172645820Y-73240498D01*
X172535506Y-73299463D01*
X172438815Y-73378815D01*
X172359463Y-73475506D01*
X172300498Y-73585820D01*
X172264188Y-73705518D01*
X172251928Y-73830000D01*
X158202512Y-73830000D01*
X158192932Y-73781842D01*
X158080990Y-73511589D01*
X157918475Y-73268368D01*
X157711632Y-73061525D01*
X157468411Y-72899010D01*
X157198158Y-72787068D01*
X156911260Y-72730000D01*
X156618740Y-72730000D01*
X156331842Y-72787068D01*
X156061589Y-72899010D01*
X155818368Y-73061525D01*
X155611525Y-73268368D01*
X155449010Y-73511589D01*
X155337068Y-73781842D01*
X155280000Y-74068740D01*
X155280000Y-74361260D01*
X155337068Y-74648158D01*
X155449010Y-74918411D01*
X155611525Y-75161632D01*
X155818368Y-75368475D01*
X155992760Y-75485000D01*
X155818368Y-75601525D01*
X155611525Y-75808368D01*
X155449010Y-76051589D01*
X155337068Y-76321842D01*
X155280000Y-76608740D01*
X155280000Y-76901260D01*
X155337068Y-77188158D01*
X155449010Y-77458411D01*
X155611525Y-77701632D01*
X155818368Y-77908475D01*
X155992760Y-78025000D01*
X155818368Y-78141525D01*
X155611525Y-78348368D01*
X155449010Y-78591589D01*
X155337068Y-78861842D01*
X155280000Y-79148740D01*
X155280000Y-79441260D01*
X155337068Y-79728158D01*
X155449010Y-79998411D01*
X155611525Y-80241632D01*
X155818368Y-80448475D01*
X155992760Y-80565000D01*
X155818368Y-80681525D01*
X155611525Y-80888368D01*
X155449010Y-81131589D01*
X155337068Y-81401842D01*
X155280000Y-81688740D01*
X155280000Y-81981260D01*
X155337068Y-82268158D01*
X155449010Y-82538411D01*
X155611525Y-82781632D01*
X155818368Y-82988475D01*
X155992760Y-83105000D01*
X155818368Y-83221525D01*
X155611525Y-83428368D01*
X155449010Y-83671589D01*
X155337068Y-83941842D01*
X155280000Y-84228740D01*
X155280000Y-84521260D01*
X155337068Y-84808158D01*
X155449010Y-85078411D01*
X155611525Y-85321632D01*
X155818368Y-85528475D01*
X155992760Y-85645000D01*
X155818368Y-85761525D01*
X155611525Y-85968368D01*
X155449010Y-86211589D01*
X155337068Y-86481842D01*
X155280000Y-86768740D01*
X155280000Y-87061260D01*
X155337068Y-87348158D01*
X155449010Y-87618411D01*
X155611525Y-87861632D01*
X155818368Y-88068475D01*
X155992760Y-88185000D01*
X155818368Y-88301525D01*
X155611525Y-88508368D01*
X155449010Y-88751589D01*
X155337068Y-89021842D01*
X155280000Y-89308740D01*
X155280000Y-89601260D01*
X155337068Y-89888158D01*
X155449010Y-90158411D01*
X155611525Y-90401632D01*
X155818368Y-90608475D01*
X155992760Y-90725000D01*
X155818368Y-90841525D01*
X155611525Y-91048368D01*
X155449010Y-91291589D01*
X155337068Y-91561842D01*
X155280000Y-91848740D01*
X155280000Y-92141260D01*
X155337068Y-92428158D01*
X155449010Y-92698411D01*
X155611525Y-92941632D01*
X155818368Y-93148475D01*
X155992760Y-93265000D01*
X155818368Y-93381525D01*
X155611525Y-93588368D01*
X155449010Y-93831589D01*
X155337068Y-94101842D01*
X155280000Y-94388740D01*
X155280000Y-94681260D01*
X155337068Y-94968158D01*
X155449010Y-95238411D01*
X155611525Y-95481632D01*
X155818368Y-95688475D01*
X155992760Y-95805000D01*
X155818368Y-95921525D01*
X155611525Y-96128368D01*
X155449010Y-96371589D01*
X155337068Y-96641842D01*
X155280000Y-96928740D01*
X155280000Y-97221260D01*
X155337068Y-97508158D01*
X155449010Y-97778411D01*
X155611525Y-98021632D01*
X155818368Y-98228475D01*
X155992760Y-98345000D01*
X155818368Y-98461525D01*
X155611525Y-98668368D01*
X155449010Y-98911589D01*
X155337068Y-99181842D01*
X155280000Y-99468740D01*
X155280000Y-99761260D01*
X155337068Y-100048158D01*
X155449010Y-100318411D01*
X155611525Y-100561632D01*
X155818368Y-100768475D01*
X155992760Y-100885000D01*
X155818368Y-101001525D01*
X155611525Y-101208368D01*
X155449010Y-101451589D01*
X155337068Y-101721842D01*
X155280000Y-102008740D01*
X155280000Y-102301260D01*
X155337068Y-102588158D01*
X155449010Y-102858411D01*
X155611525Y-103101632D01*
X155743380Y-103233487D01*
X155670820Y-103255498D01*
X155560506Y-103314463D01*
X155463815Y-103393815D01*
X155384463Y-103490506D01*
X155325498Y-103600820D01*
X155289188Y-103720518D01*
X155276928Y-103845000D01*
X149263100Y-103845000D01*
X149263100Y-101635988D01*
X149441426Y-101709853D01*
X149718665Y-101765000D01*
X150001335Y-101765000D01*
X150278574Y-101709853D01*
X150539727Y-101601680D01*
X150774759Y-101444637D01*
X150974637Y-101244759D01*
X151131680Y-101009727D01*
X151239853Y-100748574D01*
X151295000Y-100471335D01*
X151295000Y-100188665D01*
X151239853Y-99911426D01*
X151131680Y-99650273D01*
X150974637Y-99415241D01*
X150774759Y-99215363D01*
X150539727Y-99058320D01*
X150278574Y-98950147D01*
X150001335Y-98895000D01*
X149718665Y-98895000D01*
X149441426Y-98950147D01*
X149263100Y-99024012D01*
X149263100Y-98962888D01*
X149267019Y-98923100D01*
X149263100Y-98883309D01*
X149251380Y-98764312D01*
X149205063Y-98611627D01*
X149170051Y-98546124D01*
X149129849Y-98470910D01*
X149053993Y-98378480D01*
X149028628Y-98347572D01*
X148997719Y-98322206D01*
X137897941Y-87222429D01*
X137930000Y-87061260D01*
X137930000Y-86768740D01*
X137872932Y-86481842D01*
X137760990Y-86211589D01*
X137598475Y-85968368D01*
X137391632Y-85761525D01*
X137217240Y-85645000D01*
X137391632Y-85528475D01*
X137598475Y-85321632D01*
X137760990Y-85078411D01*
X137872932Y-84808158D01*
X137930000Y-84521260D01*
X137930000Y-84228740D01*
X137872932Y-83941842D01*
X137760990Y-83671589D01*
X137598475Y-83428368D01*
X137391632Y-83221525D01*
X137217240Y-83105000D01*
X137391632Y-82988475D01*
X137598475Y-82781632D01*
X137760990Y-82538411D01*
X137872932Y-82268158D01*
X137930000Y-81981260D01*
X137930000Y-81925512D01*
X141424701Y-85420214D01*
X141424700Y-87579612D01*
X141420781Y-87619400D01*
X141424700Y-87659188D01*
X141424700Y-87659190D01*
X141436420Y-87778187D01*
X141482737Y-87930872D01*
X141503651Y-87970000D01*
X141557951Y-88071589D01*
X141565495Y-88080781D01*
X141659172Y-88194928D01*
X141690087Y-88220299D01*
X142560196Y-89090408D01*
X142395363Y-89255241D01*
X142238320Y-89490273D01*
X142130147Y-89751426D01*
X142075000Y-90028665D01*
X142075000Y-90311335D01*
X142130147Y-90588574D01*
X142238320Y-90849727D01*
X142395363Y-91084759D01*
X142595241Y-91284637D01*
X142830273Y-91441680D01*
X143091426Y-91549853D01*
X143368665Y-91605000D01*
X143651335Y-91605000D01*
X143928574Y-91549853D01*
X144189727Y-91441680D01*
X144424759Y-91284637D01*
X144624637Y-91084759D01*
X144781680Y-90849727D01*
X144889853Y-90588574D01*
X144945000Y-90311335D01*
X144945000Y-90028665D01*
X144889853Y-89751426D01*
X144781680Y-89490273D01*
X144624637Y-89255241D01*
X144424759Y-89055363D01*
X144320000Y-88985365D01*
X144320000Y-88934491D01*
X144323919Y-88894700D01*
X144308280Y-88735912D01*
X144261963Y-88583226D01*
X144186749Y-88442511D01*
X144151861Y-88400000D01*
X144085528Y-88319172D01*
X144054618Y-88293805D01*
X143044700Y-87283888D01*
X143044700Y-86450498D01*
X143091426Y-86469853D01*
X143368665Y-86525000D01*
X143651335Y-86525000D01*
X143928574Y-86469853D01*
X144189727Y-86361680D01*
X144424759Y-86204637D01*
X144624637Y-86004759D01*
X144694635Y-85900000D01*
X148675365Y-85900000D01*
X148745363Y-86004759D01*
X148945241Y-86204637D01*
X149180273Y-86361680D01*
X149441426Y-86469853D01*
X149718665Y-86525000D01*
X150001335Y-86525000D01*
X150278574Y-86469853D01*
X150325300Y-86450498D01*
X150325300Y-87283887D01*
X149315383Y-88293805D01*
X149284473Y-88319172D01*
X149259108Y-88350080D01*
X149183251Y-88442511D01*
X149108038Y-88583227D01*
X149061721Y-88735913D01*
X149046081Y-88894700D01*
X149050001Y-88934498D01*
X149050001Y-88985365D01*
X148945241Y-89055363D01*
X148745363Y-89255241D01*
X148588320Y-89490273D01*
X148480147Y-89751426D01*
X148425000Y-90028665D01*
X148425000Y-90311335D01*
X148480147Y-90588574D01*
X148588320Y-90849727D01*
X148745363Y-91084759D01*
X148945241Y-91284637D01*
X149180273Y-91441680D01*
X149441426Y-91549853D01*
X149718665Y-91605000D01*
X150001335Y-91605000D01*
X150278574Y-91549853D01*
X150539727Y-91441680D01*
X150774759Y-91284637D01*
X150974637Y-91084759D01*
X151131680Y-90849727D01*
X151239853Y-90588574D01*
X151295000Y-90311335D01*
X151295000Y-90028665D01*
X151239853Y-89751426D01*
X151131680Y-89490273D01*
X150974637Y-89255241D01*
X150809804Y-89090408D01*
X151679919Y-88220294D01*
X151710828Y-88194928D01*
X151812049Y-88071589D01*
X151835846Y-88027068D01*
X151887263Y-87930874D01*
X151933580Y-87778188D01*
X151949219Y-87619400D01*
X151945300Y-87579609D01*
X151945300Y-84561688D01*
X151949219Y-84521900D01*
X151945300Y-84482109D01*
X151933580Y-84363112D01*
X151887263Y-84210427D01*
X151812049Y-84069711D01*
X151710828Y-83946372D01*
X151679918Y-83921005D01*
X144027704Y-76268792D01*
X144189727Y-76201680D01*
X144424759Y-76044637D01*
X144624637Y-75844759D01*
X144781680Y-75609727D01*
X144889853Y-75348574D01*
X144945000Y-75071335D01*
X144945000Y-74788665D01*
X148425000Y-74788665D01*
X148425000Y-75071335D01*
X148480147Y-75348574D01*
X148588320Y-75609727D01*
X148745363Y-75844759D01*
X148945241Y-76044637D01*
X149180273Y-76201680D01*
X149441426Y-76309853D01*
X149718665Y-76365000D01*
X150001335Y-76365000D01*
X150278574Y-76309853D01*
X150539727Y-76201680D01*
X150774759Y-76044637D01*
X150974637Y-75844759D01*
X151131680Y-75609727D01*
X151239853Y-75348574D01*
X151295000Y-75071335D01*
X151295000Y-74788665D01*
X151239853Y-74511426D01*
X151131680Y-74250273D01*
X150974637Y-74015241D01*
X150774759Y-73815363D01*
X150539727Y-73658320D01*
X150278574Y-73550147D01*
X150001335Y-73495000D01*
X149718665Y-73495000D01*
X149441426Y-73550147D01*
X149180273Y-73658320D01*
X148945241Y-73815363D01*
X148745363Y-74015241D01*
X148588320Y-74250273D01*
X148480147Y-74511426D01*
X148425000Y-74788665D01*
X144945000Y-74788665D01*
X144889853Y-74511426D01*
X144781680Y-74250273D01*
X144624637Y-74015241D01*
X144424759Y-73815363D01*
X144189727Y-73658320D01*
X143928574Y-73550147D01*
X143651335Y-73495000D01*
X143368665Y-73495000D01*
X143091426Y-73550147D01*
X142830273Y-73658320D01*
X142595241Y-73815363D01*
X142395363Y-74015241D01*
X142238320Y-74250273D01*
X142171208Y-74412296D01*
X141429300Y-73670388D01*
X141403928Y-73639472D01*
X141280589Y-73538251D01*
X141139873Y-73463037D01*
X140987188Y-73416720D01*
X140868191Y-73405000D01*
X140868188Y-73405000D01*
X140828400Y-73401081D01*
X140788612Y-73405000D01*
X137689770Y-73405000D01*
X137598475Y-73268368D01*
X137391632Y-73061525D01*
X137148411Y-72899010D01*
X137060653Y-72862660D01*
X140289013Y-69634300D01*
X148305912Y-69634300D01*
X148345700Y-69638219D01*
X148385488Y-69634300D01*
X148385491Y-69634300D01*
X148504488Y-69622580D01*
X148657173Y-69576263D01*
X148797889Y-69501049D01*
X148921228Y-69399828D01*
X148946600Y-69368912D01*
X153152088Y-65163425D01*
X153163919Y-65168325D01*
X153499117Y-65235000D01*
X153840883Y-65235000D01*
X154176081Y-65168325D01*
X154491831Y-65037537D01*
X154775998Y-64847663D01*
X154780988Y-64842673D01*
X154819906Y-64890094D01*
X154999943Y-65037846D01*
X155205345Y-65147635D01*
X155428219Y-65215244D01*
X155660000Y-65238072D01*
X156760000Y-65238072D01*
X156991781Y-65215244D01*
X157214655Y-65147635D01*
X157420057Y-65037846D01*
X157600094Y-64890094D01*
X157747846Y-64710057D01*
X157857635Y-64504655D01*
X157925244Y-64281781D01*
X157948072Y-64050000D01*
X157948072Y-62950000D01*
X157925244Y-62718219D01*
X157857635Y-62495345D01*
X157747846Y-62289943D01*
X157600094Y-62109906D01*
X157420057Y-61962154D01*
X157214655Y-61852365D01*
X157044957Y-61800887D01*
X157130450Y-61715394D01*
X157193348Y-61621260D01*
X161192105Y-65620018D01*
X161217472Y-65650928D01*
X161297533Y-65716632D01*
X161340811Y-65752149D01*
X161481526Y-65827363D01*
X161517063Y-65838143D01*
X161634212Y-65873680D01*
X161753209Y-65885400D01*
X161753212Y-65885400D01*
X161793000Y-65889319D01*
X161832788Y-65885400D01*
X165136512Y-65885400D01*
X165176300Y-65889319D01*
X165216088Y-65885400D01*
X165216091Y-65885400D01*
X165335088Y-65873680D01*
X165487773Y-65827363D01*
X165628489Y-65752149D01*
X165751828Y-65650928D01*
X165777199Y-65620013D01*
X166168335Y-65228877D01*
X166199117Y-65235000D01*
X166540883Y-65235000D01*
X166876081Y-65168325D01*
X167191831Y-65037537D01*
X167475998Y-64847663D01*
X167717663Y-64605998D01*
X167721670Y-64600000D01*
X172251928Y-64600000D01*
X172264188Y-64724482D01*
X172300498Y-64844180D01*
X172359463Y-64954494D01*
X172438815Y-65051185D01*
X172535506Y-65130537D01*
X172645820Y-65189502D01*
X172765518Y-65225812D01*
X172890000Y-65238072D01*
X173704250Y-65235000D01*
X173863000Y-65076250D01*
X173863000Y-63627000D01*
X172413750Y-63627000D01*
X172255000Y-63785750D01*
X172251928Y-64600000D01*
X167721670Y-64600000D01*
X167907537Y-64321831D01*
X168038325Y-64006081D01*
X168105000Y-63670883D01*
X168105000Y-63329117D01*
X168038325Y-62993919D01*
X167907537Y-62678169D01*
X167721671Y-62400000D01*
X172251928Y-62400000D01*
X172255000Y-63214250D01*
X172413750Y-63373000D01*
X173863000Y-63373000D01*
X173863000Y-63353000D01*
X174117000Y-63353000D01*
X174117000Y-63373000D01*
X174137000Y-63373000D01*
X174137000Y-63627000D01*
X174117000Y-63627000D01*
X174117000Y-65076250D01*
X174275750Y-65235000D01*
X175090000Y-65238072D01*
X175214482Y-65225812D01*
X175334180Y-65189502D01*
X175444494Y-65130537D01*
X175541185Y-65051185D01*
X175607557Y-64970310D01*
X175708169Y-65037537D01*
X176023919Y-65168325D01*
X176359117Y-65235000D01*
X176700883Y-65235000D01*
X177036081Y-65168325D01*
X177351831Y-65037537D01*
X177635998Y-64847663D01*
X177877663Y-64605998D01*
X178067537Y-64321831D01*
X178198325Y-64006081D01*
X178265000Y-63670883D01*
X178265000Y-63329117D01*
X178198325Y-62993919D01*
X178067537Y-62678169D01*
X177877663Y-62394002D01*
X177635998Y-62152337D01*
X177351831Y-61962463D01*
X177235048Y-61914090D01*
X177285394Y-61880450D01*
X177450450Y-61715394D01*
X177580134Y-61521308D01*
X177669461Y-61305652D01*
X177715000Y-61076712D01*
X177715000Y-60843288D01*
X177669461Y-60614348D01*
X177580134Y-60398692D01*
X177450450Y-60204606D01*
X177285394Y-60039550D01*
X177091308Y-59909866D01*
X176875652Y-59820539D01*
X176646712Y-59775000D01*
X176413288Y-59775000D01*
X176184348Y-59820539D01*
X175968692Y-59909866D01*
X175774606Y-60039550D01*
X175609550Y-60204606D01*
X175479866Y-60398692D01*
X175390539Y-60614348D01*
X175345000Y-60843288D01*
X175345000Y-61076712D01*
X175390539Y-61305652D01*
X175479866Y-61521308D01*
X175609550Y-61715394D01*
X175774606Y-61880450D01*
X175824952Y-61914090D01*
X175708169Y-61962463D01*
X175607557Y-62029690D01*
X175541185Y-61948815D01*
X175444494Y-61869463D01*
X175334180Y-61810498D01*
X175214482Y-61774188D01*
X175090000Y-61761928D01*
X174863060Y-61762784D01*
X174910450Y-61715394D01*
X175040134Y-61521308D01*
X175129461Y-61305652D01*
X175175000Y-61076712D01*
X175175000Y-60843288D01*
X175129461Y-60614348D01*
X175040134Y-60398692D01*
X174910450Y-60204606D01*
X174745394Y-60039550D01*
X174551308Y-59909866D01*
X174335652Y-59820539D01*
X174106712Y-59775000D01*
X173873288Y-59775000D01*
X173644348Y-59820539D01*
X173428692Y-59909866D01*
X173234606Y-60039550D01*
X173069550Y-60204606D01*
X172939866Y-60398692D01*
X172850539Y-60614348D01*
X172805000Y-60843288D01*
X172805000Y-61076712D01*
X172850539Y-61305652D01*
X172939866Y-61521308D01*
X173069550Y-61715394D01*
X173116940Y-61762784D01*
X172890000Y-61761928D01*
X172765518Y-61774188D01*
X172645820Y-61810498D01*
X172535506Y-61869463D01*
X172438815Y-61948815D01*
X172359463Y-62045506D01*
X172300498Y-62155820D01*
X172264188Y-62275518D01*
X172251928Y-62400000D01*
X167721671Y-62400000D01*
X167717663Y-62394002D01*
X167475998Y-62152337D01*
X167191831Y-61962463D01*
X167075048Y-61914090D01*
X167125394Y-61880450D01*
X167290450Y-61715394D01*
X167420134Y-61521308D01*
X167509461Y-61305652D01*
X167555000Y-61076712D01*
X167555000Y-60843288D01*
X167509461Y-60614348D01*
X167420134Y-60398692D01*
X167290450Y-60204606D01*
X167125394Y-60039550D01*
X166931308Y-59909866D01*
X166715652Y-59820539D01*
X166486712Y-59775000D01*
X166253288Y-59775000D01*
X166024348Y-59820539D01*
X165808692Y-59909866D01*
X165614606Y-60039550D01*
X165449550Y-60204606D01*
X165319866Y-60398692D01*
X165230539Y-60614348D01*
X165185000Y-60843288D01*
X165185000Y-61076712D01*
X165230539Y-61305652D01*
X165319866Y-61521308D01*
X165449550Y-61715394D01*
X165614606Y-61880450D01*
X165664952Y-61914090D01*
X165548169Y-61962463D01*
X165447557Y-62029690D01*
X165381185Y-61948815D01*
X165284494Y-61869463D01*
X165174180Y-61810498D01*
X165054482Y-61774188D01*
X164930000Y-61761928D01*
X164703060Y-61762784D01*
X164750450Y-61715394D01*
X164880134Y-61521308D01*
X164969461Y-61305652D01*
X165015000Y-61076712D01*
X165015000Y-60843288D01*
X164969461Y-60614348D01*
X164880134Y-60398692D01*
X164750450Y-60204606D01*
X164585394Y-60039550D01*
X164391308Y-59909866D01*
X164175652Y-59820539D01*
X163946712Y-59775000D01*
X163713288Y-59775000D01*
X163484348Y-59820539D01*
X163268692Y-59909866D01*
X163074606Y-60039550D01*
X162909550Y-60204606D01*
X162779866Y-60398692D01*
X162690539Y-60614348D01*
X162645000Y-60843288D01*
X162645000Y-61076712D01*
X162690539Y-61305652D01*
X162779866Y-61521308D01*
X162909550Y-61715394D01*
X162956940Y-61762784D01*
X162730000Y-61761928D01*
X162605518Y-61774188D01*
X162485820Y-61810498D01*
X162375506Y-61869463D01*
X162278815Y-61948815D01*
X162199463Y-62045506D01*
X162140498Y-62155820D01*
X162104188Y-62275518D01*
X162091928Y-62400000D01*
X162095000Y-63214250D01*
X162253750Y-63373000D01*
X163703000Y-63373000D01*
X163703000Y-63353000D01*
X163957000Y-63353000D01*
X163957000Y-63373000D01*
X163977000Y-63373000D01*
X163977000Y-63627000D01*
X163957000Y-63627000D01*
X163957000Y-63647000D01*
X163703000Y-63647000D01*
X163703000Y-63627000D01*
X162253750Y-63627000D01*
X162095000Y-63785750D01*
X162093323Y-64230210D01*
X157238000Y-59374888D01*
X157212628Y-59343972D01*
X157089289Y-59242751D01*
X156948573Y-59167537D01*
X156795888Y-59121220D01*
X156676891Y-59109500D01*
X156676888Y-59109500D01*
X156637100Y-59105581D01*
X156597312Y-59109500D01*
X142096487Y-59109500D01*
X142056699Y-59105581D01*
X142016911Y-59109500D01*
X142016909Y-59109500D01*
X141897912Y-59121220D01*
X141745227Y-59167537D01*
X141681537Y-59201580D01*
X141604510Y-59242751D01*
X141577400Y-59265000D01*
X141481172Y-59343972D01*
X141455805Y-59374882D01*
X137628072Y-63202615D01*
X137628072Y-62950000D01*
X137605244Y-62718219D01*
X137537635Y-62495345D01*
X137427846Y-62289943D01*
X137280094Y-62109906D01*
X137100057Y-61962154D01*
X136894655Y-61852365D01*
X136724957Y-61800887D01*
X136810450Y-61715394D01*
X136940134Y-61521308D01*
X137029461Y-61305652D01*
X137075000Y-61076712D01*
X137075000Y-60843288D01*
X137029461Y-60614348D01*
X136940134Y-60398692D01*
X136810450Y-60204606D01*
X136645394Y-60039550D01*
X136451308Y-59909866D01*
X136235652Y-59820539D01*
X136006712Y-59775000D01*
X135773288Y-59775000D01*
X135544348Y-59820539D01*
X135328692Y-59909866D01*
X135134606Y-60039550D01*
X135114934Y-60059222D01*
X132914399Y-57858687D01*
X132889028Y-57827772D01*
X132765689Y-57726551D01*
X132624973Y-57651337D01*
X132472288Y-57605020D01*
X132353291Y-57593300D01*
X132353288Y-57593300D01*
X132313500Y-57589381D01*
X132273712Y-57593300D01*
X123246488Y-57593300D01*
X123206700Y-57589381D01*
X123166912Y-57593300D01*
X123166909Y-57593300D01*
X123047912Y-57605020D01*
X122895227Y-57651337D01*
X122829724Y-57686349D01*
X122754510Y-57726551D01*
X122690496Y-57779086D01*
X122631172Y-57827772D01*
X122605805Y-57858682D01*
X115735000Y-64729488D01*
X115735000Y-64642998D01*
X115569916Y-64642998D01*
X115691904Y-64420961D01*
X115651246Y-64286913D01*
X115531037Y-64032580D01*
X115363519Y-63806586D01*
X115155131Y-63617615D01*
X114913881Y-63472930D01*
X114649040Y-63378091D01*
X114427000Y-63499376D01*
X114427000Y-64643000D01*
X114447000Y-64643000D01*
X114447000Y-64897000D01*
X114427000Y-64897000D01*
X114427000Y-64917000D01*
X114173000Y-64917000D01*
X114173000Y-64897000D01*
X114153000Y-64897000D01*
X114153000Y-64643000D01*
X114173000Y-64643000D01*
X114173000Y-63499376D01*
X113950960Y-63378091D01*
X113686119Y-63472930D01*
X113444869Y-63617615D01*
X113236481Y-63806586D01*
X113068963Y-64032580D01*
X112948754Y-64286913D01*
X112908096Y-64420961D01*
X113030084Y-64642998D01*
X112865000Y-64642998D01*
X112865000Y-64729487D01*
X108174552Y-60039039D01*
X112908096Y-60039039D01*
X112948754Y-60173087D01*
X113068963Y-60427420D01*
X113236481Y-60653414D01*
X113444869Y-60842385D01*
X113686119Y-60987070D01*
X113950960Y-61081909D01*
X114173000Y-60960624D01*
X114173000Y-59817000D01*
X114427000Y-59817000D01*
X114427000Y-60960624D01*
X114649040Y-61081909D01*
X114913881Y-60987070D01*
X115155131Y-60842385D01*
X115363519Y-60653414D01*
X115531037Y-60427420D01*
X115651246Y-60173087D01*
X115691904Y-60039039D01*
X115569915Y-59817000D01*
X114427000Y-59817000D01*
X114173000Y-59817000D01*
X113030085Y-59817000D01*
X112908096Y-60039039D01*
X108174552Y-60039039D01*
X108168072Y-60032560D01*
X108168072Y-59340961D01*
X112908096Y-59340961D01*
X113030085Y-59563000D01*
X114173000Y-59563000D01*
X114173000Y-58419376D01*
X114427000Y-58419376D01*
X114427000Y-59563000D01*
X115569915Y-59563000D01*
X115691904Y-59340961D01*
X115651246Y-59206913D01*
X115531037Y-58952580D01*
X115363519Y-58726586D01*
X115155131Y-58537615D01*
X114913881Y-58392930D01*
X114649040Y-58298091D01*
X114427000Y-58419376D01*
X114173000Y-58419376D01*
X113950960Y-58298091D01*
X113686119Y-58392930D01*
X113444869Y-58537615D01*
X113236481Y-58726586D01*
X113068963Y-58952580D01*
X112948754Y-59206913D01*
X112908096Y-59340961D01*
X108168072Y-59340961D01*
X108168072Y-59265000D01*
X108147645Y-59057605D01*
X108087150Y-58858180D01*
X107988912Y-58674389D01*
X107856705Y-58513295D01*
X107695611Y-58381088D01*
X107511820Y-58282850D01*
X107312395Y-58222355D01*
X107105000Y-58201928D01*
X106255000Y-58201928D01*
X106047605Y-58222355D01*
X105848180Y-58282850D01*
X105664389Y-58381088D01*
X105503295Y-58513295D01*
X105371088Y-58674389D01*
X105272850Y-58858180D01*
X105212355Y-59057605D01*
X105191928Y-59265000D01*
X105191928Y-60115000D01*
X105212355Y-60322395D01*
X105272850Y-60521820D01*
X105371088Y-60705611D01*
X105484986Y-60844396D01*
X105475506Y-60849463D01*
X105378815Y-60928815D01*
X105299463Y-61025506D01*
X105240498Y-61135820D01*
X105204188Y-61255518D01*
X105191928Y-61380000D01*
X105195000Y-61944250D01*
X105353750Y-62103000D01*
X106553000Y-62103000D01*
X106553000Y-62083000D01*
X106807000Y-62083000D01*
X106807000Y-62103000D01*
X106827000Y-62103000D01*
X106827000Y-62357000D01*
X106807000Y-62357000D01*
X106807000Y-62377000D01*
X106553000Y-62377000D01*
X106553000Y-62357000D01*
X105353750Y-62357000D01*
X105195000Y-62515750D01*
X105191928Y-63080000D01*
X105204188Y-63204482D01*
X105240498Y-63324180D01*
X105299463Y-63434494D01*
X105378815Y-63531185D01*
X105475506Y-63610537D01*
X105585820Y-63669502D01*
X105658380Y-63691513D01*
X105526525Y-63823368D01*
X105364010Y-64066589D01*
X105252068Y-64336842D01*
X105195000Y-64623740D01*
X105195000Y-64916260D01*
X105227059Y-65077429D01*
X103595387Y-66709100D01*
X103564472Y-66734472D01*
X103494703Y-66819487D01*
X103463251Y-66857811D01*
X103453079Y-66876842D01*
X103388037Y-66998528D01*
X103341720Y-67151213D01*
X103330000Y-67270209D01*
X103326081Y-67310000D01*
X95377000Y-67310000D01*
X95377000Y-54389872D01*
X95555000Y-54389872D01*
X95555000Y-54830128D01*
X95640890Y-55261925D01*
X95809369Y-55668669D01*
X96053962Y-56034729D01*
X96365271Y-56346038D01*
X96731331Y-56590631D01*
X97138075Y-56759110D01*
X97569872Y-56845000D01*
X98010128Y-56845000D01*
X98441925Y-56759110D01*
X98848669Y-56590631D01*
X99214729Y-56346038D01*
X99526038Y-56034729D01*
X99770631Y-55668669D01*
X99939110Y-55261925D01*
X100025000Y-54830128D01*
X100025000Y-54389872D01*
X180645000Y-54389872D01*
X180645000Y-54830128D01*
X180730890Y-55261925D01*
X180899369Y-55668669D01*
X181143962Y-56034729D01*
X181455271Y-56346038D01*
X181821331Y-56590631D01*
X182228075Y-56759110D01*
X182659872Y-56845000D01*
X183100128Y-56845000D01*
X183531925Y-56759110D01*
X183938669Y-56590631D01*
X184304729Y-56346038D01*
X184616038Y-56034729D01*
X184860631Y-55668669D01*
X185029110Y-55261925D01*
X185115000Y-54830128D01*
X185115000Y-54389872D01*
X185029110Y-53958075D01*
X184860631Y-53551331D01*
X184616038Y-53185271D01*
X184304729Y-52873962D01*
X183938669Y-52629369D01*
X183531925Y-52460890D01*
X183100128Y-52375000D01*
X182659872Y-52375000D01*
X182228075Y-52460890D01*
X181821331Y-52629369D01*
X181455271Y-52873962D01*
X181143962Y-53185271D01*
X180899369Y-53551331D01*
X180730890Y-53958075D01*
X180645000Y-54389872D01*
X100025000Y-54389872D01*
X99939110Y-53958075D01*
X99770631Y-53551331D01*
X99526038Y-53185271D01*
X99214729Y-52873962D01*
X98848669Y-52629369D01*
X98441925Y-52460890D01*
X98010128Y-52375000D01*
X97569872Y-52375000D01*
X97138075Y-52460890D01*
X96731331Y-52629369D01*
X96365271Y-52873962D01*
X96053962Y-53185271D01*
X95809369Y-53551331D01*
X95640890Y-53958075D01*
X95555000Y-54389872D01*
X95377000Y-54389872D01*
X95377000Y-52201484D01*
X185293000Y-52192517D01*
X185293000Y-121788517D01*
G04 #@! TA.AperFunction,Conductor*
D21*
G36*
X185293000Y-121788517D02*
G01*
X95377000Y-121797484D01*
X95377000Y-119159872D01*
X95555000Y-119159872D01*
X95555000Y-119600128D01*
X95640890Y-120031925D01*
X95809369Y-120438669D01*
X96053962Y-120804729D01*
X96365271Y-121116038D01*
X96731331Y-121360631D01*
X97138075Y-121529110D01*
X97569872Y-121615000D01*
X98010128Y-121615000D01*
X98441925Y-121529110D01*
X98848669Y-121360631D01*
X99214729Y-121116038D01*
X99526038Y-120804729D01*
X99770631Y-120438669D01*
X99939110Y-120031925D01*
X100025000Y-119600128D01*
X100025000Y-119159872D01*
X180645000Y-119159872D01*
X180645000Y-119600128D01*
X180730890Y-120031925D01*
X180899369Y-120438669D01*
X181143962Y-120804729D01*
X181455271Y-121116038D01*
X181821331Y-121360631D01*
X182228075Y-121529110D01*
X182659872Y-121615000D01*
X183100128Y-121615000D01*
X183531925Y-121529110D01*
X183938669Y-121360631D01*
X184304729Y-121116038D01*
X184616038Y-120804729D01*
X184860631Y-120438669D01*
X185029110Y-120031925D01*
X185115000Y-119600128D01*
X185115000Y-119159872D01*
X185029110Y-118728075D01*
X184860631Y-118321331D01*
X184616038Y-117955271D01*
X184304729Y-117643962D01*
X183938669Y-117399369D01*
X183531925Y-117230890D01*
X183100128Y-117145000D01*
X182659872Y-117145000D01*
X182228075Y-117230890D01*
X181821331Y-117399369D01*
X181455271Y-117643962D01*
X181143962Y-117955271D01*
X180899369Y-118321331D01*
X180730890Y-118728075D01*
X180645000Y-119159872D01*
X100025000Y-119159872D01*
X99939110Y-118728075D01*
X99770631Y-118321331D01*
X99526038Y-117955271D01*
X99214729Y-117643962D01*
X98848669Y-117399369D01*
X98441925Y-117230890D01*
X98010128Y-117145000D01*
X97569872Y-117145000D01*
X97138075Y-117230890D01*
X96731331Y-117399369D01*
X96365271Y-117643962D01*
X96053962Y-117955271D01*
X95809369Y-118321331D01*
X95640890Y-118728075D01*
X95555000Y-119159872D01*
X95377000Y-119159872D01*
X95377000Y-67310000D01*
X103326081Y-67310000D01*
X103330000Y-67349788D01*
X103330001Y-95103004D01*
X103329569Y-95105241D01*
X103330001Y-95182773D01*
X103330001Y-95220291D01*
X103330223Y-95222541D01*
X103330458Y-95264793D01*
X103338024Y-95301752D01*
X103341721Y-95339288D01*
X103353984Y-95379712D01*
X103362458Y-95421108D01*
X103377090Y-95455883D01*
X103388038Y-95491973D01*
X103407951Y-95529227D01*
X103424339Y-95568176D01*
X103445472Y-95599425D01*
X103463252Y-95632689D01*
X103490054Y-95665348D01*
X103513722Y-95700345D01*
X103540541Y-95726867D01*
X103564473Y-95756028D01*
X103597134Y-95782832D01*
X103627172Y-95812537D01*
X103658653Y-95833319D01*
X103687812Y-95857249D01*
X103725068Y-95877163D01*
X103726962Y-95878413D01*
X103760258Y-95895972D01*
X103828528Y-95932463D01*
X103830706Y-95933124D01*
X105195000Y-96652601D01*
X105195000Y-96666260D01*
X105252068Y-96953158D01*
X105364010Y-97223411D01*
X105526525Y-97466632D01*
X105733368Y-97673475D01*
X105907760Y-97790000D01*
X105733368Y-97906525D01*
X105526525Y-98113368D01*
X105364010Y-98356589D01*
X105252068Y-98626842D01*
X105195000Y-98913740D01*
X105195000Y-99206260D01*
X105252068Y-99493158D01*
X105364010Y-99763411D01*
X105526525Y-100006632D01*
X105733368Y-100213475D01*
X105907760Y-100330000D01*
X105733368Y-100446525D01*
X105526525Y-100653368D01*
X105364010Y-100896589D01*
X105252068Y-101166842D01*
X105195000Y-101453740D01*
X105195000Y-101746260D01*
X105252068Y-102033158D01*
X105364010Y-102303411D01*
X105526525Y-102546632D01*
X105733368Y-102753475D01*
X105907760Y-102870000D01*
X105733368Y-102986525D01*
X105526525Y-103193368D01*
X105364010Y-103436589D01*
X105252068Y-103706842D01*
X105195000Y-103993740D01*
X105195000Y-104286260D01*
X105252068Y-104573158D01*
X105364010Y-104843411D01*
X105526525Y-105086632D01*
X105733368Y-105293475D01*
X105907760Y-105410000D01*
X105733368Y-105526525D01*
X105526525Y-105733368D01*
X105364010Y-105976589D01*
X105252068Y-106246842D01*
X105195000Y-106533740D01*
X105195000Y-106826260D01*
X105252068Y-107113158D01*
X105364010Y-107383411D01*
X105526525Y-107626632D01*
X105733368Y-107833475D01*
X105907760Y-107950000D01*
X105733368Y-108066525D01*
X105526525Y-108273368D01*
X105364010Y-108516589D01*
X105252068Y-108786842D01*
X105195000Y-109073740D01*
X105195000Y-109366260D01*
X105252068Y-109653158D01*
X105364010Y-109923411D01*
X105526525Y-110166632D01*
X105733368Y-110373475D01*
X105907760Y-110490000D01*
X105733368Y-110606525D01*
X105526525Y-110813368D01*
X105364010Y-111056589D01*
X105252068Y-111326842D01*
X105195000Y-111613740D01*
X105195000Y-111906260D01*
X105252068Y-112193158D01*
X105364010Y-112463411D01*
X105526525Y-112706632D01*
X105733368Y-112913475D01*
X105907760Y-113030000D01*
X105733368Y-113146525D01*
X105526525Y-113353368D01*
X105364010Y-113596589D01*
X105252068Y-113866842D01*
X105195000Y-114153740D01*
X105195000Y-114446260D01*
X105252068Y-114733158D01*
X105364010Y-115003411D01*
X105526525Y-115246632D01*
X105733368Y-115453475D01*
X105976589Y-115615990D01*
X106246842Y-115727932D01*
X106533740Y-115785000D01*
X106826260Y-115785000D01*
X107113158Y-115727932D01*
X107383411Y-115615990D01*
X107626632Y-115453475D01*
X107833475Y-115246632D01*
X107995990Y-115003411D01*
X108107932Y-114733158D01*
X108165000Y-114446260D01*
X108165000Y-114153740D01*
X108132941Y-113992571D01*
X109230099Y-112895413D01*
X141284192Y-112895413D01*
X141379956Y-113159814D01*
X141669571Y-113300704D01*
X141981108Y-113382384D01*
X142302595Y-113401718D01*
X142621675Y-113357961D01*
X142926088Y-113252795D01*
X143100044Y-113159814D01*
X143195808Y-112895413D01*
X142240000Y-111939605D01*
X141284192Y-112895413D01*
X109230099Y-112895413D01*
X112586119Y-109539394D01*
X112617028Y-109514028D01*
X112672619Y-109446290D01*
X112718249Y-109390690D01*
X112793462Y-109249974D01*
X112793463Y-109249973D01*
X112839780Y-109097288D01*
X112851500Y-108978291D01*
X112851500Y-108978289D01*
X112855419Y-108938501D01*
X112851500Y-108898713D01*
X112851500Y-105268665D01*
X112865000Y-105268665D01*
X112865000Y-105551335D01*
X112920147Y-105828574D01*
X113028320Y-106089727D01*
X113185363Y-106324759D01*
X113385241Y-106524637D01*
X113490001Y-106594635D01*
X113490000Y-109305365D01*
X113385241Y-109375363D01*
X113185363Y-109575241D01*
X113028320Y-109810273D01*
X112920147Y-110071426D01*
X112865000Y-110348665D01*
X112865000Y-110631335D01*
X112920147Y-110908574D01*
X113028320Y-111169727D01*
X113185363Y-111404759D01*
X113385241Y-111604637D01*
X113620273Y-111761680D01*
X113881426Y-111869853D01*
X114158665Y-111925000D01*
X114441335Y-111925000D01*
X114718574Y-111869853D01*
X114979727Y-111761680D01*
X115214759Y-111604637D01*
X115414637Y-111404759D01*
X115571680Y-111169727D01*
X115679853Y-110908574D01*
X115735000Y-110631335D01*
X115735000Y-110348665D01*
X115679853Y-110071426D01*
X115571680Y-109810273D01*
X115414637Y-109575241D01*
X115214759Y-109375363D01*
X115110000Y-109305365D01*
X115110000Y-106594635D01*
X115214759Y-106524637D01*
X115414637Y-106324759D01*
X115571680Y-106089727D01*
X115679853Y-105828574D01*
X115693684Y-105759039D01*
X123068096Y-105759039D01*
X123108754Y-105893087D01*
X123228963Y-106147420D01*
X123396481Y-106373414D01*
X123604869Y-106562385D01*
X123846119Y-106707070D01*
X124110960Y-106801909D01*
X124333000Y-106680624D01*
X124333000Y-105537000D01*
X123190085Y-105537000D01*
X123068096Y-105759039D01*
X115693684Y-105759039D01*
X115735000Y-105551335D01*
X115735000Y-105268665D01*
X115693685Y-105060961D01*
X123068096Y-105060961D01*
X123190085Y-105283000D01*
X124333000Y-105283000D01*
X124333000Y-104139376D01*
X124110960Y-104018091D01*
X123846119Y-104112930D01*
X123604869Y-104257615D01*
X123396481Y-104446586D01*
X123228963Y-104672580D01*
X123108754Y-104926913D01*
X123068096Y-105060961D01*
X115693685Y-105060961D01*
X115679853Y-104991426D01*
X115571680Y-104730273D01*
X115414637Y-104495241D01*
X115214759Y-104295363D01*
X114979727Y-104138320D01*
X114718574Y-104030147D01*
X114441335Y-103975000D01*
X114158665Y-103975000D01*
X113881426Y-104030147D01*
X113620273Y-104138320D01*
X113385241Y-104295363D01*
X113185363Y-104495241D01*
X113028320Y-104730273D01*
X112920147Y-104991426D01*
X112865000Y-105268665D01*
X112851500Y-105268665D01*
X112851500Y-102924012D01*
X114035093Y-101740420D01*
X114158665Y-101765000D01*
X114441335Y-101765000D01*
X114718574Y-101709853D01*
X114979727Y-101601680D01*
X115214759Y-101444637D01*
X115414637Y-101244759D01*
X115571680Y-101009727D01*
X115679853Y-100748574D01*
X115693684Y-100679039D01*
X123068096Y-100679039D01*
X123108754Y-100813087D01*
X123228963Y-101067420D01*
X123396481Y-101293414D01*
X123604869Y-101482385D01*
X123846119Y-101627070D01*
X124110960Y-101721909D01*
X124333000Y-101600624D01*
X124333000Y-100457000D01*
X123190085Y-100457000D01*
X123068096Y-100679039D01*
X115693684Y-100679039D01*
X115735000Y-100471335D01*
X115735000Y-100188665D01*
X115693685Y-99980961D01*
X123068096Y-99980961D01*
X123190085Y-100203000D01*
X124333000Y-100203000D01*
X124333000Y-99059376D01*
X124110960Y-98938091D01*
X123846119Y-99032930D01*
X123604869Y-99177615D01*
X123396481Y-99366586D01*
X123228963Y-99592580D01*
X123108754Y-99846913D01*
X123068096Y-99980961D01*
X115693685Y-99980961D01*
X115679853Y-99911426D01*
X115571680Y-99650273D01*
X115414637Y-99415241D01*
X115214759Y-99215363D01*
X115110000Y-99145365D01*
X115110000Y-98838512D01*
X123162096Y-90786417D01*
X123188320Y-90849727D01*
X123345363Y-91084759D01*
X123545241Y-91284637D01*
X123780273Y-91441680D01*
X124041426Y-91549853D01*
X124318665Y-91605000D01*
X124601335Y-91605000D01*
X124724907Y-91580420D01*
X124933300Y-91788813D01*
X124933301Y-98982588D01*
X124809040Y-98938091D01*
X124587000Y-99059376D01*
X124587000Y-100203000D01*
X124607000Y-100203000D01*
X124607000Y-100457000D01*
X124587000Y-100457000D01*
X124587000Y-101600624D01*
X124809040Y-101721909D01*
X124933301Y-101677411D01*
X124933301Y-103465899D01*
X124929381Y-103505700D01*
X124933300Y-103545491D01*
X124933300Y-104062588D01*
X124809040Y-104018091D01*
X124587000Y-104139376D01*
X124587000Y-105283000D01*
X124607000Y-105283000D01*
X124607000Y-105537000D01*
X124587000Y-105537000D01*
X124587000Y-106680624D01*
X124809040Y-106801909D01*
X124933301Y-106757412D01*
X124933301Y-108871186D01*
X124724907Y-109079580D01*
X124601335Y-109055000D01*
X124318665Y-109055000D01*
X124041426Y-109110147D01*
X123780273Y-109218320D01*
X123545241Y-109375363D01*
X123345363Y-109575241D01*
X123188320Y-109810273D01*
X123080147Y-110071426D01*
X123025000Y-110348665D01*
X123025000Y-110631335D01*
X123080147Y-110908574D01*
X123188320Y-111169727D01*
X123345363Y-111404759D01*
X123545241Y-111604637D01*
X123780273Y-111761680D01*
X124041426Y-111869853D01*
X124318665Y-111925000D01*
X124601335Y-111925000D01*
X124878574Y-111869853D01*
X124992665Y-111822595D01*
X140598282Y-111822595D01*
X140642039Y-112141675D01*
X140747205Y-112446088D01*
X140840186Y-112620044D01*
X141104587Y-112715808D01*
X142060395Y-111760000D01*
X142419605Y-111760000D01*
X143375413Y-112715808D01*
X143639814Y-112620044D01*
X143780704Y-112330429D01*
X143862384Y-112018892D01*
X143881718Y-111697405D01*
X143837961Y-111378325D01*
X143732795Y-111073912D01*
X143639814Y-110899956D01*
X143375413Y-110804192D01*
X142419605Y-111760000D01*
X142060395Y-111760000D01*
X141104587Y-110804192D01*
X140840186Y-110899956D01*
X140699296Y-111189571D01*
X140617616Y-111501108D01*
X140598282Y-111822595D01*
X124992665Y-111822595D01*
X125139727Y-111761680D01*
X125374759Y-111604637D01*
X125574637Y-111404759D01*
X125731680Y-111169727D01*
X125839853Y-110908574D01*
X125895000Y-110631335D01*
X125895000Y-110624587D01*
X141284192Y-110624587D01*
X142240000Y-111580395D01*
X143195808Y-110624587D01*
X143100044Y-110360186D01*
X142810429Y-110219296D01*
X142498892Y-110137616D01*
X142177405Y-110118282D01*
X141858325Y-110162039D01*
X141553912Y-110267205D01*
X141379956Y-110360186D01*
X141284192Y-110624587D01*
X125895000Y-110624587D01*
X125895000Y-110348665D01*
X125870420Y-110225093D01*
X126287918Y-109807595D01*
X126318828Y-109782228D01*
X126394137Y-109690463D01*
X126420049Y-109658890D01*
X126495262Y-109518174D01*
X126495263Y-109518173D01*
X126541580Y-109365488D01*
X126553300Y-109246491D01*
X126553300Y-109246489D01*
X126557219Y-109206701D01*
X126553300Y-109166913D01*
X126553300Y-104315700D01*
X140294512Y-104315700D01*
X140334300Y-104319619D01*
X140374088Y-104315700D01*
X140374091Y-104315700D01*
X140493088Y-104303980D01*
X140645773Y-104257663D01*
X140786489Y-104182449D01*
X140909828Y-104081228D01*
X140935200Y-104050312D01*
X143245093Y-101740420D01*
X143368665Y-101765000D01*
X143651335Y-101765000D01*
X143928574Y-101709853D01*
X144189727Y-101601680D01*
X144424759Y-101444637D01*
X144624637Y-101244759D01*
X144781680Y-101009727D01*
X144889853Y-100748574D01*
X144945000Y-100471335D01*
X144945000Y-100188665D01*
X144889853Y-99911426D01*
X144781680Y-99650273D01*
X144624637Y-99415241D01*
X144424759Y-99215363D01*
X144189727Y-99058320D01*
X143928574Y-98950147D01*
X143651335Y-98895000D01*
X143368665Y-98895000D01*
X143091426Y-98950147D01*
X142830273Y-99058320D01*
X142595241Y-99215363D01*
X142395363Y-99415241D01*
X142238320Y-99650273D01*
X142130147Y-99911426D01*
X142075000Y-100188665D01*
X142075000Y-100471335D01*
X142099580Y-100594907D01*
X139998788Y-102695700D01*
X137828387Y-102695700D01*
X137872932Y-102588158D01*
X137930000Y-102301260D01*
X137930000Y-102008740D01*
X137872932Y-101721842D01*
X137760990Y-101451589D01*
X137598475Y-101208368D01*
X137391632Y-101001525D01*
X137217240Y-100885000D01*
X137391632Y-100768475D01*
X137598475Y-100561632D01*
X137760990Y-100318411D01*
X137872932Y-100048158D01*
X137930000Y-99761260D01*
X137930000Y-99468740D01*
X137872932Y-99181842D01*
X137760990Y-98911589D01*
X137598475Y-98668368D01*
X137391632Y-98461525D01*
X137357755Y-98438889D01*
X137460611Y-98383912D01*
X137621705Y-98251705D01*
X137753912Y-98090611D01*
X137852150Y-97906820D01*
X137912645Y-97707395D01*
X137933072Y-97500000D01*
X137933072Y-96650000D01*
X137912645Y-96442605D01*
X137852150Y-96243180D01*
X137753912Y-96059389D01*
X137621705Y-95898295D01*
X137460611Y-95766088D01*
X137357755Y-95711111D01*
X137391632Y-95688475D01*
X137598475Y-95481632D01*
X137760990Y-95238411D01*
X137872932Y-94968158D01*
X137930000Y-94681260D01*
X137930000Y-94388740D01*
X137872932Y-94101842D01*
X137760990Y-93831589D01*
X137598475Y-93588368D01*
X137391632Y-93381525D01*
X137217240Y-93265000D01*
X137391632Y-93148475D01*
X137598475Y-92941632D01*
X137760990Y-92698411D01*
X137872932Y-92428158D01*
X137930000Y-92141260D01*
X137930000Y-91848740D01*
X137872932Y-91561842D01*
X137760990Y-91291589D01*
X137598475Y-91048368D01*
X137391632Y-90841525D01*
X137217240Y-90725000D01*
X137391632Y-90608475D01*
X137598475Y-90401632D01*
X137760990Y-90158411D01*
X137872932Y-89888158D01*
X137930000Y-89601260D01*
X137930000Y-89545512D01*
X147643100Y-99258613D01*
X147643101Y-105842802D01*
X147639181Y-105882600D01*
X147648439Y-105976589D01*
X147654821Y-106041388D01*
X147686986Y-106147420D01*
X147701138Y-106194073D01*
X147776351Y-106334789D01*
X147808050Y-106373414D01*
X147877573Y-106458128D01*
X147908483Y-106483495D01*
X151656832Y-110231845D01*
X151465537Y-110311082D01*
X151197748Y-110490013D01*
X150970013Y-110717748D01*
X150791082Y-110985537D01*
X150667832Y-111283088D01*
X150605000Y-111598967D01*
X150605000Y-111921033D01*
X150667832Y-112236912D01*
X150791082Y-112534463D01*
X150970013Y-112802252D01*
X151197748Y-113029987D01*
X151465537Y-113208918D01*
X151763088Y-113332168D01*
X152078967Y-113395000D01*
X152401033Y-113395000D01*
X152716912Y-113332168D01*
X153014463Y-113208918D01*
X153282252Y-113029987D01*
X153509987Y-112802252D01*
X153688918Y-112534463D01*
X153768155Y-112343168D01*
X155619805Y-114194818D01*
X155645172Y-114225728D01*
X155712910Y-114281319D01*
X155768510Y-114326949D01*
X155843724Y-114367151D01*
X155909227Y-114402163D01*
X156061912Y-114448480D01*
X156180909Y-114460200D01*
X156180911Y-114460200D01*
X156220699Y-114464119D01*
X156260487Y-114460200D01*
X157271412Y-114460200D01*
X157311200Y-114464119D01*
X157350988Y-114460200D01*
X157350991Y-114460200D01*
X157469988Y-114448480D01*
X157622673Y-114402163D01*
X157763389Y-114326949D01*
X157886728Y-114225728D01*
X157912100Y-114194812D01*
X165596912Y-106510000D01*
X173521928Y-106510000D01*
X173534188Y-106634482D01*
X173570498Y-106754180D01*
X173629463Y-106864494D01*
X173645279Y-106883766D01*
X173612365Y-106945345D01*
X173544756Y-107168219D01*
X173521928Y-107400000D01*
X173521928Y-108500000D01*
X173544756Y-108731781D01*
X173612365Y-108954655D01*
X173722154Y-109160057D01*
X173869906Y-109340094D01*
X174049943Y-109487846D01*
X174255345Y-109597635D01*
X174478219Y-109665244D01*
X174710000Y-109688072D01*
X175810000Y-109688072D01*
X176041781Y-109665244D01*
X176264655Y-109597635D01*
X176470057Y-109487846D01*
X176650094Y-109340094D01*
X176797846Y-109160057D01*
X176907635Y-108954655D01*
X176959113Y-108784957D01*
X177044606Y-108870450D01*
X177238692Y-109000134D01*
X177454348Y-109089461D01*
X177683288Y-109135000D01*
X177916712Y-109135000D01*
X178145652Y-109089461D01*
X178361308Y-109000134D01*
X178555394Y-108870450D01*
X178720450Y-108705394D01*
X178850134Y-108511308D01*
X178939461Y-108295652D01*
X178985000Y-108066712D01*
X178985000Y-107833288D01*
X178939461Y-107604348D01*
X178850134Y-107388692D01*
X178720450Y-107194606D01*
X178555394Y-107029550D01*
X178361308Y-106899866D01*
X178145652Y-106810539D01*
X177916712Y-106765000D01*
X177683288Y-106765000D01*
X177454348Y-106810539D01*
X177238692Y-106899866D01*
X177044606Y-107029550D01*
X176959113Y-107115043D01*
X176907635Y-106945345D01*
X176874721Y-106883766D01*
X176890537Y-106864494D01*
X176949502Y-106754180D01*
X176985812Y-106634482D01*
X176998072Y-106510000D01*
X176997216Y-106283060D01*
X177044606Y-106330450D01*
X177238692Y-106460134D01*
X177454348Y-106549461D01*
X177683288Y-106595000D01*
X177916712Y-106595000D01*
X178145652Y-106549461D01*
X178361308Y-106460134D01*
X178555394Y-106330450D01*
X178720450Y-106165394D01*
X178850134Y-105971308D01*
X178939461Y-105755652D01*
X178985000Y-105526712D01*
X178985000Y-105293288D01*
X178939461Y-105064348D01*
X178850134Y-104848692D01*
X178720450Y-104654606D01*
X178555394Y-104489550D01*
X178361308Y-104359866D01*
X178145652Y-104270539D01*
X177916712Y-104225000D01*
X177683288Y-104225000D01*
X177454348Y-104270539D01*
X177238692Y-104359866D01*
X177044606Y-104489550D01*
X176997216Y-104536940D01*
X176998072Y-104310000D01*
X176985812Y-104185518D01*
X176949502Y-104065820D01*
X176890537Y-103955506D01*
X176811185Y-103858815D01*
X176714494Y-103779463D01*
X176604180Y-103720498D01*
X176484482Y-103684188D01*
X176360000Y-103671928D01*
X175545750Y-103675000D01*
X175387000Y-103833750D01*
X175387000Y-105283000D01*
X175407000Y-105283000D01*
X175407000Y-105537000D01*
X175387000Y-105537000D01*
X175387000Y-105557000D01*
X175133000Y-105557000D01*
X175133000Y-105537000D01*
X173683750Y-105537000D01*
X173525000Y-105695750D01*
X173521928Y-106510000D01*
X165596912Y-106510000D01*
X167796912Y-104310000D01*
X173521928Y-104310000D01*
X173525000Y-105124250D01*
X173683750Y-105283000D01*
X175133000Y-105283000D01*
X175133000Y-103833750D01*
X174974250Y-103675000D01*
X174160000Y-103671928D01*
X174035518Y-103684188D01*
X173915820Y-103720498D01*
X173805506Y-103779463D01*
X173708815Y-103858815D01*
X173629463Y-103955506D01*
X173570498Y-104065820D01*
X173534188Y-104185518D01*
X173521928Y-104310000D01*
X167796912Y-104310000D01*
X170944819Y-101162094D01*
X170975728Y-101136728D01*
X171067451Y-101024963D01*
X171076949Y-101013390D01*
X171120992Y-100930990D01*
X171152163Y-100872673D01*
X171198480Y-100719988D01*
X171210200Y-100600991D01*
X171210200Y-100600989D01*
X171214119Y-100561201D01*
X171210200Y-100521413D01*
X171210200Y-99175312D01*
X172501928Y-97883584D01*
X172501928Y-98215000D01*
X172522355Y-98422395D01*
X172582850Y-98621820D01*
X172681088Y-98805611D01*
X172813295Y-98966705D01*
X172974389Y-99098912D01*
X173158180Y-99197150D01*
X173357605Y-99257645D01*
X173565000Y-99278072D01*
X174415000Y-99278072D01*
X174622395Y-99257645D01*
X174821820Y-99197150D01*
X175005611Y-99098912D01*
X175166705Y-98966705D01*
X175298912Y-98805611D01*
X175397150Y-98621820D01*
X175457645Y-98422395D01*
X175478072Y-98215000D01*
X175478072Y-97365000D01*
X175457645Y-97157605D01*
X175397150Y-96958180D01*
X175298912Y-96774389D01*
X175166705Y-96613295D01*
X175005611Y-96481088D01*
X174902755Y-96426111D01*
X174936632Y-96403475D01*
X175143475Y-96196632D01*
X175305990Y-95953411D01*
X175417932Y-95683158D01*
X175475000Y-95396260D01*
X175475000Y-95103740D01*
X175417932Y-94816842D01*
X175305990Y-94546589D01*
X175143475Y-94303368D01*
X174936632Y-94096525D01*
X174762240Y-93980000D01*
X174936632Y-93863475D01*
X175143475Y-93656632D01*
X175305990Y-93413411D01*
X175417932Y-93143158D01*
X175475000Y-92856260D01*
X175475000Y-92563740D01*
X175417932Y-92276842D01*
X175305990Y-92006589D01*
X175143475Y-91763368D01*
X174936632Y-91556525D01*
X174762240Y-91440000D01*
X174936632Y-91323475D01*
X175143475Y-91116632D01*
X175305990Y-90873411D01*
X175417932Y-90603158D01*
X175475000Y-90316260D01*
X175475000Y-90023740D01*
X175417932Y-89736842D01*
X175305990Y-89466589D01*
X175143475Y-89223368D01*
X174936632Y-89016525D01*
X174762240Y-88900000D01*
X174936632Y-88783475D01*
X175143475Y-88576632D01*
X175305990Y-88333411D01*
X175417932Y-88063158D01*
X175475000Y-87776260D01*
X175475000Y-87483740D01*
X175417932Y-87196842D01*
X175305990Y-86926589D01*
X175143475Y-86683368D01*
X175011620Y-86551513D01*
X175084180Y-86529502D01*
X175194494Y-86470537D01*
X175291185Y-86391185D01*
X175370537Y-86294494D01*
X175429502Y-86184180D01*
X175465812Y-86064482D01*
X175478072Y-85940000D01*
X175475000Y-85375750D01*
X175316250Y-85217000D01*
X174117000Y-85217000D01*
X174117000Y-85237000D01*
X173863000Y-85237000D01*
X173863000Y-85217000D01*
X172663750Y-85217000D01*
X172505000Y-85375750D01*
X172501928Y-85940000D01*
X172514188Y-86064482D01*
X172550498Y-86184180D01*
X172609463Y-86294494D01*
X172688815Y-86391185D01*
X172785506Y-86470537D01*
X172895820Y-86529502D01*
X172968380Y-86551513D01*
X172836525Y-86683368D01*
X172674010Y-86926589D01*
X172562068Y-87196842D01*
X172505000Y-87483740D01*
X172505000Y-87776260D01*
X172562068Y-88063158D01*
X172674010Y-88333411D01*
X172836525Y-88576632D01*
X173043368Y-88783475D01*
X173217760Y-88900000D01*
X173043368Y-89016525D01*
X172836525Y-89223368D01*
X172674010Y-89466589D01*
X172562068Y-89736842D01*
X172505000Y-90023740D01*
X172505000Y-90316260D01*
X172562068Y-90603158D01*
X172674010Y-90873411D01*
X172836525Y-91116632D01*
X173043368Y-91323475D01*
X173217760Y-91440000D01*
X173043368Y-91556525D01*
X172836525Y-91763368D01*
X172674010Y-92006589D01*
X172562068Y-92276842D01*
X172505000Y-92563740D01*
X172505000Y-92856260D01*
X172562068Y-93143158D01*
X172674010Y-93413411D01*
X172836525Y-93656632D01*
X173043368Y-93863475D01*
X173217760Y-93980000D01*
X173043368Y-94096525D01*
X172836525Y-94303368D01*
X172674010Y-94546589D01*
X172562068Y-94816842D01*
X172505000Y-95103740D01*
X172505000Y-95396260D01*
X172537059Y-95557429D01*
X169855583Y-98238905D01*
X169824673Y-98264272D01*
X169779052Y-98319861D01*
X169723451Y-98387611D01*
X169648238Y-98528327D01*
X169618354Y-98626842D01*
X169601921Y-98681013D01*
X169586281Y-98839800D01*
X169590201Y-98879598D01*
X169590200Y-100225687D01*
X158117106Y-111698782D01*
X158080990Y-111611589D01*
X157918475Y-111368368D01*
X157711632Y-111161525D01*
X157677755Y-111138889D01*
X157780611Y-111083912D01*
X157941705Y-110951705D01*
X158073912Y-110790611D01*
X158172150Y-110606820D01*
X158232645Y-110407395D01*
X158253072Y-110200000D01*
X158253072Y-109350000D01*
X158232645Y-109142605D01*
X158172150Y-108943180D01*
X158073912Y-108759389D01*
X157941705Y-108598295D01*
X157780611Y-108466088D01*
X157677755Y-108411111D01*
X157711632Y-108388475D01*
X157918475Y-108181632D01*
X158080990Y-107938411D01*
X158192932Y-107668158D01*
X158250000Y-107381260D01*
X158250000Y-107088740D01*
X158192932Y-106801842D01*
X158080990Y-106531589D01*
X157918475Y-106288368D01*
X157786620Y-106156513D01*
X157859180Y-106134502D01*
X157969494Y-106075537D01*
X158066185Y-105996185D01*
X158145537Y-105899494D01*
X158204502Y-105789180D01*
X158240812Y-105669482D01*
X158253072Y-105545000D01*
X158250000Y-104980750D01*
X158091250Y-104822000D01*
X156892000Y-104822000D01*
X156892000Y-104842000D01*
X156638000Y-104842000D01*
X156638000Y-104822000D01*
X155438750Y-104822000D01*
X155280000Y-104980750D01*
X155276928Y-105545000D01*
X155289188Y-105669482D01*
X155325498Y-105789180D01*
X155384463Y-105899494D01*
X155463815Y-105996185D01*
X155560506Y-106075537D01*
X155670820Y-106134502D01*
X155743380Y-106156513D01*
X155611525Y-106288368D01*
X155449010Y-106531589D01*
X155337068Y-106801842D01*
X155280000Y-107088740D01*
X155280000Y-107381260D01*
X155337068Y-107668158D01*
X155449010Y-107938411D01*
X155611525Y-108181632D01*
X155818368Y-108388475D01*
X155852245Y-108411111D01*
X155749389Y-108466088D01*
X155588295Y-108598295D01*
X155456088Y-108759389D01*
X155357850Y-108943180D01*
X155297355Y-109142605D01*
X155276928Y-109350000D01*
X155276928Y-110200000D01*
X155297355Y-110407395D01*
X155357850Y-110606820D01*
X155456088Y-110790611D01*
X155588295Y-110951705D01*
X155749389Y-111083912D01*
X155852245Y-111138889D01*
X155818368Y-111161525D01*
X155611525Y-111368368D01*
X155449010Y-111611589D01*
X155413450Y-111697438D01*
X149263100Y-105547088D01*
X149263100Y-103845000D01*
X155276928Y-103845000D01*
X155280000Y-104409250D01*
X155438750Y-104568000D01*
X156638000Y-104568000D01*
X156638000Y-104548000D01*
X156892000Y-104548000D01*
X156892000Y-104568000D01*
X158091250Y-104568000D01*
X158250000Y-104409250D01*
X158253072Y-103845000D01*
X158240812Y-103720518D01*
X158204502Y-103600820D01*
X158145537Y-103490506D01*
X158066185Y-103393815D01*
X157969494Y-103314463D01*
X157859180Y-103255498D01*
X157786620Y-103233487D01*
X157918475Y-103101632D01*
X158080990Y-102858411D01*
X158192932Y-102588158D01*
X158250000Y-102301260D01*
X158250000Y-102008740D01*
X158192932Y-101721842D01*
X158080990Y-101451589D01*
X157918475Y-101208368D01*
X157711632Y-101001525D01*
X157537240Y-100885000D01*
X157711632Y-100768475D01*
X157918475Y-100561632D01*
X158080990Y-100318411D01*
X158192932Y-100048158D01*
X158250000Y-99761260D01*
X158250000Y-99468740D01*
X158192932Y-99181842D01*
X158080990Y-98911589D01*
X157918475Y-98668368D01*
X157711632Y-98461525D01*
X157537240Y-98345000D01*
X157711632Y-98228475D01*
X157918475Y-98021632D01*
X158080990Y-97778411D01*
X158192932Y-97508158D01*
X158250000Y-97221260D01*
X158250000Y-96928740D01*
X158192932Y-96641842D01*
X158080990Y-96371589D01*
X157918475Y-96128368D01*
X157711632Y-95921525D01*
X157537240Y-95805000D01*
X157711632Y-95688475D01*
X157918475Y-95481632D01*
X158080990Y-95238411D01*
X158192932Y-94968158D01*
X158250000Y-94681260D01*
X158250000Y-94388740D01*
X158192932Y-94101842D01*
X158080990Y-93831589D01*
X157918475Y-93588368D01*
X157711632Y-93381525D01*
X157537240Y-93265000D01*
X157711632Y-93148475D01*
X157918475Y-92941632D01*
X158080990Y-92698411D01*
X158192932Y-92428158D01*
X158250000Y-92141260D01*
X158250000Y-91848740D01*
X158192932Y-91561842D01*
X158080990Y-91291589D01*
X157918475Y-91048368D01*
X157711632Y-90841525D01*
X157537240Y-90725000D01*
X157711632Y-90608475D01*
X157918475Y-90401632D01*
X158080990Y-90158411D01*
X158192932Y-89888158D01*
X158250000Y-89601260D01*
X158250000Y-89308740D01*
X158192932Y-89021842D01*
X158080990Y-88751589D01*
X157918475Y-88508368D01*
X157711632Y-88301525D01*
X157537240Y-88185000D01*
X157711632Y-88068475D01*
X157918475Y-87861632D01*
X158080990Y-87618411D01*
X158192932Y-87348158D01*
X158250000Y-87061260D01*
X158250000Y-86768740D01*
X158192932Y-86481842D01*
X158080990Y-86211589D01*
X157918475Y-85968368D01*
X157711632Y-85761525D01*
X157537240Y-85645000D01*
X157711632Y-85528475D01*
X157918475Y-85321632D01*
X158080990Y-85078411D01*
X158192932Y-84808158D01*
X158250000Y-84521260D01*
X158250000Y-84240000D01*
X172501928Y-84240000D01*
X172505000Y-84804250D01*
X172663750Y-84963000D01*
X173863000Y-84963000D01*
X173863000Y-83763750D01*
X174117000Y-83763750D01*
X174117000Y-84963000D01*
X175316250Y-84963000D01*
X175475000Y-84804250D01*
X175478072Y-84240000D01*
X175465812Y-84115518D01*
X175429502Y-83995820D01*
X175370537Y-83885506D01*
X175291185Y-83788815D01*
X175194494Y-83709463D01*
X175084180Y-83650498D01*
X174964482Y-83614188D01*
X174840000Y-83601928D01*
X174275750Y-83605000D01*
X174117000Y-83763750D01*
X173863000Y-83763750D01*
X173704250Y-83605000D01*
X173140000Y-83601928D01*
X173015518Y-83614188D01*
X172895820Y-83650498D01*
X172785506Y-83709463D01*
X172688815Y-83788815D01*
X172609463Y-83885506D01*
X172550498Y-83995820D01*
X172514188Y-84115518D01*
X172501928Y-84240000D01*
X158250000Y-84240000D01*
X158250000Y-84228740D01*
X158192932Y-83941842D01*
X158080990Y-83671589D01*
X157918475Y-83428368D01*
X157711632Y-83221525D01*
X157537240Y-83105000D01*
X157711632Y-82988475D01*
X157918475Y-82781632D01*
X158080990Y-82538411D01*
X158192932Y-82268158D01*
X158250000Y-81981260D01*
X158250000Y-81688740D01*
X158192932Y-81401842D01*
X158080990Y-81131589D01*
X157918475Y-80888368D01*
X157711632Y-80681525D01*
X157537240Y-80565000D01*
X157711632Y-80448475D01*
X157918475Y-80241632D01*
X158080990Y-79998411D01*
X158192932Y-79728158D01*
X158250000Y-79441260D01*
X158250000Y-79148740D01*
X158192932Y-78861842D01*
X158080990Y-78591589D01*
X157918475Y-78348368D01*
X157711632Y-78141525D01*
X157537240Y-78025000D01*
X157711632Y-77908475D01*
X157918475Y-77701632D01*
X158080990Y-77458411D01*
X158192932Y-77188158D01*
X158250000Y-76901260D01*
X158250000Y-76845513D01*
X159419105Y-78014618D01*
X159444472Y-78045528D01*
X159475498Y-78070990D01*
X159567810Y-78146749D01*
X159617692Y-78173411D01*
X159708527Y-78221963D01*
X159861212Y-78268280D01*
X159980209Y-78280000D01*
X159980211Y-78280000D01*
X160019999Y-78283919D01*
X160059787Y-78280000D01*
X172447562Y-78280000D01*
X172452463Y-78291831D01*
X172642337Y-78575998D01*
X172884002Y-78817663D01*
X173168169Y-79007537D01*
X173483919Y-79138325D01*
X173819117Y-79205000D01*
X174160883Y-79205000D01*
X174496081Y-79138325D01*
X174811831Y-79007537D01*
X175095998Y-78817663D01*
X175337663Y-78575998D01*
X175527537Y-78291831D01*
X175575910Y-78175048D01*
X175609550Y-78225394D01*
X175774606Y-78390450D01*
X175968692Y-78520134D01*
X176184348Y-78609461D01*
X176413288Y-78655000D01*
X176646712Y-78655000D01*
X176875652Y-78609461D01*
X177091308Y-78520134D01*
X177285394Y-78390450D01*
X177450450Y-78225394D01*
X177580134Y-78031308D01*
X177669461Y-77815652D01*
X177715000Y-77586712D01*
X177715000Y-77353288D01*
X177669461Y-77124348D01*
X177580134Y-76908692D01*
X177450450Y-76714606D01*
X177285394Y-76549550D01*
X177091308Y-76419866D01*
X176875652Y-76330539D01*
X176646712Y-76285000D01*
X176413288Y-76285000D01*
X176184348Y-76330539D01*
X175968692Y-76419866D01*
X175774606Y-76549550D01*
X175609550Y-76714606D01*
X175575910Y-76764952D01*
X175527537Y-76648169D01*
X175460310Y-76547557D01*
X175541185Y-76481185D01*
X175620537Y-76384494D01*
X175679502Y-76274180D01*
X175715812Y-76154482D01*
X175728072Y-76030000D01*
X175727216Y-75803060D01*
X175774606Y-75850450D01*
X175968692Y-75980134D01*
X176184348Y-76069461D01*
X176413288Y-76115000D01*
X176646712Y-76115000D01*
X176875652Y-76069461D01*
X177091308Y-75980134D01*
X177285394Y-75850450D01*
X177450450Y-75685394D01*
X177580134Y-75491308D01*
X177669461Y-75275652D01*
X177715000Y-75046712D01*
X177715000Y-74813288D01*
X177669461Y-74584348D01*
X177580134Y-74368692D01*
X177450450Y-74174606D01*
X177285394Y-74009550D01*
X177091308Y-73879866D01*
X176875652Y-73790539D01*
X176646712Y-73745000D01*
X176413288Y-73745000D01*
X176184348Y-73790539D01*
X175968692Y-73879866D01*
X175774606Y-74009550D01*
X175727216Y-74056940D01*
X175728072Y-73830000D01*
X175715812Y-73705518D01*
X175679502Y-73585820D01*
X175620537Y-73475506D01*
X175541185Y-73378815D01*
X175444494Y-73299463D01*
X175334180Y-73240498D01*
X175214482Y-73204188D01*
X175090000Y-73191928D01*
X174275750Y-73195000D01*
X174117000Y-73353750D01*
X174117000Y-74803000D01*
X174137000Y-74803000D01*
X174137000Y-75057000D01*
X174117000Y-75057000D01*
X174117000Y-75077000D01*
X173863000Y-75077000D01*
X173863000Y-75057000D01*
X172413750Y-75057000D01*
X172255000Y-75215750D01*
X172251928Y-76030000D01*
X172264188Y-76154482D01*
X172300498Y-76274180D01*
X172359463Y-76384494D01*
X172438815Y-76481185D01*
X172519690Y-76547557D01*
X172452463Y-76648169D01*
X172447562Y-76660000D01*
X160355513Y-76660000D01*
X158217941Y-74522429D01*
X158250000Y-74361260D01*
X158250000Y-74068740D01*
X158202512Y-73830000D01*
X172251928Y-73830000D01*
X172255000Y-74644250D01*
X172413750Y-74803000D01*
X173863000Y-74803000D01*
X173863000Y-73353750D01*
X173704250Y-73195000D01*
X172890000Y-73191928D01*
X172765518Y-73204188D01*
X172645820Y-73240498D01*
X172535506Y-73299463D01*
X172438815Y-73378815D01*
X172359463Y-73475506D01*
X172300498Y-73585820D01*
X172264188Y-73705518D01*
X172251928Y-73830000D01*
X158202512Y-73830000D01*
X158192932Y-73781842D01*
X158080990Y-73511589D01*
X157918475Y-73268368D01*
X157711632Y-73061525D01*
X157468411Y-72899010D01*
X157198158Y-72787068D01*
X156911260Y-72730000D01*
X156618740Y-72730000D01*
X156331842Y-72787068D01*
X156061589Y-72899010D01*
X155818368Y-73061525D01*
X155611525Y-73268368D01*
X155449010Y-73511589D01*
X155337068Y-73781842D01*
X155280000Y-74068740D01*
X155280000Y-74361260D01*
X155337068Y-74648158D01*
X155449010Y-74918411D01*
X155611525Y-75161632D01*
X155818368Y-75368475D01*
X155992760Y-75485000D01*
X155818368Y-75601525D01*
X155611525Y-75808368D01*
X155449010Y-76051589D01*
X155337068Y-76321842D01*
X155280000Y-76608740D01*
X155280000Y-76901260D01*
X155337068Y-77188158D01*
X155449010Y-77458411D01*
X155611525Y-77701632D01*
X155818368Y-77908475D01*
X155992760Y-78025000D01*
X155818368Y-78141525D01*
X155611525Y-78348368D01*
X155449010Y-78591589D01*
X155337068Y-78861842D01*
X155280000Y-79148740D01*
X155280000Y-79441260D01*
X155337068Y-79728158D01*
X155449010Y-79998411D01*
X155611525Y-80241632D01*
X155818368Y-80448475D01*
X155992760Y-80565000D01*
X155818368Y-80681525D01*
X155611525Y-80888368D01*
X155449010Y-81131589D01*
X155337068Y-81401842D01*
X155280000Y-81688740D01*
X155280000Y-81981260D01*
X155337068Y-82268158D01*
X155449010Y-82538411D01*
X155611525Y-82781632D01*
X155818368Y-82988475D01*
X155992760Y-83105000D01*
X155818368Y-83221525D01*
X155611525Y-83428368D01*
X155449010Y-83671589D01*
X155337068Y-83941842D01*
X155280000Y-84228740D01*
X155280000Y-84521260D01*
X155337068Y-84808158D01*
X155449010Y-85078411D01*
X155611525Y-85321632D01*
X155818368Y-85528475D01*
X155992760Y-85645000D01*
X155818368Y-85761525D01*
X155611525Y-85968368D01*
X155449010Y-86211589D01*
X155337068Y-86481842D01*
X155280000Y-86768740D01*
X155280000Y-87061260D01*
X155337068Y-87348158D01*
X155449010Y-87618411D01*
X155611525Y-87861632D01*
X155818368Y-88068475D01*
X155992760Y-88185000D01*
X155818368Y-88301525D01*
X155611525Y-88508368D01*
X155449010Y-88751589D01*
X155337068Y-89021842D01*
X155280000Y-89308740D01*
X155280000Y-89601260D01*
X155337068Y-89888158D01*
X155449010Y-90158411D01*
X155611525Y-90401632D01*
X155818368Y-90608475D01*
X155992760Y-90725000D01*
X155818368Y-90841525D01*
X155611525Y-91048368D01*
X155449010Y-91291589D01*
X155337068Y-91561842D01*
X155280000Y-91848740D01*
X155280000Y-92141260D01*
X155337068Y-92428158D01*
X155449010Y-92698411D01*
X155611525Y-92941632D01*
X155818368Y-93148475D01*
X155992760Y-93265000D01*
X155818368Y-93381525D01*
X155611525Y-93588368D01*
X155449010Y-93831589D01*
X155337068Y-94101842D01*
X155280000Y-94388740D01*
X155280000Y-94681260D01*
X155337068Y-94968158D01*
X155449010Y-95238411D01*
X155611525Y-95481632D01*
X155818368Y-95688475D01*
X155992760Y-95805000D01*
X155818368Y-95921525D01*
X155611525Y-96128368D01*
X155449010Y-96371589D01*
X155337068Y-96641842D01*
X155280000Y-96928740D01*
X155280000Y-97221260D01*
X155337068Y-97508158D01*
X155449010Y-97778411D01*
X155611525Y-98021632D01*
X155818368Y-98228475D01*
X155992760Y-98345000D01*
X155818368Y-98461525D01*
X155611525Y-98668368D01*
X155449010Y-98911589D01*
X155337068Y-99181842D01*
X155280000Y-99468740D01*
X155280000Y-99761260D01*
X155337068Y-100048158D01*
X155449010Y-100318411D01*
X155611525Y-100561632D01*
X155818368Y-100768475D01*
X155992760Y-100885000D01*
X155818368Y-101001525D01*
X155611525Y-101208368D01*
X155449010Y-101451589D01*
X155337068Y-101721842D01*
X155280000Y-102008740D01*
X155280000Y-102301260D01*
X155337068Y-102588158D01*
X155449010Y-102858411D01*
X155611525Y-103101632D01*
X155743380Y-103233487D01*
X155670820Y-103255498D01*
X155560506Y-103314463D01*
X155463815Y-103393815D01*
X155384463Y-103490506D01*
X155325498Y-103600820D01*
X155289188Y-103720518D01*
X155276928Y-103845000D01*
X149263100Y-103845000D01*
X149263100Y-101635988D01*
X149441426Y-101709853D01*
X149718665Y-101765000D01*
X150001335Y-101765000D01*
X150278574Y-101709853D01*
X150539727Y-101601680D01*
X150774759Y-101444637D01*
X150974637Y-101244759D01*
X151131680Y-101009727D01*
X151239853Y-100748574D01*
X151295000Y-100471335D01*
X151295000Y-100188665D01*
X151239853Y-99911426D01*
X151131680Y-99650273D01*
X150974637Y-99415241D01*
X150774759Y-99215363D01*
X150539727Y-99058320D01*
X150278574Y-98950147D01*
X150001335Y-98895000D01*
X149718665Y-98895000D01*
X149441426Y-98950147D01*
X149263100Y-99024012D01*
X149263100Y-98962888D01*
X149267019Y-98923100D01*
X149263100Y-98883309D01*
X149251380Y-98764312D01*
X149205063Y-98611627D01*
X149170051Y-98546124D01*
X149129849Y-98470910D01*
X149053993Y-98378480D01*
X149028628Y-98347572D01*
X148997719Y-98322206D01*
X137897941Y-87222429D01*
X137930000Y-87061260D01*
X137930000Y-86768740D01*
X137872932Y-86481842D01*
X137760990Y-86211589D01*
X137598475Y-85968368D01*
X137391632Y-85761525D01*
X137217240Y-85645000D01*
X137391632Y-85528475D01*
X137598475Y-85321632D01*
X137760990Y-85078411D01*
X137872932Y-84808158D01*
X137930000Y-84521260D01*
X137930000Y-84228740D01*
X137872932Y-83941842D01*
X137760990Y-83671589D01*
X137598475Y-83428368D01*
X137391632Y-83221525D01*
X137217240Y-83105000D01*
X137391632Y-82988475D01*
X137598475Y-82781632D01*
X137760990Y-82538411D01*
X137872932Y-82268158D01*
X137930000Y-81981260D01*
X137930000Y-81925512D01*
X141424701Y-85420214D01*
X141424700Y-87579612D01*
X141420781Y-87619400D01*
X141424700Y-87659188D01*
X141424700Y-87659190D01*
X141436420Y-87778187D01*
X141482737Y-87930872D01*
X141503651Y-87970000D01*
X141557951Y-88071589D01*
X141565495Y-88080781D01*
X141659172Y-88194928D01*
X141690087Y-88220299D01*
X142560196Y-89090408D01*
X142395363Y-89255241D01*
X142238320Y-89490273D01*
X142130147Y-89751426D01*
X142075000Y-90028665D01*
X142075000Y-90311335D01*
X142130147Y-90588574D01*
X142238320Y-90849727D01*
X142395363Y-91084759D01*
X142595241Y-91284637D01*
X142830273Y-91441680D01*
X143091426Y-91549853D01*
X143368665Y-91605000D01*
X143651335Y-91605000D01*
X143928574Y-91549853D01*
X144189727Y-91441680D01*
X144424759Y-91284637D01*
X144624637Y-91084759D01*
X144781680Y-90849727D01*
X144889853Y-90588574D01*
X144945000Y-90311335D01*
X144945000Y-90028665D01*
X144889853Y-89751426D01*
X144781680Y-89490273D01*
X144624637Y-89255241D01*
X144424759Y-89055363D01*
X144320000Y-88985365D01*
X144320000Y-88934491D01*
X144323919Y-88894700D01*
X144308280Y-88735912D01*
X144261963Y-88583226D01*
X144186749Y-88442511D01*
X144151861Y-88400000D01*
X144085528Y-88319172D01*
X144054618Y-88293805D01*
X143044700Y-87283888D01*
X143044700Y-86450498D01*
X143091426Y-86469853D01*
X143368665Y-86525000D01*
X143651335Y-86525000D01*
X143928574Y-86469853D01*
X144189727Y-86361680D01*
X144424759Y-86204637D01*
X144624637Y-86004759D01*
X144694635Y-85900000D01*
X148675365Y-85900000D01*
X148745363Y-86004759D01*
X148945241Y-86204637D01*
X149180273Y-86361680D01*
X149441426Y-86469853D01*
X149718665Y-86525000D01*
X150001335Y-86525000D01*
X150278574Y-86469853D01*
X150325300Y-86450498D01*
X150325300Y-87283887D01*
X149315383Y-88293805D01*
X149284473Y-88319172D01*
X149259108Y-88350080D01*
X149183251Y-88442511D01*
X149108038Y-88583227D01*
X149061721Y-88735913D01*
X149046081Y-88894700D01*
X149050001Y-88934498D01*
X149050001Y-88985365D01*
X148945241Y-89055363D01*
X148745363Y-89255241D01*
X148588320Y-89490273D01*
X148480147Y-89751426D01*
X148425000Y-90028665D01*
X148425000Y-90311335D01*
X148480147Y-90588574D01*
X148588320Y-90849727D01*
X148745363Y-91084759D01*
X148945241Y-91284637D01*
X149180273Y-91441680D01*
X149441426Y-91549853D01*
X149718665Y-91605000D01*
X150001335Y-91605000D01*
X150278574Y-91549853D01*
X150539727Y-91441680D01*
X150774759Y-91284637D01*
X150974637Y-91084759D01*
X151131680Y-90849727D01*
X151239853Y-90588574D01*
X151295000Y-90311335D01*
X151295000Y-90028665D01*
X151239853Y-89751426D01*
X151131680Y-89490273D01*
X150974637Y-89255241D01*
X150809804Y-89090408D01*
X151679919Y-88220294D01*
X151710828Y-88194928D01*
X151812049Y-88071589D01*
X151835846Y-88027068D01*
X151887263Y-87930874D01*
X151933580Y-87778188D01*
X151949219Y-87619400D01*
X151945300Y-87579609D01*
X151945300Y-84561688D01*
X151949219Y-84521900D01*
X151945300Y-84482109D01*
X151933580Y-84363112D01*
X151887263Y-84210427D01*
X151812049Y-84069711D01*
X151710828Y-83946372D01*
X151679918Y-83921005D01*
X144027704Y-76268792D01*
X144189727Y-76201680D01*
X144424759Y-76044637D01*
X144624637Y-75844759D01*
X144781680Y-75609727D01*
X144889853Y-75348574D01*
X144945000Y-75071335D01*
X144945000Y-74788665D01*
X148425000Y-74788665D01*
X148425000Y-75071335D01*
X148480147Y-75348574D01*
X148588320Y-75609727D01*
X148745363Y-75844759D01*
X148945241Y-76044637D01*
X149180273Y-76201680D01*
X149441426Y-76309853D01*
X149718665Y-76365000D01*
X150001335Y-76365000D01*
X150278574Y-76309853D01*
X150539727Y-76201680D01*
X150774759Y-76044637D01*
X150974637Y-75844759D01*
X151131680Y-75609727D01*
X151239853Y-75348574D01*
X151295000Y-75071335D01*
X151295000Y-74788665D01*
X151239853Y-74511426D01*
X151131680Y-74250273D01*
X150974637Y-74015241D01*
X150774759Y-73815363D01*
X150539727Y-73658320D01*
X150278574Y-73550147D01*
X150001335Y-73495000D01*
X149718665Y-73495000D01*
X149441426Y-73550147D01*
X149180273Y-73658320D01*
X148945241Y-73815363D01*
X148745363Y-74015241D01*
X148588320Y-74250273D01*
X148480147Y-74511426D01*
X148425000Y-74788665D01*
X144945000Y-74788665D01*
X144889853Y-74511426D01*
X144781680Y-74250273D01*
X144624637Y-74015241D01*
X144424759Y-73815363D01*
X144189727Y-73658320D01*
X143928574Y-73550147D01*
X143651335Y-73495000D01*
X143368665Y-73495000D01*
X143091426Y-73550147D01*
X142830273Y-73658320D01*
X142595241Y-73815363D01*
X142395363Y-74015241D01*
X142238320Y-74250273D01*
X142171208Y-74412296D01*
X141429300Y-73670388D01*
X141403928Y-73639472D01*
X141280589Y-73538251D01*
X141139873Y-73463037D01*
X140987188Y-73416720D01*
X140868191Y-73405000D01*
X140868188Y-73405000D01*
X140828400Y-73401081D01*
X140788612Y-73405000D01*
X137689770Y-73405000D01*
X137598475Y-73268368D01*
X137391632Y-73061525D01*
X137148411Y-72899010D01*
X137060653Y-72862660D01*
X140289013Y-69634300D01*
X148305912Y-69634300D01*
X148345700Y-69638219D01*
X148385488Y-69634300D01*
X148385491Y-69634300D01*
X148504488Y-69622580D01*
X148657173Y-69576263D01*
X148797889Y-69501049D01*
X148921228Y-69399828D01*
X148946600Y-69368912D01*
X153152088Y-65163425D01*
X153163919Y-65168325D01*
X153499117Y-65235000D01*
X153840883Y-65235000D01*
X154176081Y-65168325D01*
X154491831Y-65037537D01*
X154775998Y-64847663D01*
X154780988Y-64842673D01*
X154819906Y-64890094D01*
X154999943Y-65037846D01*
X155205345Y-65147635D01*
X155428219Y-65215244D01*
X155660000Y-65238072D01*
X156760000Y-65238072D01*
X156991781Y-65215244D01*
X157214655Y-65147635D01*
X157420057Y-65037846D01*
X157600094Y-64890094D01*
X157747846Y-64710057D01*
X157857635Y-64504655D01*
X157925244Y-64281781D01*
X157948072Y-64050000D01*
X157948072Y-62950000D01*
X157925244Y-62718219D01*
X157857635Y-62495345D01*
X157747846Y-62289943D01*
X157600094Y-62109906D01*
X157420057Y-61962154D01*
X157214655Y-61852365D01*
X157044957Y-61800887D01*
X157130450Y-61715394D01*
X157193348Y-61621260D01*
X161192105Y-65620018D01*
X161217472Y-65650928D01*
X161297533Y-65716632D01*
X161340811Y-65752149D01*
X161481526Y-65827363D01*
X161517063Y-65838143D01*
X161634212Y-65873680D01*
X161753209Y-65885400D01*
X161753212Y-65885400D01*
X161793000Y-65889319D01*
X161832788Y-65885400D01*
X165136512Y-65885400D01*
X165176300Y-65889319D01*
X165216088Y-65885400D01*
X165216091Y-65885400D01*
X165335088Y-65873680D01*
X165487773Y-65827363D01*
X165628489Y-65752149D01*
X165751828Y-65650928D01*
X165777199Y-65620013D01*
X166168335Y-65228877D01*
X166199117Y-65235000D01*
X166540883Y-65235000D01*
X166876081Y-65168325D01*
X167191831Y-65037537D01*
X167475998Y-64847663D01*
X167717663Y-64605998D01*
X167721670Y-64600000D01*
X172251928Y-64600000D01*
X172264188Y-64724482D01*
X172300498Y-64844180D01*
X172359463Y-64954494D01*
X172438815Y-65051185D01*
X172535506Y-65130537D01*
X172645820Y-65189502D01*
X172765518Y-65225812D01*
X172890000Y-65238072D01*
X173704250Y-65235000D01*
X173863000Y-65076250D01*
X173863000Y-63627000D01*
X172413750Y-63627000D01*
X172255000Y-63785750D01*
X172251928Y-64600000D01*
X167721670Y-64600000D01*
X167907537Y-64321831D01*
X168038325Y-64006081D01*
X168105000Y-63670883D01*
X168105000Y-63329117D01*
X168038325Y-62993919D01*
X167907537Y-62678169D01*
X167721671Y-62400000D01*
X172251928Y-62400000D01*
X172255000Y-63214250D01*
X172413750Y-63373000D01*
X173863000Y-63373000D01*
X173863000Y-63353000D01*
X174117000Y-63353000D01*
X174117000Y-63373000D01*
X174137000Y-63373000D01*
X174137000Y-63627000D01*
X174117000Y-63627000D01*
X174117000Y-65076250D01*
X174275750Y-65235000D01*
X175090000Y-65238072D01*
X175214482Y-65225812D01*
X175334180Y-65189502D01*
X175444494Y-65130537D01*
X175541185Y-65051185D01*
X175607557Y-64970310D01*
X175708169Y-65037537D01*
X176023919Y-65168325D01*
X176359117Y-65235000D01*
X176700883Y-65235000D01*
X177036081Y-65168325D01*
X177351831Y-65037537D01*
X177635998Y-64847663D01*
X177877663Y-64605998D01*
X178067537Y-64321831D01*
X178198325Y-64006081D01*
X178265000Y-63670883D01*
X178265000Y-63329117D01*
X178198325Y-62993919D01*
X178067537Y-62678169D01*
X177877663Y-62394002D01*
X177635998Y-62152337D01*
X177351831Y-61962463D01*
X177235048Y-61914090D01*
X177285394Y-61880450D01*
X177450450Y-61715394D01*
X177580134Y-61521308D01*
X177669461Y-61305652D01*
X177715000Y-61076712D01*
X177715000Y-60843288D01*
X177669461Y-60614348D01*
X177580134Y-60398692D01*
X177450450Y-60204606D01*
X177285394Y-60039550D01*
X177091308Y-59909866D01*
X176875652Y-59820539D01*
X176646712Y-59775000D01*
X176413288Y-59775000D01*
X176184348Y-59820539D01*
X175968692Y-59909866D01*
X175774606Y-60039550D01*
X175609550Y-60204606D01*
X175479866Y-60398692D01*
X175390539Y-60614348D01*
X175345000Y-60843288D01*
X175345000Y-61076712D01*
X175390539Y-61305652D01*
X175479866Y-61521308D01*
X175609550Y-61715394D01*
X175774606Y-61880450D01*
X175824952Y-61914090D01*
X175708169Y-61962463D01*
X175607557Y-62029690D01*
X175541185Y-61948815D01*
X175444494Y-61869463D01*
X175334180Y-61810498D01*
X175214482Y-61774188D01*
X175090000Y-61761928D01*
X174863060Y-61762784D01*
X174910450Y-61715394D01*
X175040134Y-61521308D01*
X175129461Y-61305652D01*
X175175000Y-61076712D01*
X175175000Y-60843288D01*
X175129461Y-60614348D01*
X175040134Y-60398692D01*
X174910450Y-60204606D01*
X174745394Y-60039550D01*
X174551308Y-59909866D01*
X174335652Y-59820539D01*
X174106712Y-59775000D01*
X173873288Y-59775000D01*
X173644348Y-59820539D01*
X173428692Y-59909866D01*
X173234606Y-60039550D01*
X173069550Y-60204606D01*
X172939866Y-60398692D01*
X172850539Y-60614348D01*
X172805000Y-60843288D01*
X172805000Y-61076712D01*
X172850539Y-61305652D01*
X172939866Y-61521308D01*
X173069550Y-61715394D01*
X173116940Y-61762784D01*
X172890000Y-61761928D01*
X172765518Y-61774188D01*
X172645820Y-61810498D01*
X172535506Y-61869463D01*
X172438815Y-61948815D01*
X172359463Y-62045506D01*
X172300498Y-62155820D01*
X172264188Y-62275518D01*
X172251928Y-62400000D01*
X167721671Y-62400000D01*
X167717663Y-62394002D01*
X167475998Y-62152337D01*
X167191831Y-61962463D01*
X167075048Y-61914090D01*
X167125394Y-61880450D01*
X167290450Y-61715394D01*
X167420134Y-61521308D01*
X167509461Y-61305652D01*
X167555000Y-61076712D01*
X167555000Y-60843288D01*
X167509461Y-60614348D01*
X167420134Y-60398692D01*
X167290450Y-60204606D01*
X167125394Y-60039550D01*
X166931308Y-59909866D01*
X166715652Y-59820539D01*
X166486712Y-59775000D01*
X166253288Y-59775000D01*
X166024348Y-59820539D01*
X165808692Y-59909866D01*
X165614606Y-60039550D01*
X165449550Y-60204606D01*
X165319866Y-60398692D01*
X165230539Y-60614348D01*
X165185000Y-60843288D01*
X165185000Y-61076712D01*
X165230539Y-61305652D01*
X165319866Y-61521308D01*
X165449550Y-61715394D01*
X165614606Y-61880450D01*
X165664952Y-61914090D01*
X165548169Y-61962463D01*
X165447557Y-62029690D01*
X165381185Y-61948815D01*
X165284494Y-61869463D01*
X165174180Y-61810498D01*
X165054482Y-61774188D01*
X164930000Y-61761928D01*
X164703060Y-61762784D01*
X164750450Y-61715394D01*
X164880134Y-61521308D01*
X164969461Y-61305652D01*
X165015000Y-61076712D01*
X165015000Y-60843288D01*
X164969461Y-60614348D01*
X164880134Y-60398692D01*
X164750450Y-60204606D01*
X164585394Y-60039550D01*
X164391308Y-59909866D01*
X164175652Y-59820539D01*
X163946712Y-59775000D01*
X163713288Y-59775000D01*
X163484348Y-59820539D01*
X163268692Y-59909866D01*
X163074606Y-60039550D01*
X162909550Y-60204606D01*
X162779866Y-60398692D01*
X162690539Y-60614348D01*
X162645000Y-60843288D01*
X162645000Y-61076712D01*
X162690539Y-61305652D01*
X162779866Y-61521308D01*
X162909550Y-61715394D01*
X162956940Y-61762784D01*
X162730000Y-61761928D01*
X162605518Y-61774188D01*
X162485820Y-61810498D01*
X162375506Y-61869463D01*
X162278815Y-61948815D01*
X162199463Y-62045506D01*
X162140498Y-62155820D01*
X162104188Y-62275518D01*
X162091928Y-62400000D01*
X162095000Y-63214250D01*
X162253750Y-63373000D01*
X163703000Y-63373000D01*
X163703000Y-63353000D01*
X163957000Y-63353000D01*
X163957000Y-63373000D01*
X163977000Y-63373000D01*
X163977000Y-63627000D01*
X163957000Y-63627000D01*
X163957000Y-63647000D01*
X163703000Y-63647000D01*
X163703000Y-63627000D01*
X162253750Y-63627000D01*
X162095000Y-63785750D01*
X162093323Y-64230210D01*
X157238000Y-59374888D01*
X157212628Y-59343972D01*
X157089289Y-59242751D01*
X156948573Y-59167537D01*
X156795888Y-59121220D01*
X156676891Y-59109500D01*
X156676888Y-59109500D01*
X156637100Y-59105581D01*
X156597312Y-59109500D01*
X142096487Y-59109500D01*
X142056699Y-59105581D01*
X142016911Y-59109500D01*
X142016909Y-59109500D01*
X141897912Y-59121220D01*
X141745227Y-59167537D01*
X141681537Y-59201580D01*
X141604510Y-59242751D01*
X141577400Y-59265000D01*
X141481172Y-59343972D01*
X141455805Y-59374882D01*
X137628072Y-63202615D01*
X137628072Y-62950000D01*
X137605244Y-62718219D01*
X137537635Y-62495345D01*
X137427846Y-62289943D01*
X137280094Y-62109906D01*
X137100057Y-61962154D01*
X136894655Y-61852365D01*
X136724957Y-61800887D01*
X136810450Y-61715394D01*
X136940134Y-61521308D01*
X137029461Y-61305652D01*
X137075000Y-61076712D01*
X137075000Y-60843288D01*
X137029461Y-60614348D01*
X136940134Y-60398692D01*
X136810450Y-60204606D01*
X136645394Y-60039550D01*
X136451308Y-59909866D01*
X136235652Y-59820539D01*
X136006712Y-59775000D01*
X135773288Y-59775000D01*
X135544348Y-59820539D01*
X135328692Y-59909866D01*
X135134606Y-60039550D01*
X135114934Y-60059222D01*
X132914399Y-57858687D01*
X132889028Y-57827772D01*
X132765689Y-57726551D01*
X132624973Y-57651337D01*
X132472288Y-57605020D01*
X132353291Y-57593300D01*
X132353288Y-57593300D01*
X132313500Y-57589381D01*
X132273712Y-57593300D01*
X123246488Y-57593300D01*
X123206700Y-57589381D01*
X123166912Y-57593300D01*
X123166909Y-57593300D01*
X123047912Y-57605020D01*
X122895227Y-57651337D01*
X122829724Y-57686349D01*
X122754510Y-57726551D01*
X122690496Y-57779086D01*
X122631172Y-57827772D01*
X122605805Y-57858682D01*
X115735000Y-64729488D01*
X115735000Y-64642998D01*
X115569916Y-64642998D01*
X115691904Y-64420961D01*
X115651246Y-64286913D01*
X115531037Y-64032580D01*
X115363519Y-63806586D01*
X115155131Y-63617615D01*
X114913881Y-63472930D01*
X114649040Y-63378091D01*
X114427000Y-63499376D01*
X114427000Y-64643000D01*
X114447000Y-64643000D01*
X114447000Y-64897000D01*
X114427000Y-64897000D01*
X114427000Y-64917000D01*
X114173000Y-64917000D01*
X114173000Y-64897000D01*
X114153000Y-64897000D01*
X114153000Y-64643000D01*
X114173000Y-64643000D01*
X114173000Y-63499376D01*
X113950960Y-63378091D01*
X113686119Y-63472930D01*
X113444869Y-63617615D01*
X113236481Y-63806586D01*
X113068963Y-64032580D01*
X112948754Y-64286913D01*
X112908096Y-64420961D01*
X113030084Y-64642998D01*
X112865000Y-64642998D01*
X112865000Y-64729487D01*
X108174552Y-60039039D01*
X112908096Y-60039039D01*
X112948754Y-60173087D01*
X113068963Y-60427420D01*
X113236481Y-60653414D01*
X113444869Y-60842385D01*
X113686119Y-60987070D01*
X113950960Y-61081909D01*
X114173000Y-60960624D01*
X114173000Y-59817000D01*
X114427000Y-59817000D01*
X114427000Y-60960624D01*
X114649040Y-61081909D01*
X114913881Y-60987070D01*
X115155131Y-60842385D01*
X115363519Y-60653414D01*
X115531037Y-60427420D01*
X115651246Y-60173087D01*
X115691904Y-60039039D01*
X115569915Y-59817000D01*
X114427000Y-59817000D01*
X114173000Y-59817000D01*
X113030085Y-59817000D01*
X112908096Y-60039039D01*
X108174552Y-60039039D01*
X108168072Y-60032560D01*
X108168072Y-59340961D01*
X112908096Y-59340961D01*
X113030085Y-59563000D01*
X114173000Y-59563000D01*
X114173000Y-58419376D01*
X114427000Y-58419376D01*
X114427000Y-59563000D01*
X115569915Y-59563000D01*
X115691904Y-59340961D01*
X115651246Y-59206913D01*
X115531037Y-58952580D01*
X115363519Y-58726586D01*
X115155131Y-58537615D01*
X114913881Y-58392930D01*
X114649040Y-58298091D01*
X114427000Y-58419376D01*
X114173000Y-58419376D01*
X113950960Y-58298091D01*
X113686119Y-58392930D01*
X113444869Y-58537615D01*
X113236481Y-58726586D01*
X113068963Y-58952580D01*
X112948754Y-59206913D01*
X112908096Y-59340961D01*
X108168072Y-59340961D01*
X108168072Y-59265000D01*
X108147645Y-59057605D01*
X108087150Y-58858180D01*
X107988912Y-58674389D01*
X107856705Y-58513295D01*
X107695611Y-58381088D01*
X107511820Y-58282850D01*
X107312395Y-58222355D01*
X107105000Y-58201928D01*
X106255000Y-58201928D01*
X106047605Y-58222355D01*
X105848180Y-58282850D01*
X105664389Y-58381088D01*
X105503295Y-58513295D01*
X105371088Y-58674389D01*
X105272850Y-58858180D01*
X105212355Y-59057605D01*
X105191928Y-59265000D01*
X105191928Y-60115000D01*
X105212355Y-60322395D01*
X105272850Y-60521820D01*
X105371088Y-60705611D01*
X105484986Y-60844396D01*
X105475506Y-60849463D01*
X105378815Y-60928815D01*
X105299463Y-61025506D01*
X105240498Y-61135820D01*
X105204188Y-61255518D01*
X105191928Y-61380000D01*
X105195000Y-61944250D01*
X105353750Y-62103000D01*
X106553000Y-62103000D01*
X106553000Y-62083000D01*
X106807000Y-62083000D01*
X106807000Y-62103000D01*
X106827000Y-62103000D01*
X106827000Y-62357000D01*
X106807000Y-62357000D01*
X106807000Y-62377000D01*
X106553000Y-62377000D01*
X106553000Y-62357000D01*
X105353750Y-62357000D01*
X105195000Y-62515750D01*
X105191928Y-63080000D01*
X105204188Y-63204482D01*
X105240498Y-63324180D01*
X105299463Y-63434494D01*
X105378815Y-63531185D01*
X105475506Y-63610537D01*
X105585820Y-63669502D01*
X105658380Y-63691513D01*
X105526525Y-63823368D01*
X105364010Y-64066589D01*
X105252068Y-64336842D01*
X105195000Y-64623740D01*
X105195000Y-64916260D01*
X105227059Y-65077429D01*
X103595387Y-66709100D01*
X103564472Y-66734472D01*
X103494703Y-66819487D01*
X103463251Y-66857811D01*
X103453079Y-66876842D01*
X103388037Y-66998528D01*
X103341720Y-67151213D01*
X103330000Y-67270209D01*
X103326081Y-67310000D01*
X95377000Y-67310000D01*
X95377000Y-54389872D01*
X95555000Y-54389872D01*
X95555000Y-54830128D01*
X95640890Y-55261925D01*
X95809369Y-55668669D01*
X96053962Y-56034729D01*
X96365271Y-56346038D01*
X96731331Y-56590631D01*
X97138075Y-56759110D01*
X97569872Y-56845000D01*
X98010128Y-56845000D01*
X98441925Y-56759110D01*
X98848669Y-56590631D01*
X99214729Y-56346038D01*
X99526038Y-56034729D01*
X99770631Y-55668669D01*
X99939110Y-55261925D01*
X100025000Y-54830128D01*
X100025000Y-54389872D01*
X180645000Y-54389872D01*
X180645000Y-54830128D01*
X180730890Y-55261925D01*
X180899369Y-55668669D01*
X181143962Y-56034729D01*
X181455271Y-56346038D01*
X181821331Y-56590631D01*
X182228075Y-56759110D01*
X182659872Y-56845000D01*
X183100128Y-56845000D01*
X183531925Y-56759110D01*
X183938669Y-56590631D01*
X184304729Y-56346038D01*
X184616038Y-56034729D01*
X184860631Y-55668669D01*
X185029110Y-55261925D01*
X185115000Y-54830128D01*
X185115000Y-54389872D01*
X185029110Y-53958075D01*
X184860631Y-53551331D01*
X184616038Y-53185271D01*
X184304729Y-52873962D01*
X183938669Y-52629369D01*
X183531925Y-52460890D01*
X183100128Y-52375000D01*
X182659872Y-52375000D01*
X182228075Y-52460890D01*
X181821331Y-52629369D01*
X181455271Y-52873962D01*
X181143962Y-53185271D01*
X180899369Y-53551331D01*
X180730890Y-53958075D01*
X180645000Y-54389872D01*
X100025000Y-54389872D01*
X99939110Y-53958075D01*
X99770631Y-53551331D01*
X99526038Y-53185271D01*
X99214729Y-52873962D01*
X98848669Y-52629369D01*
X98441925Y-52460890D01*
X98010128Y-52375000D01*
X97569872Y-52375000D01*
X97138075Y-52460890D01*
X96731331Y-52629369D01*
X96365271Y-52873962D01*
X96053962Y-53185271D01*
X95809369Y-53551331D01*
X95640890Y-53958075D01*
X95555000Y-54389872D01*
X95377000Y-54389872D01*
X95377000Y-52201484D01*
X185293000Y-52192517D01*
X185293000Y-121788517D01*
G37*
G04 #@! TD.AperFunction*
D20*
X129172300Y-82485187D02*
X113755383Y-97902105D01*
X113724473Y-97927472D01*
X113699108Y-97958380D01*
X113623251Y-98050811D01*
X113550421Y-98187068D01*
X113548038Y-98191527D01*
X113540918Y-98215000D01*
X113501721Y-98344213D01*
X113486081Y-98503000D01*
X113490001Y-98542798D01*
X113490001Y-99145365D01*
X113385241Y-99215363D01*
X113185363Y-99415241D01*
X113028320Y-99650273D01*
X112920147Y-99911426D01*
X112865000Y-100188665D01*
X112865000Y-100471335D01*
X112889580Y-100594907D01*
X112146900Y-101337588D01*
X112146900Y-96204312D01*
X116152419Y-92198794D01*
X116183328Y-92173428D01*
X116284549Y-92050089D01*
X116319543Y-91984620D01*
X116359763Y-91909374D01*
X116370543Y-91873837D01*
X116406080Y-91756688D01*
X116417800Y-91637691D01*
X116417800Y-91637688D01*
X116421719Y-91597900D01*
X116417800Y-91558112D01*
X116417800Y-85439039D01*
X123068096Y-85439039D01*
X123108754Y-85573087D01*
X123228963Y-85827420D01*
X123396481Y-86053414D01*
X123604869Y-86242385D01*
X123846119Y-86387070D01*
X124110960Y-86481909D01*
X124333000Y-86360624D01*
X124333000Y-85217000D01*
X124587000Y-85217000D01*
X124587000Y-86360624D01*
X124809040Y-86481909D01*
X125073881Y-86387070D01*
X125315131Y-86242385D01*
X125523519Y-86053414D01*
X125691037Y-85827420D01*
X125811246Y-85573087D01*
X125851904Y-85439039D01*
X125729915Y-85217000D01*
X124587000Y-85217000D01*
X124333000Y-85217000D01*
X123190085Y-85217000D01*
X123068096Y-85439039D01*
X116417800Y-85439039D01*
X116417800Y-84740961D01*
X123068096Y-84740961D01*
X123190085Y-84963000D01*
X124333000Y-84963000D01*
X124333000Y-83819376D01*
X124587000Y-83819376D01*
X124587000Y-84963000D01*
X125729915Y-84963000D01*
X125851904Y-84740961D01*
X125811246Y-84606913D01*
X125691037Y-84352580D01*
X125523519Y-84126586D01*
X125315131Y-83937615D01*
X125073881Y-83792930D01*
X124809040Y-83698091D01*
X124587000Y-83819376D01*
X124333000Y-83819376D01*
X124110960Y-83698091D01*
X123846119Y-83792930D01*
X123604869Y-83937615D01*
X123396481Y-84126586D01*
X123228963Y-84352580D01*
X123108754Y-84606913D01*
X123068096Y-84740961D01*
X116417800Y-84740961D01*
X116417800Y-82127800D01*
X125652412Y-82127800D01*
X125692200Y-82131719D01*
X125731988Y-82127800D01*
X125731991Y-82127800D01*
X125850988Y-82116080D01*
X126003673Y-82069763D01*
X126144389Y-81994549D01*
X126267728Y-81893328D01*
X126293100Y-81862412D01*
X129172301Y-78983211D01*
X129172300Y-82485187D01*
G04 #@! TA.AperFunction,Conductor*
D21*
G36*
X129172300Y-82485187D02*
G01*
X113755383Y-97902105D01*
X113724473Y-97927472D01*
X113699108Y-97958380D01*
X113623251Y-98050811D01*
X113550421Y-98187068D01*
X113548038Y-98191527D01*
X113540918Y-98215000D01*
X113501721Y-98344213D01*
X113486081Y-98503000D01*
X113490001Y-98542798D01*
X113490001Y-99145365D01*
X113385241Y-99215363D01*
X113185363Y-99415241D01*
X113028320Y-99650273D01*
X112920147Y-99911426D01*
X112865000Y-100188665D01*
X112865000Y-100471335D01*
X112889580Y-100594907D01*
X112146900Y-101337588D01*
X112146900Y-96204312D01*
X116152419Y-92198794D01*
X116183328Y-92173428D01*
X116284549Y-92050089D01*
X116319543Y-91984620D01*
X116359763Y-91909374D01*
X116370543Y-91873837D01*
X116406080Y-91756688D01*
X116417800Y-91637691D01*
X116417800Y-91637688D01*
X116421719Y-91597900D01*
X116417800Y-91558112D01*
X116417800Y-85439039D01*
X123068096Y-85439039D01*
X123108754Y-85573087D01*
X123228963Y-85827420D01*
X123396481Y-86053414D01*
X123604869Y-86242385D01*
X123846119Y-86387070D01*
X124110960Y-86481909D01*
X124333000Y-86360624D01*
X124333000Y-85217000D01*
X124587000Y-85217000D01*
X124587000Y-86360624D01*
X124809040Y-86481909D01*
X125073881Y-86387070D01*
X125315131Y-86242385D01*
X125523519Y-86053414D01*
X125691037Y-85827420D01*
X125811246Y-85573087D01*
X125851904Y-85439039D01*
X125729915Y-85217000D01*
X124587000Y-85217000D01*
X124333000Y-85217000D01*
X123190085Y-85217000D01*
X123068096Y-85439039D01*
X116417800Y-85439039D01*
X116417800Y-84740961D01*
X123068096Y-84740961D01*
X123190085Y-84963000D01*
X124333000Y-84963000D01*
X124333000Y-83819376D01*
X124587000Y-83819376D01*
X124587000Y-84963000D01*
X125729915Y-84963000D01*
X125851904Y-84740961D01*
X125811246Y-84606913D01*
X125691037Y-84352580D01*
X125523519Y-84126586D01*
X125315131Y-83937615D01*
X125073881Y-83792930D01*
X124809040Y-83698091D01*
X124587000Y-83819376D01*
X124333000Y-83819376D01*
X124110960Y-83698091D01*
X123846119Y-83792930D01*
X123604869Y-83937615D01*
X123396481Y-84126586D01*
X123228963Y-84352580D01*
X123108754Y-84606913D01*
X123068096Y-84740961D01*
X116417800Y-84740961D01*
X116417800Y-82127800D01*
X125652412Y-82127800D01*
X125692200Y-82131719D01*
X125731988Y-82127800D01*
X125731991Y-82127800D01*
X125850988Y-82116080D01*
X126003673Y-82069763D01*
X126144389Y-81994549D01*
X126267728Y-81893328D01*
X126293100Y-81862412D01*
X129172301Y-78983211D01*
X129172300Y-82485187D01*
G37*
G04 #@! TD.AperFunction*
D20*
X113490001Y-67645514D02*
X113490000Y-68665365D01*
X113385241Y-68735363D01*
X113185363Y-68935241D01*
X113028320Y-69170273D01*
X112920147Y-69431426D01*
X112865000Y-69708665D01*
X112865000Y-69991335D01*
X112920147Y-70268574D01*
X113028320Y-70529727D01*
X113185363Y-70764759D01*
X113385241Y-70964637D01*
X113620273Y-71121680D01*
X113676654Y-71145034D01*
X108161688Y-76660000D01*
X107924770Y-76660000D01*
X107833475Y-76523368D01*
X107626632Y-76316525D01*
X107452240Y-76200000D01*
X107626632Y-76083475D01*
X107833475Y-75876632D01*
X107995990Y-75633411D01*
X108107932Y-75363158D01*
X108165000Y-75076260D01*
X108165000Y-74783740D01*
X108107932Y-74496842D01*
X107995990Y-74226589D01*
X107833475Y-73983368D01*
X107626632Y-73776525D01*
X107452240Y-73660000D01*
X107626632Y-73543475D01*
X107833475Y-73336632D01*
X107995990Y-73093411D01*
X108107932Y-72823158D01*
X108165000Y-72536260D01*
X108165000Y-72243740D01*
X108107932Y-71956842D01*
X107995990Y-71686589D01*
X107833475Y-71443368D01*
X107626632Y-71236525D01*
X107444466Y-71114805D01*
X107561355Y-71045178D01*
X107777588Y-70850269D01*
X107951641Y-70616920D01*
X108076825Y-70354099D01*
X108121476Y-70206890D01*
X108000155Y-69977000D01*
X106807000Y-69977000D01*
X106807000Y-69997000D01*
X106553000Y-69997000D01*
X106553000Y-69977000D01*
X105359845Y-69977000D01*
X105238524Y-70206890D01*
X105283175Y-70354099D01*
X105408359Y-70616920D01*
X105582412Y-70850269D01*
X105798645Y-71045178D01*
X105915534Y-71114805D01*
X105733368Y-71236525D01*
X105526525Y-71443368D01*
X105364010Y-71686589D01*
X105252068Y-71956842D01*
X105195000Y-72243740D01*
X105195000Y-72536260D01*
X105252068Y-72823158D01*
X105364010Y-73093411D01*
X105526525Y-73336632D01*
X105733368Y-73543475D01*
X105907760Y-73660000D01*
X105733368Y-73776525D01*
X105526525Y-73983368D01*
X105364010Y-74226589D01*
X105252068Y-74496842D01*
X105195000Y-74783740D01*
X105195000Y-75076260D01*
X105252068Y-75363158D01*
X105364010Y-75633411D01*
X105526525Y-75876632D01*
X105733368Y-76083475D01*
X105907760Y-76200000D01*
X105733368Y-76316525D01*
X105526525Y-76523368D01*
X105364010Y-76766589D01*
X105252068Y-77036842D01*
X105195000Y-77323740D01*
X105195000Y-77616260D01*
X105252068Y-77903158D01*
X105364010Y-78173411D01*
X105526525Y-78416632D01*
X105733368Y-78623475D01*
X105907760Y-78740000D01*
X105733368Y-78856525D01*
X105526525Y-79063368D01*
X105364010Y-79306589D01*
X105252068Y-79576842D01*
X105195000Y-79863740D01*
X105195000Y-80156260D01*
X105252068Y-80443158D01*
X105364010Y-80713411D01*
X105526525Y-80956632D01*
X105733368Y-81163475D01*
X105907760Y-81280000D01*
X105733368Y-81396525D01*
X105526525Y-81603368D01*
X105364010Y-81846589D01*
X105252068Y-82116842D01*
X105195000Y-82403740D01*
X105195000Y-82696260D01*
X105252068Y-82983158D01*
X105364010Y-83253411D01*
X105526525Y-83496632D01*
X105733368Y-83703475D01*
X105976589Y-83865990D01*
X106246842Y-83977932D01*
X106533740Y-84035000D01*
X106826260Y-84035000D01*
X107113158Y-83977932D01*
X107383411Y-83865990D01*
X107626632Y-83703475D01*
X107833475Y-83496632D01*
X107924770Y-83360000D01*
X107965512Y-83360000D01*
X108005300Y-83363919D01*
X108045088Y-83360000D01*
X108045091Y-83360000D01*
X108164088Y-83348280D01*
X108316773Y-83301963D01*
X108457489Y-83226749D01*
X108580828Y-83125528D01*
X108606200Y-83094612D01*
X115960813Y-75740000D01*
X130124488Y-75740000D01*
X125895000Y-79969488D01*
X125895000Y-79882998D01*
X125729916Y-79882998D01*
X125851904Y-79660961D01*
X125811246Y-79526913D01*
X125691037Y-79272580D01*
X125523519Y-79046586D01*
X125315131Y-78857615D01*
X125073881Y-78712930D01*
X124809040Y-78618091D01*
X124587000Y-78739376D01*
X124587000Y-79883000D01*
X124607000Y-79883000D01*
X124607000Y-80137000D01*
X124587000Y-80137000D01*
X124587000Y-80157000D01*
X124333000Y-80157000D01*
X124333000Y-80137000D01*
X123190085Y-80137000D01*
X123068096Y-80359039D01*
X123108754Y-80493087D01*
X123115708Y-80507800D01*
X115943313Y-80507800D01*
X115710420Y-80274907D01*
X115735000Y-80151335D01*
X115735000Y-79868665D01*
X115693685Y-79660961D01*
X123068096Y-79660961D01*
X123190085Y-79883000D01*
X124333000Y-79883000D01*
X124333000Y-78739376D01*
X124110960Y-78618091D01*
X123846119Y-78712930D01*
X123604869Y-78857615D01*
X123396481Y-79046586D01*
X123228963Y-79272580D01*
X123108754Y-79526913D01*
X123068096Y-79660961D01*
X115693685Y-79660961D01*
X115679853Y-79591426D01*
X115571680Y-79330273D01*
X115414637Y-79095241D01*
X115214759Y-78895363D01*
X114979727Y-78738320D01*
X114718574Y-78630147D01*
X114441335Y-78575000D01*
X114158665Y-78575000D01*
X113881426Y-78630147D01*
X113620273Y-78738320D01*
X113385241Y-78895363D01*
X113185363Y-79095241D01*
X113028320Y-79330273D01*
X112920147Y-79591426D01*
X112865000Y-79868665D01*
X112865000Y-80151335D01*
X112920147Y-80428574D01*
X113028320Y-80689727D01*
X113185363Y-80924759D01*
X113385241Y-81124637D01*
X113620273Y-81281680D01*
X113881426Y-81389853D01*
X114158665Y-81445000D01*
X114441335Y-81445000D01*
X114564907Y-81420420D01*
X114797801Y-81653314D01*
X114797801Y-83742964D01*
X114718574Y-83710147D01*
X114441335Y-83655000D01*
X114158665Y-83655000D01*
X113881426Y-83710147D01*
X113620273Y-83818320D01*
X113385241Y-83975363D01*
X113185363Y-84175241D01*
X113028320Y-84410273D01*
X112920147Y-84671426D01*
X112865000Y-84948665D01*
X112865000Y-85231335D01*
X112920147Y-85508574D01*
X113028320Y-85769727D01*
X113185363Y-86004759D01*
X113385241Y-86204637D01*
X113490001Y-86274635D01*
X113490000Y-88985365D01*
X113385241Y-89055363D01*
X113185363Y-89255241D01*
X113028320Y-89490273D01*
X112920147Y-89751426D01*
X112865000Y-90028665D01*
X112865000Y-90311335D01*
X112920147Y-90588574D01*
X113028320Y-90849727D01*
X113185363Y-91084759D01*
X113350196Y-91249592D01*
X108914183Y-95685605D01*
X108883273Y-95710972D01*
X108857908Y-95741880D01*
X108817000Y-95791726D01*
X108817000Y-92806787D01*
X108820919Y-92766999D01*
X108817000Y-92727209D01*
X108805280Y-92608212D01*
X108758963Y-92455527D01*
X108683749Y-92314811D01*
X108582528Y-92191472D01*
X108551619Y-92166106D01*
X108168072Y-91782559D01*
X108168072Y-91015000D01*
X108147645Y-90807605D01*
X108087150Y-90608180D01*
X107988912Y-90424389D01*
X107856705Y-90263295D01*
X107695611Y-90131088D01*
X107511820Y-90032850D01*
X107312395Y-89972355D01*
X107105000Y-89951928D01*
X106255000Y-89951928D01*
X106047605Y-89972355D01*
X105848180Y-90032850D01*
X105664389Y-90131088D01*
X105503295Y-90263295D01*
X105371088Y-90424389D01*
X105272850Y-90608180D01*
X105212355Y-90807605D01*
X105191928Y-91015000D01*
X105191928Y-91865000D01*
X105212355Y-92072395D01*
X105272850Y-92271820D01*
X105371088Y-92455611D01*
X105484986Y-92594396D01*
X105475506Y-92599463D01*
X105378815Y-92678815D01*
X105299463Y-92775506D01*
X105240498Y-92885820D01*
X105204188Y-93005518D01*
X105191928Y-93130000D01*
X105195000Y-93694250D01*
X105353750Y-93853000D01*
X106553000Y-93853000D01*
X106553000Y-93833000D01*
X106807000Y-93833000D01*
X106807000Y-93853000D01*
X106827000Y-93853000D01*
X106827000Y-94107000D01*
X106807000Y-94107000D01*
X106807000Y-94127000D01*
X106553000Y-94127000D01*
X106553000Y-94107000D01*
X105353750Y-94107000D01*
X105195000Y-94265750D01*
X105191985Y-94819544D01*
X104950000Y-94691931D01*
X104950000Y-67645512D01*
X105195000Y-67400512D01*
X105195000Y-67456260D01*
X105252068Y-67743158D01*
X105364010Y-68013411D01*
X105526525Y-68256632D01*
X105733368Y-68463475D01*
X105915534Y-68585195D01*
X105798645Y-68654822D01*
X105582412Y-68849731D01*
X105408359Y-69083080D01*
X105283175Y-69345901D01*
X105238524Y-69493110D01*
X105359845Y-69723000D01*
X106553000Y-69723000D01*
X106553000Y-69703000D01*
X106807000Y-69703000D01*
X106807000Y-69723000D01*
X108000155Y-69723000D01*
X108121476Y-69493110D01*
X108076825Y-69345901D01*
X107951641Y-69083080D01*
X107777588Y-68849731D01*
X107561355Y-68654822D01*
X107444466Y-68585195D01*
X107626632Y-68463475D01*
X107833475Y-68256632D01*
X107995990Y-68013411D01*
X108107932Y-67743158D01*
X108165000Y-67456260D01*
X108165000Y-67163740D01*
X108107932Y-66876842D01*
X107995990Y-66606589D01*
X107833475Y-66363368D01*
X107626632Y-66156525D01*
X107452240Y-66040000D01*
X107626632Y-65923475D01*
X107833475Y-65716632D01*
X107995990Y-65473411D01*
X108107932Y-65203158D01*
X108165000Y-64916260D01*
X108165000Y-64623740D01*
X108107932Y-64336842D01*
X107995990Y-64066589D01*
X107833475Y-63823368D01*
X107701620Y-63691513D01*
X107774180Y-63669502D01*
X107884494Y-63610537D01*
X107981185Y-63531185D01*
X108060537Y-63434494D01*
X108119502Y-63324180D01*
X108155812Y-63204482D01*
X108168072Y-63080000D01*
X108165000Y-62515750D01*
X108006252Y-62357002D01*
X108165000Y-62357002D01*
X108165000Y-62320512D01*
X113490001Y-67645514D01*
G04 #@! TA.AperFunction,Conductor*
D21*
G36*
X113490001Y-67645514D02*
G01*
X113490000Y-68665365D01*
X113385241Y-68735363D01*
X113185363Y-68935241D01*
X113028320Y-69170273D01*
X112920147Y-69431426D01*
X112865000Y-69708665D01*
X112865000Y-69991335D01*
X112920147Y-70268574D01*
X113028320Y-70529727D01*
X113185363Y-70764759D01*
X113385241Y-70964637D01*
X113620273Y-71121680D01*
X113676654Y-71145034D01*
X108161688Y-76660000D01*
X107924770Y-76660000D01*
X107833475Y-76523368D01*
X107626632Y-76316525D01*
X107452240Y-76200000D01*
X107626632Y-76083475D01*
X107833475Y-75876632D01*
X107995990Y-75633411D01*
X108107932Y-75363158D01*
X108165000Y-75076260D01*
X108165000Y-74783740D01*
X108107932Y-74496842D01*
X107995990Y-74226589D01*
X107833475Y-73983368D01*
X107626632Y-73776525D01*
X107452240Y-73660000D01*
X107626632Y-73543475D01*
X107833475Y-73336632D01*
X107995990Y-73093411D01*
X108107932Y-72823158D01*
X108165000Y-72536260D01*
X108165000Y-72243740D01*
X108107932Y-71956842D01*
X107995990Y-71686589D01*
X107833475Y-71443368D01*
X107626632Y-71236525D01*
X107444466Y-71114805D01*
X107561355Y-71045178D01*
X107777588Y-70850269D01*
X107951641Y-70616920D01*
X108076825Y-70354099D01*
X108121476Y-70206890D01*
X108000155Y-69977000D01*
X106807000Y-69977000D01*
X106807000Y-69997000D01*
X106553000Y-69997000D01*
X106553000Y-69977000D01*
X105359845Y-69977000D01*
X105238524Y-70206890D01*
X105283175Y-70354099D01*
X105408359Y-70616920D01*
X105582412Y-70850269D01*
X105798645Y-71045178D01*
X105915534Y-71114805D01*
X105733368Y-71236525D01*
X105526525Y-71443368D01*
X105364010Y-71686589D01*
X105252068Y-71956842D01*
X105195000Y-72243740D01*
X105195000Y-72536260D01*
X105252068Y-72823158D01*
X105364010Y-73093411D01*
X105526525Y-73336632D01*
X105733368Y-73543475D01*
X105907760Y-73660000D01*
X105733368Y-73776525D01*
X105526525Y-73983368D01*
X105364010Y-74226589D01*
X105252068Y-74496842D01*
X105195000Y-74783740D01*
X105195000Y-75076260D01*
X105252068Y-75363158D01*
X105364010Y-75633411D01*
X105526525Y-75876632D01*
X105733368Y-76083475D01*
X105907760Y-76200000D01*
X105733368Y-76316525D01*
X105526525Y-76523368D01*
X105364010Y-76766589D01*
X105252068Y-77036842D01*
X105195000Y-77323740D01*
X105195000Y-77616260D01*
X105252068Y-77903158D01*
X105364010Y-78173411D01*
X105526525Y-78416632D01*
X105733368Y-78623475D01*
X105907760Y-78740000D01*
X105733368Y-78856525D01*
X105526525Y-79063368D01*
X105364010Y-79306589D01*
X105252068Y-79576842D01*
X105195000Y-79863740D01*
X105195000Y-80156260D01*
X105252068Y-80443158D01*
X105364010Y-80713411D01*
X105526525Y-80956632D01*
X105733368Y-81163475D01*
X105907760Y-81280000D01*
X105733368Y-81396525D01*
X105526525Y-81603368D01*
X105364010Y-81846589D01*
X105252068Y-82116842D01*
X105195000Y-82403740D01*
X105195000Y-82696260D01*
X105252068Y-82983158D01*
X105364010Y-83253411D01*
X105526525Y-83496632D01*
X105733368Y-83703475D01*
X105976589Y-83865990D01*
X106246842Y-83977932D01*
X106533740Y-84035000D01*
X106826260Y-84035000D01*
X107113158Y-83977932D01*
X107383411Y-83865990D01*
X107626632Y-83703475D01*
X107833475Y-83496632D01*
X107924770Y-83360000D01*
X107965512Y-83360000D01*
X108005300Y-83363919D01*
X108045088Y-83360000D01*
X108045091Y-83360000D01*
X108164088Y-83348280D01*
X108316773Y-83301963D01*
X108457489Y-83226749D01*
X108580828Y-83125528D01*
X108606200Y-83094612D01*
X115960813Y-75740000D01*
X130124488Y-75740000D01*
X125895000Y-79969488D01*
X125895000Y-79882998D01*
X125729916Y-79882998D01*
X125851904Y-79660961D01*
X125811246Y-79526913D01*
X125691037Y-79272580D01*
X125523519Y-79046586D01*
X125315131Y-78857615D01*
X125073881Y-78712930D01*
X124809040Y-78618091D01*
X124587000Y-78739376D01*
X124587000Y-79883000D01*
X124607000Y-79883000D01*
X124607000Y-80137000D01*
X124587000Y-80137000D01*
X124587000Y-80157000D01*
X124333000Y-80157000D01*
X124333000Y-80137000D01*
X123190085Y-80137000D01*
X123068096Y-80359039D01*
X123108754Y-80493087D01*
X123115708Y-80507800D01*
X115943313Y-80507800D01*
X115710420Y-80274907D01*
X115735000Y-80151335D01*
X115735000Y-79868665D01*
X115693685Y-79660961D01*
X123068096Y-79660961D01*
X123190085Y-79883000D01*
X124333000Y-79883000D01*
X124333000Y-78739376D01*
X124110960Y-78618091D01*
X123846119Y-78712930D01*
X123604869Y-78857615D01*
X123396481Y-79046586D01*
X123228963Y-79272580D01*
X123108754Y-79526913D01*
X123068096Y-79660961D01*
X115693685Y-79660961D01*
X115679853Y-79591426D01*
X115571680Y-79330273D01*
X115414637Y-79095241D01*
X115214759Y-78895363D01*
X114979727Y-78738320D01*
X114718574Y-78630147D01*
X114441335Y-78575000D01*
X114158665Y-78575000D01*
X113881426Y-78630147D01*
X113620273Y-78738320D01*
X113385241Y-78895363D01*
X113185363Y-79095241D01*
X113028320Y-79330273D01*
X112920147Y-79591426D01*
X112865000Y-79868665D01*
X112865000Y-80151335D01*
X112920147Y-80428574D01*
X113028320Y-80689727D01*
X113185363Y-80924759D01*
X113385241Y-81124637D01*
X113620273Y-81281680D01*
X113881426Y-81389853D01*
X114158665Y-81445000D01*
X114441335Y-81445000D01*
X114564907Y-81420420D01*
X114797801Y-81653314D01*
X114797801Y-83742964D01*
X114718574Y-83710147D01*
X114441335Y-83655000D01*
X114158665Y-83655000D01*
X113881426Y-83710147D01*
X113620273Y-83818320D01*
X113385241Y-83975363D01*
X113185363Y-84175241D01*
X113028320Y-84410273D01*
X112920147Y-84671426D01*
X112865000Y-84948665D01*
X112865000Y-85231335D01*
X112920147Y-85508574D01*
X113028320Y-85769727D01*
X113185363Y-86004759D01*
X113385241Y-86204637D01*
X113490001Y-86274635D01*
X113490000Y-88985365D01*
X113385241Y-89055363D01*
X113185363Y-89255241D01*
X113028320Y-89490273D01*
X112920147Y-89751426D01*
X112865000Y-90028665D01*
X112865000Y-90311335D01*
X112920147Y-90588574D01*
X113028320Y-90849727D01*
X113185363Y-91084759D01*
X113350196Y-91249592D01*
X108914183Y-95685605D01*
X108883273Y-95710972D01*
X108857908Y-95741880D01*
X108817000Y-95791726D01*
X108817000Y-92806787D01*
X108820919Y-92766999D01*
X108817000Y-92727209D01*
X108805280Y-92608212D01*
X108758963Y-92455527D01*
X108683749Y-92314811D01*
X108582528Y-92191472D01*
X108551619Y-92166106D01*
X108168072Y-91782559D01*
X108168072Y-91015000D01*
X108147645Y-90807605D01*
X108087150Y-90608180D01*
X107988912Y-90424389D01*
X107856705Y-90263295D01*
X107695611Y-90131088D01*
X107511820Y-90032850D01*
X107312395Y-89972355D01*
X107105000Y-89951928D01*
X106255000Y-89951928D01*
X106047605Y-89972355D01*
X105848180Y-90032850D01*
X105664389Y-90131088D01*
X105503295Y-90263295D01*
X105371088Y-90424389D01*
X105272850Y-90608180D01*
X105212355Y-90807605D01*
X105191928Y-91015000D01*
X105191928Y-91865000D01*
X105212355Y-92072395D01*
X105272850Y-92271820D01*
X105371088Y-92455611D01*
X105484986Y-92594396D01*
X105475506Y-92599463D01*
X105378815Y-92678815D01*
X105299463Y-92775506D01*
X105240498Y-92885820D01*
X105204188Y-93005518D01*
X105191928Y-93130000D01*
X105195000Y-93694250D01*
X105353750Y-93853000D01*
X106553000Y-93853000D01*
X106553000Y-93833000D01*
X106807000Y-93833000D01*
X106807000Y-93853000D01*
X106827000Y-93853000D01*
X106827000Y-94107000D01*
X106807000Y-94107000D01*
X106807000Y-94127000D01*
X106553000Y-94127000D01*
X106553000Y-94107000D01*
X105353750Y-94107000D01*
X105195000Y-94265750D01*
X105191985Y-94819544D01*
X104950000Y-94691931D01*
X104950000Y-67645512D01*
X105195000Y-67400512D01*
X105195000Y-67456260D01*
X105252068Y-67743158D01*
X105364010Y-68013411D01*
X105526525Y-68256632D01*
X105733368Y-68463475D01*
X105915534Y-68585195D01*
X105798645Y-68654822D01*
X105582412Y-68849731D01*
X105408359Y-69083080D01*
X105283175Y-69345901D01*
X105238524Y-69493110D01*
X105359845Y-69723000D01*
X106553000Y-69723000D01*
X106553000Y-69703000D01*
X106807000Y-69703000D01*
X106807000Y-69723000D01*
X108000155Y-69723000D01*
X108121476Y-69493110D01*
X108076825Y-69345901D01*
X107951641Y-69083080D01*
X107777588Y-68849731D01*
X107561355Y-68654822D01*
X107444466Y-68585195D01*
X107626632Y-68463475D01*
X107833475Y-68256632D01*
X107995990Y-68013411D01*
X108107932Y-67743158D01*
X108165000Y-67456260D01*
X108165000Y-67163740D01*
X108107932Y-66876842D01*
X107995990Y-66606589D01*
X107833475Y-66363368D01*
X107626632Y-66156525D01*
X107452240Y-66040000D01*
X107626632Y-65923475D01*
X107833475Y-65716632D01*
X107995990Y-65473411D01*
X108107932Y-65203158D01*
X108165000Y-64916260D01*
X108165000Y-64623740D01*
X108107932Y-64336842D01*
X107995990Y-64066589D01*
X107833475Y-63823368D01*
X107701620Y-63691513D01*
X107774180Y-63669502D01*
X107884494Y-63610537D01*
X107981185Y-63531185D01*
X108060537Y-63434494D01*
X108119502Y-63324180D01*
X108155812Y-63204482D01*
X108168072Y-63080000D01*
X108165000Y-62515750D01*
X108006252Y-62357002D01*
X108165000Y-62357002D01*
X108165000Y-62320512D01*
X113490001Y-67645514D01*
G37*
G04 #@! TD.AperFunction*
G04 #@! TD*
M02*
