G04 #@! TF.GenerationSoftware,KiCad,Pcbnew,(5.1.10)-1*
G04 #@! TF.CreationDate,2021-06-12T21:42:46+02:00*
G04 #@! TF.ProjectId,EspressoV1,45737072-6573-4736-9f56-312e6b696361,rev?*
G04 #@! TF.SameCoordinates,Original*
G04 #@! TF.FileFunction,Legend,Top*
G04 #@! TF.FilePolarity,Positive*
%FSLAX46Y46*%
G04 Gerber Fmt 4.6, Leading zero omitted, Abs format (unit mm)*
G04 Created by KiCad (PCBNEW (5.1.10)-1) date 2021-06-12 21:42:46*
%MOMM*%
%LPD*%
G01*
G04 APERTURE LIST*
%ADD10C,0.150000*%
%ADD11C,0.300000*%
%ADD12C,0.400000*%
%ADD13C,0.120000*%
%ADD14C,3.200000*%
%ADD15C,1.100000*%
%ADD16R,2.200000X2.200000*%
%ADD17C,2.200000*%
%ADD18O,1.600000X1.600000*%
%ADD19C,1.600000*%
%ADD20O,1.700000X1.700000*%
%ADD21R,1.700000X1.700000*%
%ADD22C,1.700000*%
%ADD23C,2.000000*%
G04 APERTURE END LIST*
D10*
X177038095Y-84590000D02*
X176942857Y-84542380D01*
X176800000Y-84542380D01*
X176657142Y-84590000D01*
X176561904Y-84685238D01*
X176514285Y-84780476D01*
X176466666Y-84970952D01*
X176466666Y-85113809D01*
X176514285Y-85304285D01*
X176561904Y-85399523D01*
X176657142Y-85494761D01*
X176800000Y-85542380D01*
X176895238Y-85542380D01*
X177038095Y-85494761D01*
X177085714Y-85447142D01*
X177085714Y-85113809D01*
X176895238Y-85113809D01*
X177514285Y-85542380D02*
X177514285Y-84542380D01*
X178085714Y-85542380D01*
X178085714Y-84542380D01*
X178561904Y-85542380D02*
X178561904Y-84542380D01*
X178800000Y-84542380D01*
X178942857Y-84590000D01*
X179038095Y-84685238D01*
X179085714Y-84780476D01*
X179133333Y-84970952D01*
X179133333Y-85113809D01*
X179085714Y-85304285D01*
X179038095Y-85399523D01*
X178942857Y-85494761D01*
X178800000Y-85542380D01*
X178561904Y-85542380D01*
X158202380Y-64833333D02*
X159202380Y-64500000D01*
X158202380Y-64166666D01*
X159107142Y-63261904D02*
X159154761Y-63309523D01*
X159202380Y-63452380D01*
X159202380Y-63547619D01*
X159154761Y-63690476D01*
X159059523Y-63785714D01*
X158964285Y-63833333D01*
X158773809Y-63880952D01*
X158630952Y-63880952D01*
X158440476Y-63833333D01*
X158345238Y-63785714D01*
X158250000Y-63690476D01*
X158202380Y-63547619D01*
X158202380Y-63452380D01*
X158250000Y-63309523D01*
X158297619Y-63261904D01*
X159107142Y-62261904D02*
X159154761Y-62309523D01*
X159202380Y-62452380D01*
X159202380Y-62547619D01*
X159154761Y-62690476D01*
X159059523Y-62785714D01*
X158964285Y-62833333D01*
X158773809Y-62880952D01*
X158630952Y-62880952D01*
X158440476Y-62833333D01*
X158345238Y-62785714D01*
X158250000Y-62690476D01*
X158202380Y-62547619D01*
X158202380Y-62452380D01*
X158250000Y-62309523D01*
X158297619Y-62261904D01*
X148042380Y-64833333D02*
X149042380Y-64500000D01*
X148042380Y-64166666D01*
X148947142Y-63261904D02*
X148994761Y-63309523D01*
X149042380Y-63452380D01*
X149042380Y-63547619D01*
X148994761Y-63690476D01*
X148899523Y-63785714D01*
X148804285Y-63833333D01*
X148613809Y-63880952D01*
X148470952Y-63880952D01*
X148280476Y-63833333D01*
X148185238Y-63785714D01*
X148090000Y-63690476D01*
X148042380Y-63547619D01*
X148042380Y-63452380D01*
X148090000Y-63309523D01*
X148137619Y-63261904D01*
X148947142Y-62261904D02*
X148994761Y-62309523D01*
X149042380Y-62452380D01*
X149042380Y-62547619D01*
X148994761Y-62690476D01*
X148899523Y-62785714D01*
X148804285Y-62833333D01*
X148613809Y-62880952D01*
X148470952Y-62880952D01*
X148280476Y-62833333D01*
X148185238Y-62785714D01*
X148090000Y-62690476D01*
X148042380Y-62547619D01*
X148042380Y-62452380D01*
X148090000Y-62309523D01*
X148137619Y-62261904D01*
X137882380Y-64833333D02*
X138882380Y-64500000D01*
X137882380Y-64166666D01*
X138787142Y-63261904D02*
X138834761Y-63309523D01*
X138882380Y-63452380D01*
X138882380Y-63547619D01*
X138834761Y-63690476D01*
X138739523Y-63785714D01*
X138644285Y-63833333D01*
X138453809Y-63880952D01*
X138310952Y-63880952D01*
X138120476Y-63833333D01*
X138025238Y-63785714D01*
X137930000Y-63690476D01*
X137882380Y-63547619D01*
X137882380Y-63452380D01*
X137930000Y-63309523D01*
X137977619Y-63261904D01*
X138787142Y-62261904D02*
X138834761Y-62309523D01*
X138882380Y-62452380D01*
X138882380Y-62547619D01*
X138834761Y-62690476D01*
X138739523Y-62785714D01*
X138644285Y-62833333D01*
X138453809Y-62880952D01*
X138310952Y-62880952D01*
X138120476Y-62833333D01*
X138025238Y-62785714D01*
X137930000Y-62690476D01*
X137882380Y-62547619D01*
X137882380Y-62452380D01*
X137930000Y-62309523D01*
X137977619Y-62261904D01*
X168965714Y-88082380D02*
X168965714Y-87082380D01*
X169346666Y-87082380D01*
X169441904Y-87130000D01*
X169489523Y-87177619D01*
X169537142Y-87272857D01*
X169537142Y-87415714D01*
X169489523Y-87510952D01*
X169441904Y-87558571D01*
X169346666Y-87606190D01*
X168965714Y-87606190D01*
X170489523Y-88082380D02*
X169918095Y-88082380D01*
X170203809Y-88082380D02*
X170203809Y-87082380D01*
X170108571Y-87225238D01*
X170013333Y-87320476D01*
X169918095Y-87368095D01*
X170822857Y-87082380D02*
X171441904Y-87082380D01*
X171108571Y-87463333D01*
X171251428Y-87463333D01*
X171346666Y-87510952D01*
X171394285Y-87558571D01*
X171441904Y-87653809D01*
X171441904Y-87891904D01*
X171394285Y-87987142D01*
X171346666Y-88034761D01*
X171251428Y-88082380D01*
X170965714Y-88082380D01*
X170870476Y-88034761D01*
X170822857Y-87987142D01*
X168965714Y-90622380D02*
X168965714Y-89622380D01*
X169346666Y-89622380D01*
X169441904Y-89670000D01*
X169489523Y-89717619D01*
X169537142Y-89812857D01*
X169537142Y-89955714D01*
X169489523Y-90050952D01*
X169441904Y-90098571D01*
X169346666Y-90146190D01*
X168965714Y-90146190D01*
X170489523Y-90622380D02*
X169918095Y-90622380D01*
X170203809Y-90622380D02*
X170203809Y-89622380D01*
X170108571Y-89765238D01*
X170013333Y-89860476D01*
X169918095Y-89908095D01*
X170870476Y-89717619D02*
X170918095Y-89670000D01*
X171013333Y-89622380D01*
X171251428Y-89622380D01*
X171346666Y-89670000D01*
X171394285Y-89717619D01*
X171441904Y-89812857D01*
X171441904Y-89908095D01*
X171394285Y-90050952D01*
X170822857Y-90622380D01*
X171441904Y-90622380D01*
X168965714Y-93162380D02*
X168965714Y-92162380D01*
X169346666Y-92162380D01*
X169441904Y-92210000D01*
X169489523Y-92257619D01*
X169537142Y-92352857D01*
X169537142Y-92495714D01*
X169489523Y-92590952D01*
X169441904Y-92638571D01*
X169346666Y-92686190D01*
X168965714Y-92686190D01*
X169918095Y-92257619D02*
X169965714Y-92210000D01*
X170060952Y-92162380D01*
X170299047Y-92162380D01*
X170394285Y-92210000D01*
X170441904Y-92257619D01*
X170489523Y-92352857D01*
X170489523Y-92448095D01*
X170441904Y-92590952D01*
X169870476Y-93162380D01*
X170489523Y-93162380D01*
X170822857Y-92162380D02*
X171489523Y-92162380D01*
X171060952Y-93162380D01*
X168965714Y-95702380D02*
X168965714Y-94702380D01*
X169346666Y-94702380D01*
X169441904Y-94750000D01*
X169489523Y-94797619D01*
X169537142Y-94892857D01*
X169537142Y-95035714D01*
X169489523Y-95130952D01*
X169441904Y-95178571D01*
X169346666Y-95226190D01*
X168965714Y-95226190D01*
X169870476Y-94702380D02*
X170489523Y-94702380D01*
X170156190Y-95083333D01*
X170299047Y-95083333D01*
X170394285Y-95130952D01*
X170441904Y-95178571D01*
X170489523Y-95273809D01*
X170489523Y-95511904D01*
X170441904Y-95607142D01*
X170394285Y-95654761D01*
X170299047Y-95702380D01*
X170013333Y-95702380D01*
X169918095Y-95654761D01*
X169870476Y-95607142D01*
X170822857Y-94702380D02*
X171441904Y-94702380D01*
X171108571Y-95083333D01*
X171251428Y-95083333D01*
X171346666Y-95130952D01*
X171394285Y-95178571D01*
X171441904Y-95273809D01*
X171441904Y-95511904D01*
X171394285Y-95607142D01*
X171346666Y-95654761D01*
X171251428Y-95702380D01*
X170965714Y-95702380D01*
X170870476Y-95654761D01*
X170822857Y-95607142D01*
X176800000Y-88082380D02*
X176800000Y-87082380D01*
X177276190Y-88082380D02*
X177276190Y-87082380D01*
X177847619Y-88082380D01*
X177847619Y-87082380D01*
X178847619Y-88082380D02*
X178276190Y-88082380D01*
X178561904Y-88082380D02*
X178561904Y-87082380D01*
X178466666Y-87225238D01*
X178371428Y-87320476D01*
X178276190Y-87368095D01*
X176800000Y-90622380D02*
X176800000Y-89622380D01*
X177276190Y-90622380D02*
X177276190Y-89622380D01*
X177847619Y-90622380D01*
X177847619Y-89622380D01*
X178276190Y-89717619D02*
X178323809Y-89670000D01*
X178419047Y-89622380D01*
X178657142Y-89622380D01*
X178752380Y-89670000D01*
X178800000Y-89717619D01*
X178847619Y-89812857D01*
X178847619Y-89908095D01*
X178800000Y-90050952D01*
X178228571Y-90622380D01*
X178847619Y-90622380D01*
X176800000Y-93162380D02*
X176800000Y-92162380D01*
X177276190Y-93162380D02*
X177276190Y-92162380D01*
X177847619Y-93162380D01*
X177847619Y-92162380D01*
X178228571Y-92162380D02*
X178847619Y-92162380D01*
X178514285Y-92543333D01*
X178657142Y-92543333D01*
X178752380Y-92590952D01*
X178800000Y-92638571D01*
X178847619Y-92733809D01*
X178847619Y-92971904D01*
X178800000Y-93067142D01*
X178752380Y-93114761D01*
X178657142Y-93162380D01*
X178371428Y-93162380D01*
X178276190Y-93114761D01*
X178228571Y-93067142D01*
X176800000Y-95702380D02*
X176800000Y-94702380D01*
X177276190Y-95702380D02*
X177276190Y-94702380D01*
X177847619Y-95702380D01*
X177847619Y-94702380D01*
X178752380Y-95035714D02*
X178752380Y-95702380D01*
X178514285Y-94654761D02*
X178276190Y-95369047D01*
X178895238Y-95369047D01*
X177341785Y-97687380D02*
X176865595Y-97687380D01*
X176817976Y-98163571D01*
X176865595Y-98115952D01*
X176960833Y-98068333D01*
X177198928Y-98068333D01*
X177294166Y-98115952D01*
X177341785Y-98163571D01*
X177389404Y-98258809D01*
X177389404Y-98496904D01*
X177341785Y-98592142D01*
X177294166Y-98639761D01*
X177198928Y-98687380D01*
X176960833Y-98687380D01*
X176865595Y-98639761D01*
X176817976Y-98592142D01*
X177675119Y-97687380D02*
X178008452Y-98687380D01*
X178341785Y-97687380D01*
X177913214Y-99337380D02*
X177913214Y-100051666D01*
X177865595Y-100194523D01*
X177770357Y-100289761D01*
X177627500Y-100337380D01*
X177532261Y-100337380D01*
X178389404Y-100337380D02*
X178389404Y-99337380D01*
X178627500Y-99337380D01*
X178770357Y-99385000D01*
X178865595Y-99480238D01*
X178913214Y-99575476D01*
X178960833Y-99765952D01*
X178960833Y-99908809D01*
X178913214Y-100099285D01*
X178865595Y-100194523D01*
X178770357Y-100289761D01*
X178627500Y-100337380D01*
X178389404Y-100337380D01*
X179389404Y-99956428D02*
X180151309Y-99956428D01*
X180484642Y-99337380D02*
X180817976Y-100337380D01*
X181151309Y-99337380D01*
X182056071Y-100242142D02*
X182008452Y-100289761D01*
X181865595Y-100337380D01*
X181770357Y-100337380D01*
X181627500Y-100289761D01*
X181532261Y-100194523D01*
X181484642Y-100099285D01*
X181437023Y-99908809D01*
X181437023Y-99765952D01*
X181484642Y-99575476D01*
X181532261Y-99480238D01*
X181627500Y-99385000D01*
X181770357Y-99337380D01*
X181865595Y-99337380D01*
X182008452Y-99385000D01*
X182056071Y-99432619D01*
X183056071Y-100242142D02*
X183008452Y-100289761D01*
X182865595Y-100337380D01*
X182770357Y-100337380D01*
X182627500Y-100289761D01*
X182532261Y-100194523D01*
X182484642Y-100099285D01*
X182437023Y-99908809D01*
X182437023Y-99765952D01*
X182484642Y-99575476D01*
X182532261Y-99480238D01*
X182627500Y-99385000D01*
X182770357Y-99337380D01*
X182865595Y-99337380D01*
X183008452Y-99385000D01*
X183056071Y-99432619D01*
X179522380Y-64738095D02*
X179522380Y-65309523D01*
X179522380Y-65023809D02*
X178522380Y-65023809D01*
X178665238Y-65119047D01*
X178760476Y-65214285D01*
X178808095Y-65309523D01*
X179141428Y-64309523D02*
X179141428Y-63547619D01*
X179236666Y-63119047D02*
X179236666Y-62642857D01*
X179522380Y-63214285D02*
X178522380Y-62880952D01*
X179522380Y-62547619D01*
X178522380Y-62309523D02*
X178522380Y-61690476D01*
X178903333Y-62023809D01*
X178903333Y-61880952D01*
X178950952Y-61785714D01*
X178998571Y-61738095D01*
X179093809Y-61690476D01*
X179331904Y-61690476D01*
X179427142Y-61738095D01*
X179474761Y-61785714D01*
X179522380Y-61880952D01*
X179522380Y-62166666D01*
X179474761Y-62261904D01*
X179427142Y-62309523D01*
X169362380Y-64738095D02*
X169362380Y-65309523D01*
X169362380Y-65023809D02*
X168362380Y-65023809D01*
X168505238Y-65119047D01*
X168600476Y-65214285D01*
X168648095Y-65309523D01*
X168981428Y-64309523D02*
X168981428Y-63547619D01*
X169076666Y-63119047D02*
X169076666Y-62642857D01*
X169362380Y-63214285D02*
X168362380Y-62880952D01*
X169362380Y-62547619D01*
X168457619Y-62261904D02*
X168410000Y-62214285D01*
X168362380Y-62119047D01*
X168362380Y-61880952D01*
X168410000Y-61785714D01*
X168457619Y-61738095D01*
X168552857Y-61690476D01*
X168648095Y-61690476D01*
X168790952Y-61738095D01*
X169362380Y-62309523D01*
X169362380Y-61690476D01*
X170950000Y-64261904D02*
X170902380Y-64357142D01*
X170902380Y-64500000D01*
X170950000Y-64642857D01*
X171045238Y-64738095D01*
X171140476Y-64785714D01*
X171330952Y-64833333D01*
X171473809Y-64833333D01*
X171664285Y-64785714D01*
X171759523Y-64738095D01*
X171854761Y-64642857D01*
X171902380Y-64500000D01*
X171902380Y-64404761D01*
X171854761Y-64261904D01*
X171807142Y-64214285D01*
X171473809Y-64214285D01*
X171473809Y-64404761D01*
X171902380Y-63785714D02*
X170902380Y-63785714D01*
X171902380Y-63214285D01*
X170902380Y-63214285D01*
X171902380Y-62738095D02*
X170902380Y-62738095D01*
X170902380Y-62500000D01*
X170950000Y-62357142D01*
X171045238Y-62261904D01*
X171140476Y-62214285D01*
X171330952Y-62166666D01*
X171473809Y-62166666D01*
X171664285Y-62214285D01*
X171759523Y-62261904D01*
X171854761Y-62357142D01*
X171902380Y-62500000D01*
X171902380Y-62738095D01*
X160790000Y-64261904D02*
X160742380Y-64357142D01*
X160742380Y-64500000D01*
X160790000Y-64642857D01*
X160885238Y-64738095D01*
X160980476Y-64785714D01*
X161170952Y-64833333D01*
X161313809Y-64833333D01*
X161504285Y-64785714D01*
X161599523Y-64738095D01*
X161694761Y-64642857D01*
X161742380Y-64500000D01*
X161742380Y-64404761D01*
X161694761Y-64261904D01*
X161647142Y-64214285D01*
X161313809Y-64214285D01*
X161313809Y-64404761D01*
X161742380Y-63785714D02*
X160742380Y-63785714D01*
X161742380Y-63214285D01*
X160742380Y-63214285D01*
X161742380Y-62738095D02*
X160742380Y-62738095D01*
X160742380Y-62500000D01*
X160790000Y-62357142D01*
X160885238Y-62261904D01*
X160980476Y-62214285D01*
X161170952Y-62166666D01*
X161313809Y-62166666D01*
X161504285Y-62214285D01*
X161599523Y-62261904D01*
X161694761Y-62357142D01*
X161742380Y-62500000D01*
X161742380Y-62738095D01*
X150677619Y-65309523D02*
X150630000Y-65261904D01*
X150582380Y-65166666D01*
X150582380Y-64928571D01*
X150630000Y-64833333D01*
X150677619Y-64785714D01*
X150772857Y-64738095D01*
X150868095Y-64738095D01*
X151010952Y-64785714D01*
X151582380Y-65357142D01*
X151582380Y-64738095D01*
X151201428Y-64309523D02*
X151201428Y-63547619D01*
X151296666Y-63119047D02*
X151296666Y-62642857D01*
X151582380Y-63214285D02*
X150582380Y-62880952D01*
X151582380Y-62547619D01*
X150582380Y-62309523D02*
X150582380Y-61690476D01*
X150963333Y-62023809D01*
X150963333Y-61880952D01*
X151010952Y-61785714D01*
X151058571Y-61738095D01*
X151153809Y-61690476D01*
X151391904Y-61690476D01*
X151487142Y-61738095D01*
X151534761Y-61785714D01*
X151582380Y-61880952D01*
X151582380Y-62166666D01*
X151534761Y-62261904D01*
X151487142Y-62309523D01*
X140517619Y-65309523D02*
X140470000Y-65261904D01*
X140422380Y-65166666D01*
X140422380Y-64928571D01*
X140470000Y-64833333D01*
X140517619Y-64785714D01*
X140612857Y-64738095D01*
X140708095Y-64738095D01*
X140850952Y-64785714D01*
X141422380Y-65357142D01*
X141422380Y-64738095D01*
X141041428Y-64309523D02*
X141041428Y-63547619D01*
X141136666Y-63119047D02*
X141136666Y-62642857D01*
X141422380Y-63214285D02*
X140422380Y-62880952D01*
X141422380Y-62547619D01*
X141422380Y-61690476D02*
X141422380Y-62261904D01*
X141422380Y-61976190D02*
X140422380Y-61976190D01*
X140565238Y-62071428D01*
X140660476Y-62166666D01*
X140708095Y-62261904D01*
X131262380Y-64738095D02*
X131262380Y-65309523D01*
X131262380Y-65023809D02*
X130262380Y-65023809D01*
X130405238Y-65119047D01*
X130500476Y-65214285D01*
X130548095Y-65309523D01*
X130881428Y-64309523D02*
X130881428Y-63547619D01*
X130976666Y-63119047D02*
X130976666Y-62642857D01*
X131262380Y-63214285D02*
X130262380Y-62880952D01*
X131262380Y-62547619D01*
X131262380Y-61690476D02*
X131262380Y-62261904D01*
X131262380Y-61976190D02*
X130262380Y-61976190D01*
X130405238Y-62071428D01*
X130500476Y-62166666D01*
X130548095Y-62261904D01*
X171958095Y-71890000D02*
X171862857Y-71842380D01*
X171720000Y-71842380D01*
X171577142Y-71890000D01*
X171481904Y-71985238D01*
X171434285Y-72080476D01*
X171386666Y-72270952D01*
X171386666Y-72413809D01*
X171434285Y-72604285D01*
X171481904Y-72699523D01*
X171577142Y-72794761D01*
X171720000Y-72842380D01*
X171815238Y-72842380D01*
X171958095Y-72794761D01*
X172005714Y-72747142D01*
X172005714Y-72413809D01*
X171815238Y-72413809D01*
X172434285Y-72842380D02*
X172434285Y-71842380D01*
X173005714Y-72842380D01*
X173005714Y-71842380D01*
X173481904Y-72842380D02*
X173481904Y-71842380D01*
X173720000Y-71842380D01*
X173862857Y-71890000D01*
X173958095Y-71985238D01*
X174005714Y-72080476D01*
X174053333Y-72270952D01*
X174053333Y-72413809D01*
X174005714Y-72604285D01*
X173958095Y-72699523D01*
X173862857Y-72794761D01*
X173720000Y-72842380D01*
X173481904Y-72842380D01*
X171315238Y-80462380D02*
X171315238Y-79462380D01*
X171696190Y-79462380D01*
X171791428Y-79510000D01*
X171839047Y-79557619D01*
X171886666Y-79652857D01*
X171886666Y-79795714D01*
X171839047Y-79890952D01*
X171791428Y-79938571D01*
X171696190Y-79986190D01*
X171315238Y-79986190D01*
X172220000Y-79462380D02*
X172458095Y-80462380D01*
X172648571Y-79748095D01*
X172839047Y-80462380D01*
X173077142Y-79462380D01*
X173458095Y-80462380D02*
X173458095Y-79462380D01*
X173791428Y-80176666D01*
X174124761Y-79462380D01*
X174124761Y-80462380D01*
X173799523Y-109942380D02*
X173323333Y-109942380D01*
X173275714Y-110418571D01*
X173323333Y-110370952D01*
X173418571Y-110323333D01*
X173656666Y-110323333D01*
X173751904Y-110370952D01*
X173799523Y-110418571D01*
X173847142Y-110513809D01*
X173847142Y-110751904D01*
X173799523Y-110847142D01*
X173751904Y-110894761D01*
X173656666Y-110942380D01*
X173418571Y-110942380D01*
X173323333Y-110894761D01*
X173275714Y-110847142D01*
X174132857Y-109942380D02*
X174466190Y-110942380D01*
X174799523Y-109942380D01*
X173228095Y-102370000D02*
X173132857Y-102322380D01*
X172990000Y-102322380D01*
X172847142Y-102370000D01*
X172751904Y-102465238D01*
X172704285Y-102560476D01*
X172656666Y-102750952D01*
X172656666Y-102893809D01*
X172704285Y-103084285D01*
X172751904Y-103179523D01*
X172847142Y-103274761D01*
X172990000Y-103322380D01*
X173085238Y-103322380D01*
X173228095Y-103274761D01*
X173275714Y-103227142D01*
X173275714Y-102893809D01*
X173085238Y-102893809D01*
X173704285Y-103322380D02*
X173704285Y-102322380D01*
X174275714Y-103322380D01*
X174275714Y-102322380D01*
X174751904Y-103322380D02*
X174751904Y-102322380D01*
X174990000Y-102322380D01*
X175132857Y-102370000D01*
X175228095Y-102465238D01*
X175275714Y-102560476D01*
X175323333Y-102750952D01*
X175323333Y-102893809D01*
X175275714Y-103084285D01*
X175228095Y-103179523D01*
X175132857Y-103274761D01*
X174990000Y-103322380D01*
X174751904Y-103322380D01*
D11*
X151384285Y-118558571D02*
X151884285Y-120058571D01*
X152384285Y-118558571D01*
X153170000Y-118558571D02*
X153312857Y-118558571D01*
X153455714Y-118630000D01*
X153527142Y-118701428D01*
X153598571Y-118844285D01*
X153670000Y-119130000D01*
X153670000Y-119487142D01*
X153598571Y-119772857D01*
X153527142Y-119915714D01*
X153455714Y-119987142D01*
X153312857Y-120058571D01*
X153170000Y-120058571D01*
X153027142Y-119987142D01*
X152955714Y-119915714D01*
X152884285Y-119772857D01*
X152812857Y-119487142D01*
X152812857Y-119130000D01*
X152884285Y-118844285D01*
X152955714Y-118701428D01*
X153027142Y-118630000D01*
X153170000Y-118558571D01*
X154312857Y-119915714D02*
X154384285Y-119987142D01*
X154312857Y-120058571D01*
X154241428Y-119987142D01*
X154312857Y-119915714D01*
X154312857Y-120058571D01*
X154955714Y-118701428D02*
X155027142Y-118630000D01*
X155170000Y-118558571D01*
X155527142Y-118558571D01*
X155670000Y-118630000D01*
X155741428Y-118701428D01*
X155812857Y-118844285D01*
X155812857Y-118987142D01*
X155741428Y-119201428D01*
X154884285Y-120058571D01*
X155812857Y-120058571D01*
D12*
X152341904Y-116661428D02*
X152699047Y-116780476D01*
X152818095Y-116899523D01*
X152937142Y-117137619D01*
X152937142Y-117494761D01*
X152818095Y-117732857D01*
X152699047Y-117851904D01*
X152460952Y-117970952D01*
X151508571Y-117970952D01*
X151508571Y-115470952D01*
X152341904Y-115470952D01*
X152580000Y-115590000D01*
X152699047Y-115709047D01*
X152818095Y-115947142D01*
X152818095Y-116185238D01*
X152699047Y-116423333D01*
X152580000Y-116542380D01*
X152341904Y-116661428D01*
X151508571Y-116661428D01*
X153889523Y-117256666D02*
X155080000Y-117256666D01*
X153651428Y-117970952D02*
X154484761Y-115470952D01*
X155318095Y-117970952D01*
X156151428Y-117970952D02*
X156151428Y-115470952D01*
X157580000Y-117970952D01*
X157580000Y-115470952D01*
X158651428Y-117256666D02*
X159841904Y-117256666D01*
X158413333Y-117970952D02*
X159246666Y-115470952D01*
X160080000Y-117970952D01*
X160913333Y-117970952D02*
X160913333Y-115470952D01*
X162341904Y-117970952D01*
X162341904Y-115470952D01*
X163413333Y-117256666D02*
X164603809Y-117256666D01*
X163175238Y-117970952D02*
X164008571Y-115470952D01*
X164841904Y-117970952D01*
X167103809Y-117732857D02*
X166984761Y-117851904D01*
X166627619Y-117970952D01*
X166389523Y-117970952D01*
X166032380Y-117851904D01*
X165794285Y-117613809D01*
X165675238Y-117375714D01*
X165556190Y-116899523D01*
X165556190Y-116542380D01*
X165675238Y-116066190D01*
X165794285Y-115828095D01*
X166032380Y-115590000D01*
X166389523Y-115470952D01*
X166627619Y-115470952D01*
X166984761Y-115590000D01*
X167103809Y-115709047D01*
X168651428Y-115470952D02*
X169127619Y-115470952D01*
X169365714Y-115590000D01*
X169603809Y-115828095D01*
X169722857Y-116304285D01*
X169722857Y-117137619D01*
X169603809Y-117613809D01*
X169365714Y-117851904D01*
X169127619Y-117970952D01*
X168651428Y-117970952D01*
X168413333Y-117851904D01*
X168175238Y-117613809D01*
X168056190Y-117137619D01*
X168056190Y-116304285D01*
X168175238Y-115828095D01*
X168413333Y-115590000D01*
X168651428Y-115470952D01*
X171627619Y-116661428D02*
X170794285Y-116661428D01*
X170794285Y-117970952D02*
X170794285Y-115470952D01*
X171984761Y-115470952D01*
X173770476Y-116661428D02*
X172937142Y-116661428D01*
X172937142Y-117970952D02*
X172937142Y-115470952D01*
X174127619Y-115470952D01*
X175080000Y-116661428D02*
X175913333Y-116661428D01*
X176270476Y-117970952D02*
X175080000Y-117970952D01*
X175080000Y-115470952D01*
X176270476Y-115470952D01*
D13*
G04 #@! TO.C,SSR1*
X177390000Y-79270000D02*
X177390000Y-78770000D01*
X176650000Y-79270000D02*
X177390000Y-79270000D01*
X170830000Y-73370000D02*
X177150000Y-73370000D01*
X170830000Y-79030000D02*
X177150000Y-79030000D01*
X177150000Y-74140000D02*
X177150000Y-73370000D01*
X177150000Y-76680000D02*
X177150000Y-75720000D01*
X177150000Y-79030000D02*
X177150000Y-78260000D01*
X170830000Y-79030000D02*
X170830000Y-73370000D01*
X171290000Y-79030000D02*
X171290000Y-73370000D01*
X176590000Y-74140000D02*
X176590000Y-73370000D01*
X176590000Y-76680000D02*
X176590000Y-75720000D01*
X176590000Y-79030000D02*
X176590000Y-78260000D01*
G04 #@! TO.C,SENS4*
X178330000Y-60100000D02*
X177830000Y-60100000D01*
X178330000Y-60840000D02*
X178330000Y-60100000D01*
X172430000Y-66660000D02*
X172430000Y-60340000D01*
X178090000Y-66660000D02*
X178090000Y-60340000D01*
X173200000Y-60340000D02*
X172430000Y-60340000D01*
X175740000Y-60340000D02*
X174780000Y-60340000D01*
X178090000Y-60340000D02*
X177320000Y-60340000D01*
X178090000Y-66660000D02*
X172430000Y-66660000D01*
X178090000Y-66200000D02*
X172430000Y-66200000D01*
X173200000Y-60900000D02*
X172430000Y-60900000D01*
X175740000Y-60900000D02*
X174780000Y-60900000D01*
X178090000Y-60900000D02*
X177320000Y-60900000D01*
G04 #@! TO.C,SENS3*
X168170000Y-60100000D02*
X167670000Y-60100000D01*
X168170000Y-60840000D02*
X168170000Y-60100000D01*
X162270000Y-66660000D02*
X162270000Y-60340000D01*
X167930000Y-66660000D02*
X167930000Y-60340000D01*
X163040000Y-60340000D02*
X162270000Y-60340000D01*
X165580000Y-60340000D02*
X164620000Y-60340000D01*
X167930000Y-60340000D02*
X167160000Y-60340000D01*
X167930000Y-66660000D02*
X162270000Y-66660000D01*
X167930000Y-66200000D02*
X162270000Y-66200000D01*
X163040000Y-60900000D02*
X162270000Y-60900000D01*
X165580000Y-60900000D02*
X164620000Y-60900000D01*
X167930000Y-60900000D02*
X167160000Y-60900000D01*
G04 #@! TO.C,SENS2*
X158010000Y-60100000D02*
X157510000Y-60100000D01*
X158010000Y-60840000D02*
X158010000Y-60100000D01*
X152110000Y-66660000D02*
X152110000Y-60340000D01*
X157770000Y-66660000D02*
X157770000Y-60340000D01*
X152880000Y-60340000D02*
X152110000Y-60340000D01*
X155420000Y-60340000D02*
X154460000Y-60340000D01*
X157770000Y-60340000D02*
X157000000Y-60340000D01*
X157770000Y-66660000D02*
X152110000Y-66660000D01*
X157770000Y-66200000D02*
X152110000Y-66200000D01*
X152880000Y-60900000D02*
X152110000Y-60900000D01*
X155420000Y-60900000D02*
X154460000Y-60900000D01*
X157770000Y-60900000D02*
X157000000Y-60900000D01*
G04 #@! TO.C,SENS1*
X147850000Y-60100000D02*
X147350000Y-60100000D01*
X147850000Y-60840000D02*
X147850000Y-60100000D01*
X141950000Y-66660000D02*
X141950000Y-60340000D01*
X147610000Y-66660000D02*
X147610000Y-60340000D01*
X142720000Y-60340000D02*
X141950000Y-60340000D01*
X145260000Y-60340000D02*
X144300000Y-60340000D01*
X147610000Y-60340000D02*
X146840000Y-60340000D01*
X147610000Y-66660000D02*
X141950000Y-66660000D01*
X147610000Y-66200000D02*
X141950000Y-66200000D01*
X142720000Y-60900000D02*
X141950000Y-60900000D01*
X145260000Y-60900000D02*
X144300000Y-60900000D01*
X147610000Y-60900000D02*
X146840000Y-60900000D01*
G04 #@! TO.C,R3-4*
X123420000Y-100330000D02*
X122650000Y-100330000D01*
X115340000Y-100330000D02*
X116110000Y-100330000D01*
X122650000Y-98960000D02*
X116110000Y-98960000D01*
X122650000Y-101700000D02*
X122650000Y-98960000D01*
X116110000Y-101700000D02*
X122650000Y-101700000D01*
X116110000Y-98960000D02*
X116110000Y-101700000D01*
G04 #@! TO.C,R3-2*
X123420000Y-105410000D02*
X122650000Y-105410000D01*
X115340000Y-105410000D02*
X116110000Y-105410000D01*
X122650000Y-104040000D02*
X116110000Y-104040000D01*
X122650000Y-106780000D02*
X122650000Y-104040000D01*
X116110000Y-106780000D02*
X122650000Y-106780000D01*
X116110000Y-104040000D02*
X116110000Y-106780000D01*
G04 #@! TO.C,R3-1*
X115340000Y-110490000D02*
X116110000Y-110490000D01*
X123420000Y-110490000D02*
X122650000Y-110490000D01*
X116110000Y-111860000D02*
X122650000Y-111860000D01*
X116110000Y-109120000D02*
X116110000Y-111860000D01*
X122650000Y-109120000D02*
X116110000Y-109120000D01*
X122650000Y-111860000D02*
X122650000Y-109120000D01*
G04 #@! TO.C,R2-4*
X123420000Y-80010000D02*
X122650000Y-80010000D01*
X115340000Y-80010000D02*
X116110000Y-80010000D01*
X122650000Y-78640000D02*
X116110000Y-78640000D01*
X122650000Y-81380000D02*
X122650000Y-78640000D01*
X116110000Y-81380000D02*
X122650000Y-81380000D01*
X116110000Y-78640000D02*
X116110000Y-81380000D01*
G04 #@! TO.C,R2-2*
X123420000Y-85090000D02*
X122650000Y-85090000D01*
X115340000Y-85090000D02*
X116110000Y-85090000D01*
X122650000Y-83720000D02*
X116110000Y-83720000D01*
X122650000Y-86460000D02*
X122650000Y-83720000D01*
X116110000Y-86460000D02*
X122650000Y-86460000D01*
X116110000Y-83720000D02*
X116110000Y-86460000D01*
G04 #@! TO.C,R2-1*
X115340000Y-90170000D02*
X116110000Y-90170000D01*
X123420000Y-90170000D02*
X122650000Y-90170000D01*
X116110000Y-91540000D02*
X122650000Y-91540000D01*
X116110000Y-88800000D02*
X116110000Y-91540000D01*
X122650000Y-88800000D02*
X116110000Y-88800000D01*
X122650000Y-91540000D02*
X122650000Y-88800000D01*
G04 #@! TO.C,PSU1*
X178660000Y-109750000D02*
X178660000Y-109250000D01*
X177920000Y-109750000D02*
X178660000Y-109750000D01*
X172100000Y-103850000D02*
X178420000Y-103850000D01*
X172100000Y-109510000D02*
X178420000Y-109510000D01*
X178420000Y-104620000D02*
X178420000Y-103850000D01*
X178420000Y-107160000D02*
X178420000Y-106200000D01*
X178420000Y-109510000D02*
X178420000Y-108740000D01*
X172100000Y-109510000D02*
X172100000Y-103850000D01*
X172560000Y-109510000D02*
X172560000Y-103850000D01*
X177860000Y-104620000D02*
X177860000Y-103850000D01*
X177860000Y-107160000D02*
X177860000Y-106200000D01*
X177860000Y-109510000D02*
X177860000Y-108740000D01*
G04 #@! TO.C,J1*
X172660000Y-83760000D02*
X173990000Y-83760000D01*
X172660000Y-85090000D02*
X172660000Y-83760000D01*
X172660000Y-86360000D02*
X175320000Y-86360000D01*
X175320000Y-86360000D02*
X175320000Y-99120000D01*
X172660000Y-86360000D02*
X172660000Y-99120000D01*
X172660000Y-99120000D02*
X175320000Y-99120000D01*
G04 #@! TO.C,ESP321*
X155495000Y-72945000D02*
X155495000Y-113585000D01*
X158035000Y-72945000D02*
X155495000Y-72945000D01*
X158035000Y-113585000D02*
X158035000Y-72945000D01*
X155495000Y-113585000D02*
X158035000Y-113585000D01*
X137715000Y-103425000D02*
X135175000Y-103425000D01*
X137715000Y-72945000D02*
X137715000Y-103425000D01*
X135175000Y-72945000D02*
X137715000Y-72945000D01*
X135175000Y-103425000D02*
X135175000Y-72945000D01*
G04 #@! TO.C,0x48*
X107950000Y-58420000D02*
X107950000Y-83820000D01*
X107950000Y-83820000D02*
X105410000Y-83820000D01*
X105410000Y-83820000D02*
X105410000Y-58420000D01*
X105410000Y-58420000D02*
X107950000Y-58420000D01*
G04 #@! TO.C,0x49*
X107950000Y-90170000D02*
X107950000Y-115570000D01*
X107950000Y-115570000D02*
X105410000Y-115570000D01*
X105410000Y-115570000D02*
X105410000Y-90170000D01*
X105410000Y-90170000D02*
X107950000Y-90170000D01*
G04 #@! TO.C,R3*
X148490000Y-98520000D02*
X151230000Y-98520000D01*
X151230000Y-98520000D02*
X151230000Y-91980000D01*
X151230000Y-91980000D02*
X148490000Y-91980000D01*
X148490000Y-91980000D02*
X148490000Y-98520000D01*
X149860000Y-99290000D02*
X149860000Y-98520000D01*
X149860000Y-91210000D02*
X149860000Y-91980000D01*
G04 #@! TO.C,R7*
X142140000Y-83280000D02*
X144880000Y-83280000D01*
X144880000Y-83280000D02*
X144880000Y-76740000D01*
X144880000Y-76740000D02*
X142140000Y-76740000D01*
X142140000Y-76740000D02*
X142140000Y-83280000D01*
X143510000Y-84050000D02*
X143510000Y-83280000D01*
X143510000Y-75970000D02*
X143510000Y-76740000D01*
G04 #@! TO.C,R5*
X148490000Y-83280000D02*
X151230000Y-83280000D01*
X151230000Y-83280000D02*
X151230000Y-76740000D01*
X151230000Y-76740000D02*
X148490000Y-76740000D01*
X148490000Y-76740000D02*
X148490000Y-83280000D01*
X149860000Y-84050000D02*
X149860000Y-83280000D01*
X149860000Y-75970000D02*
X149860000Y-76740000D01*
G04 #@! TO.C,R6*
X142140000Y-98520000D02*
X144880000Y-98520000D01*
X144880000Y-98520000D02*
X144880000Y-91980000D01*
X144880000Y-91980000D02*
X142140000Y-91980000D01*
X142140000Y-91980000D02*
X142140000Y-98520000D01*
X143510000Y-99290000D02*
X143510000Y-98520000D01*
X143510000Y-91210000D02*
X143510000Y-91980000D01*
G04 #@! TO.C,C1*
X153860000Y-114380000D02*
X140620000Y-114380000D01*
X153860000Y-109140000D02*
X140620000Y-109140000D01*
X153860000Y-114380000D02*
X153860000Y-109140000D01*
X140620000Y-114380000D02*
X140620000Y-109140000D01*
G04 #@! TO.C,R4*
X122650000Y-61060000D02*
X122650000Y-58320000D01*
X122650000Y-58320000D02*
X116110000Y-58320000D01*
X116110000Y-58320000D02*
X116110000Y-61060000D01*
X116110000Y-61060000D02*
X122650000Y-61060000D01*
X123420000Y-59690000D02*
X122650000Y-59690000D01*
X115340000Y-59690000D02*
X116110000Y-59690000D01*
G04 #@! TO.C,R2*
X122650000Y-66140000D02*
X122650000Y-63400000D01*
X122650000Y-63400000D02*
X116110000Y-63400000D01*
X116110000Y-63400000D02*
X116110000Y-66140000D01*
X116110000Y-66140000D02*
X122650000Y-66140000D01*
X123420000Y-64770000D02*
X122650000Y-64770000D01*
X115340000Y-64770000D02*
X116110000Y-64770000D01*
G04 #@! TO.C,R1*
X116110000Y-68480000D02*
X116110000Y-71220000D01*
X116110000Y-71220000D02*
X122650000Y-71220000D01*
X122650000Y-71220000D02*
X122650000Y-68480000D01*
X122650000Y-68480000D02*
X116110000Y-68480000D01*
X115340000Y-69850000D02*
X116110000Y-69850000D01*
X123420000Y-69850000D02*
X122650000Y-69850000D01*
G04 #@! TO.C,PT1000*
X137450000Y-60900000D02*
X136680000Y-60900000D01*
X135100000Y-60900000D02*
X134140000Y-60900000D01*
X132560000Y-60900000D02*
X131790000Y-60900000D01*
X137450000Y-66200000D02*
X131790000Y-66200000D01*
X137450000Y-66660000D02*
X131790000Y-66660000D01*
X137450000Y-60340000D02*
X136680000Y-60340000D01*
X135100000Y-60340000D02*
X134140000Y-60340000D01*
X132560000Y-60340000D02*
X131790000Y-60340000D01*
X137450000Y-66660000D02*
X137450000Y-60340000D01*
X131790000Y-66660000D02*
X131790000Y-60340000D01*
X137690000Y-60840000D02*
X137690000Y-60100000D01*
X137690000Y-60100000D02*
X137190000Y-60100000D01*
G04 #@! TO.C,SSR1*
D10*
X170234761Y-77938095D02*
X170282380Y-77795238D01*
X170282380Y-77557142D01*
X170234761Y-77461904D01*
X170187142Y-77414285D01*
X170091904Y-77366666D01*
X169996666Y-77366666D01*
X169901428Y-77414285D01*
X169853809Y-77461904D01*
X169806190Y-77557142D01*
X169758571Y-77747619D01*
X169710952Y-77842857D01*
X169663333Y-77890476D01*
X169568095Y-77938095D01*
X169472857Y-77938095D01*
X169377619Y-77890476D01*
X169330000Y-77842857D01*
X169282380Y-77747619D01*
X169282380Y-77509523D01*
X169330000Y-77366666D01*
X170234761Y-76985714D02*
X170282380Y-76842857D01*
X170282380Y-76604761D01*
X170234761Y-76509523D01*
X170187142Y-76461904D01*
X170091904Y-76414285D01*
X169996666Y-76414285D01*
X169901428Y-76461904D01*
X169853809Y-76509523D01*
X169806190Y-76604761D01*
X169758571Y-76795238D01*
X169710952Y-76890476D01*
X169663333Y-76938095D01*
X169568095Y-76985714D01*
X169472857Y-76985714D01*
X169377619Y-76938095D01*
X169330000Y-76890476D01*
X169282380Y-76795238D01*
X169282380Y-76557142D01*
X169330000Y-76414285D01*
X170282380Y-75414285D02*
X169806190Y-75747619D01*
X170282380Y-75985714D02*
X169282380Y-75985714D01*
X169282380Y-75604761D01*
X169330000Y-75509523D01*
X169377619Y-75461904D01*
X169472857Y-75414285D01*
X169615714Y-75414285D01*
X169710952Y-75461904D01*
X169758571Y-75509523D01*
X169806190Y-75604761D01*
X169806190Y-75985714D01*
X170282380Y-74461904D02*
X170282380Y-75033333D01*
X170282380Y-74747619D02*
X169282380Y-74747619D01*
X169425238Y-74842857D01*
X169520476Y-74938095D01*
X169568095Y-75033333D01*
G04 #@! TO.C,SENS4*
X173045714Y-58824761D02*
X173188571Y-58872380D01*
X173426666Y-58872380D01*
X173521904Y-58824761D01*
X173569523Y-58777142D01*
X173617142Y-58681904D01*
X173617142Y-58586666D01*
X173569523Y-58491428D01*
X173521904Y-58443809D01*
X173426666Y-58396190D01*
X173236190Y-58348571D01*
X173140952Y-58300952D01*
X173093333Y-58253333D01*
X173045714Y-58158095D01*
X173045714Y-58062857D01*
X173093333Y-57967619D01*
X173140952Y-57920000D01*
X173236190Y-57872380D01*
X173474285Y-57872380D01*
X173617142Y-57920000D01*
X174045714Y-58348571D02*
X174379047Y-58348571D01*
X174521904Y-58872380D02*
X174045714Y-58872380D01*
X174045714Y-57872380D01*
X174521904Y-57872380D01*
X174950476Y-58872380D02*
X174950476Y-57872380D01*
X175521904Y-58872380D01*
X175521904Y-57872380D01*
X175950476Y-58824761D02*
X176093333Y-58872380D01*
X176331428Y-58872380D01*
X176426666Y-58824761D01*
X176474285Y-58777142D01*
X176521904Y-58681904D01*
X176521904Y-58586666D01*
X176474285Y-58491428D01*
X176426666Y-58443809D01*
X176331428Y-58396190D01*
X176140952Y-58348571D01*
X176045714Y-58300952D01*
X175998095Y-58253333D01*
X175950476Y-58158095D01*
X175950476Y-58062857D01*
X175998095Y-57967619D01*
X176045714Y-57920000D01*
X176140952Y-57872380D01*
X176379047Y-57872380D01*
X176521904Y-57920000D01*
X177379047Y-58205714D02*
X177379047Y-58872380D01*
X177140952Y-57824761D02*
X176902857Y-58539047D01*
X177521904Y-58539047D01*
G04 #@! TO.C,SENS3*
X162885714Y-58824761D02*
X163028571Y-58872380D01*
X163266666Y-58872380D01*
X163361904Y-58824761D01*
X163409523Y-58777142D01*
X163457142Y-58681904D01*
X163457142Y-58586666D01*
X163409523Y-58491428D01*
X163361904Y-58443809D01*
X163266666Y-58396190D01*
X163076190Y-58348571D01*
X162980952Y-58300952D01*
X162933333Y-58253333D01*
X162885714Y-58158095D01*
X162885714Y-58062857D01*
X162933333Y-57967619D01*
X162980952Y-57920000D01*
X163076190Y-57872380D01*
X163314285Y-57872380D01*
X163457142Y-57920000D01*
X163885714Y-58348571D02*
X164219047Y-58348571D01*
X164361904Y-58872380D02*
X163885714Y-58872380D01*
X163885714Y-57872380D01*
X164361904Y-57872380D01*
X164790476Y-58872380D02*
X164790476Y-57872380D01*
X165361904Y-58872380D01*
X165361904Y-57872380D01*
X165790476Y-58824761D02*
X165933333Y-58872380D01*
X166171428Y-58872380D01*
X166266666Y-58824761D01*
X166314285Y-58777142D01*
X166361904Y-58681904D01*
X166361904Y-58586666D01*
X166314285Y-58491428D01*
X166266666Y-58443809D01*
X166171428Y-58396190D01*
X165980952Y-58348571D01*
X165885714Y-58300952D01*
X165838095Y-58253333D01*
X165790476Y-58158095D01*
X165790476Y-58062857D01*
X165838095Y-57967619D01*
X165885714Y-57920000D01*
X165980952Y-57872380D01*
X166219047Y-57872380D01*
X166361904Y-57920000D01*
X166695238Y-57872380D02*
X167314285Y-57872380D01*
X166980952Y-58253333D01*
X167123809Y-58253333D01*
X167219047Y-58300952D01*
X167266666Y-58348571D01*
X167314285Y-58443809D01*
X167314285Y-58681904D01*
X167266666Y-58777142D01*
X167219047Y-58824761D01*
X167123809Y-58872380D01*
X166838095Y-58872380D01*
X166742857Y-58824761D01*
X166695238Y-58777142D01*
G04 #@! TO.C,SENS2*
X152725714Y-58824761D02*
X152868571Y-58872380D01*
X153106666Y-58872380D01*
X153201904Y-58824761D01*
X153249523Y-58777142D01*
X153297142Y-58681904D01*
X153297142Y-58586666D01*
X153249523Y-58491428D01*
X153201904Y-58443809D01*
X153106666Y-58396190D01*
X152916190Y-58348571D01*
X152820952Y-58300952D01*
X152773333Y-58253333D01*
X152725714Y-58158095D01*
X152725714Y-58062857D01*
X152773333Y-57967619D01*
X152820952Y-57920000D01*
X152916190Y-57872380D01*
X153154285Y-57872380D01*
X153297142Y-57920000D01*
X153725714Y-58348571D02*
X154059047Y-58348571D01*
X154201904Y-58872380D02*
X153725714Y-58872380D01*
X153725714Y-57872380D01*
X154201904Y-57872380D01*
X154630476Y-58872380D02*
X154630476Y-57872380D01*
X155201904Y-58872380D01*
X155201904Y-57872380D01*
X155630476Y-58824761D02*
X155773333Y-58872380D01*
X156011428Y-58872380D01*
X156106666Y-58824761D01*
X156154285Y-58777142D01*
X156201904Y-58681904D01*
X156201904Y-58586666D01*
X156154285Y-58491428D01*
X156106666Y-58443809D01*
X156011428Y-58396190D01*
X155820952Y-58348571D01*
X155725714Y-58300952D01*
X155678095Y-58253333D01*
X155630476Y-58158095D01*
X155630476Y-58062857D01*
X155678095Y-57967619D01*
X155725714Y-57920000D01*
X155820952Y-57872380D01*
X156059047Y-57872380D01*
X156201904Y-57920000D01*
X156582857Y-57967619D02*
X156630476Y-57920000D01*
X156725714Y-57872380D01*
X156963809Y-57872380D01*
X157059047Y-57920000D01*
X157106666Y-57967619D01*
X157154285Y-58062857D01*
X157154285Y-58158095D01*
X157106666Y-58300952D01*
X156535238Y-58872380D01*
X157154285Y-58872380D01*
G04 #@! TO.C,SENS1*
X142565714Y-58824761D02*
X142708571Y-58872380D01*
X142946666Y-58872380D01*
X143041904Y-58824761D01*
X143089523Y-58777142D01*
X143137142Y-58681904D01*
X143137142Y-58586666D01*
X143089523Y-58491428D01*
X143041904Y-58443809D01*
X142946666Y-58396190D01*
X142756190Y-58348571D01*
X142660952Y-58300952D01*
X142613333Y-58253333D01*
X142565714Y-58158095D01*
X142565714Y-58062857D01*
X142613333Y-57967619D01*
X142660952Y-57920000D01*
X142756190Y-57872380D01*
X142994285Y-57872380D01*
X143137142Y-57920000D01*
X143565714Y-58348571D02*
X143899047Y-58348571D01*
X144041904Y-58872380D02*
X143565714Y-58872380D01*
X143565714Y-57872380D01*
X144041904Y-57872380D01*
X144470476Y-58872380D02*
X144470476Y-57872380D01*
X145041904Y-58872380D01*
X145041904Y-57872380D01*
X145470476Y-58824761D02*
X145613333Y-58872380D01*
X145851428Y-58872380D01*
X145946666Y-58824761D01*
X145994285Y-58777142D01*
X146041904Y-58681904D01*
X146041904Y-58586666D01*
X145994285Y-58491428D01*
X145946666Y-58443809D01*
X145851428Y-58396190D01*
X145660952Y-58348571D01*
X145565714Y-58300952D01*
X145518095Y-58253333D01*
X145470476Y-58158095D01*
X145470476Y-58062857D01*
X145518095Y-57967619D01*
X145565714Y-57920000D01*
X145660952Y-57872380D01*
X145899047Y-57872380D01*
X146041904Y-57920000D01*
X146994285Y-58872380D02*
X146422857Y-58872380D01*
X146708571Y-58872380D02*
X146708571Y-57872380D01*
X146613333Y-58015238D01*
X146518095Y-58110476D01*
X146422857Y-58158095D01*
G04 #@! TO.C,R3-4*
X118118095Y-103322380D02*
X117784761Y-102846190D01*
X117546666Y-103322380D02*
X117546666Y-102322380D01*
X117927619Y-102322380D01*
X118022857Y-102370000D01*
X118070476Y-102417619D01*
X118118095Y-102512857D01*
X118118095Y-102655714D01*
X118070476Y-102750952D01*
X118022857Y-102798571D01*
X117927619Y-102846190D01*
X117546666Y-102846190D01*
X118451428Y-102322380D02*
X119070476Y-102322380D01*
X118737142Y-102703333D01*
X118880000Y-102703333D01*
X118975238Y-102750952D01*
X119022857Y-102798571D01*
X119070476Y-102893809D01*
X119070476Y-103131904D01*
X119022857Y-103227142D01*
X118975238Y-103274761D01*
X118880000Y-103322380D01*
X118594285Y-103322380D01*
X118499047Y-103274761D01*
X118451428Y-103227142D01*
X119499047Y-102941428D02*
X120260952Y-102941428D01*
X121165714Y-102655714D02*
X121165714Y-103322380D01*
X120927619Y-102274761D02*
X120689523Y-102989047D01*
X121308571Y-102989047D01*
G04 #@! TO.C,R3-2*
X118118095Y-108402380D02*
X117784761Y-107926190D01*
X117546666Y-108402380D02*
X117546666Y-107402380D01*
X117927619Y-107402380D01*
X118022857Y-107450000D01*
X118070476Y-107497619D01*
X118118095Y-107592857D01*
X118118095Y-107735714D01*
X118070476Y-107830952D01*
X118022857Y-107878571D01*
X117927619Y-107926190D01*
X117546666Y-107926190D01*
X118451428Y-107402380D02*
X119070476Y-107402380D01*
X118737142Y-107783333D01*
X118880000Y-107783333D01*
X118975238Y-107830952D01*
X119022857Y-107878571D01*
X119070476Y-107973809D01*
X119070476Y-108211904D01*
X119022857Y-108307142D01*
X118975238Y-108354761D01*
X118880000Y-108402380D01*
X118594285Y-108402380D01*
X118499047Y-108354761D01*
X118451428Y-108307142D01*
X119499047Y-108021428D02*
X120260952Y-108021428D01*
X120689523Y-107497619D02*
X120737142Y-107450000D01*
X120832380Y-107402380D01*
X121070476Y-107402380D01*
X121165714Y-107450000D01*
X121213333Y-107497619D01*
X121260952Y-107592857D01*
X121260952Y-107688095D01*
X121213333Y-107830952D01*
X120641904Y-108402380D01*
X121260952Y-108402380D01*
G04 #@! TO.C,R3-1*
X118118095Y-113312380D02*
X117784761Y-112836190D01*
X117546666Y-113312380D02*
X117546666Y-112312380D01*
X117927619Y-112312380D01*
X118022857Y-112360000D01*
X118070476Y-112407619D01*
X118118095Y-112502857D01*
X118118095Y-112645714D01*
X118070476Y-112740952D01*
X118022857Y-112788571D01*
X117927619Y-112836190D01*
X117546666Y-112836190D01*
X118451428Y-112312380D02*
X119070476Y-112312380D01*
X118737142Y-112693333D01*
X118880000Y-112693333D01*
X118975238Y-112740952D01*
X119022857Y-112788571D01*
X119070476Y-112883809D01*
X119070476Y-113121904D01*
X119022857Y-113217142D01*
X118975238Y-113264761D01*
X118880000Y-113312380D01*
X118594285Y-113312380D01*
X118499047Y-113264761D01*
X118451428Y-113217142D01*
X119499047Y-112931428D02*
X120260952Y-112931428D01*
X121260952Y-113312380D02*
X120689523Y-113312380D01*
X120975238Y-113312380D02*
X120975238Y-112312380D01*
X120880000Y-112455238D01*
X120784761Y-112550476D01*
X120689523Y-112598095D01*
G04 #@! TO.C,R2-4*
X118118095Y-83002380D02*
X117784761Y-82526190D01*
X117546666Y-83002380D02*
X117546666Y-82002380D01*
X117927619Y-82002380D01*
X118022857Y-82050000D01*
X118070476Y-82097619D01*
X118118095Y-82192857D01*
X118118095Y-82335714D01*
X118070476Y-82430952D01*
X118022857Y-82478571D01*
X117927619Y-82526190D01*
X117546666Y-82526190D01*
X118499047Y-82097619D02*
X118546666Y-82050000D01*
X118641904Y-82002380D01*
X118880000Y-82002380D01*
X118975238Y-82050000D01*
X119022857Y-82097619D01*
X119070476Y-82192857D01*
X119070476Y-82288095D01*
X119022857Y-82430952D01*
X118451428Y-83002380D01*
X119070476Y-83002380D01*
X119499047Y-82621428D02*
X120260952Y-82621428D01*
X121165714Y-82335714D02*
X121165714Y-83002380D01*
X120927619Y-81954761D02*
X120689523Y-82669047D01*
X121308571Y-82669047D01*
G04 #@! TO.C,R2-2*
X118118095Y-88082380D02*
X117784761Y-87606190D01*
X117546666Y-88082380D02*
X117546666Y-87082380D01*
X117927619Y-87082380D01*
X118022857Y-87130000D01*
X118070476Y-87177619D01*
X118118095Y-87272857D01*
X118118095Y-87415714D01*
X118070476Y-87510952D01*
X118022857Y-87558571D01*
X117927619Y-87606190D01*
X117546666Y-87606190D01*
X118499047Y-87177619D02*
X118546666Y-87130000D01*
X118641904Y-87082380D01*
X118880000Y-87082380D01*
X118975238Y-87130000D01*
X119022857Y-87177619D01*
X119070476Y-87272857D01*
X119070476Y-87368095D01*
X119022857Y-87510952D01*
X118451428Y-88082380D01*
X119070476Y-88082380D01*
X119499047Y-87701428D02*
X120260952Y-87701428D01*
X120689523Y-87177619D02*
X120737142Y-87130000D01*
X120832380Y-87082380D01*
X121070476Y-87082380D01*
X121165714Y-87130000D01*
X121213333Y-87177619D01*
X121260952Y-87272857D01*
X121260952Y-87368095D01*
X121213333Y-87510952D01*
X120641904Y-88082380D01*
X121260952Y-88082380D01*
G04 #@! TO.C,R2-1*
X118118095Y-93162380D02*
X117784761Y-92686190D01*
X117546666Y-93162380D02*
X117546666Y-92162380D01*
X117927619Y-92162380D01*
X118022857Y-92210000D01*
X118070476Y-92257619D01*
X118118095Y-92352857D01*
X118118095Y-92495714D01*
X118070476Y-92590952D01*
X118022857Y-92638571D01*
X117927619Y-92686190D01*
X117546666Y-92686190D01*
X118499047Y-92257619D02*
X118546666Y-92210000D01*
X118641904Y-92162380D01*
X118880000Y-92162380D01*
X118975238Y-92210000D01*
X119022857Y-92257619D01*
X119070476Y-92352857D01*
X119070476Y-92448095D01*
X119022857Y-92590952D01*
X118451428Y-93162380D01*
X119070476Y-93162380D01*
X119499047Y-92781428D02*
X120260952Y-92781428D01*
X121260952Y-93162380D02*
X120689523Y-93162380D01*
X120975238Y-93162380D02*
X120975238Y-92162380D01*
X120880000Y-92305238D01*
X120784761Y-92400476D01*
X120689523Y-92448095D01*
G04 #@! TO.C,PSU1*
X171552380Y-108418095D02*
X170552380Y-108418095D01*
X170552380Y-108037142D01*
X170600000Y-107941904D01*
X170647619Y-107894285D01*
X170742857Y-107846666D01*
X170885714Y-107846666D01*
X170980952Y-107894285D01*
X171028571Y-107941904D01*
X171076190Y-108037142D01*
X171076190Y-108418095D01*
X171504761Y-107465714D02*
X171552380Y-107322857D01*
X171552380Y-107084761D01*
X171504761Y-106989523D01*
X171457142Y-106941904D01*
X171361904Y-106894285D01*
X171266666Y-106894285D01*
X171171428Y-106941904D01*
X171123809Y-106989523D01*
X171076190Y-107084761D01*
X171028571Y-107275238D01*
X170980952Y-107370476D01*
X170933333Y-107418095D01*
X170838095Y-107465714D01*
X170742857Y-107465714D01*
X170647619Y-107418095D01*
X170600000Y-107370476D01*
X170552380Y-107275238D01*
X170552380Y-107037142D01*
X170600000Y-106894285D01*
X170552380Y-106465714D02*
X171361904Y-106465714D01*
X171457142Y-106418095D01*
X171504761Y-106370476D01*
X171552380Y-106275238D01*
X171552380Y-106084761D01*
X171504761Y-105989523D01*
X171457142Y-105941904D01*
X171361904Y-105894285D01*
X170552380Y-105894285D01*
X171552380Y-104894285D02*
X171552380Y-105465714D01*
X171552380Y-105180000D02*
X170552380Y-105180000D01*
X170695238Y-105275238D01*
X170790476Y-105370476D01*
X170838095Y-105465714D01*
G04 #@! TO.C,J1*
X173656666Y-82212380D02*
X173656666Y-82926666D01*
X173609047Y-83069523D01*
X173513809Y-83164761D01*
X173370952Y-83212380D01*
X173275714Y-83212380D01*
X174656666Y-83212380D02*
X174085238Y-83212380D01*
X174370952Y-83212380D02*
X174370952Y-82212380D01*
X174275714Y-82355238D01*
X174180476Y-82450476D01*
X174085238Y-82498095D01*
G04 #@! TO.C,ESP321*
X143430952Y-69778571D02*
X143764285Y-69778571D01*
X143907142Y-70302380D02*
X143430952Y-70302380D01*
X143430952Y-69302380D01*
X143907142Y-69302380D01*
X144288095Y-70254761D02*
X144430952Y-70302380D01*
X144669047Y-70302380D01*
X144764285Y-70254761D01*
X144811904Y-70207142D01*
X144859523Y-70111904D01*
X144859523Y-70016666D01*
X144811904Y-69921428D01*
X144764285Y-69873809D01*
X144669047Y-69826190D01*
X144478571Y-69778571D01*
X144383333Y-69730952D01*
X144335714Y-69683333D01*
X144288095Y-69588095D01*
X144288095Y-69492857D01*
X144335714Y-69397619D01*
X144383333Y-69350000D01*
X144478571Y-69302380D01*
X144716666Y-69302380D01*
X144859523Y-69350000D01*
X145288095Y-70302380D02*
X145288095Y-69302380D01*
X145669047Y-69302380D01*
X145764285Y-69350000D01*
X145811904Y-69397619D01*
X145859523Y-69492857D01*
X145859523Y-69635714D01*
X145811904Y-69730952D01*
X145764285Y-69778571D01*
X145669047Y-69826190D01*
X145288095Y-69826190D01*
X146192857Y-69302380D02*
X146811904Y-69302380D01*
X146478571Y-69683333D01*
X146621428Y-69683333D01*
X146716666Y-69730952D01*
X146764285Y-69778571D01*
X146811904Y-69873809D01*
X146811904Y-70111904D01*
X146764285Y-70207142D01*
X146716666Y-70254761D01*
X146621428Y-70302380D01*
X146335714Y-70302380D01*
X146240476Y-70254761D01*
X146192857Y-70207142D01*
X147192857Y-69397619D02*
X147240476Y-69350000D01*
X147335714Y-69302380D01*
X147573809Y-69302380D01*
X147669047Y-69350000D01*
X147716666Y-69397619D01*
X147764285Y-69492857D01*
X147764285Y-69588095D01*
X147716666Y-69730952D01*
X147145238Y-70302380D01*
X147764285Y-70302380D01*
X148716666Y-70302380D02*
X148145238Y-70302380D01*
X148430952Y-70302380D02*
X148430952Y-69302380D01*
X148335714Y-69445238D01*
X148240476Y-69540476D01*
X148145238Y-69588095D01*
X160212023Y-112767380D02*
X159878690Y-112291190D01*
X159640595Y-112767380D02*
X159640595Y-111767380D01*
X160021547Y-111767380D01*
X160116785Y-111815000D01*
X160164404Y-111862619D01*
X160212023Y-111957857D01*
X160212023Y-112100714D01*
X160164404Y-112195952D01*
X160116785Y-112243571D01*
X160021547Y-112291190D01*
X159640595Y-112291190D01*
X160640595Y-112243571D02*
X160973928Y-112243571D01*
X161116785Y-112767380D02*
X160640595Y-112767380D01*
X160640595Y-111767380D01*
X161116785Y-111767380D01*
X161497738Y-112719761D02*
X161640595Y-112767380D01*
X161878690Y-112767380D01*
X161973928Y-112719761D01*
X162021547Y-112672142D01*
X162069166Y-112576904D01*
X162069166Y-112481666D01*
X162021547Y-112386428D01*
X161973928Y-112338809D01*
X161878690Y-112291190D01*
X161688214Y-112243571D01*
X161592976Y-112195952D01*
X161545357Y-112148333D01*
X161497738Y-112053095D01*
X161497738Y-111957857D01*
X161545357Y-111862619D01*
X161592976Y-111815000D01*
X161688214Y-111767380D01*
X161926309Y-111767380D01*
X162069166Y-111815000D01*
X162497738Y-112243571D02*
X162831071Y-112243571D01*
X162973928Y-112767380D02*
X162497738Y-112767380D01*
X162497738Y-111767380D01*
X162973928Y-111767380D01*
X163259642Y-111767380D02*
X163831071Y-111767380D01*
X163545357Y-112767380D02*
X163545357Y-111767380D01*
X159545357Y-109227380D02*
X160164404Y-109227380D01*
X159831071Y-109608333D01*
X159973928Y-109608333D01*
X160069166Y-109655952D01*
X160116785Y-109703571D01*
X160164404Y-109798809D01*
X160164404Y-110036904D01*
X160116785Y-110132142D01*
X160069166Y-110179761D01*
X159973928Y-110227380D01*
X159688214Y-110227380D01*
X159592976Y-110179761D01*
X159545357Y-110132142D01*
X160450119Y-109227380D02*
X160783452Y-110227380D01*
X161116785Y-109227380D01*
X161354880Y-109227380D02*
X161973928Y-109227380D01*
X161640595Y-109608333D01*
X161783452Y-109608333D01*
X161878690Y-109655952D01*
X161926309Y-109703571D01*
X161973928Y-109798809D01*
X161973928Y-110036904D01*
X161926309Y-110132142D01*
X161878690Y-110179761D01*
X161783452Y-110227380D01*
X161497738Y-110227380D01*
X161402500Y-110179761D01*
X161354880Y-110132142D01*
X159640595Y-107687380D02*
X159640595Y-106687380D01*
X160212023Y-107687380D01*
X160212023Y-106687380D01*
X161259642Y-107592142D02*
X161212023Y-107639761D01*
X161069166Y-107687380D01*
X160973928Y-107687380D01*
X160831071Y-107639761D01*
X160735833Y-107544523D01*
X160688214Y-107449285D01*
X160640595Y-107258809D01*
X160640595Y-107115952D01*
X160688214Y-106925476D01*
X160735833Y-106830238D01*
X160831071Y-106735000D01*
X160973928Y-106687380D01*
X161069166Y-106687380D01*
X161212023Y-106735000D01*
X161259642Y-106782619D01*
X160164404Y-104195000D02*
X160069166Y-104147380D01*
X159926309Y-104147380D01*
X159783452Y-104195000D01*
X159688214Y-104290238D01*
X159640595Y-104385476D01*
X159592976Y-104575952D01*
X159592976Y-104718809D01*
X159640595Y-104909285D01*
X159688214Y-105004523D01*
X159783452Y-105099761D01*
X159926309Y-105147380D01*
X160021547Y-105147380D01*
X160164404Y-105099761D01*
X160212023Y-105052142D01*
X160212023Y-104718809D01*
X160021547Y-104718809D01*
X160640595Y-105147380D02*
X160640595Y-104147380D01*
X161212023Y-105147380D01*
X161212023Y-104147380D01*
X161688214Y-105147380D02*
X161688214Y-104147380D01*
X161926309Y-104147380D01*
X162069166Y-104195000D01*
X162164404Y-104290238D01*
X162212023Y-104385476D01*
X162259642Y-104575952D01*
X162259642Y-104718809D01*
X162212023Y-104909285D01*
X162164404Y-105004523D01*
X162069166Y-105099761D01*
X161926309Y-105147380D01*
X161688214Y-105147380D01*
X159640595Y-102607380D02*
X159640595Y-101607380D01*
X160021547Y-101607380D01*
X160116785Y-101655000D01*
X160164404Y-101702619D01*
X160212023Y-101797857D01*
X160212023Y-101940714D01*
X160164404Y-102035952D01*
X160116785Y-102083571D01*
X160021547Y-102131190D01*
X159640595Y-102131190D01*
X160592976Y-101702619D02*
X160640595Y-101655000D01*
X160735833Y-101607380D01*
X160973928Y-101607380D01*
X161069166Y-101655000D01*
X161116785Y-101702619D01*
X161164404Y-101797857D01*
X161164404Y-101893095D01*
X161116785Y-102035952D01*
X160545357Y-102607380D01*
X161164404Y-102607380D01*
X162021547Y-101607380D02*
X161831071Y-101607380D01*
X161735833Y-101655000D01*
X161688214Y-101702619D01*
X161592976Y-101845476D01*
X161545357Y-102035952D01*
X161545357Y-102416904D01*
X161592976Y-102512142D01*
X161640595Y-102559761D01*
X161735833Y-102607380D01*
X161926309Y-102607380D01*
X162021547Y-102559761D01*
X162069166Y-102512142D01*
X162116785Y-102416904D01*
X162116785Y-102178809D01*
X162069166Y-102083571D01*
X162021547Y-102035952D01*
X161926309Y-101988333D01*
X161735833Y-101988333D01*
X161640595Y-102035952D01*
X161592976Y-102083571D01*
X161545357Y-102178809D01*
X163259642Y-101559761D02*
X162402500Y-102845476D01*
X163545357Y-102321666D02*
X164021547Y-102321666D01*
X163450119Y-102607380D02*
X163783452Y-101607380D01*
X164116785Y-102607380D01*
X164640595Y-101607380D02*
X164735833Y-101607380D01*
X164831071Y-101655000D01*
X164878690Y-101702619D01*
X164926309Y-101797857D01*
X164973928Y-101988333D01*
X164973928Y-102226428D01*
X164926309Y-102416904D01*
X164878690Y-102512142D01*
X164831071Y-102559761D01*
X164735833Y-102607380D01*
X164640595Y-102607380D01*
X164545357Y-102559761D01*
X164497738Y-102512142D01*
X164450119Y-102416904D01*
X164402500Y-102226428D01*
X164402500Y-101988333D01*
X164450119Y-101797857D01*
X164497738Y-101702619D01*
X164545357Y-101655000D01*
X164640595Y-101607380D01*
X159640595Y-100067380D02*
X159640595Y-99067380D01*
X160021547Y-99067380D01*
X160116785Y-99115000D01*
X160164404Y-99162619D01*
X160212023Y-99257857D01*
X160212023Y-99400714D01*
X160164404Y-99495952D01*
X160116785Y-99543571D01*
X160021547Y-99591190D01*
X159640595Y-99591190D01*
X160592976Y-99162619D02*
X160640595Y-99115000D01*
X160735833Y-99067380D01*
X160973928Y-99067380D01*
X161069166Y-99115000D01*
X161116785Y-99162619D01*
X161164404Y-99257857D01*
X161164404Y-99353095D01*
X161116785Y-99495952D01*
X160545357Y-100067380D01*
X161164404Y-100067380D01*
X162069166Y-99067380D02*
X161592976Y-99067380D01*
X161545357Y-99543571D01*
X161592976Y-99495952D01*
X161688214Y-99448333D01*
X161926309Y-99448333D01*
X162021547Y-99495952D01*
X162069166Y-99543571D01*
X162116785Y-99638809D01*
X162116785Y-99876904D01*
X162069166Y-99972142D01*
X162021547Y-100019761D01*
X161926309Y-100067380D01*
X161688214Y-100067380D01*
X161592976Y-100019761D01*
X161545357Y-99972142D01*
X163259642Y-99019761D02*
X162402500Y-100305476D01*
X163545357Y-99781666D02*
X164021547Y-99781666D01*
X163450119Y-100067380D02*
X163783452Y-99067380D01*
X164116785Y-100067380D01*
X164973928Y-100067380D02*
X164402500Y-100067380D01*
X164688214Y-100067380D02*
X164688214Y-99067380D01*
X164592976Y-99210238D01*
X164497738Y-99305476D01*
X164402500Y-99353095D01*
X159640595Y-97527380D02*
X159640595Y-96527380D01*
X160021547Y-96527380D01*
X160116785Y-96575000D01*
X160164404Y-96622619D01*
X160212023Y-96717857D01*
X160212023Y-96860714D01*
X160164404Y-96955952D01*
X160116785Y-97003571D01*
X160021547Y-97051190D01*
X159640595Y-97051190D01*
X160545357Y-96527380D02*
X161164404Y-96527380D01*
X160831071Y-96908333D01*
X160973928Y-96908333D01*
X161069166Y-96955952D01*
X161116785Y-97003571D01*
X161164404Y-97098809D01*
X161164404Y-97336904D01*
X161116785Y-97432142D01*
X161069166Y-97479761D01*
X160973928Y-97527380D01*
X160688214Y-97527380D01*
X160592976Y-97479761D01*
X160545357Y-97432142D01*
X162021547Y-96860714D02*
X162021547Y-97527380D01*
X161783452Y-96479761D02*
X161545357Y-97194047D01*
X162164404Y-97194047D01*
X163259642Y-96479761D02*
X162402500Y-97765476D01*
X163545357Y-97241666D02*
X164021547Y-97241666D01*
X163450119Y-97527380D02*
X163783452Y-96527380D01*
X164116785Y-97527380D01*
X164402500Y-96622619D02*
X164450119Y-96575000D01*
X164545357Y-96527380D01*
X164783452Y-96527380D01*
X164878690Y-96575000D01*
X164926309Y-96622619D01*
X164973928Y-96717857D01*
X164973928Y-96813095D01*
X164926309Y-96955952D01*
X164354880Y-97527380D01*
X164973928Y-97527380D01*
X159640595Y-94987380D02*
X159640595Y-93987380D01*
X160021547Y-93987380D01*
X160116785Y-94035000D01*
X160164404Y-94082619D01*
X160212023Y-94177857D01*
X160212023Y-94320714D01*
X160164404Y-94415952D01*
X160116785Y-94463571D01*
X160021547Y-94511190D01*
X159640595Y-94511190D01*
X160545357Y-93987380D02*
X161164404Y-93987380D01*
X160831071Y-94368333D01*
X160973928Y-94368333D01*
X161069166Y-94415952D01*
X161116785Y-94463571D01*
X161164404Y-94558809D01*
X161164404Y-94796904D01*
X161116785Y-94892142D01*
X161069166Y-94939761D01*
X160973928Y-94987380D01*
X160688214Y-94987380D01*
X160592976Y-94939761D01*
X160545357Y-94892142D01*
X161640595Y-94987380D02*
X161831071Y-94987380D01*
X161926309Y-94939761D01*
X161973928Y-94892142D01*
X162069166Y-94749285D01*
X162116785Y-94558809D01*
X162116785Y-94177857D01*
X162069166Y-94082619D01*
X162021547Y-94035000D01*
X161926309Y-93987380D01*
X161735833Y-93987380D01*
X161640595Y-94035000D01*
X161592976Y-94082619D01*
X161545357Y-94177857D01*
X161545357Y-94415952D01*
X161592976Y-94511190D01*
X161640595Y-94558809D01*
X161735833Y-94606428D01*
X161926309Y-94606428D01*
X162021547Y-94558809D01*
X162069166Y-94511190D01*
X162116785Y-94415952D01*
X163259642Y-93939761D02*
X162402500Y-95225476D01*
X163545357Y-94701666D02*
X164021547Y-94701666D01*
X163450119Y-94987380D02*
X163783452Y-93987380D01*
X164116785Y-94987380D01*
X164354880Y-93987380D02*
X164973928Y-93987380D01*
X164640595Y-94368333D01*
X164783452Y-94368333D01*
X164878690Y-94415952D01*
X164926309Y-94463571D01*
X164973928Y-94558809D01*
X164973928Y-94796904D01*
X164926309Y-94892142D01*
X164878690Y-94939761D01*
X164783452Y-94987380D01*
X164497738Y-94987380D01*
X164402500Y-94939761D01*
X164354880Y-94892142D01*
X159640595Y-92447380D02*
X159640595Y-91447380D01*
X160021547Y-91447380D01*
X160116785Y-91495000D01*
X160164404Y-91542619D01*
X160212023Y-91637857D01*
X160212023Y-91780714D01*
X160164404Y-91875952D01*
X160116785Y-91923571D01*
X160021547Y-91971190D01*
X159640595Y-91971190D01*
X160545357Y-91447380D02*
X161164404Y-91447380D01*
X160831071Y-91828333D01*
X160973928Y-91828333D01*
X161069166Y-91875952D01*
X161116785Y-91923571D01*
X161164404Y-92018809D01*
X161164404Y-92256904D01*
X161116785Y-92352142D01*
X161069166Y-92399761D01*
X160973928Y-92447380D01*
X160688214Y-92447380D01*
X160592976Y-92399761D01*
X160545357Y-92352142D01*
X162021547Y-91447380D02*
X161831071Y-91447380D01*
X161735833Y-91495000D01*
X161688214Y-91542619D01*
X161592976Y-91685476D01*
X161545357Y-91875952D01*
X161545357Y-92256904D01*
X161592976Y-92352142D01*
X161640595Y-92399761D01*
X161735833Y-92447380D01*
X161926309Y-92447380D01*
X162021547Y-92399761D01*
X162069166Y-92352142D01*
X162116785Y-92256904D01*
X162116785Y-92018809D01*
X162069166Y-91923571D01*
X162021547Y-91875952D01*
X161926309Y-91828333D01*
X161735833Y-91828333D01*
X161640595Y-91875952D01*
X161592976Y-91923571D01*
X161545357Y-92018809D01*
X163259642Y-91399761D02*
X162402500Y-92685476D01*
X163545357Y-92161666D02*
X164021547Y-92161666D01*
X163450119Y-92447380D02*
X163783452Y-91447380D01*
X164116785Y-92447380D01*
X164878690Y-91780714D02*
X164878690Y-92447380D01*
X164640595Y-91399761D02*
X164402500Y-92114047D01*
X165021547Y-92114047D01*
X159640595Y-89907380D02*
X159640595Y-88907380D01*
X160021547Y-88907380D01*
X160116785Y-88955000D01*
X160164404Y-89002619D01*
X160212023Y-89097857D01*
X160212023Y-89240714D01*
X160164404Y-89335952D01*
X160116785Y-89383571D01*
X160021547Y-89431190D01*
X159640595Y-89431190D01*
X160831071Y-88907380D02*
X160926309Y-88907380D01*
X161021547Y-88955000D01*
X161069166Y-89002619D01*
X161116785Y-89097857D01*
X161164404Y-89288333D01*
X161164404Y-89526428D01*
X161116785Y-89716904D01*
X161069166Y-89812142D01*
X161021547Y-89859761D01*
X160926309Y-89907380D01*
X160831071Y-89907380D01*
X160735833Y-89859761D01*
X160688214Y-89812142D01*
X160640595Y-89716904D01*
X160592976Y-89526428D01*
X160592976Y-89288333D01*
X160640595Y-89097857D01*
X160688214Y-89002619D01*
X160735833Y-88955000D01*
X160831071Y-88907380D01*
X162021547Y-89240714D02*
X162021547Y-89907380D01*
X161783452Y-88859761D02*
X161545357Y-89574047D01*
X162164404Y-89574047D01*
X163259642Y-88859761D02*
X162402500Y-90145476D01*
X163545357Y-89621666D02*
X164021547Y-89621666D01*
X163450119Y-89907380D02*
X163783452Y-88907380D01*
X164116785Y-89907380D01*
X164926309Y-88907380D02*
X164450119Y-88907380D01*
X164402500Y-89383571D01*
X164450119Y-89335952D01*
X164545357Y-89288333D01*
X164783452Y-89288333D01*
X164878690Y-89335952D01*
X164926309Y-89383571D01*
X164973928Y-89478809D01*
X164973928Y-89716904D01*
X164926309Y-89812142D01*
X164878690Y-89859761D01*
X164783452Y-89907380D01*
X164545357Y-89907380D01*
X164450119Y-89859761D01*
X164402500Y-89812142D01*
X159640595Y-87367380D02*
X159640595Y-86367380D01*
X160021547Y-86367380D01*
X160116785Y-86415000D01*
X160164404Y-86462619D01*
X160212023Y-86557857D01*
X160212023Y-86700714D01*
X160164404Y-86795952D01*
X160116785Y-86843571D01*
X160021547Y-86891190D01*
X159640595Y-86891190D01*
X160831071Y-86367380D02*
X160926309Y-86367380D01*
X161021547Y-86415000D01*
X161069166Y-86462619D01*
X161116785Y-86557857D01*
X161164404Y-86748333D01*
X161164404Y-86986428D01*
X161116785Y-87176904D01*
X161069166Y-87272142D01*
X161021547Y-87319761D01*
X160926309Y-87367380D01*
X160831071Y-87367380D01*
X160735833Y-87319761D01*
X160688214Y-87272142D01*
X160640595Y-87176904D01*
X160592976Y-86986428D01*
X160592976Y-86748333D01*
X160640595Y-86557857D01*
X160688214Y-86462619D01*
X160735833Y-86415000D01*
X160831071Y-86367380D01*
X162069166Y-86367380D02*
X161592976Y-86367380D01*
X161545357Y-86843571D01*
X161592976Y-86795952D01*
X161688214Y-86748333D01*
X161926309Y-86748333D01*
X162021547Y-86795952D01*
X162069166Y-86843571D01*
X162116785Y-86938809D01*
X162116785Y-87176904D01*
X162069166Y-87272142D01*
X162021547Y-87319761D01*
X161926309Y-87367380D01*
X161688214Y-87367380D01*
X161592976Y-87319761D01*
X161545357Y-87272142D01*
X163259642Y-86319761D02*
X162402500Y-87605476D01*
X163545357Y-87319761D02*
X163688214Y-87367380D01*
X163926309Y-87367380D01*
X164021547Y-87319761D01*
X164069166Y-87272142D01*
X164116785Y-87176904D01*
X164116785Y-87081666D01*
X164069166Y-86986428D01*
X164021547Y-86938809D01*
X163926309Y-86891190D01*
X163735833Y-86843571D01*
X163640595Y-86795952D01*
X163592976Y-86748333D01*
X163545357Y-86653095D01*
X163545357Y-86557857D01*
X163592976Y-86462619D01*
X163640595Y-86415000D01*
X163735833Y-86367380D01*
X163973928Y-86367380D01*
X164116785Y-86415000D01*
X165116785Y-87272142D02*
X165069166Y-87319761D01*
X164926309Y-87367380D01*
X164831071Y-87367380D01*
X164688214Y-87319761D01*
X164592976Y-87224523D01*
X164545357Y-87129285D01*
X164497738Y-86938809D01*
X164497738Y-86795952D01*
X164545357Y-86605476D01*
X164592976Y-86510238D01*
X164688214Y-86415000D01*
X164831071Y-86367380D01*
X164926309Y-86367380D01*
X165069166Y-86415000D01*
X165116785Y-86462619D01*
X165545357Y-87367380D02*
X165545357Y-86367380D01*
X166116785Y-87367380D02*
X165688214Y-86795952D01*
X166116785Y-86367380D02*
X165545357Y-86938809D01*
X159640595Y-84827380D02*
X159640595Y-83827380D01*
X160021547Y-83827380D01*
X160116785Y-83875000D01*
X160164404Y-83922619D01*
X160212023Y-84017857D01*
X160212023Y-84160714D01*
X160164404Y-84255952D01*
X160116785Y-84303571D01*
X160021547Y-84351190D01*
X159640595Y-84351190D01*
X161164404Y-84827380D02*
X160592976Y-84827380D01*
X160878690Y-84827380D02*
X160878690Y-83827380D01*
X160783452Y-83970238D01*
X160688214Y-84065476D01*
X160592976Y-84113095D01*
X161735833Y-84255952D02*
X161640595Y-84208333D01*
X161592976Y-84160714D01*
X161545357Y-84065476D01*
X161545357Y-84017857D01*
X161592976Y-83922619D01*
X161640595Y-83875000D01*
X161735833Y-83827380D01*
X161926309Y-83827380D01*
X162021547Y-83875000D01*
X162069166Y-83922619D01*
X162116785Y-84017857D01*
X162116785Y-84065476D01*
X162069166Y-84160714D01*
X162021547Y-84208333D01*
X161926309Y-84255952D01*
X161735833Y-84255952D01*
X161640595Y-84303571D01*
X161592976Y-84351190D01*
X161545357Y-84446428D01*
X161545357Y-84636904D01*
X161592976Y-84732142D01*
X161640595Y-84779761D01*
X161735833Y-84827380D01*
X161926309Y-84827380D01*
X162021547Y-84779761D01*
X162069166Y-84732142D01*
X162116785Y-84636904D01*
X162116785Y-84446428D01*
X162069166Y-84351190D01*
X162021547Y-84303571D01*
X161926309Y-84255952D01*
X163259642Y-83779761D02*
X162402500Y-85065476D01*
X163592976Y-84827380D02*
X163592976Y-83827380D01*
X163926309Y-84541666D01*
X164259642Y-83827380D01*
X164259642Y-84827380D01*
X164926309Y-83827380D02*
X165116785Y-83827380D01*
X165212023Y-83875000D01*
X165307261Y-83970238D01*
X165354880Y-84160714D01*
X165354880Y-84494047D01*
X165307261Y-84684523D01*
X165212023Y-84779761D01*
X165116785Y-84827380D01*
X164926309Y-84827380D01*
X164831071Y-84779761D01*
X164735833Y-84684523D01*
X164688214Y-84494047D01*
X164688214Y-84160714D01*
X164735833Y-83970238D01*
X164831071Y-83875000D01*
X164926309Y-83827380D01*
X165735833Y-84779761D02*
X165878690Y-84827380D01*
X166116785Y-84827380D01*
X166212023Y-84779761D01*
X166259642Y-84732142D01*
X166307261Y-84636904D01*
X166307261Y-84541666D01*
X166259642Y-84446428D01*
X166212023Y-84398809D01*
X166116785Y-84351190D01*
X165926309Y-84303571D01*
X165831071Y-84255952D01*
X165783452Y-84208333D01*
X165735833Y-84113095D01*
X165735833Y-84017857D01*
X165783452Y-83922619D01*
X165831071Y-83875000D01*
X165926309Y-83827380D01*
X166164404Y-83827380D01*
X166307261Y-83875000D01*
X166735833Y-84827380D02*
X166735833Y-83827380D01*
X159640595Y-82287380D02*
X159640595Y-81287380D01*
X160021547Y-81287380D01*
X160116785Y-81335000D01*
X160164404Y-81382619D01*
X160212023Y-81477857D01*
X160212023Y-81620714D01*
X160164404Y-81715952D01*
X160116785Y-81763571D01*
X160021547Y-81811190D01*
X159640595Y-81811190D01*
X161164404Y-82287380D02*
X160592976Y-82287380D01*
X160878690Y-82287380D02*
X160878690Y-81287380D01*
X160783452Y-81430238D01*
X160688214Y-81525476D01*
X160592976Y-81573095D01*
X161640595Y-82287380D02*
X161831071Y-82287380D01*
X161926309Y-82239761D01*
X161973928Y-82192142D01*
X162069166Y-82049285D01*
X162116785Y-81858809D01*
X162116785Y-81477857D01*
X162069166Y-81382619D01*
X162021547Y-81335000D01*
X161926309Y-81287380D01*
X161735833Y-81287380D01*
X161640595Y-81335000D01*
X161592976Y-81382619D01*
X161545357Y-81477857D01*
X161545357Y-81715952D01*
X161592976Y-81811190D01*
X161640595Y-81858809D01*
X161735833Y-81906428D01*
X161926309Y-81906428D01*
X162021547Y-81858809D01*
X162069166Y-81811190D01*
X162116785Y-81715952D01*
X163259642Y-81239761D02*
X162402500Y-82525476D01*
X163592976Y-82287380D02*
X163592976Y-81287380D01*
X163926309Y-82001666D01*
X164259642Y-81287380D01*
X164259642Y-82287380D01*
X164735833Y-82287380D02*
X164735833Y-81287380D01*
X165164404Y-82239761D02*
X165307261Y-82287380D01*
X165545357Y-82287380D01*
X165640595Y-82239761D01*
X165688214Y-82192142D01*
X165735833Y-82096904D01*
X165735833Y-82001666D01*
X165688214Y-81906428D01*
X165640595Y-81858809D01*
X165545357Y-81811190D01*
X165354880Y-81763571D01*
X165259642Y-81715952D01*
X165212023Y-81668333D01*
X165164404Y-81573095D01*
X165164404Y-81477857D01*
X165212023Y-81382619D01*
X165259642Y-81335000D01*
X165354880Y-81287380D01*
X165592976Y-81287380D01*
X165735833Y-81335000D01*
X166354880Y-81287380D02*
X166545357Y-81287380D01*
X166640595Y-81335000D01*
X166735833Y-81430238D01*
X166783452Y-81620714D01*
X166783452Y-81954047D01*
X166735833Y-82144523D01*
X166640595Y-82239761D01*
X166545357Y-82287380D01*
X166354880Y-82287380D01*
X166259642Y-82239761D01*
X166164404Y-82144523D01*
X166116785Y-81954047D01*
X166116785Y-81620714D01*
X166164404Y-81430238D01*
X166259642Y-81335000D01*
X166354880Y-81287380D01*
X159640595Y-79747380D02*
X159640595Y-78747380D01*
X160021547Y-78747380D01*
X160116785Y-78795000D01*
X160164404Y-78842619D01*
X160212023Y-78937857D01*
X160212023Y-79080714D01*
X160164404Y-79175952D01*
X160116785Y-79223571D01*
X160021547Y-79271190D01*
X159640595Y-79271190D01*
X161164404Y-79747380D02*
X160592976Y-79747380D01*
X160878690Y-79747380D02*
X160878690Y-78747380D01*
X160783452Y-78890238D01*
X160688214Y-78985476D01*
X160592976Y-79033095D01*
X162021547Y-78747380D02*
X161831071Y-78747380D01*
X161735833Y-78795000D01*
X161688214Y-78842619D01*
X161592976Y-78985476D01*
X161545357Y-79175952D01*
X161545357Y-79556904D01*
X161592976Y-79652142D01*
X161640595Y-79699761D01*
X161735833Y-79747380D01*
X161926309Y-79747380D01*
X162021547Y-79699761D01*
X162069166Y-79652142D01*
X162116785Y-79556904D01*
X162116785Y-79318809D01*
X162069166Y-79223571D01*
X162021547Y-79175952D01*
X161926309Y-79128333D01*
X161735833Y-79128333D01*
X161640595Y-79175952D01*
X161592976Y-79223571D01*
X161545357Y-79318809D01*
X163259642Y-78699761D02*
X162402500Y-79985476D01*
X164164404Y-79747380D02*
X163831071Y-79271190D01*
X163592976Y-79747380D02*
X163592976Y-78747380D01*
X163973928Y-78747380D01*
X164069166Y-78795000D01*
X164116785Y-78842619D01*
X164164404Y-78937857D01*
X164164404Y-79080714D01*
X164116785Y-79175952D01*
X164069166Y-79223571D01*
X163973928Y-79271190D01*
X163592976Y-79271190D01*
X164497738Y-78747380D02*
X165164404Y-79747380D01*
X165164404Y-78747380D02*
X164497738Y-79747380D01*
X166069166Y-79747380D02*
X165497738Y-79747380D01*
X165783452Y-79747380D02*
X165783452Y-78747380D01*
X165688214Y-78890238D01*
X165592976Y-78985476D01*
X165497738Y-79033095D01*
X159640595Y-77207380D02*
X159640595Y-76207380D01*
X160021547Y-76207380D01*
X160116785Y-76255000D01*
X160164404Y-76302619D01*
X160212023Y-76397857D01*
X160212023Y-76540714D01*
X160164404Y-76635952D01*
X160116785Y-76683571D01*
X160021547Y-76731190D01*
X159640595Y-76731190D01*
X161164404Y-77207380D02*
X160592976Y-77207380D01*
X160878690Y-77207380D02*
X160878690Y-76207380D01*
X160783452Y-76350238D01*
X160688214Y-76445476D01*
X160592976Y-76493095D01*
X161497738Y-76207380D02*
X162164404Y-76207380D01*
X161735833Y-77207380D01*
X163259642Y-76159761D02*
X162402500Y-77445476D01*
X163450119Y-76207380D02*
X164021547Y-76207380D01*
X163735833Y-77207380D02*
X163735833Y-76207380D01*
X164259642Y-76207380D02*
X164926309Y-77207380D01*
X164926309Y-76207380D02*
X164259642Y-77207380D01*
X165831071Y-77207380D02*
X165259642Y-77207380D01*
X165545357Y-77207380D02*
X165545357Y-76207380D01*
X165450119Y-76350238D01*
X165354880Y-76445476D01*
X165259642Y-76493095D01*
X159640595Y-74667380D02*
X159640595Y-73667380D01*
X160021547Y-73667380D01*
X160116785Y-73715000D01*
X160164404Y-73762619D01*
X160212023Y-73857857D01*
X160212023Y-74000714D01*
X160164404Y-74095952D01*
X160116785Y-74143571D01*
X160021547Y-74191190D01*
X159640595Y-74191190D01*
X160592976Y-73762619D02*
X160640595Y-73715000D01*
X160735833Y-73667380D01*
X160973928Y-73667380D01*
X161069166Y-73715000D01*
X161116785Y-73762619D01*
X161164404Y-73857857D01*
X161164404Y-73953095D01*
X161116785Y-74095952D01*
X160545357Y-74667380D01*
X161164404Y-74667380D01*
X162116785Y-74667380D02*
X161545357Y-74667380D01*
X161831071Y-74667380D02*
X161831071Y-73667380D01*
X161735833Y-73810238D01*
X161640595Y-73905476D01*
X161545357Y-73953095D01*
X130426547Y-101607380D02*
X130759880Y-102607380D01*
X131093214Y-101607380D01*
X131759880Y-102083571D02*
X131902738Y-102131190D01*
X131950357Y-102178809D01*
X131997976Y-102274047D01*
X131997976Y-102416904D01*
X131950357Y-102512142D01*
X131902738Y-102559761D01*
X131807500Y-102607380D01*
X131426547Y-102607380D01*
X131426547Y-101607380D01*
X131759880Y-101607380D01*
X131855119Y-101655000D01*
X131902738Y-101702619D01*
X131950357Y-101797857D01*
X131950357Y-101893095D01*
X131902738Y-101988333D01*
X131855119Y-102035952D01*
X131759880Y-102083571D01*
X131426547Y-102083571D01*
X132378928Y-102321666D02*
X132855119Y-102321666D01*
X132283690Y-102607380D02*
X132617023Y-101607380D01*
X132950357Y-102607380D01*
X133140833Y-101607380D02*
X133712261Y-101607380D01*
X133426547Y-102607380D02*
X133426547Y-101607380D01*
X132093214Y-99543571D02*
X132426547Y-99543571D01*
X132569404Y-100067380D02*
X132093214Y-100067380D01*
X132093214Y-99067380D01*
X132569404Y-99067380D01*
X132997976Y-100067380D02*
X132997976Y-99067380D01*
X133569404Y-100067380D01*
X133569404Y-99067380D01*
X130045595Y-96527380D02*
X130378928Y-97527380D01*
X130712261Y-96527380D01*
X131045595Y-96527380D02*
X131045595Y-97336904D01*
X131093214Y-97432142D01*
X131140833Y-97479761D01*
X131236071Y-97527380D01*
X131426547Y-97527380D01*
X131521785Y-97479761D01*
X131569404Y-97432142D01*
X131617023Y-97336904D01*
X131617023Y-96527380D01*
X132045595Y-97479761D02*
X132188452Y-97527380D01*
X132426547Y-97527380D01*
X132521785Y-97479761D01*
X132569404Y-97432142D01*
X132617023Y-97336904D01*
X132617023Y-97241666D01*
X132569404Y-97146428D01*
X132521785Y-97098809D01*
X132426547Y-97051190D01*
X132236071Y-97003571D01*
X132140833Y-96955952D01*
X132093214Y-96908333D01*
X132045595Y-96813095D01*
X132045595Y-96717857D01*
X132093214Y-96622619D01*
X132140833Y-96575000D01*
X132236071Y-96527380D01*
X132474166Y-96527380D01*
X132617023Y-96575000D01*
X133378928Y-97003571D02*
X133521785Y-97051190D01*
X133569404Y-97098809D01*
X133617023Y-97194047D01*
X133617023Y-97336904D01*
X133569404Y-97432142D01*
X133521785Y-97479761D01*
X133426547Y-97527380D01*
X133045595Y-97527380D01*
X133045595Y-96527380D01*
X133378928Y-96527380D01*
X133474166Y-96575000D01*
X133521785Y-96622619D01*
X133569404Y-96717857D01*
X133569404Y-96813095D01*
X133521785Y-96908333D01*
X133474166Y-96955952D01*
X133378928Y-97003571D01*
X133045595Y-97003571D01*
X131140833Y-94987380D02*
X131140833Y-93987380D01*
X131521785Y-93987380D01*
X131617023Y-94035000D01*
X131664642Y-94082619D01*
X131712261Y-94177857D01*
X131712261Y-94320714D01*
X131664642Y-94415952D01*
X131617023Y-94463571D01*
X131521785Y-94511190D01*
X131140833Y-94511190D01*
X132664642Y-94987380D02*
X132093214Y-94987380D01*
X132378928Y-94987380D02*
X132378928Y-93987380D01*
X132283690Y-94130238D01*
X132188452Y-94225476D01*
X132093214Y-94273095D01*
X132997976Y-93987380D02*
X133617023Y-93987380D01*
X133283690Y-94368333D01*
X133426547Y-94368333D01*
X133521785Y-94415952D01*
X133569404Y-94463571D01*
X133617023Y-94558809D01*
X133617023Y-94796904D01*
X133569404Y-94892142D01*
X133521785Y-94939761D01*
X133426547Y-94987380D01*
X133140833Y-94987380D01*
X133045595Y-94939761D01*
X132997976Y-94892142D01*
X131140833Y-92447380D02*
X131140833Y-91447380D01*
X131521785Y-91447380D01*
X131617023Y-91495000D01*
X131664642Y-91542619D01*
X131712261Y-91637857D01*
X131712261Y-91780714D01*
X131664642Y-91875952D01*
X131617023Y-91923571D01*
X131521785Y-91971190D01*
X131140833Y-91971190D01*
X132664642Y-92447380D02*
X132093214Y-92447380D01*
X132378928Y-92447380D02*
X132378928Y-91447380D01*
X132283690Y-91590238D01*
X132188452Y-91685476D01*
X132093214Y-91733095D01*
X133045595Y-91542619D02*
X133093214Y-91495000D01*
X133188452Y-91447380D01*
X133426547Y-91447380D01*
X133521785Y-91495000D01*
X133569404Y-91542619D01*
X133617023Y-91637857D01*
X133617023Y-91733095D01*
X133569404Y-91875952D01*
X132997976Y-92447380D01*
X133617023Y-92447380D01*
X131140833Y-89907380D02*
X131140833Y-88907380D01*
X131521785Y-88907380D01*
X131617023Y-88955000D01*
X131664642Y-89002619D01*
X131712261Y-89097857D01*
X131712261Y-89240714D01*
X131664642Y-89335952D01*
X131617023Y-89383571D01*
X131521785Y-89431190D01*
X131140833Y-89431190D01*
X132093214Y-89002619D02*
X132140833Y-88955000D01*
X132236071Y-88907380D01*
X132474166Y-88907380D01*
X132569404Y-88955000D01*
X132617023Y-89002619D01*
X132664642Y-89097857D01*
X132664642Y-89193095D01*
X132617023Y-89335952D01*
X132045595Y-89907380D01*
X132664642Y-89907380D01*
X132997976Y-88907380D02*
X133664642Y-88907380D01*
X133236071Y-89907380D01*
X131140833Y-87367380D02*
X131140833Y-86367380D01*
X131521785Y-86367380D01*
X131617023Y-86415000D01*
X131664642Y-86462619D01*
X131712261Y-86557857D01*
X131712261Y-86700714D01*
X131664642Y-86795952D01*
X131617023Y-86843571D01*
X131521785Y-86891190D01*
X131140833Y-86891190D01*
X132045595Y-86367380D02*
X132664642Y-86367380D01*
X132331309Y-86748333D01*
X132474166Y-86748333D01*
X132569404Y-86795952D01*
X132617023Y-86843571D01*
X132664642Y-86938809D01*
X132664642Y-87176904D01*
X132617023Y-87272142D01*
X132569404Y-87319761D01*
X132474166Y-87367380D01*
X132188452Y-87367380D01*
X132093214Y-87319761D01*
X132045595Y-87272142D01*
X132997976Y-86367380D02*
X133617023Y-86367380D01*
X133283690Y-86748333D01*
X133426547Y-86748333D01*
X133521785Y-86795952D01*
X133569404Y-86843571D01*
X133617023Y-86938809D01*
X133617023Y-87176904D01*
X133569404Y-87272142D01*
X133521785Y-87319761D01*
X133426547Y-87367380D01*
X133140833Y-87367380D01*
X133045595Y-87319761D01*
X132997976Y-87272142D01*
X131140833Y-84827380D02*
X131140833Y-83827380D01*
X131521785Y-83827380D01*
X131617023Y-83875000D01*
X131664642Y-83922619D01*
X131712261Y-84017857D01*
X131712261Y-84160714D01*
X131664642Y-84255952D01*
X131617023Y-84303571D01*
X131521785Y-84351190D01*
X131140833Y-84351190D01*
X132664642Y-84827380D02*
X132093214Y-84827380D01*
X132378928Y-84827380D02*
X132378928Y-83827380D01*
X132283690Y-83970238D01*
X132188452Y-84065476D01*
X132093214Y-84113095D01*
X133569404Y-83827380D02*
X133093214Y-83827380D01*
X133045595Y-84303571D01*
X133093214Y-84255952D01*
X133188452Y-84208333D01*
X133426547Y-84208333D01*
X133521785Y-84255952D01*
X133569404Y-84303571D01*
X133617023Y-84398809D01*
X133617023Y-84636904D01*
X133569404Y-84732142D01*
X133521785Y-84779761D01*
X133426547Y-84827380D01*
X133188452Y-84827380D01*
X133093214Y-84779761D01*
X133045595Y-84732142D01*
X131140833Y-82287380D02*
X131140833Y-81287380D01*
X131521785Y-81287380D01*
X131617023Y-81335000D01*
X131664642Y-81382619D01*
X131712261Y-81477857D01*
X131712261Y-81620714D01*
X131664642Y-81715952D01*
X131617023Y-81763571D01*
X131521785Y-81811190D01*
X131140833Y-81811190D01*
X132045595Y-81287380D02*
X132664642Y-81287380D01*
X132331309Y-81668333D01*
X132474166Y-81668333D01*
X132569404Y-81715952D01*
X132617023Y-81763571D01*
X132664642Y-81858809D01*
X132664642Y-82096904D01*
X132617023Y-82192142D01*
X132569404Y-82239761D01*
X132474166Y-82287380D01*
X132188452Y-82287380D01*
X132093214Y-82239761D01*
X132045595Y-82192142D01*
X133045595Y-81382619D02*
X133093214Y-81335000D01*
X133188452Y-81287380D01*
X133426547Y-81287380D01*
X133521785Y-81335000D01*
X133569404Y-81382619D01*
X133617023Y-81477857D01*
X133617023Y-81573095D01*
X133569404Y-81715952D01*
X132997976Y-82287380D01*
X133617023Y-82287380D01*
X131140833Y-79747380D02*
X131140833Y-78747380D01*
X131521785Y-78747380D01*
X131617023Y-78795000D01*
X131664642Y-78842619D01*
X131712261Y-78937857D01*
X131712261Y-79080714D01*
X131664642Y-79175952D01*
X131617023Y-79223571D01*
X131521785Y-79271190D01*
X131140833Y-79271190D01*
X132664642Y-79747380D02*
X132093214Y-79747380D01*
X132378928Y-79747380D02*
X132378928Y-78747380D01*
X132283690Y-78890238D01*
X132188452Y-78985476D01*
X132093214Y-79033095D01*
X133521785Y-79080714D02*
X133521785Y-79747380D01*
X133283690Y-78699761D02*
X133045595Y-79414047D01*
X133664642Y-79414047D01*
X127331309Y-77207380D02*
X127331309Y-76207380D01*
X127712261Y-76207380D01*
X127807500Y-76255000D01*
X127855119Y-76302619D01*
X127902738Y-76397857D01*
X127902738Y-76540714D01*
X127855119Y-76635952D01*
X127807500Y-76683571D01*
X127712261Y-76731190D01*
X127331309Y-76731190D01*
X128283690Y-76302619D02*
X128331309Y-76255000D01*
X128426547Y-76207380D01*
X128664642Y-76207380D01*
X128759880Y-76255000D01*
X128807500Y-76302619D01*
X128855119Y-76397857D01*
X128855119Y-76493095D01*
X128807500Y-76635952D01*
X128236071Y-77207380D01*
X128855119Y-77207380D01*
X129236071Y-76302619D02*
X129283690Y-76255000D01*
X129378928Y-76207380D01*
X129617023Y-76207380D01*
X129712261Y-76255000D01*
X129759880Y-76302619D01*
X129807500Y-76397857D01*
X129807500Y-76493095D01*
X129759880Y-76635952D01*
X129188452Y-77207380D01*
X129807500Y-77207380D01*
X130950357Y-76159761D02*
X130093214Y-77445476D01*
X131236071Y-77159761D02*
X131378928Y-77207380D01*
X131617023Y-77207380D01*
X131712261Y-77159761D01*
X131759880Y-77112142D01*
X131807500Y-77016904D01*
X131807500Y-76921666D01*
X131759880Y-76826428D01*
X131712261Y-76778809D01*
X131617023Y-76731190D01*
X131426547Y-76683571D01*
X131331309Y-76635952D01*
X131283690Y-76588333D01*
X131236071Y-76493095D01*
X131236071Y-76397857D01*
X131283690Y-76302619D01*
X131331309Y-76255000D01*
X131426547Y-76207380D01*
X131664642Y-76207380D01*
X131807500Y-76255000D01*
X132807500Y-77112142D02*
X132759880Y-77159761D01*
X132617023Y-77207380D01*
X132521785Y-77207380D01*
X132378928Y-77159761D01*
X132283690Y-77064523D01*
X132236071Y-76969285D01*
X132188452Y-76778809D01*
X132188452Y-76635952D01*
X132236071Y-76445476D01*
X132283690Y-76350238D01*
X132378928Y-76255000D01*
X132521785Y-76207380D01*
X132617023Y-76207380D01*
X132759880Y-76255000D01*
X132807500Y-76302619D01*
X133712261Y-77207380D02*
X133236071Y-77207380D01*
X133236071Y-76207380D01*
X127283690Y-74667380D02*
X127283690Y-73667380D01*
X127664642Y-73667380D01*
X127759880Y-73715000D01*
X127807500Y-73762619D01*
X127855119Y-73857857D01*
X127855119Y-74000714D01*
X127807500Y-74095952D01*
X127759880Y-74143571D01*
X127664642Y-74191190D01*
X127283690Y-74191190D01*
X128236071Y-73762619D02*
X128283690Y-73715000D01*
X128378928Y-73667380D01*
X128617023Y-73667380D01*
X128712261Y-73715000D01*
X128759880Y-73762619D01*
X128807500Y-73857857D01*
X128807500Y-73953095D01*
X128759880Y-74095952D01*
X128188452Y-74667380D01*
X128807500Y-74667380D01*
X129140833Y-73667380D02*
X129759880Y-73667380D01*
X129426547Y-74048333D01*
X129569404Y-74048333D01*
X129664642Y-74095952D01*
X129712261Y-74143571D01*
X129759880Y-74238809D01*
X129759880Y-74476904D01*
X129712261Y-74572142D01*
X129664642Y-74619761D01*
X129569404Y-74667380D01*
X129283690Y-74667380D01*
X129188452Y-74619761D01*
X129140833Y-74572142D01*
X130902738Y-73619761D02*
X130045595Y-74905476D01*
X131188452Y-74619761D02*
X131331309Y-74667380D01*
X131569404Y-74667380D01*
X131664642Y-74619761D01*
X131712261Y-74572142D01*
X131759880Y-74476904D01*
X131759880Y-74381666D01*
X131712261Y-74286428D01*
X131664642Y-74238809D01*
X131569404Y-74191190D01*
X131378928Y-74143571D01*
X131283690Y-74095952D01*
X131236071Y-74048333D01*
X131188452Y-73953095D01*
X131188452Y-73857857D01*
X131236071Y-73762619D01*
X131283690Y-73715000D01*
X131378928Y-73667380D01*
X131617023Y-73667380D01*
X131759880Y-73715000D01*
X132188452Y-74667380D02*
X132188452Y-73667380D01*
X132426547Y-73667380D01*
X132569404Y-73715000D01*
X132664642Y-73810238D01*
X132712261Y-73905476D01*
X132759880Y-74095952D01*
X132759880Y-74238809D01*
X132712261Y-74429285D01*
X132664642Y-74524523D01*
X132569404Y-74619761D01*
X132426547Y-74667380D01*
X132188452Y-74667380D01*
X133140833Y-74381666D02*
X133617023Y-74381666D01*
X133045595Y-74667380D02*
X133378928Y-73667380D01*
X133712261Y-74667380D01*
X153645952Y-70897380D02*
X154217380Y-70897380D01*
X153931666Y-71897380D02*
X153931666Y-70897380D01*
X154693571Y-71897380D02*
X154598333Y-71849761D01*
X154550714Y-71802142D01*
X154503095Y-71706904D01*
X154503095Y-71421190D01*
X154550714Y-71325952D01*
X154598333Y-71278333D01*
X154693571Y-71230714D01*
X154836428Y-71230714D01*
X154931666Y-71278333D01*
X154979285Y-71325952D01*
X155026904Y-71421190D01*
X155026904Y-71706904D01*
X154979285Y-71802142D01*
X154931666Y-71849761D01*
X154836428Y-71897380D01*
X154693571Y-71897380D01*
X155455476Y-71230714D02*
X155455476Y-72230714D01*
X155455476Y-71278333D02*
X155550714Y-71230714D01*
X155741190Y-71230714D01*
X155836428Y-71278333D01*
X155884047Y-71325952D01*
X155931666Y-71421190D01*
X155931666Y-71706904D01*
X155884047Y-71802142D01*
X155836428Y-71849761D01*
X155741190Y-71897380D01*
X155550714Y-71897380D01*
X155455476Y-71849761D01*
X156931666Y-71897380D02*
X156598333Y-71421190D01*
X156360238Y-71897380D02*
X156360238Y-70897380D01*
X156741190Y-70897380D01*
X156836428Y-70945000D01*
X156884047Y-70992619D01*
X156931666Y-71087857D01*
X156931666Y-71230714D01*
X156884047Y-71325952D01*
X156836428Y-71373571D01*
X156741190Y-71421190D01*
X156360238Y-71421190D01*
X157360238Y-71897380D02*
X157360238Y-71230714D01*
X157360238Y-70897380D02*
X157312619Y-70945000D01*
X157360238Y-70992619D01*
X157407857Y-70945000D01*
X157360238Y-70897380D01*
X157360238Y-70992619D01*
X158265000Y-71230714D02*
X158265000Y-72040238D01*
X158217380Y-72135476D01*
X158169761Y-72183095D01*
X158074523Y-72230714D01*
X157931666Y-72230714D01*
X157836428Y-72183095D01*
X158265000Y-71849761D02*
X158169761Y-71897380D01*
X157979285Y-71897380D01*
X157884047Y-71849761D01*
X157836428Y-71802142D01*
X157788809Y-71706904D01*
X157788809Y-71421190D01*
X157836428Y-71325952D01*
X157884047Y-71278333D01*
X157979285Y-71230714D01*
X158169761Y-71230714D01*
X158265000Y-71278333D01*
X158741190Y-71897380D02*
X158741190Y-70897380D01*
X159169761Y-71897380D02*
X159169761Y-71373571D01*
X159122142Y-71278333D01*
X159026904Y-71230714D01*
X158884047Y-71230714D01*
X158788809Y-71278333D01*
X158741190Y-71325952D01*
X159503095Y-71230714D02*
X159884047Y-71230714D01*
X159645952Y-70897380D02*
X159645952Y-71754523D01*
X159693571Y-71849761D01*
X159788809Y-71897380D01*
X159884047Y-71897380D01*
X133849761Y-70897380D02*
X134421190Y-70897380D01*
X134135476Y-71897380D02*
X134135476Y-70897380D01*
X134897380Y-71897380D02*
X134802142Y-71849761D01*
X134754523Y-71802142D01*
X134706904Y-71706904D01*
X134706904Y-71421190D01*
X134754523Y-71325952D01*
X134802142Y-71278333D01*
X134897380Y-71230714D01*
X135040238Y-71230714D01*
X135135476Y-71278333D01*
X135183095Y-71325952D01*
X135230714Y-71421190D01*
X135230714Y-71706904D01*
X135183095Y-71802142D01*
X135135476Y-71849761D01*
X135040238Y-71897380D01*
X134897380Y-71897380D01*
X135659285Y-71230714D02*
X135659285Y-72230714D01*
X135659285Y-71278333D02*
X135754523Y-71230714D01*
X135945000Y-71230714D01*
X136040238Y-71278333D01*
X136087857Y-71325952D01*
X136135476Y-71421190D01*
X136135476Y-71706904D01*
X136087857Y-71802142D01*
X136040238Y-71849761D01*
X135945000Y-71897380D01*
X135754523Y-71897380D01*
X135659285Y-71849761D01*
X137040238Y-71897380D02*
X136564047Y-71897380D01*
X136564047Y-70897380D01*
X137754523Y-71849761D02*
X137659285Y-71897380D01*
X137468809Y-71897380D01*
X137373571Y-71849761D01*
X137325952Y-71754523D01*
X137325952Y-71373571D01*
X137373571Y-71278333D01*
X137468809Y-71230714D01*
X137659285Y-71230714D01*
X137754523Y-71278333D01*
X137802142Y-71373571D01*
X137802142Y-71468809D01*
X137325952Y-71564047D01*
X138087857Y-71230714D02*
X138468809Y-71230714D01*
X138230714Y-71897380D02*
X138230714Y-71040238D01*
X138278333Y-70945000D01*
X138373571Y-70897380D01*
X138468809Y-70897380D01*
X138659285Y-71230714D02*
X139040238Y-71230714D01*
X138802142Y-70897380D02*
X138802142Y-71754523D01*
X138849761Y-71849761D01*
X138945000Y-71897380D01*
X139040238Y-71897380D01*
G04 #@! TO.C,0x48*
X105275238Y-56602380D02*
X105370476Y-56602380D01*
X105465714Y-56650000D01*
X105513333Y-56697619D01*
X105560952Y-56792857D01*
X105608571Y-56983333D01*
X105608571Y-57221428D01*
X105560952Y-57411904D01*
X105513333Y-57507142D01*
X105465714Y-57554761D01*
X105370476Y-57602380D01*
X105275238Y-57602380D01*
X105180000Y-57554761D01*
X105132380Y-57507142D01*
X105084761Y-57411904D01*
X105037142Y-57221428D01*
X105037142Y-56983333D01*
X105084761Y-56792857D01*
X105132380Y-56697619D01*
X105180000Y-56650000D01*
X105275238Y-56602380D01*
X105941904Y-57602380D02*
X106465714Y-56935714D01*
X105941904Y-56935714D02*
X106465714Y-57602380D01*
X107275238Y-56935714D02*
X107275238Y-57602380D01*
X107037142Y-56554761D02*
X106799047Y-57269047D01*
X107418095Y-57269047D01*
X107941904Y-57030952D02*
X107846666Y-56983333D01*
X107799047Y-56935714D01*
X107751428Y-56840476D01*
X107751428Y-56792857D01*
X107799047Y-56697619D01*
X107846666Y-56650000D01*
X107941904Y-56602380D01*
X108132380Y-56602380D01*
X108227619Y-56650000D01*
X108275238Y-56697619D01*
X108322857Y-56792857D01*
X108322857Y-56840476D01*
X108275238Y-56935714D01*
X108227619Y-56983333D01*
X108132380Y-57030952D01*
X107941904Y-57030952D01*
X107846666Y-57078571D01*
X107799047Y-57126190D01*
X107751428Y-57221428D01*
X107751428Y-57411904D01*
X107799047Y-57507142D01*
X107846666Y-57554761D01*
X107941904Y-57602380D01*
X108132380Y-57602380D01*
X108227619Y-57554761D01*
X108275238Y-57507142D01*
X108322857Y-57411904D01*
X108322857Y-57221428D01*
X108275238Y-57126190D01*
X108227619Y-57078571D01*
X108132380Y-57030952D01*
X102423452Y-82716666D02*
X102899642Y-82716666D01*
X102328214Y-83002380D02*
X102661547Y-82002380D01*
X102994880Y-83002380D01*
X103232976Y-82002380D02*
X103852023Y-82002380D01*
X103518690Y-82383333D01*
X103661547Y-82383333D01*
X103756785Y-82430952D01*
X103804404Y-82478571D01*
X103852023Y-82573809D01*
X103852023Y-82811904D01*
X103804404Y-82907142D01*
X103756785Y-82954761D01*
X103661547Y-83002380D01*
X103375833Y-83002380D01*
X103280595Y-82954761D01*
X103232976Y-82907142D01*
X102423452Y-80176666D02*
X102899642Y-80176666D01*
X102328214Y-80462380D02*
X102661547Y-79462380D01*
X102994880Y-80462380D01*
X103280595Y-79557619D02*
X103328214Y-79510000D01*
X103423452Y-79462380D01*
X103661547Y-79462380D01*
X103756785Y-79510000D01*
X103804404Y-79557619D01*
X103852023Y-79652857D01*
X103852023Y-79748095D01*
X103804404Y-79890952D01*
X103232976Y-80462380D01*
X103852023Y-80462380D01*
X102423452Y-77636666D02*
X102899642Y-77636666D01*
X102328214Y-77922380D02*
X102661547Y-76922380D01*
X102994880Y-77922380D01*
X103852023Y-77922380D02*
X103280595Y-77922380D01*
X103566309Y-77922380D02*
X103566309Y-76922380D01*
X103471071Y-77065238D01*
X103375833Y-77160476D01*
X103280595Y-77208095D01*
X102423452Y-75096666D02*
X102899642Y-75096666D01*
X102328214Y-75382380D02*
X102661547Y-74382380D01*
X102994880Y-75382380D01*
X103518690Y-74382380D02*
X103613928Y-74382380D01*
X103709166Y-74430000D01*
X103756785Y-74477619D01*
X103804404Y-74572857D01*
X103852023Y-74763333D01*
X103852023Y-75001428D01*
X103804404Y-75191904D01*
X103756785Y-75287142D01*
X103709166Y-75334761D01*
X103613928Y-75382380D01*
X103518690Y-75382380D01*
X103423452Y-75334761D01*
X103375833Y-75287142D01*
X103328214Y-75191904D01*
X103280595Y-75001428D01*
X103280595Y-74763333D01*
X103328214Y-74572857D01*
X103375833Y-74477619D01*
X103423452Y-74430000D01*
X103518690Y-74382380D01*
X100804404Y-72556666D02*
X101280595Y-72556666D01*
X100709166Y-72842380D02*
X101042500Y-71842380D01*
X101375833Y-72842380D01*
X102185357Y-72842380D02*
X101709166Y-72842380D01*
X101709166Y-71842380D01*
X103090119Y-72842380D02*
X102756785Y-72366190D01*
X102518690Y-72842380D02*
X102518690Y-71842380D01*
X102899642Y-71842380D01*
X102994880Y-71890000D01*
X103042500Y-71937619D01*
X103090119Y-72032857D01*
X103090119Y-72175714D01*
X103042500Y-72270952D01*
X102994880Y-72318571D01*
X102899642Y-72366190D01*
X102518690Y-72366190D01*
X103375833Y-71842380D02*
X103947261Y-71842380D01*
X103661547Y-72842380D02*
X103661547Y-71842380D01*
X100375833Y-70016666D02*
X100852023Y-70016666D01*
X100280595Y-70302380D02*
X100613928Y-69302380D01*
X100947261Y-70302380D01*
X101280595Y-70302380D02*
X101280595Y-69302380D01*
X101518690Y-69302380D01*
X101661547Y-69350000D01*
X101756785Y-69445238D01*
X101804404Y-69540476D01*
X101852023Y-69730952D01*
X101852023Y-69873809D01*
X101804404Y-70064285D01*
X101756785Y-70159523D01*
X101661547Y-70254761D01*
X101518690Y-70302380D01*
X101280595Y-70302380D01*
X102280595Y-70302380D02*
X102280595Y-69302380D01*
X102518690Y-69302380D01*
X102661547Y-69350000D01*
X102756785Y-69445238D01*
X102804404Y-69540476D01*
X102852023Y-69730952D01*
X102852023Y-69873809D01*
X102804404Y-70064285D01*
X102756785Y-70159523D01*
X102661547Y-70254761D01*
X102518690Y-70302380D01*
X102280595Y-70302380D01*
X103852023Y-70302380D02*
X103518690Y-69826190D01*
X103280595Y-70302380D02*
X103280595Y-69302380D01*
X103661547Y-69302380D01*
X103756785Y-69350000D01*
X103804404Y-69397619D01*
X103852023Y-69492857D01*
X103852023Y-69635714D01*
X103804404Y-69730952D01*
X103756785Y-69778571D01*
X103661547Y-69826190D01*
X103280595Y-69826190D01*
X101423452Y-67714761D02*
X101566309Y-67762380D01*
X101804404Y-67762380D01*
X101899642Y-67714761D01*
X101947261Y-67667142D01*
X101994880Y-67571904D01*
X101994880Y-67476666D01*
X101947261Y-67381428D01*
X101899642Y-67333809D01*
X101804404Y-67286190D01*
X101613928Y-67238571D01*
X101518690Y-67190952D01*
X101471071Y-67143333D01*
X101423452Y-67048095D01*
X101423452Y-66952857D01*
X101471071Y-66857619D01*
X101518690Y-66810000D01*
X101613928Y-66762380D01*
X101852023Y-66762380D01*
X101994880Y-66810000D01*
X102423452Y-67762380D02*
X102423452Y-66762380D01*
X102661547Y-66762380D01*
X102804404Y-66810000D01*
X102899642Y-66905238D01*
X102947261Y-67000476D01*
X102994880Y-67190952D01*
X102994880Y-67333809D01*
X102947261Y-67524285D01*
X102899642Y-67619523D01*
X102804404Y-67714761D01*
X102661547Y-67762380D01*
X102423452Y-67762380D01*
X103375833Y-67476666D02*
X103852023Y-67476666D01*
X103280595Y-67762380D02*
X103613928Y-66762380D01*
X103947261Y-67762380D01*
X101471071Y-65174761D02*
X101613928Y-65222380D01*
X101852023Y-65222380D01*
X101947261Y-65174761D01*
X101994880Y-65127142D01*
X102042500Y-65031904D01*
X102042500Y-64936666D01*
X101994880Y-64841428D01*
X101947261Y-64793809D01*
X101852023Y-64746190D01*
X101661547Y-64698571D01*
X101566309Y-64650952D01*
X101518690Y-64603333D01*
X101471071Y-64508095D01*
X101471071Y-64412857D01*
X101518690Y-64317619D01*
X101566309Y-64270000D01*
X101661547Y-64222380D01*
X101899642Y-64222380D01*
X102042500Y-64270000D01*
X103042500Y-65127142D02*
X102994880Y-65174761D01*
X102852023Y-65222380D01*
X102756785Y-65222380D01*
X102613928Y-65174761D01*
X102518690Y-65079523D01*
X102471071Y-64984285D01*
X102423452Y-64793809D01*
X102423452Y-64650952D01*
X102471071Y-64460476D01*
X102518690Y-64365238D01*
X102613928Y-64270000D01*
X102756785Y-64222380D01*
X102852023Y-64222380D01*
X102994880Y-64270000D01*
X103042500Y-64317619D01*
X103947261Y-65222380D02*
X103471071Y-65222380D01*
X103471071Y-64222380D01*
X101756785Y-61730000D02*
X101661547Y-61682380D01*
X101518690Y-61682380D01*
X101375833Y-61730000D01*
X101280595Y-61825238D01*
X101232976Y-61920476D01*
X101185357Y-62110952D01*
X101185357Y-62253809D01*
X101232976Y-62444285D01*
X101280595Y-62539523D01*
X101375833Y-62634761D01*
X101518690Y-62682380D01*
X101613928Y-62682380D01*
X101756785Y-62634761D01*
X101804404Y-62587142D01*
X101804404Y-62253809D01*
X101613928Y-62253809D01*
X102232976Y-62682380D02*
X102232976Y-61682380D01*
X102804404Y-62682380D01*
X102804404Y-61682380D01*
X103280595Y-62682380D02*
X103280595Y-61682380D01*
X103518690Y-61682380D01*
X103661547Y-61730000D01*
X103756785Y-61825238D01*
X103804404Y-61920476D01*
X103852023Y-62110952D01*
X103852023Y-62253809D01*
X103804404Y-62444285D01*
X103756785Y-62539523D01*
X103661547Y-62634761D01*
X103518690Y-62682380D01*
X103280595Y-62682380D01*
X101280595Y-59142380D02*
X101613928Y-60142380D01*
X101947261Y-59142380D01*
X102280595Y-60142380D02*
X102280595Y-59142380D01*
X102518690Y-59142380D01*
X102661547Y-59190000D01*
X102756785Y-59285238D01*
X102804404Y-59380476D01*
X102852023Y-59570952D01*
X102852023Y-59713809D01*
X102804404Y-59904285D01*
X102756785Y-59999523D01*
X102661547Y-60094761D01*
X102518690Y-60142380D01*
X102280595Y-60142380D01*
X103280595Y-60142380D02*
X103280595Y-59142380D01*
X103518690Y-59142380D01*
X103661547Y-59190000D01*
X103756785Y-59285238D01*
X103804404Y-59380476D01*
X103852023Y-59570952D01*
X103852023Y-59713809D01*
X103804404Y-59904285D01*
X103756785Y-59999523D01*
X103661547Y-60094761D01*
X103518690Y-60142380D01*
X103280595Y-60142380D01*
G04 #@! TO.C,0x49*
X105275238Y-88352380D02*
X105370476Y-88352380D01*
X105465714Y-88400000D01*
X105513333Y-88447619D01*
X105560952Y-88542857D01*
X105608571Y-88733333D01*
X105608571Y-88971428D01*
X105560952Y-89161904D01*
X105513333Y-89257142D01*
X105465714Y-89304761D01*
X105370476Y-89352380D01*
X105275238Y-89352380D01*
X105180000Y-89304761D01*
X105132380Y-89257142D01*
X105084761Y-89161904D01*
X105037142Y-88971428D01*
X105037142Y-88733333D01*
X105084761Y-88542857D01*
X105132380Y-88447619D01*
X105180000Y-88400000D01*
X105275238Y-88352380D01*
X105941904Y-89352380D02*
X106465714Y-88685714D01*
X105941904Y-88685714D02*
X106465714Y-89352380D01*
X107275238Y-88685714D02*
X107275238Y-89352380D01*
X107037142Y-88304761D02*
X106799047Y-89019047D01*
X107418095Y-89019047D01*
X107846666Y-89352380D02*
X108037142Y-89352380D01*
X108132380Y-89304761D01*
X108180000Y-89257142D01*
X108275238Y-89114285D01*
X108322857Y-88923809D01*
X108322857Y-88542857D01*
X108275238Y-88447619D01*
X108227619Y-88400000D01*
X108132380Y-88352380D01*
X107941904Y-88352380D01*
X107846666Y-88400000D01*
X107799047Y-88447619D01*
X107751428Y-88542857D01*
X107751428Y-88780952D01*
X107799047Y-88876190D01*
X107846666Y-88923809D01*
X107941904Y-88971428D01*
X108132380Y-88971428D01*
X108227619Y-88923809D01*
X108275238Y-88876190D01*
X108322857Y-88780952D01*
X102423452Y-114466666D02*
X102899642Y-114466666D01*
X102328214Y-114752380D02*
X102661547Y-113752380D01*
X102994880Y-114752380D01*
X103232976Y-113752380D02*
X103852023Y-113752380D01*
X103518690Y-114133333D01*
X103661547Y-114133333D01*
X103756785Y-114180952D01*
X103804404Y-114228571D01*
X103852023Y-114323809D01*
X103852023Y-114561904D01*
X103804404Y-114657142D01*
X103756785Y-114704761D01*
X103661547Y-114752380D01*
X103375833Y-114752380D01*
X103280595Y-114704761D01*
X103232976Y-114657142D01*
X102423452Y-111926666D02*
X102899642Y-111926666D01*
X102328214Y-112212380D02*
X102661547Y-111212380D01*
X102994880Y-112212380D01*
X103280595Y-111307619D02*
X103328214Y-111260000D01*
X103423452Y-111212380D01*
X103661547Y-111212380D01*
X103756785Y-111260000D01*
X103804404Y-111307619D01*
X103852023Y-111402857D01*
X103852023Y-111498095D01*
X103804404Y-111640952D01*
X103232976Y-112212380D01*
X103852023Y-112212380D01*
X102423452Y-109386666D02*
X102899642Y-109386666D01*
X102328214Y-109672380D02*
X102661547Y-108672380D01*
X102994880Y-109672380D01*
X103852023Y-109672380D02*
X103280595Y-109672380D01*
X103566309Y-109672380D02*
X103566309Y-108672380D01*
X103471071Y-108815238D01*
X103375833Y-108910476D01*
X103280595Y-108958095D01*
X102423452Y-106846666D02*
X102899642Y-106846666D01*
X102328214Y-107132380D02*
X102661547Y-106132380D01*
X102994880Y-107132380D01*
X103518690Y-106132380D02*
X103613928Y-106132380D01*
X103709166Y-106180000D01*
X103756785Y-106227619D01*
X103804404Y-106322857D01*
X103852023Y-106513333D01*
X103852023Y-106751428D01*
X103804404Y-106941904D01*
X103756785Y-107037142D01*
X103709166Y-107084761D01*
X103613928Y-107132380D01*
X103518690Y-107132380D01*
X103423452Y-107084761D01*
X103375833Y-107037142D01*
X103328214Y-106941904D01*
X103280595Y-106751428D01*
X103280595Y-106513333D01*
X103328214Y-106322857D01*
X103375833Y-106227619D01*
X103423452Y-106180000D01*
X103518690Y-106132380D01*
X100804404Y-104306666D02*
X101280595Y-104306666D01*
X100709166Y-104592380D02*
X101042500Y-103592380D01*
X101375833Y-104592380D01*
X102185357Y-104592380D02*
X101709166Y-104592380D01*
X101709166Y-103592380D01*
X103090119Y-104592380D02*
X102756785Y-104116190D01*
X102518690Y-104592380D02*
X102518690Y-103592380D01*
X102899642Y-103592380D01*
X102994880Y-103640000D01*
X103042500Y-103687619D01*
X103090119Y-103782857D01*
X103090119Y-103925714D01*
X103042500Y-104020952D01*
X102994880Y-104068571D01*
X102899642Y-104116190D01*
X102518690Y-104116190D01*
X103375833Y-103592380D02*
X103947261Y-103592380D01*
X103661547Y-104592380D02*
X103661547Y-103592380D01*
X100375833Y-101766666D02*
X100852023Y-101766666D01*
X100280595Y-102052380D02*
X100613928Y-101052380D01*
X100947261Y-102052380D01*
X101280595Y-102052380D02*
X101280595Y-101052380D01*
X101518690Y-101052380D01*
X101661547Y-101100000D01*
X101756785Y-101195238D01*
X101804404Y-101290476D01*
X101852023Y-101480952D01*
X101852023Y-101623809D01*
X101804404Y-101814285D01*
X101756785Y-101909523D01*
X101661547Y-102004761D01*
X101518690Y-102052380D01*
X101280595Y-102052380D01*
X102280595Y-102052380D02*
X102280595Y-101052380D01*
X102518690Y-101052380D01*
X102661547Y-101100000D01*
X102756785Y-101195238D01*
X102804404Y-101290476D01*
X102852023Y-101480952D01*
X102852023Y-101623809D01*
X102804404Y-101814285D01*
X102756785Y-101909523D01*
X102661547Y-102004761D01*
X102518690Y-102052380D01*
X102280595Y-102052380D01*
X103852023Y-102052380D02*
X103518690Y-101576190D01*
X103280595Y-102052380D02*
X103280595Y-101052380D01*
X103661547Y-101052380D01*
X103756785Y-101100000D01*
X103804404Y-101147619D01*
X103852023Y-101242857D01*
X103852023Y-101385714D01*
X103804404Y-101480952D01*
X103756785Y-101528571D01*
X103661547Y-101576190D01*
X103280595Y-101576190D01*
X101423452Y-99464761D02*
X101566309Y-99512380D01*
X101804404Y-99512380D01*
X101899642Y-99464761D01*
X101947261Y-99417142D01*
X101994880Y-99321904D01*
X101994880Y-99226666D01*
X101947261Y-99131428D01*
X101899642Y-99083809D01*
X101804404Y-99036190D01*
X101613928Y-98988571D01*
X101518690Y-98940952D01*
X101471071Y-98893333D01*
X101423452Y-98798095D01*
X101423452Y-98702857D01*
X101471071Y-98607619D01*
X101518690Y-98560000D01*
X101613928Y-98512380D01*
X101852023Y-98512380D01*
X101994880Y-98560000D01*
X102423452Y-99512380D02*
X102423452Y-98512380D01*
X102661547Y-98512380D01*
X102804404Y-98560000D01*
X102899642Y-98655238D01*
X102947261Y-98750476D01*
X102994880Y-98940952D01*
X102994880Y-99083809D01*
X102947261Y-99274285D01*
X102899642Y-99369523D01*
X102804404Y-99464761D01*
X102661547Y-99512380D01*
X102423452Y-99512380D01*
X103375833Y-99226666D02*
X103852023Y-99226666D01*
X103280595Y-99512380D02*
X103613928Y-98512380D01*
X103947261Y-99512380D01*
X101471071Y-96924761D02*
X101613928Y-96972380D01*
X101852023Y-96972380D01*
X101947261Y-96924761D01*
X101994880Y-96877142D01*
X102042500Y-96781904D01*
X102042500Y-96686666D01*
X101994880Y-96591428D01*
X101947261Y-96543809D01*
X101852023Y-96496190D01*
X101661547Y-96448571D01*
X101566309Y-96400952D01*
X101518690Y-96353333D01*
X101471071Y-96258095D01*
X101471071Y-96162857D01*
X101518690Y-96067619D01*
X101566309Y-96020000D01*
X101661547Y-95972380D01*
X101899642Y-95972380D01*
X102042500Y-96020000D01*
X103042500Y-96877142D02*
X102994880Y-96924761D01*
X102852023Y-96972380D01*
X102756785Y-96972380D01*
X102613928Y-96924761D01*
X102518690Y-96829523D01*
X102471071Y-96734285D01*
X102423452Y-96543809D01*
X102423452Y-96400952D01*
X102471071Y-96210476D01*
X102518690Y-96115238D01*
X102613928Y-96020000D01*
X102756785Y-95972380D01*
X102852023Y-95972380D01*
X102994880Y-96020000D01*
X103042500Y-96067619D01*
X103947261Y-96972380D02*
X103471071Y-96972380D01*
X103471071Y-95972380D01*
X101756785Y-93480000D02*
X101661547Y-93432380D01*
X101518690Y-93432380D01*
X101375833Y-93480000D01*
X101280595Y-93575238D01*
X101232976Y-93670476D01*
X101185357Y-93860952D01*
X101185357Y-94003809D01*
X101232976Y-94194285D01*
X101280595Y-94289523D01*
X101375833Y-94384761D01*
X101518690Y-94432380D01*
X101613928Y-94432380D01*
X101756785Y-94384761D01*
X101804404Y-94337142D01*
X101804404Y-94003809D01*
X101613928Y-94003809D01*
X102232976Y-94432380D02*
X102232976Y-93432380D01*
X102804404Y-94432380D01*
X102804404Y-93432380D01*
X103280595Y-94432380D02*
X103280595Y-93432380D01*
X103518690Y-93432380D01*
X103661547Y-93480000D01*
X103756785Y-93575238D01*
X103804404Y-93670476D01*
X103852023Y-93860952D01*
X103852023Y-94003809D01*
X103804404Y-94194285D01*
X103756785Y-94289523D01*
X103661547Y-94384761D01*
X103518690Y-94432380D01*
X103280595Y-94432380D01*
X101280595Y-90892380D02*
X101613928Y-91892380D01*
X101947261Y-90892380D01*
X102280595Y-91892380D02*
X102280595Y-90892380D01*
X102518690Y-90892380D01*
X102661547Y-90940000D01*
X102756785Y-91035238D01*
X102804404Y-91130476D01*
X102852023Y-91320952D01*
X102852023Y-91463809D01*
X102804404Y-91654285D01*
X102756785Y-91749523D01*
X102661547Y-91844761D01*
X102518690Y-91892380D01*
X102280595Y-91892380D01*
X103280595Y-91892380D02*
X103280595Y-90892380D01*
X103518690Y-90892380D01*
X103661547Y-90940000D01*
X103756785Y-91035238D01*
X103804404Y-91130476D01*
X103852023Y-91320952D01*
X103852023Y-91463809D01*
X103804404Y-91654285D01*
X103756785Y-91749523D01*
X103661547Y-91844761D01*
X103518690Y-91892380D01*
X103280595Y-91892380D01*
G04 #@! TO.C,R3*
X147942380Y-95416666D02*
X147466190Y-95750000D01*
X147942380Y-95988095D02*
X146942380Y-95988095D01*
X146942380Y-95607142D01*
X146990000Y-95511904D01*
X147037619Y-95464285D01*
X147132857Y-95416666D01*
X147275714Y-95416666D01*
X147370952Y-95464285D01*
X147418571Y-95511904D01*
X147466190Y-95607142D01*
X147466190Y-95988095D01*
X146942380Y-95083333D02*
X146942380Y-94464285D01*
X147323333Y-94797619D01*
X147323333Y-94654761D01*
X147370952Y-94559523D01*
X147418571Y-94511904D01*
X147513809Y-94464285D01*
X147751904Y-94464285D01*
X147847142Y-94511904D01*
X147894761Y-94559523D01*
X147942380Y-94654761D01*
X147942380Y-94940476D01*
X147894761Y-95035714D01*
X147847142Y-95083333D01*
G04 #@! TO.C,R7*
X141592380Y-80176666D02*
X141116190Y-80510000D01*
X141592380Y-80748095D02*
X140592380Y-80748095D01*
X140592380Y-80367142D01*
X140640000Y-80271904D01*
X140687619Y-80224285D01*
X140782857Y-80176666D01*
X140925714Y-80176666D01*
X141020952Y-80224285D01*
X141068571Y-80271904D01*
X141116190Y-80367142D01*
X141116190Y-80748095D01*
X140592380Y-79843333D02*
X140592380Y-79176666D01*
X141592380Y-79605238D01*
G04 #@! TO.C,R5*
X147942380Y-80176666D02*
X147466190Y-80510000D01*
X147942380Y-80748095D02*
X146942380Y-80748095D01*
X146942380Y-80367142D01*
X146990000Y-80271904D01*
X147037619Y-80224285D01*
X147132857Y-80176666D01*
X147275714Y-80176666D01*
X147370952Y-80224285D01*
X147418571Y-80271904D01*
X147466190Y-80367142D01*
X147466190Y-80748095D01*
X146942380Y-79271904D02*
X146942380Y-79748095D01*
X147418571Y-79795714D01*
X147370952Y-79748095D01*
X147323333Y-79652857D01*
X147323333Y-79414761D01*
X147370952Y-79319523D01*
X147418571Y-79271904D01*
X147513809Y-79224285D01*
X147751904Y-79224285D01*
X147847142Y-79271904D01*
X147894761Y-79319523D01*
X147942380Y-79414761D01*
X147942380Y-79652857D01*
X147894761Y-79748095D01*
X147847142Y-79795714D01*
G04 #@! TO.C,R6*
X141592380Y-95416666D02*
X141116190Y-95750000D01*
X141592380Y-95988095D02*
X140592380Y-95988095D01*
X140592380Y-95607142D01*
X140640000Y-95511904D01*
X140687619Y-95464285D01*
X140782857Y-95416666D01*
X140925714Y-95416666D01*
X141020952Y-95464285D01*
X141068571Y-95511904D01*
X141116190Y-95607142D01*
X141116190Y-95988095D01*
X140592380Y-94559523D02*
X140592380Y-94750000D01*
X140640000Y-94845238D01*
X140687619Y-94892857D01*
X140830476Y-94988095D01*
X141020952Y-95035714D01*
X141401904Y-95035714D01*
X141497142Y-94988095D01*
X141544761Y-94940476D01*
X141592380Y-94845238D01*
X141592380Y-94654761D01*
X141544761Y-94559523D01*
X141497142Y-94511904D01*
X141401904Y-94464285D01*
X141163809Y-94464285D01*
X141068571Y-94511904D01*
X141020952Y-94559523D01*
X140973333Y-94654761D01*
X140973333Y-94845238D01*
X141020952Y-94940476D01*
X141068571Y-94988095D01*
X141163809Y-95035714D01*
G04 #@! TO.C,C1*
X147073333Y-115867142D02*
X147025714Y-115914761D01*
X146882857Y-115962380D01*
X146787619Y-115962380D01*
X146644761Y-115914761D01*
X146549523Y-115819523D01*
X146501904Y-115724285D01*
X146454285Y-115533809D01*
X146454285Y-115390952D01*
X146501904Y-115200476D01*
X146549523Y-115105238D01*
X146644761Y-115010000D01*
X146787619Y-114962380D01*
X146882857Y-114962380D01*
X147025714Y-115010000D01*
X147073333Y-115057619D01*
X148025714Y-115962380D02*
X147454285Y-115962380D01*
X147740000Y-115962380D02*
X147740000Y-114962380D01*
X147644761Y-115105238D01*
X147549523Y-115200476D01*
X147454285Y-115248095D01*
G04 #@! TO.C,R4*
X119213333Y-62682380D02*
X118880000Y-62206190D01*
X118641904Y-62682380D02*
X118641904Y-61682380D01*
X119022857Y-61682380D01*
X119118095Y-61730000D01*
X119165714Y-61777619D01*
X119213333Y-61872857D01*
X119213333Y-62015714D01*
X119165714Y-62110952D01*
X119118095Y-62158571D01*
X119022857Y-62206190D01*
X118641904Y-62206190D01*
X120070476Y-62015714D02*
X120070476Y-62682380D01*
X119832380Y-61634761D02*
X119594285Y-62349047D01*
X120213333Y-62349047D01*
G04 #@! TO.C,R2*
X119213333Y-67762380D02*
X118880000Y-67286190D01*
X118641904Y-67762380D02*
X118641904Y-66762380D01*
X119022857Y-66762380D01*
X119118095Y-66810000D01*
X119165714Y-66857619D01*
X119213333Y-66952857D01*
X119213333Y-67095714D01*
X119165714Y-67190952D01*
X119118095Y-67238571D01*
X119022857Y-67286190D01*
X118641904Y-67286190D01*
X119594285Y-66857619D02*
X119641904Y-66810000D01*
X119737142Y-66762380D01*
X119975238Y-66762380D01*
X120070476Y-66810000D01*
X120118095Y-66857619D01*
X120165714Y-66952857D01*
X120165714Y-67048095D01*
X120118095Y-67190952D01*
X119546666Y-67762380D01*
X120165714Y-67762380D01*
G04 #@! TO.C,R1*
X119213333Y-72842380D02*
X118880000Y-72366190D01*
X118641904Y-72842380D02*
X118641904Y-71842380D01*
X119022857Y-71842380D01*
X119118095Y-71890000D01*
X119165714Y-71937619D01*
X119213333Y-72032857D01*
X119213333Y-72175714D01*
X119165714Y-72270952D01*
X119118095Y-72318571D01*
X119022857Y-72366190D01*
X118641904Y-72366190D01*
X120165714Y-72842380D02*
X119594285Y-72842380D01*
X119880000Y-72842380D02*
X119880000Y-71842380D01*
X119784761Y-71985238D01*
X119689523Y-72080476D01*
X119594285Y-72128095D01*
G04 #@! TO.C,PT1000*
X132072380Y-58872380D02*
X132072380Y-57872380D01*
X132453333Y-57872380D01*
X132548571Y-57920000D01*
X132596190Y-57967619D01*
X132643809Y-58062857D01*
X132643809Y-58205714D01*
X132596190Y-58300952D01*
X132548571Y-58348571D01*
X132453333Y-58396190D01*
X132072380Y-58396190D01*
X132929523Y-57872380D02*
X133500952Y-57872380D01*
X133215238Y-58872380D02*
X133215238Y-57872380D01*
X134358095Y-58872380D02*
X133786666Y-58872380D01*
X134072380Y-58872380D02*
X134072380Y-57872380D01*
X133977142Y-58015238D01*
X133881904Y-58110476D01*
X133786666Y-58158095D01*
X134977142Y-57872380D02*
X135072380Y-57872380D01*
X135167619Y-57920000D01*
X135215238Y-57967619D01*
X135262857Y-58062857D01*
X135310476Y-58253333D01*
X135310476Y-58491428D01*
X135262857Y-58681904D01*
X135215238Y-58777142D01*
X135167619Y-58824761D01*
X135072380Y-58872380D01*
X134977142Y-58872380D01*
X134881904Y-58824761D01*
X134834285Y-58777142D01*
X134786666Y-58681904D01*
X134739047Y-58491428D01*
X134739047Y-58253333D01*
X134786666Y-58062857D01*
X134834285Y-57967619D01*
X134881904Y-57920000D01*
X134977142Y-57872380D01*
X135929523Y-57872380D02*
X136024761Y-57872380D01*
X136120000Y-57920000D01*
X136167619Y-57967619D01*
X136215238Y-58062857D01*
X136262857Y-58253333D01*
X136262857Y-58491428D01*
X136215238Y-58681904D01*
X136167619Y-58777142D01*
X136120000Y-58824761D01*
X136024761Y-58872380D01*
X135929523Y-58872380D01*
X135834285Y-58824761D01*
X135786666Y-58777142D01*
X135739047Y-58681904D01*
X135691428Y-58491428D01*
X135691428Y-58253333D01*
X135739047Y-58062857D01*
X135786666Y-57967619D01*
X135834285Y-57920000D01*
X135929523Y-57872380D01*
X136881904Y-57872380D02*
X136977142Y-57872380D01*
X137072380Y-57920000D01*
X137120000Y-57967619D01*
X137167619Y-58062857D01*
X137215238Y-58253333D01*
X137215238Y-58491428D01*
X137167619Y-58681904D01*
X137120000Y-58777142D01*
X137072380Y-58824761D01*
X136977142Y-58872380D01*
X136881904Y-58872380D01*
X136786666Y-58824761D01*
X136739047Y-58777142D01*
X136691428Y-58681904D01*
X136643809Y-58491428D01*
X136643809Y-58253333D01*
X136691428Y-58062857D01*
X136739047Y-57967619D01*
X136786666Y-57920000D01*
X136881904Y-57872380D01*
G04 #@! TD*
%LPC*%
D14*
G04 #@! TO.C,UR*
X182880000Y-119380000D03*
G04 #@! TD*
G04 #@! TO.C,UL*
X97790000Y-119380000D03*
G04 #@! TD*
G04 #@! TO.C,OL*
X97790000Y-54610000D03*
G04 #@! TD*
G04 #@! TO.C,OR*
X182880000Y-54610000D03*
G04 #@! TD*
D15*
G04 #@! TO.C,SSR1*
X176530000Y-74930000D03*
D16*
X173990000Y-74930000D03*
D15*
X176530000Y-77470000D03*
D17*
X173990000Y-77470000D03*
G04 #@! TD*
D15*
G04 #@! TO.C,SENS4*
X173990000Y-60960000D03*
D16*
X173990000Y-63500000D03*
D15*
X176530000Y-60960000D03*
D17*
X176530000Y-63500000D03*
G04 #@! TD*
D15*
G04 #@! TO.C,SENS3*
X163830000Y-60960000D03*
D16*
X163830000Y-63500000D03*
D15*
X166370000Y-60960000D03*
D17*
X166370000Y-63500000D03*
G04 #@! TD*
D15*
G04 #@! TO.C,SENS2*
X153670000Y-60960000D03*
D17*
X153670000Y-63500000D03*
D15*
X156210000Y-60960000D03*
G36*
G01*
X157310000Y-62950000D02*
X157310000Y-64050000D01*
G75*
G02*
X156760000Y-64600000I-550000J0D01*
G01*
X155660000Y-64600000D01*
G75*
G02*
X155110000Y-64050000I0J550000D01*
G01*
X155110000Y-62950000D01*
G75*
G02*
X155660000Y-62400000I550000J0D01*
G01*
X156760000Y-62400000D01*
G75*
G02*
X157310000Y-62950000I0J-550000D01*
G01*
G37*
G04 #@! TD*
G04 #@! TO.C,SENS1*
X143510000Y-60960000D03*
D17*
X143510000Y-63500000D03*
D15*
X146050000Y-60960000D03*
G36*
G01*
X147150000Y-62950000D02*
X147150000Y-64050000D01*
G75*
G02*
X146600000Y-64600000I-550000J0D01*
G01*
X145500000Y-64600000D01*
G75*
G02*
X144950000Y-64050000I0J550000D01*
G01*
X144950000Y-62950000D01*
G75*
G02*
X145500000Y-62400000I550000J0D01*
G01*
X146600000Y-62400000D01*
G75*
G02*
X147150000Y-62950000I0J-550000D01*
G01*
G37*
G04 #@! TD*
D18*
G04 #@! TO.C,R3-4*
X124460000Y-100330000D03*
D19*
X114300000Y-100330000D03*
G04 #@! TD*
D18*
G04 #@! TO.C,R3-2*
X124460000Y-105410000D03*
D19*
X114300000Y-105410000D03*
G04 #@! TD*
D18*
G04 #@! TO.C,R3-1*
X114300000Y-110490000D03*
D19*
X124460000Y-110490000D03*
G04 #@! TD*
D18*
G04 #@! TO.C,R2-4*
X124460000Y-80010000D03*
D19*
X114300000Y-80010000D03*
G04 #@! TD*
D18*
G04 #@! TO.C,R2-2*
X124460000Y-85090000D03*
D19*
X114300000Y-85090000D03*
G04 #@! TD*
D18*
G04 #@! TO.C,R2-1*
X114300000Y-90170000D03*
D19*
X124460000Y-90170000D03*
G04 #@! TD*
D15*
G04 #@! TO.C,PSU1*
X177800000Y-105410000D03*
D16*
X175260000Y-105410000D03*
D15*
X177800000Y-107950000D03*
G36*
G01*
X175810000Y-109050000D02*
X174710000Y-109050000D01*
G75*
G02*
X174160000Y-108500000I0J550000D01*
G01*
X174160000Y-107400000D01*
G75*
G02*
X174710000Y-106850000I550000J0D01*
G01*
X175810000Y-106850000D01*
G75*
G02*
X176360000Y-107400000I0J-550000D01*
G01*
X176360000Y-108500000D01*
G75*
G02*
X175810000Y-109050000I-550000J0D01*
G01*
G37*
G04 #@! TD*
G04 #@! TO.C,J1*
G36*
G01*
X173140000Y-98215000D02*
X173140000Y-97365000D01*
G75*
G02*
X173565000Y-96940000I425000J0D01*
G01*
X174415000Y-96940000D01*
G75*
G02*
X174840000Y-97365000I0J-425000D01*
G01*
X174840000Y-98215000D01*
G75*
G02*
X174415000Y-98640000I-425000J0D01*
G01*
X173565000Y-98640000D01*
G75*
G02*
X173140000Y-98215000I0J425000D01*
G01*
G37*
D20*
X173990000Y-95250000D03*
X173990000Y-92710000D03*
X173990000Y-90170000D03*
X173990000Y-87630000D03*
D21*
X173990000Y-85090000D03*
G04 #@! TD*
D20*
G04 #@! TO.C,ESP321*
X156765000Y-97075000D03*
X156765000Y-99615000D03*
X156765000Y-89455000D03*
X156765000Y-102155000D03*
X156765000Y-94535000D03*
X156765000Y-84375000D03*
X156765000Y-107235000D03*
D21*
X156765000Y-104695000D03*
G36*
G01*
X155915000Y-110200000D02*
X155915000Y-109350000D01*
G75*
G02*
X156340000Y-108925000I425000J0D01*
G01*
X157190000Y-108925000D01*
G75*
G02*
X157615000Y-109350000I0J-425000D01*
G01*
X157615000Y-110200000D01*
G75*
G02*
X157190000Y-110625000I-425000J0D01*
G01*
X156340000Y-110625000D01*
G75*
G02*
X155915000Y-110200000I0J425000D01*
G01*
G37*
D22*
X156765000Y-74215000D03*
D20*
X156765000Y-86915000D03*
X156765000Y-79295000D03*
X156765000Y-91995000D03*
X156765000Y-76755000D03*
X156765000Y-81835000D03*
X156765000Y-112315000D03*
X136445000Y-91995000D03*
X136445000Y-76755000D03*
X136445000Y-94535000D03*
X136445000Y-102155000D03*
X136445000Y-86915000D03*
X136445000Y-79295000D03*
G36*
G01*
X135595000Y-97500000D02*
X135595000Y-96650000D01*
G75*
G02*
X136020000Y-96225000I425000J0D01*
G01*
X136870000Y-96225000D01*
G75*
G02*
X137295000Y-96650000I0J-425000D01*
G01*
X137295000Y-97500000D01*
G75*
G02*
X136870000Y-97925000I-425000J0D01*
G01*
X136020000Y-97925000D01*
G75*
G02*
X135595000Y-97500000I0J425000D01*
G01*
G37*
X136445000Y-99615000D03*
X136445000Y-89455000D03*
X136445000Y-81835000D03*
X136445000Y-74215000D03*
X136445000Y-84375000D03*
G04 #@! TD*
D21*
G04 #@! TO.C,0x48*
X106680000Y-62230000D03*
G36*
G01*
X105830000Y-60115000D02*
X105830000Y-59265000D01*
G75*
G02*
X106255000Y-58840000I425000J0D01*
G01*
X107105000Y-58840000D01*
G75*
G02*
X107530000Y-59265000I0J-425000D01*
G01*
X107530000Y-60115000D01*
G75*
G02*
X107105000Y-60540000I-425000J0D01*
G01*
X106255000Y-60540000D01*
G75*
G02*
X105830000Y-60115000I0J425000D01*
G01*
G37*
D20*
X106680000Y-69850000D03*
X106680000Y-77470000D03*
X106680000Y-67310000D03*
X106680000Y-82550000D03*
X106680000Y-64770000D03*
X106680000Y-72390000D03*
X106680000Y-74930000D03*
X106680000Y-80010000D03*
G04 #@! TD*
D21*
G04 #@! TO.C,0x49*
X106680000Y-93980000D03*
G36*
G01*
X105830000Y-91865000D02*
X105830000Y-91015000D01*
G75*
G02*
X106255000Y-90590000I425000J0D01*
G01*
X107105000Y-90590000D01*
G75*
G02*
X107530000Y-91015000I0J-425000D01*
G01*
X107530000Y-91865000D01*
G75*
G02*
X107105000Y-92290000I-425000J0D01*
G01*
X106255000Y-92290000D01*
G75*
G02*
X105830000Y-91865000I0J425000D01*
G01*
G37*
D20*
X106680000Y-101600000D03*
X106680000Y-109220000D03*
X106680000Y-99060000D03*
X106680000Y-114300000D03*
X106680000Y-96520000D03*
X106680000Y-104140000D03*
X106680000Y-106680000D03*
X106680000Y-111760000D03*
G04 #@! TD*
D18*
G04 #@! TO.C,R3*
X149860000Y-90170000D03*
D19*
X149860000Y-100330000D03*
G04 #@! TD*
D18*
G04 #@! TO.C,R7*
X143510000Y-74930000D03*
D19*
X143510000Y-85090000D03*
G04 #@! TD*
D18*
G04 #@! TO.C,R5*
X149860000Y-74930000D03*
D19*
X149860000Y-85090000D03*
G04 #@! TD*
D18*
G04 #@! TO.C,R6*
X143510000Y-90170000D03*
D19*
X143510000Y-100330000D03*
G04 #@! TD*
D23*
G04 #@! TO.C,C1*
X142240000Y-111760000D03*
X152240000Y-111760000D03*
G04 #@! TD*
D18*
G04 #@! TO.C,R4*
X114300000Y-59690000D03*
D19*
X124460000Y-59690000D03*
G04 #@! TD*
D18*
G04 #@! TO.C,R2*
X114300000Y-64770000D03*
D19*
X124460000Y-64770000D03*
G04 #@! TD*
D18*
G04 #@! TO.C,R1*
X124460000Y-69850000D03*
D19*
X114300000Y-69850000D03*
G04 #@! TD*
D15*
G04 #@! TO.C,PT1000*
X133350000Y-60960000D03*
D17*
X133350000Y-63500000D03*
D15*
X135890000Y-60960000D03*
G36*
G01*
X136990000Y-62950000D02*
X136990000Y-64050000D01*
G75*
G02*
X136440000Y-64600000I-550000J0D01*
G01*
X135340000Y-64600000D01*
G75*
G02*
X134790000Y-64050000I0J550000D01*
G01*
X134790000Y-62950000D01*
G75*
G02*
X135340000Y-62400000I550000J0D01*
G01*
X136440000Y-62400000D01*
G75*
G02*
X136990000Y-62950000I0J-550000D01*
G01*
G37*
G04 #@! TD*
M02*
