%FSLAX45Y45*%
G04 Gerber Fmt 4.5, Leading zero omitted, Abs format (unit mm)*
G04 Created by KiCad (PCBNEW (5.1.10)-1) date 2021-06-12 21:44:27*
%MOMM*%
%LPD*%
G01*
G04 APERTURE LIST*
%TA.AperFunction,Profile*%
%ADD10C,0.050000*%
%TD*%
%ADD11C,0.200000*%
%ADD12C,0.300000*%
G04 APERTURE END LIST*
D10*
X9398000Y-12319000D02*
X9398000Y-5080000D01*
X18669000Y-12319000D02*
X9398000Y-12319000D01*
X18669000Y-5080000D02*
X18669000Y-12319000D01*
X9398000Y-5080000D02*
X18669000Y-5080000D01*
D11*
X13517340Y-7001400D02*
X13557340Y-7041400D01*
X13557340Y-7001400D02*
X13517340Y-7041400D01*
X11470000Y-5969000D02*
G75*
G03*
X11470000Y-5969000I-40000J0D01*
G01*
X11470000Y-6477000D02*
G75*
G03*
X11470000Y-6477000I-40000J0D01*
G01*
X11470000Y-6985000D02*
G75*
G03*
X11470000Y-6985000I-40000J0D01*
G01*
X11470000Y-8001000D02*
G75*
G03*
X11470000Y-8001000I-40000J0D01*
G01*
X11470000Y-8509000D02*
G75*
G03*
X11470000Y-8509000I-40000J0D01*
G01*
X11470000Y-9017000D02*
G75*
G03*
X11470000Y-9017000I-40000J0D01*
G01*
X11470000Y-10033000D02*
G75*
G03*
X11470000Y-10033000I-40000J0D01*
G01*
X11470000Y-10541000D02*
G75*
G03*
X11470000Y-10541000I-40000J0D01*
G01*
X11470000Y-11049000D02*
G75*
G03*
X11470000Y-11049000I-40000J0D01*
G01*
X12486000Y-5969000D02*
G75*
G03*
X12486000Y-5969000I-40000J0D01*
G01*
X12486000Y-6477000D02*
G75*
G03*
X12486000Y-6477000I-40000J0D01*
G01*
X12486000Y-6985000D02*
G75*
G03*
X12486000Y-6985000I-40000J0D01*
G01*
X12486000Y-8001000D02*
G75*
G03*
X12486000Y-8001000I-40000J0D01*
G01*
X12486000Y-8509000D02*
G75*
G03*
X12486000Y-8509000I-40000J0D01*
G01*
X12486000Y-9017000D02*
G75*
G03*
X12486000Y-9017000I-40000J0D01*
G01*
X12486000Y-10033000D02*
G75*
G03*
X12486000Y-10033000I-40000J0D01*
G01*
X12486000Y-10541000D02*
G75*
G03*
X12486000Y-10541000I-40000J0D01*
G01*
X12486000Y-11049000D02*
G75*
G03*
X12486000Y-11049000I-40000J0D01*
G01*
X14391000Y-7493000D02*
G75*
G03*
X14391000Y-7493000I-40000J0D01*
G01*
X14391000Y-8509000D02*
G75*
G03*
X14391000Y-8509000I-40000J0D01*
G01*
X14391000Y-9017000D02*
G75*
G03*
X14391000Y-9017000I-40000J0D01*
G01*
X14391000Y-10033000D02*
G75*
G03*
X14391000Y-10033000I-40000J0D01*
G01*
X15026000Y-7493000D02*
G75*
G03*
X15026000Y-7493000I-40000J0D01*
G01*
X15026000Y-8509000D02*
G75*
G03*
X15026000Y-8509000I-40000J0D01*
G01*
X15026000Y-9017000D02*
G75*
G03*
X15026000Y-9017000I-40000J0D01*
G01*
X15026000Y-10033000D02*
G75*
G03*
X15026000Y-10033000I-40000J0D01*
G01*
X10668000Y-5919000D02*
X10668000Y-6019000D01*
X10618000Y-5969000D02*
X10718000Y-5969000D01*
X10668000Y-6173000D02*
X10668000Y-6273000D01*
X10618000Y-6223000D02*
X10718000Y-6223000D01*
X10668000Y-6427000D02*
X10668000Y-6527000D01*
X10618000Y-6477000D02*
X10718000Y-6477000D01*
X10668000Y-6681000D02*
X10668000Y-6781000D01*
X10618000Y-6731000D02*
X10718000Y-6731000D01*
X10668000Y-6935000D02*
X10668000Y-7035000D01*
X10618000Y-6985000D02*
X10718000Y-6985000D01*
X10668000Y-7189000D02*
X10668000Y-7289000D01*
X10618000Y-7239000D02*
X10718000Y-7239000D01*
X10668000Y-7443000D02*
X10668000Y-7543000D01*
X10618000Y-7493000D02*
X10718000Y-7493000D01*
X10668000Y-7697000D02*
X10668000Y-7797000D01*
X10618000Y-7747000D02*
X10718000Y-7747000D01*
X10668000Y-7951000D02*
X10668000Y-8051000D01*
X10618000Y-8001000D02*
X10718000Y-8001000D01*
X10668000Y-8205000D02*
X10668000Y-8305000D01*
X10618000Y-8255000D02*
X10718000Y-8255000D01*
X10668000Y-9094000D02*
X10668000Y-9194000D01*
X10618000Y-9144000D02*
X10718000Y-9144000D01*
X10668000Y-9348000D02*
X10668000Y-9448000D01*
X10618000Y-9398000D02*
X10718000Y-9398000D01*
X10668000Y-9602000D02*
X10668000Y-9702000D01*
X10618000Y-9652000D02*
X10718000Y-9652000D01*
X10668000Y-9856000D02*
X10668000Y-9956000D01*
X10618000Y-9906000D02*
X10718000Y-9906000D01*
X10668000Y-10110000D02*
X10668000Y-10210000D01*
X10618000Y-10160000D02*
X10718000Y-10160000D01*
X10668000Y-10364000D02*
X10668000Y-10464000D01*
X10618000Y-10414000D02*
X10718000Y-10414000D01*
X10668000Y-10618000D02*
X10668000Y-10718000D01*
X10618000Y-10668000D02*
X10718000Y-10668000D01*
X10668000Y-10872000D02*
X10668000Y-10972000D01*
X10618000Y-10922000D02*
X10718000Y-10922000D01*
X10668000Y-11126000D02*
X10668000Y-11226000D01*
X10618000Y-11176000D02*
X10718000Y-11176000D01*
X10668000Y-11380000D02*
X10668000Y-11480000D01*
X10618000Y-11430000D02*
X10718000Y-11430000D01*
X13644500Y-7371500D02*
X13644500Y-7471500D01*
X13594500Y-7421500D02*
X13694500Y-7421500D01*
X13644500Y-7625500D02*
X13644500Y-7725500D01*
X13594500Y-7675500D02*
X13694500Y-7675500D01*
X13644500Y-7879500D02*
X13644500Y-7979500D01*
X13594500Y-7929500D02*
X13694500Y-7929500D01*
X13644500Y-8133500D02*
X13644500Y-8233500D01*
X13594500Y-8183500D02*
X13694500Y-8183500D01*
X13644500Y-8387500D02*
X13644500Y-8487500D01*
X13594500Y-8437500D02*
X13694500Y-8437500D01*
X13644500Y-8641500D02*
X13644500Y-8741500D01*
X13594500Y-8691500D02*
X13694500Y-8691500D01*
X13644500Y-8895500D02*
X13644500Y-8995500D01*
X13594500Y-8945500D02*
X13694500Y-8945500D01*
X13644500Y-9149500D02*
X13644500Y-9249500D01*
X13594500Y-9199500D02*
X13694500Y-9199500D01*
X13644500Y-9403500D02*
X13644500Y-9503500D01*
X13594500Y-9453500D02*
X13694500Y-9453500D01*
X13644500Y-9657500D02*
X13644500Y-9757500D01*
X13594500Y-9707500D02*
X13694500Y-9707500D01*
X13644500Y-9911500D02*
X13644500Y-10011500D01*
X13594500Y-9961500D02*
X13694500Y-9961500D01*
X13644500Y-10165500D02*
X13644500Y-10265500D01*
X13594500Y-10215500D02*
X13694500Y-10215500D01*
X14224000Y-11126000D02*
X14224000Y-11226000D01*
X14174000Y-11176000D02*
X14274000Y-11176000D01*
X15224000Y-11126000D02*
X15224000Y-11226000D01*
X15174000Y-11176000D02*
X15274000Y-11176000D01*
X15676500Y-7371500D02*
X15676500Y-7471500D01*
X15626500Y-7421500D02*
X15726500Y-7421500D01*
X15676500Y-7625500D02*
X15676500Y-7725500D01*
X15626500Y-7675500D02*
X15726500Y-7675500D01*
X15676500Y-7879500D02*
X15676500Y-7979500D01*
X15626500Y-7929500D02*
X15726500Y-7929500D01*
X15676500Y-8133500D02*
X15676500Y-8233500D01*
X15626500Y-8183500D02*
X15726500Y-8183500D01*
X15676500Y-8387500D02*
X15676500Y-8487500D01*
X15626500Y-8437500D02*
X15726500Y-8437500D01*
X15676500Y-8641500D02*
X15676500Y-8741500D01*
X15626500Y-8691500D02*
X15726500Y-8691500D01*
X15676500Y-8895500D02*
X15676500Y-8995500D01*
X15626500Y-8945500D02*
X15726500Y-8945500D01*
X15676500Y-9149500D02*
X15676500Y-9249500D01*
X15626500Y-9199500D02*
X15726500Y-9199500D01*
X15676500Y-9403500D02*
X15676500Y-9503500D01*
X15626500Y-9453500D02*
X15726500Y-9453500D01*
X15676500Y-9657500D02*
X15676500Y-9757500D01*
X15626500Y-9707500D02*
X15726500Y-9707500D01*
X15676500Y-9911500D02*
X15676500Y-10011500D01*
X15626500Y-9961500D02*
X15726500Y-9961500D01*
X15676500Y-10165500D02*
X15676500Y-10265500D01*
X15626500Y-10215500D02*
X15726500Y-10215500D01*
X15676500Y-10419500D02*
X15676500Y-10519500D01*
X15626500Y-10469500D02*
X15726500Y-10469500D01*
X15676500Y-10673500D02*
X15676500Y-10773500D01*
X15626500Y-10723500D02*
X15726500Y-10723500D01*
X15676500Y-10927500D02*
X15676500Y-11027500D01*
X15626500Y-10977500D02*
X15726500Y-10977500D01*
X15676500Y-11181500D02*
X15676500Y-11281500D01*
X15626500Y-11231500D02*
X15726500Y-11231500D01*
X17399000Y-8459000D02*
X17399000Y-8559000D01*
X17349000Y-8509000D02*
X17449000Y-8509000D01*
X17399000Y-8713000D02*
X17399000Y-8813000D01*
X17349000Y-8763000D02*
X17449000Y-8763000D01*
X17399000Y-8967000D02*
X17399000Y-9067000D01*
X17349000Y-9017000D02*
X17449000Y-9017000D01*
X17399000Y-9221000D02*
X17399000Y-9321000D01*
X17349000Y-9271000D02*
X17449000Y-9271000D01*
X17399000Y-9475000D02*
X17399000Y-9575000D01*
X17349000Y-9525000D02*
X17449000Y-9525000D01*
X17399000Y-9729000D02*
X17399000Y-9829000D01*
X17349000Y-9779000D02*
X17449000Y-9779000D01*
X13373891Y-6388891D02*
X13373891Y-6311109D01*
X13296109Y-6311109D01*
X13296109Y-6388891D01*
X13373891Y-6388891D01*
X13627891Y-6388891D02*
X13627891Y-6311109D01*
X13550109Y-6311109D01*
X13550109Y-6388891D01*
X13627891Y-6388891D01*
X14389891Y-6388891D02*
X14389891Y-6311109D01*
X14312109Y-6311109D01*
X14312109Y-6388891D01*
X14389891Y-6388891D01*
X14643891Y-6388891D02*
X14643891Y-6311109D01*
X14566109Y-6311109D01*
X14566109Y-6388891D01*
X14643891Y-6388891D01*
X15405891Y-6388891D02*
X15405891Y-6311109D01*
X15328109Y-6311109D01*
X15328109Y-6388891D01*
X15405891Y-6388891D01*
X15659891Y-6388891D02*
X15659891Y-6311109D01*
X15582109Y-6311109D01*
X15582109Y-6388891D01*
X15659891Y-6388891D01*
X16421891Y-6388891D02*
X16421891Y-6311109D01*
X16344109Y-6311109D01*
X16344109Y-6388891D01*
X16421891Y-6388891D01*
X16675891Y-6388891D02*
X16675891Y-6311109D01*
X16598109Y-6311109D01*
X16598109Y-6388891D01*
X16675891Y-6388891D01*
X17437891Y-6388891D02*
X17437891Y-6311109D01*
X17360109Y-6311109D01*
X17360109Y-6388891D01*
X17437891Y-6388891D01*
X17437891Y-7531891D02*
X17437891Y-7454109D01*
X17360109Y-7454109D01*
X17360109Y-7531891D01*
X17437891Y-7531891D01*
X17437891Y-7785891D02*
X17437891Y-7708109D01*
X17360109Y-7708109D01*
X17360109Y-7785891D01*
X17437891Y-7785891D01*
X17564891Y-10579891D02*
X17564891Y-10502109D01*
X17487109Y-10502109D01*
X17487109Y-10579891D01*
X17564891Y-10579891D01*
X17564891Y-10833891D02*
X17564891Y-10756109D01*
X17487109Y-10756109D01*
X17487109Y-10833891D01*
X17564891Y-10833891D01*
X17691891Y-6388891D02*
X17691891Y-6311109D01*
X17614109Y-6311109D01*
X17614109Y-6388891D01*
X17691891Y-6388891D01*
D12*
X9681928Y-12787214D02*
X9681928Y-12487214D01*
X9753357Y-12487214D01*
X9796214Y-12501500D01*
X9824786Y-12530071D01*
X9839071Y-12558643D01*
X9853357Y-12615786D01*
X9853357Y-12658643D01*
X9839071Y-12715786D01*
X9824786Y-12744357D01*
X9796214Y-12772929D01*
X9753357Y-12787214D01*
X9681928Y-12787214D01*
X9981928Y-12787214D02*
X9981928Y-12587214D01*
X9981928Y-12644357D02*
X9996214Y-12615786D01*
X10010500Y-12601500D01*
X10039071Y-12587214D01*
X10067643Y-12587214D01*
X10167643Y-12787214D02*
X10167643Y-12587214D01*
X10167643Y-12487214D02*
X10153357Y-12501500D01*
X10167643Y-12515786D01*
X10181928Y-12501500D01*
X10167643Y-12487214D01*
X10167643Y-12515786D01*
X10353357Y-12787214D02*
X10324786Y-12772929D01*
X10310500Y-12744357D01*
X10310500Y-12487214D01*
X10510500Y-12787214D02*
X10481928Y-12772929D01*
X10467643Y-12744357D01*
X10467643Y-12487214D01*
X10853357Y-12787214D02*
X10853357Y-12487214D01*
X10953357Y-12701500D01*
X11053357Y-12487214D01*
X11053357Y-12787214D01*
X11324786Y-12787214D02*
X11324786Y-12630071D01*
X11310500Y-12601500D01*
X11281928Y-12587214D01*
X11224786Y-12587214D01*
X11196214Y-12601500D01*
X11324786Y-12772929D02*
X11296214Y-12787214D01*
X11224786Y-12787214D01*
X11196214Y-12772929D01*
X11181928Y-12744357D01*
X11181928Y-12715786D01*
X11196214Y-12687214D01*
X11224786Y-12672929D01*
X11296214Y-12672929D01*
X11324786Y-12658643D01*
X11467643Y-12587214D02*
X11467643Y-12887214D01*
X11467643Y-12601500D02*
X11496214Y-12587214D01*
X11553357Y-12587214D01*
X11581928Y-12601500D01*
X11596214Y-12615786D01*
X11610500Y-12644357D01*
X11610500Y-12730071D01*
X11596214Y-12758643D01*
X11581928Y-12772929D01*
X11553357Y-12787214D01*
X11496214Y-12787214D01*
X11467643Y-12772929D01*
X11739071Y-12758643D02*
X11753357Y-12772929D01*
X11739071Y-12787214D01*
X11724786Y-12772929D01*
X11739071Y-12758643D01*
X11739071Y-12787214D01*
X11739071Y-12601500D02*
X11753357Y-12615786D01*
X11739071Y-12630071D01*
X11724786Y-12615786D01*
X11739071Y-12601500D01*
X11739071Y-12630071D01*
X9355500Y-13261500D02*
X9395500Y-13301500D01*
X9395500Y-13261500D02*
X9355500Y-13301500D01*
X9739071Y-13117214D02*
X9767643Y-13117214D01*
X9796214Y-13131500D01*
X9810500Y-13145786D01*
X9824786Y-13174357D01*
X9839071Y-13231500D01*
X9839071Y-13302929D01*
X9824786Y-13360071D01*
X9810500Y-13388643D01*
X9796214Y-13402929D01*
X9767643Y-13417214D01*
X9739071Y-13417214D01*
X9710500Y-13402929D01*
X9696214Y-13388643D01*
X9681928Y-13360071D01*
X9667643Y-13302929D01*
X9667643Y-13231500D01*
X9681928Y-13174357D01*
X9696214Y-13145786D01*
X9710500Y-13131500D01*
X9739071Y-13117214D01*
X9967643Y-13388643D02*
X9981928Y-13402929D01*
X9967643Y-13417214D01*
X9953357Y-13402929D01*
X9967643Y-13388643D01*
X9967643Y-13417214D01*
X10239071Y-13217214D02*
X10239071Y-13417214D01*
X10167643Y-13102929D02*
X10096214Y-13317214D01*
X10281928Y-13317214D01*
X10453357Y-13117214D02*
X10481928Y-13117214D01*
X10510500Y-13131500D01*
X10524786Y-13145786D01*
X10539071Y-13174357D01*
X10553357Y-13231500D01*
X10553357Y-13302929D01*
X10539071Y-13360071D01*
X10524786Y-13388643D01*
X10510500Y-13402929D01*
X10481928Y-13417214D01*
X10453357Y-13417214D01*
X10424786Y-13402929D01*
X10410500Y-13388643D01*
X10396214Y-13360071D01*
X10381928Y-13302929D01*
X10381928Y-13231500D01*
X10396214Y-13174357D01*
X10410500Y-13145786D01*
X10424786Y-13131500D01*
X10453357Y-13117214D01*
X10739071Y-13117214D02*
X10767643Y-13117214D01*
X10796214Y-13131500D01*
X10810500Y-13145786D01*
X10824786Y-13174357D01*
X10839071Y-13231500D01*
X10839071Y-13302929D01*
X10824786Y-13360071D01*
X10810500Y-13388643D01*
X10796214Y-13402929D01*
X10767643Y-13417214D01*
X10739071Y-13417214D01*
X10710500Y-13402929D01*
X10696214Y-13388643D01*
X10681928Y-13360071D01*
X10667643Y-13302929D01*
X10667643Y-13231500D01*
X10681928Y-13174357D01*
X10696214Y-13145786D01*
X10710500Y-13131500D01*
X10739071Y-13117214D01*
X10967643Y-13417214D02*
X10967643Y-13217214D01*
X10967643Y-13245786D02*
X10981928Y-13231500D01*
X11010500Y-13217214D01*
X11053357Y-13217214D01*
X11081928Y-13231500D01*
X11096214Y-13260071D01*
X11096214Y-13417214D01*
X11096214Y-13260071D02*
X11110500Y-13231500D01*
X11139071Y-13217214D01*
X11181928Y-13217214D01*
X11210500Y-13231500D01*
X11224786Y-13260071D01*
X11224786Y-13417214D01*
X11367643Y-13417214D02*
X11367643Y-13217214D01*
X11367643Y-13245786D02*
X11381928Y-13231500D01*
X11410500Y-13217214D01*
X11453357Y-13217214D01*
X11481928Y-13231500D01*
X11496214Y-13260071D01*
X11496214Y-13417214D01*
X11496214Y-13260071D02*
X11510500Y-13231500D01*
X11539071Y-13217214D01*
X11581928Y-13217214D01*
X11610500Y-13231500D01*
X11624786Y-13260071D01*
X11624786Y-13417214D01*
X12210500Y-13102929D02*
X11953357Y-13488643D01*
X12596214Y-13117214D02*
X12624786Y-13117214D01*
X12653357Y-13131500D01*
X12667643Y-13145786D01*
X12681928Y-13174357D01*
X12696214Y-13231500D01*
X12696214Y-13302929D01*
X12681928Y-13360071D01*
X12667643Y-13388643D01*
X12653357Y-13402929D01*
X12624786Y-13417214D01*
X12596214Y-13417214D01*
X12567643Y-13402929D01*
X12553357Y-13388643D01*
X12539071Y-13360071D01*
X12524786Y-13302929D01*
X12524786Y-13231500D01*
X12539071Y-13174357D01*
X12553357Y-13145786D01*
X12567643Y-13131500D01*
X12596214Y-13117214D01*
X12824786Y-13388643D02*
X12839071Y-13402929D01*
X12824786Y-13417214D01*
X12810500Y-13402929D01*
X12824786Y-13388643D01*
X12824786Y-13417214D01*
X13024786Y-13117214D02*
X13053357Y-13117214D01*
X13081928Y-13131500D01*
X13096214Y-13145786D01*
X13110500Y-13174357D01*
X13124786Y-13231500D01*
X13124786Y-13302929D01*
X13110500Y-13360071D01*
X13096214Y-13388643D01*
X13081928Y-13402929D01*
X13053357Y-13417214D01*
X13024786Y-13417214D01*
X12996214Y-13402929D01*
X12981928Y-13388643D01*
X12967643Y-13360071D01*
X12953357Y-13302929D01*
X12953357Y-13231500D01*
X12967643Y-13174357D01*
X12981928Y-13145786D01*
X12996214Y-13131500D01*
X13024786Y-13117214D01*
X13410500Y-13417214D02*
X13239071Y-13417214D01*
X13324786Y-13417214D02*
X13324786Y-13117214D01*
X13296214Y-13160071D01*
X13267643Y-13188643D01*
X13239071Y-13202929D01*
X13681928Y-13117214D02*
X13539071Y-13117214D01*
X13524786Y-13260071D01*
X13539071Y-13245786D01*
X13567643Y-13231500D01*
X13639071Y-13231500D01*
X13667643Y-13245786D01*
X13681928Y-13260071D01*
X13696214Y-13288643D01*
X13696214Y-13360071D01*
X13681928Y-13388643D01*
X13667643Y-13402929D01*
X13639071Y-13417214D01*
X13567643Y-13417214D01*
X13539071Y-13402929D01*
X13524786Y-13388643D01*
X13796214Y-13117214D02*
X13996214Y-13117214D01*
X13867643Y-13417214D01*
X14096214Y-13117214D02*
X14096214Y-13174357D01*
X14210500Y-13117214D02*
X14210500Y-13174357D01*
X14653357Y-13531500D02*
X14639071Y-13517214D01*
X14610500Y-13474357D01*
X14596214Y-13445786D01*
X14581928Y-13402929D01*
X14567643Y-13331500D01*
X14567643Y-13274357D01*
X14581928Y-13202929D01*
X14596214Y-13160071D01*
X14610500Y-13131500D01*
X14639071Y-13088643D01*
X14653357Y-13074357D01*
X14924786Y-13417214D02*
X14753357Y-13417214D01*
X14839071Y-13417214D02*
X14839071Y-13117214D01*
X14810500Y-13160071D01*
X14781928Y-13188643D01*
X14753357Y-13202929D01*
X15281928Y-13417214D02*
X15281928Y-13117214D01*
X15410500Y-13417214D02*
X15410500Y-13260071D01*
X15396214Y-13231500D01*
X15367643Y-13217214D01*
X15324786Y-13217214D01*
X15296214Y-13231500D01*
X15281928Y-13245786D01*
X15596214Y-13417214D02*
X15567643Y-13402929D01*
X15553357Y-13388643D01*
X15539071Y-13360071D01*
X15539071Y-13274357D01*
X15553357Y-13245786D01*
X15567643Y-13231500D01*
X15596214Y-13217214D01*
X15639071Y-13217214D01*
X15667643Y-13231500D01*
X15681928Y-13245786D01*
X15696214Y-13274357D01*
X15696214Y-13360071D01*
X15681928Y-13388643D01*
X15667643Y-13402929D01*
X15639071Y-13417214D01*
X15596214Y-13417214D01*
X15867643Y-13417214D02*
X15839071Y-13402929D01*
X15824786Y-13374357D01*
X15824786Y-13117214D01*
X16096214Y-13402929D02*
X16067643Y-13417214D01*
X16010500Y-13417214D01*
X15981928Y-13402929D01*
X15967643Y-13374357D01*
X15967643Y-13260071D01*
X15981928Y-13231500D01*
X16010500Y-13217214D01*
X16067643Y-13217214D01*
X16096214Y-13231500D01*
X16110500Y-13260071D01*
X16110500Y-13288643D01*
X15967643Y-13317214D01*
X16210500Y-13531500D02*
X16224786Y-13517214D01*
X16253357Y-13474357D01*
X16267643Y-13445786D01*
X16281928Y-13402929D01*
X16296214Y-13331500D01*
X16296214Y-13274357D01*
X16281928Y-13202929D01*
X16267643Y-13160071D01*
X16253357Y-13131500D01*
X16224786Y-13088643D01*
X16210500Y-13074357D01*
X9395500Y-13677500D02*
G75*
G03*
X9395500Y-13677500I-40000J0D01*
G01*
X9739071Y-13513214D02*
X9767643Y-13513214D01*
X9796214Y-13527500D01*
X9810500Y-13541786D01*
X9824786Y-13570357D01*
X9839071Y-13627500D01*
X9839071Y-13698929D01*
X9824786Y-13756071D01*
X9810500Y-13784643D01*
X9796214Y-13798929D01*
X9767643Y-13813214D01*
X9739071Y-13813214D01*
X9710500Y-13798929D01*
X9696214Y-13784643D01*
X9681928Y-13756071D01*
X9667643Y-13698929D01*
X9667643Y-13627500D01*
X9681928Y-13570357D01*
X9696214Y-13541786D01*
X9710500Y-13527500D01*
X9739071Y-13513214D01*
X9967643Y-13784643D02*
X9981928Y-13798929D01*
X9967643Y-13813214D01*
X9953357Y-13798929D01*
X9967643Y-13784643D01*
X9967643Y-13813214D01*
X10153357Y-13641786D02*
X10124786Y-13627500D01*
X10110500Y-13613214D01*
X10096214Y-13584643D01*
X10096214Y-13570357D01*
X10110500Y-13541786D01*
X10124786Y-13527500D01*
X10153357Y-13513214D01*
X10210500Y-13513214D01*
X10239071Y-13527500D01*
X10253357Y-13541786D01*
X10267643Y-13570357D01*
X10267643Y-13584643D01*
X10253357Y-13613214D01*
X10239071Y-13627500D01*
X10210500Y-13641786D01*
X10153357Y-13641786D01*
X10124786Y-13656071D01*
X10110500Y-13670357D01*
X10096214Y-13698929D01*
X10096214Y-13756071D01*
X10110500Y-13784643D01*
X10124786Y-13798929D01*
X10153357Y-13813214D01*
X10210500Y-13813214D01*
X10239071Y-13798929D01*
X10253357Y-13784643D01*
X10267643Y-13756071D01*
X10267643Y-13698929D01*
X10253357Y-13670357D01*
X10239071Y-13656071D01*
X10210500Y-13641786D01*
X10453357Y-13513214D02*
X10481928Y-13513214D01*
X10510500Y-13527500D01*
X10524786Y-13541786D01*
X10539071Y-13570357D01*
X10553357Y-13627500D01*
X10553357Y-13698929D01*
X10539071Y-13756071D01*
X10524786Y-13784643D01*
X10510500Y-13798929D01*
X10481928Y-13813214D01*
X10453357Y-13813214D01*
X10424786Y-13798929D01*
X10410500Y-13784643D01*
X10396214Y-13756071D01*
X10381928Y-13698929D01*
X10381928Y-13627500D01*
X10396214Y-13570357D01*
X10410500Y-13541786D01*
X10424786Y-13527500D01*
X10453357Y-13513214D01*
X10739071Y-13513214D02*
X10767643Y-13513214D01*
X10796214Y-13527500D01*
X10810500Y-13541786D01*
X10824786Y-13570357D01*
X10839071Y-13627500D01*
X10839071Y-13698929D01*
X10824786Y-13756071D01*
X10810500Y-13784643D01*
X10796214Y-13798929D01*
X10767643Y-13813214D01*
X10739071Y-13813214D01*
X10710500Y-13798929D01*
X10696214Y-13784643D01*
X10681928Y-13756071D01*
X10667643Y-13698929D01*
X10667643Y-13627500D01*
X10681928Y-13570357D01*
X10696214Y-13541786D01*
X10710500Y-13527500D01*
X10739071Y-13513214D01*
X10967643Y-13813214D02*
X10967643Y-13613214D01*
X10967643Y-13641786D02*
X10981928Y-13627500D01*
X11010500Y-13613214D01*
X11053357Y-13613214D01*
X11081928Y-13627500D01*
X11096214Y-13656071D01*
X11096214Y-13813214D01*
X11096214Y-13656071D02*
X11110500Y-13627500D01*
X11139071Y-13613214D01*
X11181928Y-13613214D01*
X11210500Y-13627500D01*
X11224786Y-13656071D01*
X11224786Y-13813214D01*
X11367643Y-13813214D02*
X11367643Y-13613214D01*
X11367643Y-13641786D02*
X11381928Y-13627500D01*
X11410500Y-13613214D01*
X11453357Y-13613214D01*
X11481928Y-13627500D01*
X11496214Y-13656071D01*
X11496214Y-13813214D01*
X11496214Y-13656071D02*
X11510500Y-13627500D01*
X11539071Y-13613214D01*
X11581928Y-13613214D01*
X11610500Y-13627500D01*
X11624786Y-13656071D01*
X11624786Y-13813214D01*
X12210500Y-13498929D02*
X11953357Y-13884643D01*
X12596214Y-13513214D02*
X12624786Y-13513214D01*
X12653357Y-13527500D01*
X12667643Y-13541786D01*
X12681928Y-13570357D01*
X12696214Y-13627500D01*
X12696214Y-13698929D01*
X12681928Y-13756071D01*
X12667643Y-13784643D01*
X12653357Y-13798929D01*
X12624786Y-13813214D01*
X12596214Y-13813214D01*
X12567643Y-13798929D01*
X12553357Y-13784643D01*
X12539071Y-13756071D01*
X12524786Y-13698929D01*
X12524786Y-13627500D01*
X12539071Y-13570357D01*
X12553357Y-13541786D01*
X12567643Y-13527500D01*
X12596214Y-13513214D01*
X12824786Y-13784643D02*
X12839071Y-13798929D01*
X12824786Y-13813214D01*
X12810500Y-13798929D01*
X12824786Y-13784643D01*
X12824786Y-13813214D01*
X13024786Y-13513214D02*
X13053357Y-13513214D01*
X13081928Y-13527500D01*
X13096214Y-13541786D01*
X13110500Y-13570357D01*
X13124786Y-13627500D01*
X13124786Y-13698929D01*
X13110500Y-13756071D01*
X13096214Y-13784643D01*
X13081928Y-13798929D01*
X13053357Y-13813214D01*
X13024786Y-13813214D01*
X12996214Y-13798929D01*
X12981928Y-13784643D01*
X12967643Y-13756071D01*
X12953357Y-13698929D01*
X12953357Y-13627500D01*
X12967643Y-13570357D01*
X12981928Y-13541786D01*
X12996214Y-13527500D01*
X13024786Y-13513214D01*
X13224786Y-13513214D02*
X13410500Y-13513214D01*
X13310500Y-13627500D01*
X13353357Y-13627500D01*
X13381928Y-13641786D01*
X13396214Y-13656071D01*
X13410500Y-13684643D01*
X13410500Y-13756071D01*
X13396214Y-13784643D01*
X13381928Y-13798929D01*
X13353357Y-13813214D01*
X13267643Y-13813214D01*
X13239071Y-13798929D01*
X13224786Y-13784643D01*
X13696214Y-13813214D02*
X13524786Y-13813214D01*
X13610500Y-13813214D02*
X13610500Y-13513214D01*
X13581928Y-13556071D01*
X13553357Y-13584643D01*
X13524786Y-13598929D01*
X13967643Y-13513214D02*
X13824786Y-13513214D01*
X13810500Y-13656071D01*
X13824786Y-13641786D01*
X13853357Y-13627500D01*
X13924786Y-13627500D01*
X13953357Y-13641786D01*
X13967643Y-13656071D01*
X13981928Y-13684643D01*
X13981928Y-13756071D01*
X13967643Y-13784643D01*
X13953357Y-13798929D01*
X13924786Y-13813214D01*
X13853357Y-13813214D01*
X13824786Y-13798929D01*
X13810500Y-13784643D01*
X14096214Y-13513214D02*
X14096214Y-13570357D01*
X14210500Y-13513214D02*
X14210500Y-13570357D01*
X14653357Y-13927500D02*
X14639071Y-13913214D01*
X14610500Y-13870357D01*
X14596214Y-13841786D01*
X14581928Y-13798929D01*
X14567643Y-13727500D01*
X14567643Y-13670357D01*
X14581928Y-13598929D01*
X14596214Y-13556071D01*
X14610500Y-13527500D01*
X14639071Y-13484643D01*
X14653357Y-13470357D01*
X14753357Y-13541786D02*
X14767643Y-13527500D01*
X14796214Y-13513214D01*
X14867643Y-13513214D01*
X14896214Y-13527500D01*
X14910500Y-13541786D01*
X14924786Y-13570357D01*
X14924786Y-13598929D01*
X14910500Y-13641786D01*
X14739071Y-13813214D01*
X14924786Y-13813214D01*
X15181928Y-13513214D02*
X15124786Y-13513214D01*
X15096214Y-13527500D01*
X15081928Y-13541786D01*
X15053357Y-13584643D01*
X15039071Y-13641786D01*
X15039071Y-13756071D01*
X15053357Y-13784643D01*
X15067643Y-13798929D01*
X15096214Y-13813214D01*
X15153357Y-13813214D01*
X15181928Y-13798929D01*
X15196214Y-13784643D01*
X15210500Y-13756071D01*
X15210500Y-13684643D01*
X15196214Y-13656071D01*
X15181928Y-13641786D01*
X15153357Y-13627500D01*
X15096214Y-13627500D01*
X15067643Y-13641786D01*
X15053357Y-13656071D01*
X15039071Y-13684643D01*
X15567643Y-13813214D02*
X15567643Y-13513214D01*
X15696214Y-13813214D02*
X15696214Y-13656071D01*
X15681928Y-13627500D01*
X15653357Y-13613214D01*
X15610500Y-13613214D01*
X15581928Y-13627500D01*
X15567643Y-13641786D01*
X15881928Y-13813214D02*
X15853357Y-13798929D01*
X15839071Y-13784643D01*
X15824786Y-13756071D01*
X15824786Y-13670357D01*
X15839071Y-13641786D01*
X15853357Y-13627500D01*
X15881928Y-13613214D01*
X15924786Y-13613214D01*
X15953357Y-13627500D01*
X15967643Y-13641786D01*
X15981928Y-13670357D01*
X15981928Y-13756071D01*
X15967643Y-13784643D01*
X15953357Y-13798929D01*
X15924786Y-13813214D01*
X15881928Y-13813214D01*
X16153357Y-13813214D02*
X16124786Y-13798929D01*
X16110500Y-13770357D01*
X16110500Y-13513214D01*
X16381928Y-13798929D02*
X16353357Y-13813214D01*
X16296214Y-13813214D01*
X16267643Y-13798929D01*
X16253357Y-13770357D01*
X16253357Y-13656071D01*
X16267643Y-13627500D01*
X16296214Y-13613214D01*
X16353357Y-13613214D01*
X16381928Y-13627500D01*
X16396214Y-13656071D01*
X16396214Y-13684643D01*
X16253357Y-13713214D01*
X16510500Y-13798929D02*
X16539071Y-13813214D01*
X16596214Y-13813214D01*
X16624786Y-13798929D01*
X16639071Y-13770357D01*
X16639071Y-13756071D01*
X16624786Y-13727500D01*
X16596214Y-13713214D01*
X16553357Y-13713214D01*
X16524786Y-13698929D01*
X16510500Y-13670357D01*
X16510500Y-13656071D01*
X16524786Y-13627500D01*
X16553357Y-13613214D01*
X16596214Y-13613214D01*
X16624786Y-13627500D01*
X16739071Y-13927500D02*
X16753357Y-13913214D01*
X16781928Y-13870357D01*
X16796214Y-13841786D01*
X16810500Y-13798929D01*
X16824786Y-13727500D01*
X16824786Y-13670357D01*
X16810500Y-13598929D01*
X16796214Y-13556071D01*
X16781928Y-13527500D01*
X16753357Y-13484643D01*
X16739071Y-13470357D01*
X9345500Y-14023500D02*
X9345500Y-14123500D01*
X9295500Y-14073500D02*
X9395500Y-14073500D01*
X9839071Y-14209214D02*
X9667643Y-14209214D01*
X9753357Y-14209214D02*
X9753357Y-13909214D01*
X9724786Y-13952071D01*
X9696214Y-13980643D01*
X9667643Y-13994929D01*
X9967643Y-14180643D02*
X9981928Y-14194929D01*
X9967643Y-14209214D01*
X9953357Y-14194929D01*
X9967643Y-14180643D01*
X9967643Y-14209214D01*
X10167643Y-13909214D02*
X10196214Y-13909214D01*
X10224786Y-13923500D01*
X10239071Y-13937786D01*
X10253357Y-13966357D01*
X10267643Y-14023500D01*
X10267643Y-14094929D01*
X10253357Y-14152071D01*
X10239071Y-14180643D01*
X10224786Y-14194929D01*
X10196214Y-14209214D01*
X10167643Y-14209214D01*
X10139071Y-14194929D01*
X10124786Y-14180643D01*
X10110500Y-14152071D01*
X10096214Y-14094929D01*
X10096214Y-14023500D01*
X10110500Y-13966357D01*
X10124786Y-13937786D01*
X10139071Y-13923500D01*
X10167643Y-13909214D01*
X10453357Y-13909214D02*
X10481928Y-13909214D01*
X10510500Y-13923500D01*
X10524786Y-13937786D01*
X10539071Y-13966357D01*
X10553357Y-14023500D01*
X10553357Y-14094929D01*
X10539071Y-14152071D01*
X10524786Y-14180643D01*
X10510500Y-14194929D01*
X10481928Y-14209214D01*
X10453357Y-14209214D01*
X10424786Y-14194929D01*
X10410500Y-14180643D01*
X10396214Y-14152071D01*
X10381928Y-14094929D01*
X10381928Y-14023500D01*
X10396214Y-13966357D01*
X10410500Y-13937786D01*
X10424786Y-13923500D01*
X10453357Y-13909214D01*
X10739071Y-13909214D02*
X10767643Y-13909214D01*
X10796214Y-13923500D01*
X10810500Y-13937786D01*
X10824786Y-13966357D01*
X10839071Y-14023500D01*
X10839071Y-14094929D01*
X10824786Y-14152071D01*
X10810500Y-14180643D01*
X10796214Y-14194929D01*
X10767643Y-14209214D01*
X10739071Y-14209214D01*
X10710500Y-14194929D01*
X10696214Y-14180643D01*
X10681928Y-14152071D01*
X10667643Y-14094929D01*
X10667643Y-14023500D01*
X10681928Y-13966357D01*
X10696214Y-13937786D01*
X10710500Y-13923500D01*
X10739071Y-13909214D01*
X10967643Y-14209214D02*
X10967643Y-14009214D01*
X10967643Y-14037786D02*
X10981928Y-14023500D01*
X11010500Y-14009214D01*
X11053357Y-14009214D01*
X11081928Y-14023500D01*
X11096214Y-14052071D01*
X11096214Y-14209214D01*
X11096214Y-14052071D02*
X11110500Y-14023500D01*
X11139071Y-14009214D01*
X11181928Y-14009214D01*
X11210500Y-14023500D01*
X11224786Y-14052071D01*
X11224786Y-14209214D01*
X11367643Y-14209214D02*
X11367643Y-14009214D01*
X11367643Y-14037786D02*
X11381928Y-14023500D01*
X11410500Y-14009214D01*
X11453357Y-14009214D01*
X11481928Y-14023500D01*
X11496214Y-14052071D01*
X11496214Y-14209214D01*
X11496214Y-14052071D02*
X11510500Y-14023500D01*
X11539071Y-14009214D01*
X11581928Y-14009214D01*
X11610500Y-14023500D01*
X11624786Y-14052071D01*
X11624786Y-14209214D01*
X12210500Y-13894929D02*
X11953357Y-14280643D01*
X12596214Y-13909214D02*
X12624786Y-13909214D01*
X12653357Y-13923500D01*
X12667643Y-13937786D01*
X12681928Y-13966357D01*
X12696214Y-14023500D01*
X12696214Y-14094929D01*
X12681928Y-14152071D01*
X12667643Y-14180643D01*
X12653357Y-14194929D01*
X12624786Y-14209214D01*
X12596214Y-14209214D01*
X12567643Y-14194929D01*
X12553357Y-14180643D01*
X12539071Y-14152071D01*
X12524786Y-14094929D01*
X12524786Y-14023500D01*
X12539071Y-13966357D01*
X12553357Y-13937786D01*
X12567643Y-13923500D01*
X12596214Y-13909214D01*
X12824786Y-14180643D02*
X12839071Y-14194929D01*
X12824786Y-14209214D01*
X12810500Y-14194929D01*
X12824786Y-14180643D01*
X12824786Y-14209214D01*
X13024786Y-13909214D02*
X13053357Y-13909214D01*
X13081928Y-13923500D01*
X13096214Y-13937786D01*
X13110500Y-13966357D01*
X13124786Y-14023500D01*
X13124786Y-14094929D01*
X13110500Y-14152071D01*
X13096214Y-14180643D01*
X13081928Y-14194929D01*
X13053357Y-14209214D01*
X13024786Y-14209214D01*
X12996214Y-14194929D01*
X12981928Y-14180643D01*
X12967643Y-14152071D01*
X12953357Y-14094929D01*
X12953357Y-14023500D01*
X12967643Y-13966357D01*
X12981928Y-13937786D01*
X12996214Y-13923500D01*
X13024786Y-13909214D01*
X13224786Y-13909214D02*
X13410500Y-13909214D01*
X13310500Y-14023500D01*
X13353357Y-14023500D01*
X13381928Y-14037786D01*
X13396214Y-14052071D01*
X13410500Y-14080643D01*
X13410500Y-14152071D01*
X13396214Y-14180643D01*
X13381928Y-14194929D01*
X13353357Y-14209214D01*
X13267643Y-14209214D01*
X13239071Y-14194929D01*
X13224786Y-14180643D01*
X13553357Y-14209214D02*
X13610500Y-14209214D01*
X13639071Y-14194929D01*
X13653357Y-14180643D01*
X13681928Y-14137786D01*
X13696214Y-14080643D01*
X13696214Y-13966357D01*
X13681928Y-13937786D01*
X13667643Y-13923500D01*
X13639071Y-13909214D01*
X13581928Y-13909214D01*
X13553357Y-13923500D01*
X13539071Y-13937786D01*
X13524786Y-13966357D01*
X13524786Y-14037786D01*
X13539071Y-14066357D01*
X13553357Y-14080643D01*
X13581928Y-14094929D01*
X13639071Y-14094929D01*
X13667643Y-14080643D01*
X13681928Y-14066357D01*
X13696214Y-14037786D01*
X13953357Y-14009214D02*
X13953357Y-14209214D01*
X13881928Y-13894929D02*
X13810500Y-14109214D01*
X13996214Y-14109214D01*
X14096214Y-13909214D02*
X14096214Y-13966357D01*
X14210500Y-13909214D02*
X14210500Y-13966357D01*
X14653357Y-14323500D02*
X14639071Y-14309214D01*
X14610500Y-14266357D01*
X14596214Y-14237786D01*
X14581928Y-14194929D01*
X14567643Y-14123500D01*
X14567643Y-14066357D01*
X14581928Y-13994929D01*
X14596214Y-13952071D01*
X14610500Y-13923500D01*
X14639071Y-13880643D01*
X14653357Y-13866357D01*
X14910500Y-13909214D02*
X14767643Y-13909214D01*
X14753357Y-14052071D01*
X14767643Y-14037786D01*
X14796214Y-14023500D01*
X14867643Y-14023500D01*
X14896214Y-14037786D01*
X14910500Y-14052071D01*
X14924786Y-14080643D01*
X14924786Y-14152071D01*
X14910500Y-14180643D01*
X14896214Y-14194929D01*
X14867643Y-14209214D01*
X14796214Y-14209214D01*
X14767643Y-14194929D01*
X14753357Y-14180643D01*
X15181928Y-13909214D02*
X15124786Y-13909214D01*
X15096214Y-13923500D01*
X15081928Y-13937786D01*
X15053357Y-13980643D01*
X15039071Y-14037786D01*
X15039071Y-14152071D01*
X15053357Y-14180643D01*
X15067643Y-14194929D01*
X15096214Y-14209214D01*
X15153357Y-14209214D01*
X15181928Y-14194929D01*
X15196214Y-14180643D01*
X15210500Y-14152071D01*
X15210500Y-14080643D01*
X15196214Y-14052071D01*
X15181928Y-14037786D01*
X15153357Y-14023500D01*
X15096214Y-14023500D01*
X15067643Y-14037786D01*
X15053357Y-14052071D01*
X15039071Y-14080643D01*
X15567643Y-14209214D02*
X15567643Y-13909214D01*
X15696214Y-14209214D02*
X15696214Y-14052071D01*
X15681928Y-14023500D01*
X15653357Y-14009214D01*
X15610500Y-14009214D01*
X15581928Y-14023500D01*
X15567643Y-14037786D01*
X15881928Y-14209214D02*
X15853357Y-14194929D01*
X15839071Y-14180643D01*
X15824786Y-14152071D01*
X15824786Y-14066357D01*
X15839071Y-14037786D01*
X15853357Y-14023500D01*
X15881928Y-14009214D01*
X15924786Y-14009214D01*
X15953357Y-14023500D01*
X15967643Y-14037786D01*
X15981928Y-14066357D01*
X15981928Y-14152071D01*
X15967643Y-14180643D01*
X15953357Y-14194929D01*
X15924786Y-14209214D01*
X15881928Y-14209214D01*
X16153357Y-14209214D02*
X16124786Y-14194929D01*
X16110500Y-14166357D01*
X16110500Y-13909214D01*
X16381928Y-14194929D02*
X16353357Y-14209214D01*
X16296214Y-14209214D01*
X16267643Y-14194929D01*
X16253357Y-14166357D01*
X16253357Y-14052071D01*
X16267643Y-14023500D01*
X16296214Y-14009214D01*
X16353357Y-14009214D01*
X16381928Y-14023500D01*
X16396214Y-14052071D01*
X16396214Y-14080643D01*
X16253357Y-14109214D01*
X16510500Y-14194929D02*
X16539071Y-14209214D01*
X16596214Y-14209214D01*
X16624786Y-14194929D01*
X16639071Y-14166357D01*
X16639071Y-14152071D01*
X16624786Y-14123500D01*
X16596214Y-14109214D01*
X16553357Y-14109214D01*
X16524786Y-14094929D01*
X16510500Y-14066357D01*
X16510500Y-14052071D01*
X16524786Y-14023500D01*
X16553357Y-14009214D01*
X16596214Y-14009214D01*
X16624786Y-14023500D01*
X16739071Y-14323500D02*
X16753357Y-14309214D01*
X16781928Y-14266357D01*
X16796214Y-14237786D01*
X16810500Y-14194929D01*
X16824786Y-14123500D01*
X16824786Y-14066357D01*
X16810500Y-13994929D01*
X16796214Y-13952071D01*
X16781928Y-13923500D01*
X16753357Y-13880643D01*
X16739071Y-13866357D01*
X9379391Y-14508391D02*
X9379391Y-14430609D01*
X9301609Y-14430609D01*
X9301609Y-14508391D01*
X9379391Y-14508391D01*
X9839071Y-14605214D02*
X9667643Y-14605214D01*
X9753357Y-14605214D02*
X9753357Y-14305214D01*
X9724786Y-14348071D01*
X9696214Y-14376643D01*
X9667643Y-14390929D01*
X9967643Y-14576643D02*
X9981928Y-14590929D01*
X9967643Y-14605214D01*
X9953357Y-14590929D01*
X9967643Y-14576643D01*
X9967643Y-14605214D01*
X10267643Y-14605214D02*
X10096214Y-14605214D01*
X10181928Y-14605214D02*
X10181928Y-14305214D01*
X10153357Y-14348071D01*
X10124786Y-14376643D01*
X10096214Y-14390929D01*
X10453357Y-14305214D02*
X10481928Y-14305214D01*
X10510500Y-14319500D01*
X10524786Y-14333786D01*
X10539071Y-14362357D01*
X10553357Y-14419500D01*
X10553357Y-14490929D01*
X10539071Y-14548071D01*
X10524786Y-14576643D01*
X10510500Y-14590929D01*
X10481928Y-14605214D01*
X10453357Y-14605214D01*
X10424786Y-14590929D01*
X10410500Y-14576643D01*
X10396214Y-14548071D01*
X10381928Y-14490929D01*
X10381928Y-14419500D01*
X10396214Y-14362357D01*
X10410500Y-14333786D01*
X10424786Y-14319500D01*
X10453357Y-14305214D01*
X10739071Y-14305214D02*
X10767643Y-14305214D01*
X10796214Y-14319500D01*
X10810500Y-14333786D01*
X10824786Y-14362357D01*
X10839071Y-14419500D01*
X10839071Y-14490929D01*
X10824786Y-14548071D01*
X10810500Y-14576643D01*
X10796214Y-14590929D01*
X10767643Y-14605214D01*
X10739071Y-14605214D01*
X10710500Y-14590929D01*
X10696214Y-14576643D01*
X10681928Y-14548071D01*
X10667643Y-14490929D01*
X10667643Y-14419500D01*
X10681928Y-14362357D01*
X10696214Y-14333786D01*
X10710500Y-14319500D01*
X10739071Y-14305214D01*
X10967643Y-14605214D02*
X10967643Y-14405214D01*
X10967643Y-14433786D02*
X10981928Y-14419500D01*
X11010500Y-14405214D01*
X11053357Y-14405214D01*
X11081928Y-14419500D01*
X11096214Y-14448071D01*
X11096214Y-14605214D01*
X11096214Y-14448071D02*
X11110500Y-14419500D01*
X11139071Y-14405214D01*
X11181928Y-14405214D01*
X11210500Y-14419500D01*
X11224786Y-14448071D01*
X11224786Y-14605214D01*
X11367643Y-14605214D02*
X11367643Y-14405214D01*
X11367643Y-14433786D02*
X11381928Y-14419500D01*
X11410500Y-14405214D01*
X11453357Y-14405214D01*
X11481928Y-14419500D01*
X11496214Y-14448071D01*
X11496214Y-14605214D01*
X11496214Y-14448071D02*
X11510500Y-14419500D01*
X11539071Y-14405214D01*
X11581928Y-14405214D01*
X11610500Y-14419500D01*
X11624786Y-14448071D01*
X11624786Y-14605214D01*
X12210500Y-14290929D02*
X11953357Y-14676643D01*
X12596214Y-14305214D02*
X12624786Y-14305214D01*
X12653357Y-14319500D01*
X12667643Y-14333786D01*
X12681928Y-14362357D01*
X12696214Y-14419500D01*
X12696214Y-14490929D01*
X12681928Y-14548071D01*
X12667643Y-14576643D01*
X12653357Y-14590929D01*
X12624786Y-14605214D01*
X12596214Y-14605214D01*
X12567643Y-14590929D01*
X12553357Y-14576643D01*
X12539071Y-14548071D01*
X12524786Y-14490929D01*
X12524786Y-14419500D01*
X12539071Y-14362357D01*
X12553357Y-14333786D01*
X12567643Y-14319500D01*
X12596214Y-14305214D01*
X12824786Y-14576643D02*
X12839071Y-14590929D01*
X12824786Y-14605214D01*
X12810500Y-14590929D01*
X12824786Y-14576643D01*
X12824786Y-14605214D01*
X13024786Y-14305214D02*
X13053357Y-14305214D01*
X13081928Y-14319500D01*
X13096214Y-14333786D01*
X13110500Y-14362357D01*
X13124786Y-14419500D01*
X13124786Y-14490929D01*
X13110500Y-14548071D01*
X13096214Y-14576643D01*
X13081928Y-14590929D01*
X13053357Y-14605214D01*
X13024786Y-14605214D01*
X12996214Y-14590929D01*
X12981928Y-14576643D01*
X12967643Y-14548071D01*
X12953357Y-14490929D01*
X12953357Y-14419500D01*
X12967643Y-14362357D01*
X12981928Y-14333786D01*
X12996214Y-14319500D01*
X13024786Y-14305214D01*
X13381928Y-14405214D02*
X13381928Y-14605214D01*
X13310500Y-14290929D02*
X13239071Y-14505214D01*
X13424786Y-14505214D01*
X13510500Y-14305214D02*
X13696214Y-14305214D01*
X13596214Y-14419500D01*
X13639071Y-14419500D01*
X13667643Y-14433786D01*
X13681928Y-14448071D01*
X13696214Y-14476643D01*
X13696214Y-14548071D01*
X13681928Y-14576643D01*
X13667643Y-14590929D01*
X13639071Y-14605214D01*
X13553357Y-14605214D01*
X13524786Y-14590929D01*
X13510500Y-14576643D01*
X13796214Y-14305214D02*
X13981928Y-14305214D01*
X13881928Y-14419500D01*
X13924786Y-14419500D01*
X13953357Y-14433786D01*
X13967643Y-14448071D01*
X13981928Y-14476643D01*
X13981928Y-14548071D01*
X13967643Y-14576643D01*
X13953357Y-14590929D01*
X13924786Y-14605214D01*
X13839071Y-14605214D01*
X13810500Y-14590929D01*
X13796214Y-14576643D01*
X14096214Y-14305214D02*
X14096214Y-14362357D01*
X14210500Y-14305214D02*
X14210500Y-14362357D01*
X14653357Y-14719500D02*
X14639071Y-14705214D01*
X14610500Y-14662357D01*
X14596214Y-14633786D01*
X14581928Y-14590929D01*
X14567643Y-14519500D01*
X14567643Y-14462357D01*
X14581928Y-14390929D01*
X14596214Y-14348071D01*
X14610500Y-14319500D01*
X14639071Y-14276643D01*
X14653357Y-14262357D01*
X14924786Y-14605214D02*
X14753357Y-14605214D01*
X14839071Y-14605214D02*
X14839071Y-14305214D01*
X14810500Y-14348071D01*
X14781928Y-14376643D01*
X14753357Y-14390929D01*
X15181928Y-14405214D02*
X15181928Y-14605214D01*
X15110500Y-14290929D02*
X15039071Y-14505214D01*
X15224786Y-14505214D01*
X15567643Y-14605214D02*
X15567643Y-14305214D01*
X15696214Y-14605214D02*
X15696214Y-14448071D01*
X15681928Y-14419500D01*
X15653357Y-14405214D01*
X15610500Y-14405214D01*
X15581928Y-14419500D01*
X15567643Y-14433786D01*
X15881928Y-14605214D02*
X15853357Y-14590929D01*
X15839071Y-14576643D01*
X15824786Y-14548071D01*
X15824786Y-14462357D01*
X15839071Y-14433786D01*
X15853357Y-14419500D01*
X15881928Y-14405214D01*
X15924786Y-14405214D01*
X15953357Y-14419500D01*
X15967643Y-14433786D01*
X15981928Y-14462357D01*
X15981928Y-14548071D01*
X15967643Y-14576643D01*
X15953357Y-14590929D01*
X15924786Y-14605214D01*
X15881928Y-14605214D01*
X16153357Y-14605214D02*
X16124786Y-14590929D01*
X16110500Y-14562357D01*
X16110500Y-14305214D01*
X16381928Y-14590929D02*
X16353357Y-14605214D01*
X16296214Y-14605214D01*
X16267643Y-14590929D01*
X16253357Y-14562357D01*
X16253357Y-14448071D01*
X16267643Y-14419500D01*
X16296214Y-14405214D01*
X16353357Y-14405214D01*
X16381928Y-14419500D01*
X16396214Y-14448071D01*
X16396214Y-14476643D01*
X16253357Y-14505214D01*
X16510500Y-14590929D02*
X16539071Y-14605214D01*
X16596214Y-14605214D01*
X16624786Y-14590929D01*
X16639071Y-14562357D01*
X16639071Y-14548071D01*
X16624786Y-14519500D01*
X16596214Y-14505214D01*
X16553357Y-14505214D01*
X16524786Y-14490929D01*
X16510500Y-14462357D01*
X16510500Y-14448071D01*
X16524786Y-14419500D01*
X16553357Y-14405214D01*
X16596214Y-14405214D01*
X16624786Y-14419500D01*
X16739071Y-14719500D02*
X16753357Y-14705214D01*
X16781928Y-14662357D01*
X16796214Y-14633786D01*
X16810500Y-14590929D01*
X16824786Y-14519500D01*
X16824786Y-14462357D01*
X16810500Y-14390929D01*
X16796214Y-14348071D01*
X16781928Y-14319500D01*
X16753357Y-14276643D01*
X16739071Y-14262357D01*
M02*
