G04 #@! TF.GenerationSoftware,KiCad,Pcbnew,(5.1.10)-1*
G04 #@! TF.CreationDate,2021-06-12T21:42:46+02:00*
G04 #@! TF.ProjectId,EspressoV1,45737072-6573-4736-9f56-312e6b696361,rev?*
G04 #@! TF.SameCoordinates,Original*
G04 #@! TF.FileFunction,Legend,Bot*
G04 #@! TF.FilePolarity,Positive*
%FSLAX46Y46*%
G04 Gerber Fmt 4.6, Leading zero omitted, Abs format (unit mm)*
G04 Created by KiCad (PCBNEW (5.1.10)-1) date 2021-06-12 21:42:46*
%MOMM*%
%LPD*%
G01*
G04 APERTURE LIST*
%ADD10C,0.300000*%
%ADD11C,3.200000*%
%ADD12C,1.100000*%
%ADD13R,2.200000X2.200000*%
%ADD14C,2.200000*%
%ADD15O,1.600000X1.600000*%
%ADD16C,1.600000*%
%ADD17O,1.700000X1.700000*%
%ADD18R,1.700000X1.700000*%
%ADD19C,1.700000*%
%ADD20C,2.000000*%
G04 APERTURE END LIST*
D10*
X175838571Y-118558571D02*
X175838571Y-119630000D01*
X175910000Y-119844285D01*
X176052857Y-119987142D01*
X176267142Y-120058571D01*
X176410000Y-120058571D01*
X174410000Y-120058571D02*
X175124285Y-120058571D01*
X175124285Y-118558571D01*
X173052857Y-119915714D02*
X173124285Y-119987142D01*
X173338571Y-120058571D01*
X173481428Y-120058571D01*
X173695714Y-119987142D01*
X173838571Y-119844285D01*
X173910000Y-119701428D01*
X173981428Y-119415714D01*
X173981428Y-119201428D01*
X173910000Y-118915714D01*
X173838571Y-118772857D01*
X173695714Y-118630000D01*
X173481428Y-118558571D01*
X173338571Y-118558571D01*
X173124285Y-118630000D01*
X173052857Y-118701428D01*
X171981428Y-118558571D02*
X171981428Y-119630000D01*
X172052857Y-119844285D01*
X172195714Y-119987142D01*
X172410000Y-120058571D01*
X172552857Y-120058571D01*
X170552857Y-120058571D02*
X171267142Y-120058571D01*
X171267142Y-118558571D01*
X169195714Y-119915714D02*
X169267142Y-119987142D01*
X169481428Y-120058571D01*
X169624285Y-120058571D01*
X169838571Y-119987142D01*
X169981428Y-119844285D01*
X170052857Y-119701428D01*
X170124285Y-119415714D01*
X170124285Y-119201428D01*
X170052857Y-118915714D01*
X169981428Y-118772857D01*
X169838571Y-118630000D01*
X169624285Y-118558571D01*
X169481428Y-118558571D01*
X169267142Y-118630000D01*
X169195714Y-118701428D01*
X168124285Y-118558571D02*
X168124285Y-119630000D01*
X168195714Y-119844285D01*
X168338571Y-119987142D01*
X168552857Y-120058571D01*
X168695714Y-120058571D01*
X166695714Y-120058571D02*
X167410000Y-120058571D01*
X167410000Y-118558571D01*
X165338571Y-119915714D02*
X165410000Y-119987142D01*
X165624285Y-120058571D01*
X165767142Y-120058571D01*
X165981428Y-119987142D01*
X166124285Y-119844285D01*
X166195714Y-119701428D01*
X166267142Y-119415714D01*
X166267142Y-119201428D01*
X166195714Y-118915714D01*
X166124285Y-118772857D01*
X165981428Y-118630000D01*
X165767142Y-118558571D01*
X165624285Y-118558571D01*
X165410000Y-118630000D01*
X165338571Y-118701428D01*
X164267142Y-118558571D02*
X164267142Y-119630000D01*
X164338571Y-119844285D01*
X164481428Y-119987142D01*
X164695714Y-120058571D01*
X164838571Y-120058571D01*
X162838571Y-120058571D02*
X163552857Y-120058571D01*
X163552857Y-118558571D01*
X161481428Y-119915714D02*
X161552857Y-119987142D01*
X161767142Y-120058571D01*
X161910000Y-120058571D01*
X162124285Y-119987142D01*
X162267142Y-119844285D01*
X162338571Y-119701428D01*
X162410000Y-119415714D01*
X162410000Y-119201428D01*
X162338571Y-118915714D01*
X162267142Y-118772857D01*
X162124285Y-118630000D01*
X161910000Y-118558571D01*
X161767142Y-118558571D01*
X161552857Y-118630000D01*
X161481428Y-118701428D01*
%LPC*%
D11*
G04 #@! TO.C,UR*
X182880000Y-119380000D03*
G04 #@! TD*
G04 #@! TO.C,UL*
X97790000Y-119380000D03*
G04 #@! TD*
G04 #@! TO.C,OL*
X97790000Y-54610000D03*
G04 #@! TD*
G04 #@! TO.C,OR*
X182880000Y-54610000D03*
G04 #@! TD*
D12*
G04 #@! TO.C,SSR1*
X176530000Y-74930000D03*
D13*
X173990000Y-74930000D03*
D12*
X176530000Y-77470000D03*
D14*
X173990000Y-77470000D03*
G04 #@! TD*
D12*
G04 #@! TO.C,SENS4*
X173990000Y-60960000D03*
D13*
X173990000Y-63500000D03*
D12*
X176530000Y-60960000D03*
D14*
X176530000Y-63500000D03*
G04 #@! TD*
D12*
G04 #@! TO.C,SENS3*
X163830000Y-60960000D03*
D13*
X163830000Y-63500000D03*
D12*
X166370000Y-60960000D03*
D14*
X166370000Y-63500000D03*
G04 #@! TD*
D12*
G04 #@! TO.C,SENS2*
X153670000Y-60960000D03*
D14*
X153670000Y-63500000D03*
D12*
X156210000Y-60960000D03*
G36*
G01*
X157310000Y-62950000D02*
X157310000Y-64050000D01*
G75*
G02*
X156760000Y-64600000I-550000J0D01*
G01*
X155660000Y-64600000D01*
G75*
G02*
X155110000Y-64050000I0J550000D01*
G01*
X155110000Y-62950000D01*
G75*
G02*
X155660000Y-62400000I550000J0D01*
G01*
X156760000Y-62400000D01*
G75*
G02*
X157310000Y-62950000I0J-550000D01*
G01*
G37*
G04 #@! TD*
G04 #@! TO.C,SENS1*
X143510000Y-60960000D03*
D14*
X143510000Y-63500000D03*
D12*
X146050000Y-60960000D03*
G36*
G01*
X147150000Y-62950000D02*
X147150000Y-64050000D01*
G75*
G02*
X146600000Y-64600000I-550000J0D01*
G01*
X145500000Y-64600000D01*
G75*
G02*
X144950000Y-64050000I0J550000D01*
G01*
X144950000Y-62950000D01*
G75*
G02*
X145500000Y-62400000I550000J0D01*
G01*
X146600000Y-62400000D01*
G75*
G02*
X147150000Y-62950000I0J-550000D01*
G01*
G37*
G04 #@! TD*
D15*
G04 #@! TO.C,R3-4*
X124460000Y-100330000D03*
D16*
X114300000Y-100330000D03*
G04 #@! TD*
D15*
G04 #@! TO.C,R3-2*
X124460000Y-105410000D03*
D16*
X114300000Y-105410000D03*
G04 #@! TD*
D15*
G04 #@! TO.C,R3-1*
X114300000Y-110490000D03*
D16*
X124460000Y-110490000D03*
G04 #@! TD*
D15*
G04 #@! TO.C,R2-4*
X124460000Y-80010000D03*
D16*
X114300000Y-80010000D03*
G04 #@! TD*
D15*
G04 #@! TO.C,R2-2*
X124460000Y-85090000D03*
D16*
X114300000Y-85090000D03*
G04 #@! TD*
D15*
G04 #@! TO.C,R2-1*
X114300000Y-90170000D03*
D16*
X124460000Y-90170000D03*
G04 #@! TD*
D12*
G04 #@! TO.C,PSU1*
X177800000Y-105410000D03*
D13*
X175260000Y-105410000D03*
D12*
X177800000Y-107950000D03*
G36*
G01*
X175810000Y-109050000D02*
X174710000Y-109050000D01*
G75*
G02*
X174160000Y-108500000I0J550000D01*
G01*
X174160000Y-107400000D01*
G75*
G02*
X174710000Y-106850000I550000J0D01*
G01*
X175810000Y-106850000D01*
G75*
G02*
X176360000Y-107400000I0J-550000D01*
G01*
X176360000Y-108500000D01*
G75*
G02*
X175810000Y-109050000I-550000J0D01*
G01*
G37*
G04 #@! TD*
G04 #@! TO.C,J1*
G36*
G01*
X173140000Y-98215000D02*
X173140000Y-97365000D01*
G75*
G02*
X173565000Y-96940000I425000J0D01*
G01*
X174415000Y-96940000D01*
G75*
G02*
X174840000Y-97365000I0J-425000D01*
G01*
X174840000Y-98215000D01*
G75*
G02*
X174415000Y-98640000I-425000J0D01*
G01*
X173565000Y-98640000D01*
G75*
G02*
X173140000Y-98215000I0J425000D01*
G01*
G37*
D17*
X173990000Y-95250000D03*
X173990000Y-92710000D03*
X173990000Y-90170000D03*
X173990000Y-87630000D03*
D18*
X173990000Y-85090000D03*
G04 #@! TD*
D17*
G04 #@! TO.C,ESP321*
X156765000Y-97075000D03*
X156765000Y-99615000D03*
X156765000Y-89455000D03*
X156765000Y-102155000D03*
X156765000Y-94535000D03*
X156765000Y-84375000D03*
X156765000Y-107235000D03*
D18*
X156765000Y-104695000D03*
G36*
G01*
X155915000Y-110200000D02*
X155915000Y-109350000D01*
G75*
G02*
X156340000Y-108925000I425000J0D01*
G01*
X157190000Y-108925000D01*
G75*
G02*
X157615000Y-109350000I0J-425000D01*
G01*
X157615000Y-110200000D01*
G75*
G02*
X157190000Y-110625000I-425000J0D01*
G01*
X156340000Y-110625000D01*
G75*
G02*
X155915000Y-110200000I0J425000D01*
G01*
G37*
D19*
X156765000Y-74215000D03*
D17*
X156765000Y-86915000D03*
X156765000Y-79295000D03*
X156765000Y-91995000D03*
X156765000Y-76755000D03*
X156765000Y-81835000D03*
X156765000Y-112315000D03*
X136445000Y-91995000D03*
X136445000Y-76755000D03*
X136445000Y-94535000D03*
X136445000Y-102155000D03*
X136445000Y-86915000D03*
X136445000Y-79295000D03*
G36*
G01*
X135595000Y-97500000D02*
X135595000Y-96650000D01*
G75*
G02*
X136020000Y-96225000I425000J0D01*
G01*
X136870000Y-96225000D01*
G75*
G02*
X137295000Y-96650000I0J-425000D01*
G01*
X137295000Y-97500000D01*
G75*
G02*
X136870000Y-97925000I-425000J0D01*
G01*
X136020000Y-97925000D01*
G75*
G02*
X135595000Y-97500000I0J425000D01*
G01*
G37*
X136445000Y-99615000D03*
X136445000Y-89455000D03*
X136445000Y-81835000D03*
X136445000Y-74215000D03*
X136445000Y-84375000D03*
G04 #@! TD*
D18*
G04 #@! TO.C,0x48*
X106680000Y-62230000D03*
G36*
G01*
X105830000Y-60115000D02*
X105830000Y-59265000D01*
G75*
G02*
X106255000Y-58840000I425000J0D01*
G01*
X107105000Y-58840000D01*
G75*
G02*
X107530000Y-59265000I0J-425000D01*
G01*
X107530000Y-60115000D01*
G75*
G02*
X107105000Y-60540000I-425000J0D01*
G01*
X106255000Y-60540000D01*
G75*
G02*
X105830000Y-60115000I0J425000D01*
G01*
G37*
D17*
X106680000Y-69850000D03*
X106680000Y-77470000D03*
X106680000Y-67310000D03*
X106680000Y-82550000D03*
X106680000Y-64770000D03*
X106680000Y-72390000D03*
X106680000Y-74930000D03*
X106680000Y-80010000D03*
G04 #@! TD*
D18*
G04 #@! TO.C,0x49*
X106680000Y-93980000D03*
G36*
G01*
X105830000Y-91865000D02*
X105830000Y-91015000D01*
G75*
G02*
X106255000Y-90590000I425000J0D01*
G01*
X107105000Y-90590000D01*
G75*
G02*
X107530000Y-91015000I0J-425000D01*
G01*
X107530000Y-91865000D01*
G75*
G02*
X107105000Y-92290000I-425000J0D01*
G01*
X106255000Y-92290000D01*
G75*
G02*
X105830000Y-91865000I0J425000D01*
G01*
G37*
D17*
X106680000Y-101600000D03*
X106680000Y-109220000D03*
X106680000Y-99060000D03*
X106680000Y-114300000D03*
X106680000Y-96520000D03*
X106680000Y-104140000D03*
X106680000Y-106680000D03*
X106680000Y-111760000D03*
G04 #@! TD*
D15*
G04 #@! TO.C,R3*
X149860000Y-90170000D03*
D16*
X149860000Y-100330000D03*
G04 #@! TD*
D15*
G04 #@! TO.C,R7*
X143510000Y-74930000D03*
D16*
X143510000Y-85090000D03*
G04 #@! TD*
D15*
G04 #@! TO.C,R5*
X149860000Y-74930000D03*
D16*
X149860000Y-85090000D03*
G04 #@! TD*
D15*
G04 #@! TO.C,R6*
X143510000Y-90170000D03*
D16*
X143510000Y-100330000D03*
G04 #@! TD*
D20*
G04 #@! TO.C,C1*
X142240000Y-111760000D03*
X152240000Y-111760000D03*
G04 #@! TD*
D15*
G04 #@! TO.C,R4*
X114300000Y-59690000D03*
D16*
X124460000Y-59690000D03*
G04 #@! TD*
D15*
G04 #@! TO.C,R2*
X114300000Y-64770000D03*
D16*
X124460000Y-64770000D03*
G04 #@! TD*
D15*
G04 #@! TO.C,R1*
X124460000Y-69850000D03*
D16*
X114300000Y-69850000D03*
G04 #@! TD*
D12*
G04 #@! TO.C,PT1000*
X133350000Y-60960000D03*
D14*
X133350000Y-63500000D03*
D12*
X135890000Y-60960000D03*
G36*
G01*
X136990000Y-62950000D02*
X136990000Y-64050000D01*
G75*
G02*
X136440000Y-64600000I-550000J0D01*
G01*
X135340000Y-64600000D01*
G75*
G02*
X134790000Y-64050000I0J550000D01*
G01*
X134790000Y-62950000D01*
G75*
G02*
X135340000Y-62400000I550000J0D01*
G01*
X136440000Y-62400000D01*
G75*
G02*
X136990000Y-62950000I0J-550000D01*
G01*
G37*
G04 #@! TD*
M02*
