G04 #@! TF.GenerationSoftware,KiCad,Pcbnew,6.0.11+dfsg-1*
G04 #@! TF.CreationDate,2023-06-04T21:15:00+02:00*
G04 #@! TF.ProjectId,EspressoV1,45737072-6573-4736-9f56-312e6b696361,rev?*
G04 #@! TF.SameCoordinates,Original*
G04 #@! TF.FileFunction,Soldermask,Bot*
G04 #@! TF.FilePolarity,Negative*
%FSLAX46Y46*%
G04 Gerber Fmt 4.6, Leading zero omitted, Abs format (unit mm)*
G04 Created by KiCad (PCBNEW 6.0.11+dfsg-1) date 2023-06-04 21:15:00*
%MOMM*%
%LPD*%
G01*
G04 APERTURE LIST*
G04 Aperture macros list*
%AMRoundRect*
0 Rectangle with rounded corners*
0 $1 Rounding radius*
0 $2 $3 $4 $5 $6 $7 $8 $9 X,Y pos of 4 corners*
0 Add a 4 corners polygon primitive as box body*
4,1,4,$2,$3,$4,$5,$6,$7,$8,$9,$2,$3,0*
0 Add four circle primitives for the rounded corners*
1,1,$1+$1,$2,$3*
1,1,$1+$1,$4,$5*
1,1,$1+$1,$6,$7*
1,1,$1+$1,$8,$9*
0 Add four rect primitives between the rounded corners*
20,1,$1+$1,$2,$3,$4,$5,0*
20,1,$1+$1,$4,$5,$6,$7,0*
20,1,$1+$1,$6,$7,$8,$9,0*
20,1,$1+$1,$8,$9,$2,$3,0*%
G04 Aperture macros list end*
%ADD10C,2.600000*%
%ADD11RoundRect,0.650000X0.650000X-0.650000X0.650000X0.650000X-0.650000X0.650000X-0.650000X-0.650000X0*%
%ADD12R,2.600000X2.600000*%
%ADD13RoundRect,0.650000X-0.650000X-0.650000X0.650000X-0.650000X0.650000X0.650000X-0.650000X0.650000X0*%
%ADD14C,3.200000*%
%ADD15O,1.600000X1.600000*%
%ADD16C,1.600000*%
%ADD17RoundRect,0.425000X0.425000X0.425000X-0.425000X0.425000X-0.425000X-0.425000X0.425000X-0.425000X0*%
%ADD18O,1.700000X1.700000*%
%ADD19R,1.700000X1.700000*%
%ADD20RoundRect,0.425000X-0.425000X-0.425000X0.425000X-0.425000X0.425000X0.425000X-0.425000X0.425000X0*%
%ADD21C,1.700000*%
%ADD22C,2.000000*%
G04 APERTURE END LIST*
D10*
G04 #@! TO.C,PT1000*
X177800000Y-102870000D03*
D11*
X177800000Y-107950000D03*
G04 #@! TD*
D12*
G04 #@! TO.C,PSU1*
X144780000Y-109220000D03*
D13*
X139700000Y-109220000D03*
G04 #@! TD*
D12*
G04 #@! TO.C,SSR1*
X154940000Y-109220000D03*
D10*
X149860000Y-109220000D03*
G04 #@! TD*
D12*
G04 #@! TO.C,SENS4*
X177800000Y-62230000D03*
D10*
X177800000Y-67310000D03*
G04 #@! TD*
D12*
G04 #@! TO.C,SENS3*
X177800000Y-72390000D03*
D10*
X177800000Y-77470000D03*
G04 #@! TD*
G04 #@! TO.C,SENS2*
X177800000Y-82550000D03*
D11*
X177800000Y-87630000D03*
G04 #@! TD*
D10*
G04 #@! TO.C,SENS1*
X177800000Y-92710000D03*
D11*
X177800000Y-97790000D03*
G04 #@! TD*
D14*
G04 #@! TO.C,UR*
X180340000Y-113030000D03*
G04 #@! TD*
G04 #@! TO.C,UL*
X99060000Y-113030000D03*
G04 #@! TD*
G04 #@! TO.C,OL*
X99060000Y-57150000D03*
G04 #@! TD*
G04 #@! TO.C,OR*
X180340000Y-57150000D03*
G04 #@! TD*
D15*
G04 #@! TO.C,R3-4*
X124460000Y-100330000D03*
D16*
X114300000Y-100330000D03*
G04 #@! TD*
D15*
G04 #@! TO.C,R3-2*
X124460000Y-105410000D03*
D16*
X114300000Y-105410000D03*
G04 #@! TD*
D15*
G04 #@! TO.C,R3-1*
X114300000Y-110490000D03*
D16*
X124460000Y-110490000D03*
G04 #@! TD*
D15*
G04 #@! TO.C,R2-4*
X124460000Y-80010000D03*
D16*
X114300000Y-80010000D03*
G04 #@! TD*
D15*
G04 #@! TO.C,R2-2*
X124460000Y-85090000D03*
D16*
X114300000Y-85090000D03*
G04 #@! TD*
D15*
G04 #@! TO.C,R2-1*
X114300000Y-90170000D03*
D16*
X124460000Y-90170000D03*
G04 #@! TD*
D17*
G04 #@! TO.C,J1*
X130810000Y-97790000D03*
D18*
X130810000Y-100330000D03*
X130810000Y-102870000D03*
X130810000Y-105410000D03*
X130810000Y-107950000D03*
D19*
X130810000Y-110490000D03*
G04 #@! TD*
D18*
G04 #@! TO.C,ESP321*
X156765000Y-83105000D03*
X156765000Y-85645000D03*
X156765000Y-75485000D03*
X156765000Y-88185000D03*
X156765000Y-80565000D03*
X156765000Y-70405000D03*
X156765000Y-93265000D03*
D19*
X156765000Y-90725000D03*
D20*
X156765000Y-95805000D03*
D21*
X156765000Y-60245000D03*
D18*
X156765000Y-72945000D03*
X156765000Y-65325000D03*
X156765000Y-78025000D03*
X156765000Y-62785000D03*
X156765000Y-67865000D03*
X156765000Y-98345000D03*
X136445000Y-78025000D03*
X136445000Y-62785000D03*
X136445000Y-80565000D03*
X136445000Y-88185000D03*
X136445000Y-72945000D03*
X136445000Y-65325000D03*
D20*
X136445000Y-83105000D03*
D18*
X136445000Y-85645000D03*
X136445000Y-75485000D03*
X136445000Y-67865000D03*
X136445000Y-60245000D03*
X136445000Y-70405000D03*
G04 #@! TD*
D19*
G04 #@! TO.C,0x48*
X107950000Y-62230000D03*
D20*
X107950000Y-59690000D03*
D18*
X107950000Y-69850000D03*
X107950000Y-77470000D03*
X107950000Y-67310000D03*
X107950000Y-82550000D03*
X107950000Y-64770000D03*
X107950000Y-72390000D03*
X107950000Y-74930000D03*
X107950000Y-80010000D03*
G04 #@! TD*
D19*
G04 #@! TO.C,0x49*
X107950000Y-93980000D03*
D20*
X107950000Y-91440000D03*
D18*
X107950000Y-101600000D03*
X107950000Y-109220000D03*
X107950000Y-99060000D03*
X107950000Y-114300000D03*
X107950000Y-96520000D03*
X107950000Y-104140000D03*
X107950000Y-106680000D03*
X107950000Y-111760000D03*
G04 #@! TD*
D15*
G04 #@! TO.C,R3*
X149860000Y-76200000D03*
D16*
X149860000Y-86360000D03*
G04 #@! TD*
D15*
G04 #@! TO.C,R7*
X143510000Y-60960000D03*
D16*
X143510000Y-71120000D03*
G04 #@! TD*
D15*
G04 #@! TO.C,R5*
X149860000Y-60960000D03*
D16*
X149860000Y-71120000D03*
G04 #@! TD*
D15*
G04 #@! TO.C,R6*
X143510000Y-76200000D03*
D16*
X143510000Y-86360000D03*
G04 #@! TD*
D22*
G04 #@! TO.C,C1*
X142240000Y-97790000D03*
X152240000Y-97790000D03*
G04 #@! TD*
D15*
G04 #@! TO.C,R4*
X113030000Y-59690000D03*
D16*
X123190000Y-59690000D03*
G04 #@! TD*
D15*
G04 #@! TO.C,R2*
X113030000Y-64770000D03*
D16*
X123190000Y-64770000D03*
G04 #@! TD*
D15*
G04 #@! TO.C,R1*
X123190000Y-69850000D03*
D16*
X113030000Y-69850000D03*
G04 #@! TD*
M02*
