G04 #@! TF.GenerationSoftware,KiCad,Pcbnew,6.0.11+dfsg-1*
G04 #@! TF.CreationDate,2023-06-04T21:15:00+02:00*
G04 #@! TF.ProjectId,EspressoV1,45737072-6573-4736-9f56-312e6b696361,rev?*
G04 #@! TF.SameCoordinates,Original*
G04 #@! TF.FileFunction,Legend,Top*
G04 #@! TF.FilePolarity,Positive*
%FSLAX46Y46*%
G04 Gerber Fmt 4.6, Leading zero omitted, Abs format (unit mm)*
G04 Created by KiCad (PCBNEW 6.0.11+dfsg-1) date 2023-06-04 21:15:00*
%MOMM*%
%LPD*%
G01*
G04 APERTURE LIST*
G04 Aperture macros list*
%AMRoundRect*
0 Rectangle with rounded corners*
0 $1 Rounding radius*
0 $2 $3 $4 $5 $6 $7 $8 $9 X,Y pos of 4 corners*
0 Add a 4 corners polygon primitive as box body*
4,1,4,$2,$3,$4,$5,$6,$7,$8,$9,$2,$3,0*
0 Add four circle primitives for the rounded corners*
1,1,$1+$1,$2,$3*
1,1,$1+$1,$4,$5*
1,1,$1+$1,$6,$7*
1,1,$1+$1,$8,$9*
0 Add four rect primitives between the rounded corners*
20,1,$1+$1,$2,$3,$4,$5,0*
20,1,$1+$1,$4,$5,$6,$7,0*
20,1,$1+$1,$6,$7,$8,$9,0*
20,1,$1+$1,$8,$9,$2,$3,0*%
G04 Aperture macros list end*
%ADD10C,0.150000*%
%ADD11C,0.300000*%
%ADD12C,0.400000*%
%ADD13C,0.120000*%
%ADD14C,2.600000*%
%ADD15RoundRect,0.650000X0.650000X-0.650000X0.650000X0.650000X-0.650000X0.650000X-0.650000X-0.650000X0*%
%ADD16R,2.600000X2.600000*%
%ADD17RoundRect,0.650000X-0.650000X-0.650000X0.650000X-0.650000X0.650000X0.650000X-0.650000X0.650000X0*%
%ADD18C,3.200000*%
%ADD19O,1.600000X1.600000*%
%ADD20C,1.600000*%
%ADD21RoundRect,0.425000X0.425000X0.425000X-0.425000X0.425000X-0.425000X-0.425000X0.425000X-0.425000X0*%
%ADD22O,1.700000X1.700000*%
%ADD23R,1.700000X1.700000*%
%ADD24RoundRect,0.425000X-0.425000X-0.425000X0.425000X-0.425000X0.425000X0.425000X-0.425000X0.425000X0*%
%ADD25C,1.700000*%
%ADD26C,2.000000*%
G04 APERTURE END LIST*
D10*
X127508095Y-109990000D02*
X127412857Y-109942380D01*
X127270000Y-109942380D01*
X127127142Y-109990000D01*
X127031904Y-110085238D01*
X126984285Y-110180476D01*
X126936666Y-110370952D01*
X126936666Y-110513809D01*
X126984285Y-110704285D01*
X127031904Y-110799523D01*
X127127142Y-110894761D01*
X127270000Y-110942380D01*
X127365238Y-110942380D01*
X127508095Y-110894761D01*
X127555714Y-110847142D01*
X127555714Y-110513809D01*
X127365238Y-110513809D01*
X127984285Y-110942380D02*
X127984285Y-109942380D01*
X128555714Y-110942380D01*
X128555714Y-109942380D01*
X129031904Y-110942380D02*
X129031904Y-109942380D01*
X129270000Y-109942380D01*
X129412857Y-109990000D01*
X129508095Y-110085238D01*
X129555714Y-110180476D01*
X129603333Y-110370952D01*
X129603333Y-110513809D01*
X129555714Y-110704285D01*
X129508095Y-110799523D01*
X129412857Y-110894761D01*
X129270000Y-110942380D01*
X129031904Y-110942380D01*
X170902380Y-88868095D02*
X170902380Y-88249047D01*
X171283333Y-88582380D01*
X171283333Y-88439523D01*
X171330952Y-88344285D01*
X171378571Y-88296666D01*
X171473809Y-88249047D01*
X171711904Y-88249047D01*
X171807142Y-88296666D01*
X171854761Y-88344285D01*
X171902380Y-88439523D01*
X171902380Y-88725238D01*
X171854761Y-88820476D01*
X171807142Y-88868095D01*
X170902380Y-87963333D02*
X171902380Y-87630000D01*
X170902380Y-87296666D01*
X170902380Y-87058571D02*
X170902380Y-86439523D01*
X171283333Y-86772857D01*
X171283333Y-86630000D01*
X171330952Y-86534761D01*
X171378571Y-86487142D01*
X171473809Y-86439523D01*
X171711904Y-86439523D01*
X171807142Y-86487142D01*
X171854761Y-86534761D01*
X171902380Y-86630000D01*
X171902380Y-86915714D01*
X171854761Y-87010952D01*
X171807142Y-87058571D01*
X170902380Y-99028095D02*
X170902380Y-98409047D01*
X171283333Y-98742380D01*
X171283333Y-98599523D01*
X171330952Y-98504285D01*
X171378571Y-98456666D01*
X171473809Y-98409047D01*
X171711904Y-98409047D01*
X171807142Y-98456666D01*
X171854761Y-98504285D01*
X171902380Y-98599523D01*
X171902380Y-98885238D01*
X171854761Y-98980476D01*
X171807142Y-99028095D01*
X170902380Y-98123333D02*
X171902380Y-97790000D01*
X170902380Y-97456666D01*
X170902380Y-97218571D02*
X170902380Y-96599523D01*
X171283333Y-96932857D01*
X171283333Y-96790000D01*
X171330952Y-96694761D01*
X171378571Y-96647142D01*
X171473809Y-96599523D01*
X171711904Y-96599523D01*
X171807142Y-96647142D01*
X171854761Y-96694761D01*
X171902380Y-96790000D01*
X171902380Y-97075714D01*
X171854761Y-97170952D01*
X171807142Y-97218571D01*
X170902380Y-109188095D02*
X170902380Y-108569047D01*
X171283333Y-108902380D01*
X171283333Y-108759523D01*
X171330952Y-108664285D01*
X171378571Y-108616666D01*
X171473809Y-108569047D01*
X171711904Y-108569047D01*
X171807142Y-108616666D01*
X171854761Y-108664285D01*
X171902380Y-108759523D01*
X171902380Y-109045238D01*
X171854761Y-109140476D01*
X171807142Y-109188095D01*
X170902380Y-108283333D02*
X171902380Y-107950000D01*
X170902380Y-107616666D01*
X170902380Y-107378571D02*
X170902380Y-106759523D01*
X171283333Y-107092857D01*
X171283333Y-106950000D01*
X171330952Y-106854761D01*
X171378571Y-106807142D01*
X171473809Y-106759523D01*
X171711904Y-106759523D01*
X171807142Y-106807142D01*
X171854761Y-106854761D01*
X171902380Y-106950000D01*
X171902380Y-107235714D01*
X171854761Y-107330952D01*
X171807142Y-107378571D01*
X132135714Y-108402380D02*
X132135714Y-107402380D01*
X132516666Y-107402380D01*
X132611904Y-107450000D01*
X132659523Y-107497619D01*
X132707142Y-107592857D01*
X132707142Y-107735714D01*
X132659523Y-107830952D01*
X132611904Y-107878571D01*
X132516666Y-107926190D01*
X132135714Y-107926190D01*
X133659523Y-108402380D02*
X133088095Y-108402380D01*
X133373809Y-108402380D02*
X133373809Y-107402380D01*
X133278571Y-107545238D01*
X133183333Y-107640476D01*
X133088095Y-107688095D01*
X133992857Y-107402380D02*
X134611904Y-107402380D01*
X134278571Y-107783333D01*
X134421428Y-107783333D01*
X134516666Y-107830952D01*
X134564285Y-107878571D01*
X134611904Y-107973809D01*
X134611904Y-108211904D01*
X134564285Y-108307142D01*
X134516666Y-108354761D01*
X134421428Y-108402380D01*
X134135714Y-108402380D01*
X134040476Y-108354761D01*
X133992857Y-108307142D01*
X132135714Y-105862380D02*
X132135714Y-104862380D01*
X132516666Y-104862380D01*
X132611904Y-104910000D01*
X132659523Y-104957619D01*
X132707142Y-105052857D01*
X132707142Y-105195714D01*
X132659523Y-105290952D01*
X132611904Y-105338571D01*
X132516666Y-105386190D01*
X132135714Y-105386190D01*
X133659523Y-105862380D02*
X133088095Y-105862380D01*
X133373809Y-105862380D02*
X133373809Y-104862380D01*
X133278571Y-105005238D01*
X133183333Y-105100476D01*
X133088095Y-105148095D01*
X134040476Y-104957619D02*
X134088095Y-104910000D01*
X134183333Y-104862380D01*
X134421428Y-104862380D01*
X134516666Y-104910000D01*
X134564285Y-104957619D01*
X134611904Y-105052857D01*
X134611904Y-105148095D01*
X134564285Y-105290952D01*
X133992857Y-105862380D01*
X134611904Y-105862380D01*
X132135714Y-103322380D02*
X132135714Y-102322380D01*
X132516666Y-102322380D01*
X132611904Y-102370000D01*
X132659523Y-102417619D01*
X132707142Y-102512857D01*
X132707142Y-102655714D01*
X132659523Y-102750952D01*
X132611904Y-102798571D01*
X132516666Y-102846190D01*
X132135714Y-102846190D01*
X133088095Y-102417619D02*
X133135714Y-102370000D01*
X133230952Y-102322380D01*
X133469047Y-102322380D01*
X133564285Y-102370000D01*
X133611904Y-102417619D01*
X133659523Y-102512857D01*
X133659523Y-102608095D01*
X133611904Y-102750952D01*
X133040476Y-103322380D01*
X133659523Y-103322380D01*
X133992857Y-102322380D02*
X134659523Y-102322380D01*
X134230952Y-103322380D01*
X132135714Y-100782380D02*
X132135714Y-99782380D01*
X132516666Y-99782380D01*
X132611904Y-99830000D01*
X132659523Y-99877619D01*
X132707142Y-99972857D01*
X132707142Y-100115714D01*
X132659523Y-100210952D01*
X132611904Y-100258571D01*
X132516666Y-100306190D01*
X132135714Y-100306190D01*
X133040476Y-99782380D02*
X133659523Y-99782380D01*
X133326190Y-100163333D01*
X133469047Y-100163333D01*
X133564285Y-100210952D01*
X133611904Y-100258571D01*
X133659523Y-100353809D01*
X133659523Y-100591904D01*
X133611904Y-100687142D01*
X133564285Y-100734761D01*
X133469047Y-100782380D01*
X133183333Y-100782380D01*
X133088095Y-100734761D01*
X133040476Y-100687142D01*
X133992857Y-99782380D02*
X134611904Y-99782380D01*
X134278571Y-100163333D01*
X134421428Y-100163333D01*
X134516666Y-100210952D01*
X134564285Y-100258571D01*
X134611904Y-100353809D01*
X134611904Y-100591904D01*
X134564285Y-100687142D01*
X134516666Y-100734761D01*
X134421428Y-100782380D01*
X134135714Y-100782380D01*
X134040476Y-100734761D01*
X133992857Y-100687142D01*
X127270000Y-108402380D02*
X127270000Y-107402380D01*
X127746190Y-108402380D02*
X127746190Y-107402380D01*
X128317619Y-108402380D01*
X128317619Y-107402380D01*
X129317619Y-108402380D02*
X128746190Y-108402380D01*
X129031904Y-108402380D02*
X129031904Y-107402380D01*
X128936666Y-107545238D01*
X128841428Y-107640476D01*
X128746190Y-107688095D01*
X127270000Y-105862380D02*
X127270000Y-104862380D01*
X127746190Y-105862380D02*
X127746190Y-104862380D01*
X128317619Y-105862380D01*
X128317619Y-104862380D01*
X128746190Y-104957619D02*
X128793809Y-104910000D01*
X128889047Y-104862380D01*
X129127142Y-104862380D01*
X129222380Y-104910000D01*
X129270000Y-104957619D01*
X129317619Y-105052857D01*
X129317619Y-105148095D01*
X129270000Y-105290952D01*
X128698571Y-105862380D01*
X129317619Y-105862380D01*
X127270000Y-103322380D02*
X127270000Y-102322380D01*
X127746190Y-103322380D02*
X127746190Y-102322380D01*
X128317619Y-103322380D01*
X128317619Y-102322380D01*
X128698571Y-102322380D02*
X129317619Y-102322380D01*
X128984285Y-102703333D01*
X129127142Y-102703333D01*
X129222380Y-102750952D01*
X129270000Y-102798571D01*
X129317619Y-102893809D01*
X129317619Y-103131904D01*
X129270000Y-103227142D01*
X129222380Y-103274761D01*
X129127142Y-103322380D01*
X128841428Y-103322380D01*
X128746190Y-103274761D01*
X128698571Y-103227142D01*
X127270000Y-100782380D02*
X127270000Y-99782380D01*
X127746190Y-100782380D02*
X127746190Y-99782380D01*
X128317619Y-100782380D01*
X128317619Y-99782380D01*
X129222380Y-100115714D02*
X129222380Y-100782380D01*
X128984285Y-99734761D02*
X128746190Y-100449047D01*
X129365238Y-100449047D01*
X127811785Y-93897380D02*
X127335595Y-93897380D01*
X127287976Y-94373571D01*
X127335595Y-94325952D01*
X127430833Y-94278333D01*
X127668928Y-94278333D01*
X127764166Y-94325952D01*
X127811785Y-94373571D01*
X127859404Y-94468809D01*
X127859404Y-94706904D01*
X127811785Y-94802142D01*
X127764166Y-94849761D01*
X127668928Y-94897380D01*
X127430833Y-94897380D01*
X127335595Y-94849761D01*
X127287976Y-94802142D01*
X128145119Y-93897380D02*
X128478452Y-94897380D01*
X128811785Y-93897380D01*
X128383214Y-95507380D02*
X128383214Y-96221666D01*
X128335595Y-96364523D01*
X128240357Y-96459761D01*
X128097500Y-96507380D01*
X128002261Y-96507380D01*
X128859404Y-96507380D02*
X128859404Y-95507380D01*
X129097500Y-95507380D01*
X129240357Y-95555000D01*
X129335595Y-95650238D01*
X129383214Y-95745476D01*
X129430833Y-95935952D01*
X129430833Y-96078809D01*
X129383214Y-96269285D01*
X129335595Y-96364523D01*
X129240357Y-96459761D01*
X129097500Y-96507380D01*
X128859404Y-96507380D01*
X129859404Y-96126428D02*
X130621309Y-96126428D01*
X130954642Y-95507380D02*
X131287976Y-96507380D01*
X131621309Y-95507380D01*
X132526071Y-96412142D02*
X132478452Y-96459761D01*
X132335595Y-96507380D01*
X132240357Y-96507380D01*
X132097500Y-96459761D01*
X132002261Y-96364523D01*
X131954642Y-96269285D01*
X131907023Y-96078809D01*
X131907023Y-95935952D01*
X131954642Y-95745476D01*
X132002261Y-95650238D01*
X132097500Y-95555000D01*
X132240357Y-95507380D01*
X132335595Y-95507380D01*
X132478452Y-95555000D01*
X132526071Y-95602619D01*
X133526071Y-96412142D02*
X133478452Y-96459761D01*
X133335595Y-96507380D01*
X133240357Y-96507380D01*
X133097500Y-96459761D01*
X133002261Y-96364523D01*
X132954642Y-96269285D01*
X132907023Y-96078809D01*
X132907023Y-95935952D01*
X132954642Y-95745476D01*
X133002261Y-95650238D01*
X133097500Y-95555000D01*
X133240357Y-95507380D01*
X133335595Y-95507380D01*
X133478452Y-95555000D01*
X133526071Y-95602619D01*
X171902380Y-68548095D02*
X171902380Y-69119523D01*
X171902380Y-68833809D02*
X170902380Y-68833809D01*
X171045238Y-68929047D01*
X171140476Y-69024285D01*
X171188095Y-69119523D01*
X171521428Y-68119523D02*
X171521428Y-67357619D01*
X171616666Y-66929047D02*
X171616666Y-66452857D01*
X171902380Y-67024285D02*
X170902380Y-66690952D01*
X171902380Y-66357619D01*
X170902380Y-66119523D02*
X170902380Y-65500476D01*
X171283333Y-65833809D01*
X171283333Y-65690952D01*
X171330952Y-65595714D01*
X171378571Y-65548095D01*
X171473809Y-65500476D01*
X171711904Y-65500476D01*
X171807142Y-65548095D01*
X171854761Y-65595714D01*
X171902380Y-65690952D01*
X171902380Y-65976666D01*
X171854761Y-66071904D01*
X171807142Y-66119523D01*
X171902380Y-78708095D02*
X171902380Y-79279523D01*
X171902380Y-78993809D02*
X170902380Y-78993809D01*
X171045238Y-79089047D01*
X171140476Y-79184285D01*
X171188095Y-79279523D01*
X171521428Y-78279523D02*
X171521428Y-77517619D01*
X171616666Y-77089047D02*
X171616666Y-76612857D01*
X171902380Y-77184285D02*
X170902380Y-76850952D01*
X171902380Y-76517619D01*
X170997619Y-76231904D02*
X170950000Y-76184285D01*
X170902380Y-76089047D01*
X170902380Y-75850952D01*
X170950000Y-75755714D01*
X170997619Y-75708095D01*
X171092857Y-75660476D01*
X171188095Y-75660476D01*
X171330952Y-75708095D01*
X171902380Y-76279523D01*
X171902380Y-75660476D01*
X170950000Y-62991904D02*
X170902380Y-63087142D01*
X170902380Y-63230000D01*
X170950000Y-63372857D01*
X171045238Y-63468095D01*
X171140476Y-63515714D01*
X171330952Y-63563333D01*
X171473809Y-63563333D01*
X171664285Y-63515714D01*
X171759523Y-63468095D01*
X171854761Y-63372857D01*
X171902380Y-63230000D01*
X171902380Y-63134761D01*
X171854761Y-62991904D01*
X171807142Y-62944285D01*
X171473809Y-62944285D01*
X171473809Y-63134761D01*
X171902380Y-62515714D02*
X170902380Y-62515714D01*
X171902380Y-61944285D01*
X170902380Y-61944285D01*
X171902380Y-61468095D02*
X170902380Y-61468095D01*
X170902380Y-61230000D01*
X170950000Y-61087142D01*
X171045238Y-60991904D01*
X171140476Y-60944285D01*
X171330952Y-60896666D01*
X171473809Y-60896666D01*
X171664285Y-60944285D01*
X171759523Y-60991904D01*
X171854761Y-61087142D01*
X171902380Y-61230000D01*
X171902380Y-61468095D01*
X170950000Y-73151904D02*
X170902380Y-73247142D01*
X170902380Y-73390000D01*
X170950000Y-73532857D01*
X171045238Y-73628095D01*
X171140476Y-73675714D01*
X171330952Y-73723333D01*
X171473809Y-73723333D01*
X171664285Y-73675714D01*
X171759523Y-73628095D01*
X171854761Y-73532857D01*
X171902380Y-73390000D01*
X171902380Y-73294761D01*
X171854761Y-73151904D01*
X171807142Y-73104285D01*
X171473809Y-73104285D01*
X171473809Y-73294761D01*
X171902380Y-72675714D02*
X170902380Y-72675714D01*
X171902380Y-72104285D01*
X170902380Y-72104285D01*
X171902380Y-71628095D02*
X170902380Y-71628095D01*
X170902380Y-71390000D01*
X170950000Y-71247142D01*
X171045238Y-71151904D01*
X171140476Y-71104285D01*
X171330952Y-71056666D01*
X171473809Y-71056666D01*
X171664285Y-71104285D01*
X171759523Y-71151904D01*
X171854761Y-71247142D01*
X171902380Y-71390000D01*
X171902380Y-71628095D01*
X170997619Y-84359523D02*
X170950000Y-84311904D01*
X170902380Y-84216666D01*
X170902380Y-83978571D01*
X170950000Y-83883333D01*
X170997619Y-83835714D01*
X171092857Y-83788095D01*
X171188095Y-83788095D01*
X171330952Y-83835714D01*
X171902380Y-84407142D01*
X171902380Y-83788095D01*
X171521428Y-83359523D02*
X171521428Y-82597619D01*
X171616666Y-82169047D02*
X171616666Y-81692857D01*
X171902380Y-82264285D02*
X170902380Y-81930952D01*
X171902380Y-81597619D01*
X170902380Y-81359523D02*
X170902380Y-80740476D01*
X171283333Y-81073809D01*
X171283333Y-80930952D01*
X171330952Y-80835714D01*
X171378571Y-80788095D01*
X171473809Y-80740476D01*
X171711904Y-80740476D01*
X171807142Y-80788095D01*
X171854761Y-80835714D01*
X171902380Y-80930952D01*
X171902380Y-81216666D01*
X171854761Y-81311904D01*
X171807142Y-81359523D01*
X170997619Y-94519523D02*
X170950000Y-94471904D01*
X170902380Y-94376666D01*
X170902380Y-94138571D01*
X170950000Y-94043333D01*
X170997619Y-93995714D01*
X171092857Y-93948095D01*
X171188095Y-93948095D01*
X171330952Y-93995714D01*
X171902380Y-94567142D01*
X171902380Y-93948095D01*
X171521428Y-93519523D02*
X171521428Y-92757619D01*
X171616666Y-92329047D02*
X171616666Y-91852857D01*
X171902380Y-92424285D02*
X170902380Y-92090952D01*
X171902380Y-91757619D01*
X171902380Y-90900476D02*
X171902380Y-91471904D01*
X171902380Y-91186190D02*
X170902380Y-91186190D01*
X171045238Y-91281428D01*
X171140476Y-91376666D01*
X171188095Y-91471904D01*
X171902380Y-104108095D02*
X171902380Y-104679523D01*
X171902380Y-104393809D02*
X170902380Y-104393809D01*
X171045238Y-104489047D01*
X171140476Y-104584285D01*
X171188095Y-104679523D01*
X171521428Y-103679523D02*
X171521428Y-102917619D01*
X171616666Y-102489047D02*
X171616666Y-102012857D01*
X171902380Y-102584285D02*
X170902380Y-102250952D01*
X171902380Y-101917619D01*
X171902380Y-101060476D02*
X171902380Y-101631904D01*
X171902380Y-101346190D02*
X170902380Y-101346190D01*
X171045238Y-101441428D01*
X171140476Y-101536666D01*
X171188095Y-101631904D01*
X154178095Y-115070000D02*
X154082857Y-115022380D01*
X153940000Y-115022380D01*
X153797142Y-115070000D01*
X153701904Y-115165238D01*
X153654285Y-115260476D01*
X153606666Y-115450952D01*
X153606666Y-115593809D01*
X153654285Y-115784285D01*
X153701904Y-115879523D01*
X153797142Y-115974761D01*
X153940000Y-116022380D01*
X154035238Y-116022380D01*
X154178095Y-115974761D01*
X154225714Y-115927142D01*
X154225714Y-115593809D01*
X154035238Y-115593809D01*
X154654285Y-116022380D02*
X154654285Y-115022380D01*
X155225714Y-116022380D01*
X155225714Y-115022380D01*
X155701904Y-116022380D02*
X155701904Y-115022380D01*
X155940000Y-115022380D01*
X156082857Y-115070000D01*
X156178095Y-115165238D01*
X156225714Y-115260476D01*
X156273333Y-115450952D01*
X156273333Y-115593809D01*
X156225714Y-115784285D01*
X156178095Y-115879523D01*
X156082857Y-115974761D01*
X155940000Y-116022380D01*
X155701904Y-116022380D01*
X148455238Y-116022380D02*
X148455238Y-115022380D01*
X148836190Y-115022380D01*
X148931428Y-115070000D01*
X148979047Y-115117619D01*
X149026666Y-115212857D01*
X149026666Y-115355714D01*
X148979047Y-115450952D01*
X148931428Y-115498571D01*
X148836190Y-115546190D01*
X148455238Y-115546190D01*
X149360000Y-115022380D02*
X149598095Y-116022380D01*
X149788571Y-115308095D01*
X149979047Y-116022380D01*
X150217142Y-115022380D01*
X150598095Y-116022380D02*
X150598095Y-115022380D01*
X150931428Y-115736666D01*
X151264761Y-115022380D01*
X151264761Y-116022380D01*
X139509523Y-115022380D02*
X139033333Y-115022380D01*
X138985714Y-115498571D01*
X139033333Y-115450952D01*
X139128571Y-115403333D01*
X139366666Y-115403333D01*
X139461904Y-115450952D01*
X139509523Y-115498571D01*
X139557142Y-115593809D01*
X139557142Y-115831904D01*
X139509523Y-115927142D01*
X139461904Y-115974761D01*
X139366666Y-116022380D01*
X139128571Y-116022380D01*
X139033333Y-115974761D01*
X138985714Y-115927142D01*
X139842857Y-115022380D02*
X140176190Y-116022380D01*
X140509523Y-115022380D01*
X144018095Y-115070000D02*
X143922857Y-115022380D01*
X143780000Y-115022380D01*
X143637142Y-115070000D01*
X143541904Y-115165238D01*
X143494285Y-115260476D01*
X143446666Y-115450952D01*
X143446666Y-115593809D01*
X143494285Y-115784285D01*
X143541904Y-115879523D01*
X143637142Y-115974761D01*
X143780000Y-116022380D01*
X143875238Y-116022380D01*
X144018095Y-115974761D01*
X144065714Y-115927142D01*
X144065714Y-115593809D01*
X143875238Y-115593809D01*
X144494285Y-116022380D02*
X144494285Y-115022380D01*
X145065714Y-116022380D01*
X145065714Y-115022380D01*
X145541904Y-116022380D02*
X145541904Y-115022380D01*
X145780000Y-115022380D01*
X145922857Y-115070000D01*
X146018095Y-115165238D01*
X146065714Y-115260476D01*
X146113333Y-115450952D01*
X146113333Y-115593809D01*
X146065714Y-115784285D01*
X146018095Y-115879523D01*
X145922857Y-115974761D01*
X145780000Y-116022380D01*
X145541904Y-116022380D01*
D11*
X98611428Y-90424285D02*
X97111428Y-90924285D01*
X98611428Y-91424285D01*
X98468571Y-91852857D02*
X98540000Y-91924285D01*
X98611428Y-92067142D01*
X98611428Y-92424285D01*
X98540000Y-92567142D01*
X98468571Y-92638571D01*
X98325714Y-92710000D01*
X98182857Y-92710000D01*
X97968571Y-92638571D01*
X97111428Y-91781428D01*
X97111428Y-92710000D01*
X97254285Y-93352857D02*
X97182857Y-93424285D01*
X97111428Y-93352857D01*
X97182857Y-93281428D01*
X97254285Y-93352857D01*
X97111428Y-93352857D01*
X98611428Y-94352857D02*
X98611428Y-94495714D01*
X98540000Y-94638571D01*
X98468571Y-94710000D01*
X98325714Y-94781428D01*
X98040000Y-94852857D01*
X97682857Y-94852857D01*
X97397142Y-94781428D01*
X97254285Y-94710000D01*
X97182857Y-94638571D01*
X97111428Y-94495714D01*
X97111428Y-94352857D01*
X97182857Y-94210000D01*
X97254285Y-94138571D01*
X97397142Y-94067142D01*
X97682857Y-93995714D01*
X98040000Y-93995714D01*
X98325714Y-94067142D01*
X98468571Y-94138571D01*
X98540000Y-94210000D01*
X98611428Y-94352857D01*
D12*
X99238571Y-63441904D02*
X99119523Y-63799047D01*
X99000476Y-63918095D01*
X98762380Y-64037142D01*
X98405238Y-64037142D01*
X98167142Y-63918095D01*
X98048095Y-63799047D01*
X97929047Y-63560952D01*
X97929047Y-62608571D01*
X100429047Y-62608571D01*
X100429047Y-63441904D01*
X100310000Y-63680000D01*
X100190952Y-63799047D01*
X99952857Y-63918095D01*
X99714761Y-63918095D01*
X99476666Y-63799047D01*
X99357619Y-63680000D01*
X99238571Y-63441904D01*
X99238571Y-62608571D01*
X98643333Y-64989523D02*
X98643333Y-66180000D01*
X97929047Y-64751428D02*
X100429047Y-65584761D01*
X97929047Y-66418095D01*
X97929047Y-67251428D02*
X100429047Y-67251428D01*
X97929047Y-68680000D01*
X100429047Y-68680000D01*
X98643333Y-69751428D02*
X98643333Y-70941904D01*
X97929047Y-69513333D02*
X100429047Y-70346666D01*
X97929047Y-71180000D01*
X97929047Y-72013333D02*
X100429047Y-72013333D01*
X97929047Y-73441904D01*
X100429047Y-73441904D01*
X98643333Y-74513333D02*
X98643333Y-75703809D01*
X97929047Y-74275238D02*
X100429047Y-75108571D01*
X97929047Y-75941904D01*
X98167142Y-78203809D02*
X98048095Y-78084761D01*
X97929047Y-77727619D01*
X97929047Y-77489523D01*
X98048095Y-77132380D01*
X98286190Y-76894285D01*
X98524285Y-76775238D01*
X99000476Y-76656190D01*
X99357619Y-76656190D01*
X99833809Y-76775238D01*
X100071904Y-76894285D01*
X100310000Y-77132380D01*
X100429047Y-77489523D01*
X100429047Y-77727619D01*
X100310000Y-78084761D01*
X100190952Y-78203809D01*
X100429047Y-79751428D02*
X100429047Y-80227619D01*
X100310000Y-80465714D01*
X100071904Y-80703809D01*
X99595714Y-80822857D01*
X98762380Y-80822857D01*
X98286190Y-80703809D01*
X98048095Y-80465714D01*
X97929047Y-80227619D01*
X97929047Y-79751428D01*
X98048095Y-79513333D01*
X98286190Y-79275238D01*
X98762380Y-79156190D01*
X99595714Y-79156190D01*
X100071904Y-79275238D01*
X100310000Y-79513333D01*
X100429047Y-79751428D01*
X99238571Y-82727619D02*
X99238571Y-81894285D01*
X97929047Y-81894285D02*
X100429047Y-81894285D01*
X100429047Y-83084761D01*
X99238571Y-84870476D02*
X99238571Y-84037142D01*
X97929047Y-84037142D02*
X100429047Y-84037142D01*
X100429047Y-85227619D01*
X99238571Y-86180000D02*
X99238571Y-87013333D01*
X97929047Y-87370476D02*
X97929047Y-86180000D01*
X100429047Y-86180000D01*
X100429047Y-87370476D01*
D10*
G04 #@! TO.C,PT1000*
X169362380Y-107957619D02*
X168362380Y-107957619D01*
X168362380Y-107576666D01*
X168410000Y-107481428D01*
X168457619Y-107433809D01*
X168552857Y-107386190D01*
X168695714Y-107386190D01*
X168790952Y-107433809D01*
X168838571Y-107481428D01*
X168886190Y-107576666D01*
X168886190Y-107957619D01*
X168362380Y-107100476D02*
X168362380Y-106529047D01*
X169362380Y-106814761D02*
X168362380Y-106814761D01*
X169362380Y-105671904D02*
X169362380Y-106243333D01*
X169362380Y-105957619D02*
X168362380Y-105957619D01*
X168505238Y-106052857D01*
X168600476Y-106148095D01*
X168648095Y-106243333D01*
X168362380Y-105052857D02*
X168362380Y-104957619D01*
X168410000Y-104862380D01*
X168457619Y-104814761D01*
X168552857Y-104767142D01*
X168743333Y-104719523D01*
X168981428Y-104719523D01*
X169171904Y-104767142D01*
X169267142Y-104814761D01*
X169314761Y-104862380D01*
X169362380Y-104957619D01*
X169362380Y-105052857D01*
X169314761Y-105148095D01*
X169267142Y-105195714D01*
X169171904Y-105243333D01*
X168981428Y-105290952D01*
X168743333Y-105290952D01*
X168552857Y-105243333D01*
X168457619Y-105195714D01*
X168410000Y-105148095D01*
X168362380Y-105052857D01*
X168362380Y-104100476D02*
X168362380Y-104005238D01*
X168410000Y-103910000D01*
X168457619Y-103862380D01*
X168552857Y-103814761D01*
X168743333Y-103767142D01*
X168981428Y-103767142D01*
X169171904Y-103814761D01*
X169267142Y-103862380D01*
X169314761Y-103910000D01*
X169362380Y-104005238D01*
X169362380Y-104100476D01*
X169314761Y-104195714D01*
X169267142Y-104243333D01*
X169171904Y-104290952D01*
X168981428Y-104338571D01*
X168743333Y-104338571D01*
X168552857Y-104290952D01*
X168457619Y-104243333D01*
X168410000Y-104195714D01*
X168362380Y-104100476D01*
X168362380Y-103148095D02*
X168362380Y-103052857D01*
X168410000Y-102957619D01*
X168457619Y-102910000D01*
X168552857Y-102862380D01*
X168743333Y-102814761D01*
X168981428Y-102814761D01*
X169171904Y-102862380D01*
X169267142Y-102910000D01*
X169314761Y-102957619D01*
X169362380Y-103052857D01*
X169362380Y-103148095D01*
X169314761Y-103243333D01*
X169267142Y-103290952D01*
X169171904Y-103338571D01*
X168981428Y-103386190D01*
X168743333Y-103386190D01*
X168552857Y-103338571D01*
X168457619Y-103290952D01*
X168410000Y-103243333D01*
X168362380Y-103148095D01*
G04 #@! TO.C,PSU1*
X136342380Y-116038095D02*
X135342380Y-116038095D01*
X135342380Y-115657142D01*
X135390000Y-115561904D01*
X135437619Y-115514285D01*
X135532857Y-115466666D01*
X135675714Y-115466666D01*
X135770952Y-115514285D01*
X135818571Y-115561904D01*
X135866190Y-115657142D01*
X135866190Y-116038095D01*
X136294761Y-115085714D02*
X136342380Y-114942857D01*
X136342380Y-114704761D01*
X136294761Y-114609523D01*
X136247142Y-114561904D01*
X136151904Y-114514285D01*
X136056666Y-114514285D01*
X135961428Y-114561904D01*
X135913809Y-114609523D01*
X135866190Y-114704761D01*
X135818571Y-114895238D01*
X135770952Y-114990476D01*
X135723333Y-115038095D01*
X135628095Y-115085714D01*
X135532857Y-115085714D01*
X135437619Y-115038095D01*
X135390000Y-114990476D01*
X135342380Y-114895238D01*
X135342380Y-114657142D01*
X135390000Y-114514285D01*
X135342380Y-114085714D02*
X136151904Y-114085714D01*
X136247142Y-114038095D01*
X136294761Y-113990476D01*
X136342380Y-113895238D01*
X136342380Y-113704761D01*
X136294761Y-113609523D01*
X136247142Y-113561904D01*
X136151904Y-113514285D01*
X135342380Y-113514285D01*
X136342380Y-112514285D02*
X136342380Y-113085714D01*
X136342380Y-112800000D02*
X135342380Y-112800000D01*
X135485238Y-112895238D01*
X135580476Y-112990476D01*
X135628095Y-113085714D01*
G04 #@! TO.C,SSR1*
X159154761Y-116038095D02*
X159202380Y-115895238D01*
X159202380Y-115657142D01*
X159154761Y-115561904D01*
X159107142Y-115514285D01*
X159011904Y-115466666D01*
X158916666Y-115466666D01*
X158821428Y-115514285D01*
X158773809Y-115561904D01*
X158726190Y-115657142D01*
X158678571Y-115847619D01*
X158630952Y-115942857D01*
X158583333Y-115990476D01*
X158488095Y-116038095D01*
X158392857Y-116038095D01*
X158297619Y-115990476D01*
X158250000Y-115942857D01*
X158202380Y-115847619D01*
X158202380Y-115609523D01*
X158250000Y-115466666D01*
X159154761Y-115085714D02*
X159202380Y-114942857D01*
X159202380Y-114704761D01*
X159154761Y-114609523D01*
X159107142Y-114561904D01*
X159011904Y-114514285D01*
X158916666Y-114514285D01*
X158821428Y-114561904D01*
X158773809Y-114609523D01*
X158726190Y-114704761D01*
X158678571Y-114895238D01*
X158630952Y-114990476D01*
X158583333Y-115038095D01*
X158488095Y-115085714D01*
X158392857Y-115085714D01*
X158297619Y-115038095D01*
X158250000Y-114990476D01*
X158202380Y-114895238D01*
X158202380Y-114657142D01*
X158250000Y-114514285D01*
X159202380Y-113514285D02*
X158726190Y-113847619D01*
X159202380Y-114085714D02*
X158202380Y-114085714D01*
X158202380Y-113704761D01*
X158250000Y-113609523D01*
X158297619Y-113561904D01*
X158392857Y-113514285D01*
X158535714Y-113514285D01*
X158630952Y-113561904D01*
X158678571Y-113609523D01*
X158726190Y-113704761D01*
X158726190Y-114085714D01*
X159202380Y-112561904D02*
X159202380Y-113133333D01*
X159202380Y-112847619D02*
X158202380Y-112847619D01*
X158345238Y-112942857D01*
X158440476Y-113038095D01*
X158488095Y-113133333D01*
G04 #@! TO.C,SENS4*
X169314761Y-65714285D02*
X169362380Y-65571428D01*
X169362380Y-65333333D01*
X169314761Y-65238095D01*
X169267142Y-65190476D01*
X169171904Y-65142857D01*
X169076666Y-65142857D01*
X168981428Y-65190476D01*
X168933809Y-65238095D01*
X168886190Y-65333333D01*
X168838571Y-65523809D01*
X168790952Y-65619047D01*
X168743333Y-65666666D01*
X168648095Y-65714285D01*
X168552857Y-65714285D01*
X168457619Y-65666666D01*
X168410000Y-65619047D01*
X168362380Y-65523809D01*
X168362380Y-65285714D01*
X168410000Y-65142857D01*
X168838571Y-64714285D02*
X168838571Y-64380952D01*
X169362380Y-64238095D02*
X169362380Y-64714285D01*
X168362380Y-64714285D01*
X168362380Y-64238095D01*
X169362380Y-63809523D02*
X168362380Y-63809523D01*
X169362380Y-63238095D01*
X168362380Y-63238095D01*
X169314761Y-62809523D02*
X169362380Y-62666666D01*
X169362380Y-62428571D01*
X169314761Y-62333333D01*
X169267142Y-62285714D01*
X169171904Y-62238095D01*
X169076666Y-62238095D01*
X168981428Y-62285714D01*
X168933809Y-62333333D01*
X168886190Y-62428571D01*
X168838571Y-62619047D01*
X168790952Y-62714285D01*
X168743333Y-62761904D01*
X168648095Y-62809523D01*
X168552857Y-62809523D01*
X168457619Y-62761904D01*
X168410000Y-62714285D01*
X168362380Y-62619047D01*
X168362380Y-62380952D01*
X168410000Y-62238095D01*
X168695714Y-61380952D02*
X169362380Y-61380952D01*
X168314761Y-61619047D02*
X169029047Y-61857142D01*
X169029047Y-61238095D01*
G04 #@! TO.C,SENS3*
X169314761Y-77144285D02*
X169362380Y-77001428D01*
X169362380Y-76763333D01*
X169314761Y-76668095D01*
X169267142Y-76620476D01*
X169171904Y-76572857D01*
X169076666Y-76572857D01*
X168981428Y-76620476D01*
X168933809Y-76668095D01*
X168886190Y-76763333D01*
X168838571Y-76953809D01*
X168790952Y-77049047D01*
X168743333Y-77096666D01*
X168648095Y-77144285D01*
X168552857Y-77144285D01*
X168457619Y-77096666D01*
X168410000Y-77049047D01*
X168362380Y-76953809D01*
X168362380Y-76715714D01*
X168410000Y-76572857D01*
X168838571Y-76144285D02*
X168838571Y-75810952D01*
X169362380Y-75668095D02*
X169362380Y-76144285D01*
X168362380Y-76144285D01*
X168362380Y-75668095D01*
X169362380Y-75239523D02*
X168362380Y-75239523D01*
X169362380Y-74668095D01*
X168362380Y-74668095D01*
X169314761Y-74239523D02*
X169362380Y-74096666D01*
X169362380Y-73858571D01*
X169314761Y-73763333D01*
X169267142Y-73715714D01*
X169171904Y-73668095D01*
X169076666Y-73668095D01*
X168981428Y-73715714D01*
X168933809Y-73763333D01*
X168886190Y-73858571D01*
X168838571Y-74049047D01*
X168790952Y-74144285D01*
X168743333Y-74191904D01*
X168648095Y-74239523D01*
X168552857Y-74239523D01*
X168457619Y-74191904D01*
X168410000Y-74144285D01*
X168362380Y-74049047D01*
X168362380Y-73810952D01*
X168410000Y-73668095D01*
X168362380Y-73334761D02*
X168362380Y-72715714D01*
X168743333Y-73049047D01*
X168743333Y-72906190D01*
X168790952Y-72810952D01*
X168838571Y-72763333D01*
X168933809Y-72715714D01*
X169171904Y-72715714D01*
X169267142Y-72763333D01*
X169314761Y-72810952D01*
X169362380Y-72906190D01*
X169362380Y-73191904D01*
X169314761Y-73287142D01*
X169267142Y-73334761D01*
G04 #@! TO.C,SENS2*
X169314761Y-87304285D02*
X169362380Y-87161428D01*
X169362380Y-86923333D01*
X169314761Y-86828095D01*
X169267142Y-86780476D01*
X169171904Y-86732857D01*
X169076666Y-86732857D01*
X168981428Y-86780476D01*
X168933809Y-86828095D01*
X168886190Y-86923333D01*
X168838571Y-87113809D01*
X168790952Y-87209047D01*
X168743333Y-87256666D01*
X168648095Y-87304285D01*
X168552857Y-87304285D01*
X168457619Y-87256666D01*
X168410000Y-87209047D01*
X168362380Y-87113809D01*
X168362380Y-86875714D01*
X168410000Y-86732857D01*
X168838571Y-86304285D02*
X168838571Y-85970952D01*
X169362380Y-85828095D02*
X169362380Y-86304285D01*
X168362380Y-86304285D01*
X168362380Y-85828095D01*
X169362380Y-85399523D02*
X168362380Y-85399523D01*
X169362380Y-84828095D01*
X168362380Y-84828095D01*
X169314761Y-84399523D02*
X169362380Y-84256666D01*
X169362380Y-84018571D01*
X169314761Y-83923333D01*
X169267142Y-83875714D01*
X169171904Y-83828095D01*
X169076666Y-83828095D01*
X168981428Y-83875714D01*
X168933809Y-83923333D01*
X168886190Y-84018571D01*
X168838571Y-84209047D01*
X168790952Y-84304285D01*
X168743333Y-84351904D01*
X168648095Y-84399523D01*
X168552857Y-84399523D01*
X168457619Y-84351904D01*
X168410000Y-84304285D01*
X168362380Y-84209047D01*
X168362380Y-83970952D01*
X168410000Y-83828095D01*
X168457619Y-83447142D02*
X168410000Y-83399523D01*
X168362380Y-83304285D01*
X168362380Y-83066190D01*
X168410000Y-82970952D01*
X168457619Y-82923333D01*
X168552857Y-82875714D01*
X168648095Y-82875714D01*
X168790952Y-82923333D01*
X169362380Y-83494761D01*
X169362380Y-82875714D01*
G04 #@! TO.C,SENS1*
X169314761Y-97464285D02*
X169362380Y-97321428D01*
X169362380Y-97083333D01*
X169314761Y-96988095D01*
X169267142Y-96940476D01*
X169171904Y-96892857D01*
X169076666Y-96892857D01*
X168981428Y-96940476D01*
X168933809Y-96988095D01*
X168886190Y-97083333D01*
X168838571Y-97273809D01*
X168790952Y-97369047D01*
X168743333Y-97416666D01*
X168648095Y-97464285D01*
X168552857Y-97464285D01*
X168457619Y-97416666D01*
X168410000Y-97369047D01*
X168362380Y-97273809D01*
X168362380Y-97035714D01*
X168410000Y-96892857D01*
X168838571Y-96464285D02*
X168838571Y-96130952D01*
X169362380Y-95988095D02*
X169362380Y-96464285D01*
X168362380Y-96464285D01*
X168362380Y-95988095D01*
X169362380Y-95559523D02*
X168362380Y-95559523D01*
X169362380Y-94988095D01*
X168362380Y-94988095D01*
X169314761Y-94559523D02*
X169362380Y-94416666D01*
X169362380Y-94178571D01*
X169314761Y-94083333D01*
X169267142Y-94035714D01*
X169171904Y-93988095D01*
X169076666Y-93988095D01*
X168981428Y-94035714D01*
X168933809Y-94083333D01*
X168886190Y-94178571D01*
X168838571Y-94369047D01*
X168790952Y-94464285D01*
X168743333Y-94511904D01*
X168648095Y-94559523D01*
X168552857Y-94559523D01*
X168457619Y-94511904D01*
X168410000Y-94464285D01*
X168362380Y-94369047D01*
X168362380Y-94130952D01*
X168410000Y-93988095D01*
X169362380Y-93035714D02*
X169362380Y-93607142D01*
X169362380Y-93321428D02*
X168362380Y-93321428D01*
X168505238Y-93416666D01*
X168600476Y-93511904D01*
X168648095Y-93607142D01*
G04 #@! TO.C,R3-4*
X118118095Y-103322380D02*
X117784761Y-102846190D01*
X117546666Y-103322380D02*
X117546666Y-102322380D01*
X117927619Y-102322380D01*
X118022857Y-102370000D01*
X118070476Y-102417619D01*
X118118095Y-102512857D01*
X118118095Y-102655714D01*
X118070476Y-102750952D01*
X118022857Y-102798571D01*
X117927619Y-102846190D01*
X117546666Y-102846190D01*
X118451428Y-102322380D02*
X119070476Y-102322380D01*
X118737142Y-102703333D01*
X118880000Y-102703333D01*
X118975238Y-102750952D01*
X119022857Y-102798571D01*
X119070476Y-102893809D01*
X119070476Y-103131904D01*
X119022857Y-103227142D01*
X118975238Y-103274761D01*
X118880000Y-103322380D01*
X118594285Y-103322380D01*
X118499047Y-103274761D01*
X118451428Y-103227142D01*
X119499047Y-102941428D02*
X120260952Y-102941428D01*
X121165714Y-102655714D02*
X121165714Y-103322380D01*
X120927619Y-102274761D02*
X120689523Y-102989047D01*
X121308571Y-102989047D01*
G04 #@! TO.C,R3-2*
X118118095Y-108402380D02*
X117784761Y-107926190D01*
X117546666Y-108402380D02*
X117546666Y-107402380D01*
X117927619Y-107402380D01*
X118022857Y-107450000D01*
X118070476Y-107497619D01*
X118118095Y-107592857D01*
X118118095Y-107735714D01*
X118070476Y-107830952D01*
X118022857Y-107878571D01*
X117927619Y-107926190D01*
X117546666Y-107926190D01*
X118451428Y-107402380D02*
X119070476Y-107402380D01*
X118737142Y-107783333D01*
X118880000Y-107783333D01*
X118975238Y-107830952D01*
X119022857Y-107878571D01*
X119070476Y-107973809D01*
X119070476Y-108211904D01*
X119022857Y-108307142D01*
X118975238Y-108354761D01*
X118880000Y-108402380D01*
X118594285Y-108402380D01*
X118499047Y-108354761D01*
X118451428Y-108307142D01*
X119499047Y-108021428D02*
X120260952Y-108021428D01*
X120689523Y-107497619D02*
X120737142Y-107450000D01*
X120832380Y-107402380D01*
X121070476Y-107402380D01*
X121165714Y-107450000D01*
X121213333Y-107497619D01*
X121260952Y-107592857D01*
X121260952Y-107688095D01*
X121213333Y-107830952D01*
X120641904Y-108402380D01*
X121260952Y-108402380D01*
G04 #@! TO.C,R3-1*
X118118095Y-113312380D02*
X117784761Y-112836190D01*
X117546666Y-113312380D02*
X117546666Y-112312380D01*
X117927619Y-112312380D01*
X118022857Y-112360000D01*
X118070476Y-112407619D01*
X118118095Y-112502857D01*
X118118095Y-112645714D01*
X118070476Y-112740952D01*
X118022857Y-112788571D01*
X117927619Y-112836190D01*
X117546666Y-112836190D01*
X118451428Y-112312380D02*
X119070476Y-112312380D01*
X118737142Y-112693333D01*
X118880000Y-112693333D01*
X118975238Y-112740952D01*
X119022857Y-112788571D01*
X119070476Y-112883809D01*
X119070476Y-113121904D01*
X119022857Y-113217142D01*
X118975238Y-113264761D01*
X118880000Y-113312380D01*
X118594285Y-113312380D01*
X118499047Y-113264761D01*
X118451428Y-113217142D01*
X119499047Y-112931428D02*
X120260952Y-112931428D01*
X121260952Y-113312380D02*
X120689523Y-113312380D01*
X120975238Y-113312380D02*
X120975238Y-112312380D01*
X120880000Y-112455238D01*
X120784761Y-112550476D01*
X120689523Y-112598095D01*
G04 #@! TO.C,R2-4*
X118118095Y-83002380D02*
X117784761Y-82526190D01*
X117546666Y-83002380D02*
X117546666Y-82002380D01*
X117927619Y-82002380D01*
X118022857Y-82050000D01*
X118070476Y-82097619D01*
X118118095Y-82192857D01*
X118118095Y-82335714D01*
X118070476Y-82430952D01*
X118022857Y-82478571D01*
X117927619Y-82526190D01*
X117546666Y-82526190D01*
X118499047Y-82097619D02*
X118546666Y-82050000D01*
X118641904Y-82002380D01*
X118880000Y-82002380D01*
X118975238Y-82050000D01*
X119022857Y-82097619D01*
X119070476Y-82192857D01*
X119070476Y-82288095D01*
X119022857Y-82430952D01*
X118451428Y-83002380D01*
X119070476Y-83002380D01*
X119499047Y-82621428D02*
X120260952Y-82621428D01*
X121165714Y-82335714D02*
X121165714Y-83002380D01*
X120927619Y-81954761D02*
X120689523Y-82669047D01*
X121308571Y-82669047D01*
G04 #@! TO.C,R2-2*
X118118095Y-88082380D02*
X117784761Y-87606190D01*
X117546666Y-88082380D02*
X117546666Y-87082380D01*
X117927619Y-87082380D01*
X118022857Y-87130000D01*
X118070476Y-87177619D01*
X118118095Y-87272857D01*
X118118095Y-87415714D01*
X118070476Y-87510952D01*
X118022857Y-87558571D01*
X117927619Y-87606190D01*
X117546666Y-87606190D01*
X118499047Y-87177619D02*
X118546666Y-87130000D01*
X118641904Y-87082380D01*
X118880000Y-87082380D01*
X118975238Y-87130000D01*
X119022857Y-87177619D01*
X119070476Y-87272857D01*
X119070476Y-87368095D01*
X119022857Y-87510952D01*
X118451428Y-88082380D01*
X119070476Y-88082380D01*
X119499047Y-87701428D02*
X120260952Y-87701428D01*
X120689523Y-87177619D02*
X120737142Y-87130000D01*
X120832380Y-87082380D01*
X121070476Y-87082380D01*
X121165714Y-87130000D01*
X121213333Y-87177619D01*
X121260952Y-87272857D01*
X121260952Y-87368095D01*
X121213333Y-87510952D01*
X120641904Y-88082380D01*
X121260952Y-88082380D01*
G04 #@! TO.C,R2-1*
X118118095Y-93162380D02*
X117784761Y-92686190D01*
X117546666Y-93162380D02*
X117546666Y-92162380D01*
X117927619Y-92162380D01*
X118022857Y-92210000D01*
X118070476Y-92257619D01*
X118118095Y-92352857D01*
X118118095Y-92495714D01*
X118070476Y-92590952D01*
X118022857Y-92638571D01*
X117927619Y-92686190D01*
X117546666Y-92686190D01*
X118499047Y-92257619D02*
X118546666Y-92210000D01*
X118641904Y-92162380D01*
X118880000Y-92162380D01*
X118975238Y-92210000D01*
X119022857Y-92257619D01*
X119070476Y-92352857D01*
X119070476Y-92448095D01*
X119022857Y-92590952D01*
X118451428Y-93162380D01*
X119070476Y-93162380D01*
X119499047Y-92781428D02*
X120260952Y-92781428D01*
X121260952Y-93162380D02*
X120689523Y-93162380D01*
X120975238Y-93162380D02*
X120975238Y-92162380D01*
X120880000Y-92305238D01*
X120784761Y-92400476D01*
X120689523Y-92448095D01*
G04 #@! TO.C,J1*
X130476666Y-112272380D02*
X130476666Y-112986666D01*
X130429047Y-113129523D01*
X130333809Y-113224761D01*
X130190952Y-113272380D01*
X130095714Y-113272380D01*
X131476666Y-113272380D02*
X130905238Y-113272380D01*
X131190952Y-113272380D02*
X131190952Y-112272380D01*
X131095714Y-112415238D01*
X131000476Y-112510476D01*
X130905238Y-112558095D01*
G04 #@! TO.C,ESP321*
X143430952Y-55808571D02*
X143764285Y-55808571D01*
X143907142Y-56332380D02*
X143430952Y-56332380D01*
X143430952Y-55332380D01*
X143907142Y-55332380D01*
X144288095Y-56284761D02*
X144430952Y-56332380D01*
X144669047Y-56332380D01*
X144764285Y-56284761D01*
X144811904Y-56237142D01*
X144859523Y-56141904D01*
X144859523Y-56046666D01*
X144811904Y-55951428D01*
X144764285Y-55903809D01*
X144669047Y-55856190D01*
X144478571Y-55808571D01*
X144383333Y-55760952D01*
X144335714Y-55713333D01*
X144288095Y-55618095D01*
X144288095Y-55522857D01*
X144335714Y-55427619D01*
X144383333Y-55380000D01*
X144478571Y-55332380D01*
X144716666Y-55332380D01*
X144859523Y-55380000D01*
X145288095Y-56332380D02*
X145288095Y-55332380D01*
X145669047Y-55332380D01*
X145764285Y-55380000D01*
X145811904Y-55427619D01*
X145859523Y-55522857D01*
X145859523Y-55665714D01*
X145811904Y-55760952D01*
X145764285Y-55808571D01*
X145669047Y-55856190D01*
X145288095Y-55856190D01*
X146192857Y-55332380D02*
X146811904Y-55332380D01*
X146478571Y-55713333D01*
X146621428Y-55713333D01*
X146716666Y-55760952D01*
X146764285Y-55808571D01*
X146811904Y-55903809D01*
X146811904Y-56141904D01*
X146764285Y-56237142D01*
X146716666Y-56284761D01*
X146621428Y-56332380D01*
X146335714Y-56332380D01*
X146240476Y-56284761D01*
X146192857Y-56237142D01*
X147192857Y-55427619D02*
X147240476Y-55380000D01*
X147335714Y-55332380D01*
X147573809Y-55332380D01*
X147669047Y-55380000D01*
X147716666Y-55427619D01*
X147764285Y-55522857D01*
X147764285Y-55618095D01*
X147716666Y-55760952D01*
X147145238Y-56332380D01*
X147764285Y-56332380D01*
X148716666Y-56332380D02*
X148145238Y-56332380D01*
X148430952Y-56332380D02*
X148430952Y-55332380D01*
X148335714Y-55475238D01*
X148240476Y-55570476D01*
X148145238Y-55618095D01*
X160212023Y-98797380D02*
X159878690Y-98321190D01*
X159640595Y-98797380D02*
X159640595Y-97797380D01*
X160021547Y-97797380D01*
X160116785Y-97845000D01*
X160164404Y-97892619D01*
X160212023Y-97987857D01*
X160212023Y-98130714D01*
X160164404Y-98225952D01*
X160116785Y-98273571D01*
X160021547Y-98321190D01*
X159640595Y-98321190D01*
X160640595Y-98273571D02*
X160973928Y-98273571D01*
X161116785Y-98797380D02*
X160640595Y-98797380D01*
X160640595Y-97797380D01*
X161116785Y-97797380D01*
X161497738Y-98749761D02*
X161640595Y-98797380D01*
X161878690Y-98797380D01*
X161973928Y-98749761D01*
X162021547Y-98702142D01*
X162069166Y-98606904D01*
X162069166Y-98511666D01*
X162021547Y-98416428D01*
X161973928Y-98368809D01*
X161878690Y-98321190D01*
X161688214Y-98273571D01*
X161592976Y-98225952D01*
X161545357Y-98178333D01*
X161497738Y-98083095D01*
X161497738Y-97987857D01*
X161545357Y-97892619D01*
X161592976Y-97845000D01*
X161688214Y-97797380D01*
X161926309Y-97797380D01*
X162069166Y-97845000D01*
X162497738Y-98273571D02*
X162831071Y-98273571D01*
X162973928Y-98797380D02*
X162497738Y-98797380D01*
X162497738Y-97797380D01*
X162973928Y-97797380D01*
X163259642Y-97797380D02*
X163831071Y-97797380D01*
X163545357Y-98797380D02*
X163545357Y-97797380D01*
X159545357Y-95257380D02*
X160164404Y-95257380D01*
X159831071Y-95638333D01*
X159973928Y-95638333D01*
X160069166Y-95685952D01*
X160116785Y-95733571D01*
X160164404Y-95828809D01*
X160164404Y-96066904D01*
X160116785Y-96162142D01*
X160069166Y-96209761D01*
X159973928Y-96257380D01*
X159688214Y-96257380D01*
X159592976Y-96209761D01*
X159545357Y-96162142D01*
X160450119Y-95257380D02*
X160783452Y-96257380D01*
X161116785Y-95257380D01*
X161354880Y-95257380D02*
X161973928Y-95257380D01*
X161640595Y-95638333D01*
X161783452Y-95638333D01*
X161878690Y-95685952D01*
X161926309Y-95733571D01*
X161973928Y-95828809D01*
X161973928Y-96066904D01*
X161926309Y-96162142D01*
X161878690Y-96209761D01*
X161783452Y-96257380D01*
X161497738Y-96257380D01*
X161402500Y-96209761D01*
X161354880Y-96162142D01*
X159640595Y-93717380D02*
X159640595Y-92717380D01*
X160212023Y-93717380D01*
X160212023Y-92717380D01*
X161259642Y-93622142D02*
X161212023Y-93669761D01*
X161069166Y-93717380D01*
X160973928Y-93717380D01*
X160831071Y-93669761D01*
X160735833Y-93574523D01*
X160688214Y-93479285D01*
X160640595Y-93288809D01*
X160640595Y-93145952D01*
X160688214Y-92955476D01*
X160735833Y-92860238D01*
X160831071Y-92765000D01*
X160973928Y-92717380D01*
X161069166Y-92717380D01*
X161212023Y-92765000D01*
X161259642Y-92812619D01*
X160164404Y-90225000D02*
X160069166Y-90177380D01*
X159926309Y-90177380D01*
X159783452Y-90225000D01*
X159688214Y-90320238D01*
X159640595Y-90415476D01*
X159592976Y-90605952D01*
X159592976Y-90748809D01*
X159640595Y-90939285D01*
X159688214Y-91034523D01*
X159783452Y-91129761D01*
X159926309Y-91177380D01*
X160021547Y-91177380D01*
X160164404Y-91129761D01*
X160212023Y-91082142D01*
X160212023Y-90748809D01*
X160021547Y-90748809D01*
X160640595Y-91177380D02*
X160640595Y-90177380D01*
X161212023Y-91177380D01*
X161212023Y-90177380D01*
X161688214Y-91177380D02*
X161688214Y-90177380D01*
X161926309Y-90177380D01*
X162069166Y-90225000D01*
X162164404Y-90320238D01*
X162212023Y-90415476D01*
X162259642Y-90605952D01*
X162259642Y-90748809D01*
X162212023Y-90939285D01*
X162164404Y-91034523D01*
X162069166Y-91129761D01*
X161926309Y-91177380D01*
X161688214Y-91177380D01*
X159640595Y-88637380D02*
X159640595Y-87637380D01*
X160021547Y-87637380D01*
X160116785Y-87685000D01*
X160164404Y-87732619D01*
X160212023Y-87827857D01*
X160212023Y-87970714D01*
X160164404Y-88065952D01*
X160116785Y-88113571D01*
X160021547Y-88161190D01*
X159640595Y-88161190D01*
X160592976Y-87732619D02*
X160640595Y-87685000D01*
X160735833Y-87637380D01*
X160973928Y-87637380D01*
X161069166Y-87685000D01*
X161116785Y-87732619D01*
X161164404Y-87827857D01*
X161164404Y-87923095D01*
X161116785Y-88065952D01*
X160545357Y-88637380D01*
X161164404Y-88637380D01*
X162021547Y-87637380D02*
X161831071Y-87637380D01*
X161735833Y-87685000D01*
X161688214Y-87732619D01*
X161592976Y-87875476D01*
X161545357Y-88065952D01*
X161545357Y-88446904D01*
X161592976Y-88542142D01*
X161640595Y-88589761D01*
X161735833Y-88637380D01*
X161926309Y-88637380D01*
X162021547Y-88589761D01*
X162069166Y-88542142D01*
X162116785Y-88446904D01*
X162116785Y-88208809D01*
X162069166Y-88113571D01*
X162021547Y-88065952D01*
X161926309Y-88018333D01*
X161735833Y-88018333D01*
X161640595Y-88065952D01*
X161592976Y-88113571D01*
X161545357Y-88208809D01*
X163259642Y-87589761D02*
X162402500Y-88875476D01*
X163545357Y-88351666D02*
X164021547Y-88351666D01*
X163450119Y-88637380D02*
X163783452Y-87637380D01*
X164116785Y-88637380D01*
X164640595Y-87637380D02*
X164735833Y-87637380D01*
X164831071Y-87685000D01*
X164878690Y-87732619D01*
X164926309Y-87827857D01*
X164973928Y-88018333D01*
X164973928Y-88256428D01*
X164926309Y-88446904D01*
X164878690Y-88542142D01*
X164831071Y-88589761D01*
X164735833Y-88637380D01*
X164640595Y-88637380D01*
X164545357Y-88589761D01*
X164497738Y-88542142D01*
X164450119Y-88446904D01*
X164402500Y-88256428D01*
X164402500Y-88018333D01*
X164450119Y-87827857D01*
X164497738Y-87732619D01*
X164545357Y-87685000D01*
X164640595Y-87637380D01*
X159640595Y-86097380D02*
X159640595Y-85097380D01*
X160021547Y-85097380D01*
X160116785Y-85145000D01*
X160164404Y-85192619D01*
X160212023Y-85287857D01*
X160212023Y-85430714D01*
X160164404Y-85525952D01*
X160116785Y-85573571D01*
X160021547Y-85621190D01*
X159640595Y-85621190D01*
X160592976Y-85192619D02*
X160640595Y-85145000D01*
X160735833Y-85097380D01*
X160973928Y-85097380D01*
X161069166Y-85145000D01*
X161116785Y-85192619D01*
X161164404Y-85287857D01*
X161164404Y-85383095D01*
X161116785Y-85525952D01*
X160545357Y-86097380D01*
X161164404Y-86097380D01*
X162069166Y-85097380D02*
X161592976Y-85097380D01*
X161545357Y-85573571D01*
X161592976Y-85525952D01*
X161688214Y-85478333D01*
X161926309Y-85478333D01*
X162021547Y-85525952D01*
X162069166Y-85573571D01*
X162116785Y-85668809D01*
X162116785Y-85906904D01*
X162069166Y-86002142D01*
X162021547Y-86049761D01*
X161926309Y-86097380D01*
X161688214Y-86097380D01*
X161592976Y-86049761D01*
X161545357Y-86002142D01*
X163259642Y-85049761D02*
X162402500Y-86335476D01*
X163545357Y-85811666D02*
X164021547Y-85811666D01*
X163450119Y-86097380D02*
X163783452Y-85097380D01*
X164116785Y-86097380D01*
X164973928Y-86097380D02*
X164402500Y-86097380D01*
X164688214Y-86097380D02*
X164688214Y-85097380D01*
X164592976Y-85240238D01*
X164497738Y-85335476D01*
X164402500Y-85383095D01*
X159640595Y-83557380D02*
X159640595Y-82557380D01*
X160021547Y-82557380D01*
X160116785Y-82605000D01*
X160164404Y-82652619D01*
X160212023Y-82747857D01*
X160212023Y-82890714D01*
X160164404Y-82985952D01*
X160116785Y-83033571D01*
X160021547Y-83081190D01*
X159640595Y-83081190D01*
X160545357Y-82557380D02*
X161164404Y-82557380D01*
X160831071Y-82938333D01*
X160973928Y-82938333D01*
X161069166Y-82985952D01*
X161116785Y-83033571D01*
X161164404Y-83128809D01*
X161164404Y-83366904D01*
X161116785Y-83462142D01*
X161069166Y-83509761D01*
X160973928Y-83557380D01*
X160688214Y-83557380D01*
X160592976Y-83509761D01*
X160545357Y-83462142D01*
X162021547Y-82890714D02*
X162021547Y-83557380D01*
X161783452Y-82509761D02*
X161545357Y-83224047D01*
X162164404Y-83224047D01*
X163259642Y-82509761D02*
X162402500Y-83795476D01*
X163545357Y-83271666D02*
X164021547Y-83271666D01*
X163450119Y-83557380D02*
X163783452Y-82557380D01*
X164116785Y-83557380D01*
X164402500Y-82652619D02*
X164450119Y-82605000D01*
X164545357Y-82557380D01*
X164783452Y-82557380D01*
X164878690Y-82605000D01*
X164926309Y-82652619D01*
X164973928Y-82747857D01*
X164973928Y-82843095D01*
X164926309Y-82985952D01*
X164354880Y-83557380D01*
X164973928Y-83557380D01*
X159640595Y-81017380D02*
X159640595Y-80017380D01*
X160021547Y-80017380D01*
X160116785Y-80065000D01*
X160164404Y-80112619D01*
X160212023Y-80207857D01*
X160212023Y-80350714D01*
X160164404Y-80445952D01*
X160116785Y-80493571D01*
X160021547Y-80541190D01*
X159640595Y-80541190D01*
X160545357Y-80017380D02*
X161164404Y-80017380D01*
X160831071Y-80398333D01*
X160973928Y-80398333D01*
X161069166Y-80445952D01*
X161116785Y-80493571D01*
X161164404Y-80588809D01*
X161164404Y-80826904D01*
X161116785Y-80922142D01*
X161069166Y-80969761D01*
X160973928Y-81017380D01*
X160688214Y-81017380D01*
X160592976Y-80969761D01*
X160545357Y-80922142D01*
X161640595Y-81017380D02*
X161831071Y-81017380D01*
X161926309Y-80969761D01*
X161973928Y-80922142D01*
X162069166Y-80779285D01*
X162116785Y-80588809D01*
X162116785Y-80207857D01*
X162069166Y-80112619D01*
X162021547Y-80065000D01*
X161926309Y-80017380D01*
X161735833Y-80017380D01*
X161640595Y-80065000D01*
X161592976Y-80112619D01*
X161545357Y-80207857D01*
X161545357Y-80445952D01*
X161592976Y-80541190D01*
X161640595Y-80588809D01*
X161735833Y-80636428D01*
X161926309Y-80636428D01*
X162021547Y-80588809D01*
X162069166Y-80541190D01*
X162116785Y-80445952D01*
X163259642Y-79969761D02*
X162402500Y-81255476D01*
X163545357Y-80731666D02*
X164021547Y-80731666D01*
X163450119Y-81017380D02*
X163783452Y-80017380D01*
X164116785Y-81017380D01*
X164354880Y-80017380D02*
X164973928Y-80017380D01*
X164640595Y-80398333D01*
X164783452Y-80398333D01*
X164878690Y-80445952D01*
X164926309Y-80493571D01*
X164973928Y-80588809D01*
X164973928Y-80826904D01*
X164926309Y-80922142D01*
X164878690Y-80969761D01*
X164783452Y-81017380D01*
X164497738Y-81017380D01*
X164402500Y-80969761D01*
X164354880Y-80922142D01*
X159640595Y-78477380D02*
X159640595Y-77477380D01*
X160021547Y-77477380D01*
X160116785Y-77525000D01*
X160164404Y-77572619D01*
X160212023Y-77667857D01*
X160212023Y-77810714D01*
X160164404Y-77905952D01*
X160116785Y-77953571D01*
X160021547Y-78001190D01*
X159640595Y-78001190D01*
X160545357Y-77477380D02*
X161164404Y-77477380D01*
X160831071Y-77858333D01*
X160973928Y-77858333D01*
X161069166Y-77905952D01*
X161116785Y-77953571D01*
X161164404Y-78048809D01*
X161164404Y-78286904D01*
X161116785Y-78382142D01*
X161069166Y-78429761D01*
X160973928Y-78477380D01*
X160688214Y-78477380D01*
X160592976Y-78429761D01*
X160545357Y-78382142D01*
X162021547Y-77477380D02*
X161831071Y-77477380D01*
X161735833Y-77525000D01*
X161688214Y-77572619D01*
X161592976Y-77715476D01*
X161545357Y-77905952D01*
X161545357Y-78286904D01*
X161592976Y-78382142D01*
X161640595Y-78429761D01*
X161735833Y-78477380D01*
X161926309Y-78477380D01*
X162021547Y-78429761D01*
X162069166Y-78382142D01*
X162116785Y-78286904D01*
X162116785Y-78048809D01*
X162069166Y-77953571D01*
X162021547Y-77905952D01*
X161926309Y-77858333D01*
X161735833Y-77858333D01*
X161640595Y-77905952D01*
X161592976Y-77953571D01*
X161545357Y-78048809D01*
X163259642Y-77429761D02*
X162402500Y-78715476D01*
X163545357Y-78191666D02*
X164021547Y-78191666D01*
X163450119Y-78477380D02*
X163783452Y-77477380D01*
X164116785Y-78477380D01*
X164878690Y-77810714D02*
X164878690Y-78477380D01*
X164640595Y-77429761D02*
X164402500Y-78144047D01*
X165021547Y-78144047D01*
X159640595Y-75937380D02*
X159640595Y-74937380D01*
X160021547Y-74937380D01*
X160116785Y-74985000D01*
X160164404Y-75032619D01*
X160212023Y-75127857D01*
X160212023Y-75270714D01*
X160164404Y-75365952D01*
X160116785Y-75413571D01*
X160021547Y-75461190D01*
X159640595Y-75461190D01*
X160831071Y-74937380D02*
X160926309Y-74937380D01*
X161021547Y-74985000D01*
X161069166Y-75032619D01*
X161116785Y-75127857D01*
X161164404Y-75318333D01*
X161164404Y-75556428D01*
X161116785Y-75746904D01*
X161069166Y-75842142D01*
X161021547Y-75889761D01*
X160926309Y-75937380D01*
X160831071Y-75937380D01*
X160735833Y-75889761D01*
X160688214Y-75842142D01*
X160640595Y-75746904D01*
X160592976Y-75556428D01*
X160592976Y-75318333D01*
X160640595Y-75127857D01*
X160688214Y-75032619D01*
X160735833Y-74985000D01*
X160831071Y-74937380D01*
X162021547Y-75270714D02*
X162021547Y-75937380D01*
X161783452Y-74889761D02*
X161545357Y-75604047D01*
X162164404Y-75604047D01*
X163259642Y-74889761D02*
X162402500Y-76175476D01*
X163545357Y-75651666D02*
X164021547Y-75651666D01*
X163450119Y-75937380D02*
X163783452Y-74937380D01*
X164116785Y-75937380D01*
X164926309Y-74937380D02*
X164450119Y-74937380D01*
X164402500Y-75413571D01*
X164450119Y-75365952D01*
X164545357Y-75318333D01*
X164783452Y-75318333D01*
X164878690Y-75365952D01*
X164926309Y-75413571D01*
X164973928Y-75508809D01*
X164973928Y-75746904D01*
X164926309Y-75842142D01*
X164878690Y-75889761D01*
X164783452Y-75937380D01*
X164545357Y-75937380D01*
X164450119Y-75889761D01*
X164402500Y-75842142D01*
X159640595Y-73397380D02*
X159640595Y-72397380D01*
X160021547Y-72397380D01*
X160116785Y-72445000D01*
X160164404Y-72492619D01*
X160212023Y-72587857D01*
X160212023Y-72730714D01*
X160164404Y-72825952D01*
X160116785Y-72873571D01*
X160021547Y-72921190D01*
X159640595Y-72921190D01*
X160831071Y-72397380D02*
X160926309Y-72397380D01*
X161021547Y-72445000D01*
X161069166Y-72492619D01*
X161116785Y-72587857D01*
X161164404Y-72778333D01*
X161164404Y-73016428D01*
X161116785Y-73206904D01*
X161069166Y-73302142D01*
X161021547Y-73349761D01*
X160926309Y-73397380D01*
X160831071Y-73397380D01*
X160735833Y-73349761D01*
X160688214Y-73302142D01*
X160640595Y-73206904D01*
X160592976Y-73016428D01*
X160592976Y-72778333D01*
X160640595Y-72587857D01*
X160688214Y-72492619D01*
X160735833Y-72445000D01*
X160831071Y-72397380D01*
X162069166Y-72397380D02*
X161592976Y-72397380D01*
X161545357Y-72873571D01*
X161592976Y-72825952D01*
X161688214Y-72778333D01*
X161926309Y-72778333D01*
X162021547Y-72825952D01*
X162069166Y-72873571D01*
X162116785Y-72968809D01*
X162116785Y-73206904D01*
X162069166Y-73302142D01*
X162021547Y-73349761D01*
X161926309Y-73397380D01*
X161688214Y-73397380D01*
X161592976Y-73349761D01*
X161545357Y-73302142D01*
X163259642Y-72349761D02*
X162402500Y-73635476D01*
X163545357Y-73349761D02*
X163688214Y-73397380D01*
X163926309Y-73397380D01*
X164021547Y-73349761D01*
X164069166Y-73302142D01*
X164116785Y-73206904D01*
X164116785Y-73111666D01*
X164069166Y-73016428D01*
X164021547Y-72968809D01*
X163926309Y-72921190D01*
X163735833Y-72873571D01*
X163640595Y-72825952D01*
X163592976Y-72778333D01*
X163545357Y-72683095D01*
X163545357Y-72587857D01*
X163592976Y-72492619D01*
X163640595Y-72445000D01*
X163735833Y-72397380D01*
X163973928Y-72397380D01*
X164116785Y-72445000D01*
X165116785Y-73302142D02*
X165069166Y-73349761D01*
X164926309Y-73397380D01*
X164831071Y-73397380D01*
X164688214Y-73349761D01*
X164592976Y-73254523D01*
X164545357Y-73159285D01*
X164497738Y-72968809D01*
X164497738Y-72825952D01*
X164545357Y-72635476D01*
X164592976Y-72540238D01*
X164688214Y-72445000D01*
X164831071Y-72397380D01*
X164926309Y-72397380D01*
X165069166Y-72445000D01*
X165116785Y-72492619D01*
X165545357Y-73397380D02*
X165545357Y-72397380D01*
X166116785Y-73397380D02*
X165688214Y-72825952D01*
X166116785Y-72397380D02*
X165545357Y-72968809D01*
X159640595Y-70857380D02*
X159640595Y-69857380D01*
X160021547Y-69857380D01*
X160116785Y-69905000D01*
X160164404Y-69952619D01*
X160212023Y-70047857D01*
X160212023Y-70190714D01*
X160164404Y-70285952D01*
X160116785Y-70333571D01*
X160021547Y-70381190D01*
X159640595Y-70381190D01*
X161164404Y-70857380D02*
X160592976Y-70857380D01*
X160878690Y-70857380D02*
X160878690Y-69857380D01*
X160783452Y-70000238D01*
X160688214Y-70095476D01*
X160592976Y-70143095D01*
X161735833Y-70285952D02*
X161640595Y-70238333D01*
X161592976Y-70190714D01*
X161545357Y-70095476D01*
X161545357Y-70047857D01*
X161592976Y-69952619D01*
X161640595Y-69905000D01*
X161735833Y-69857380D01*
X161926309Y-69857380D01*
X162021547Y-69905000D01*
X162069166Y-69952619D01*
X162116785Y-70047857D01*
X162116785Y-70095476D01*
X162069166Y-70190714D01*
X162021547Y-70238333D01*
X161926309Y-70285952D01*
X161735833Y-70285952D01*
X161640595Y-70333571D01*
X161592976Y-70381190D01*
X161545357Y-70476428D01*
X161545357Y-70666904D01*
X161592976Y-70762142D01*
X161640595Y-70809761D01*
X161735833Y-70857380D01*
X161926309Y-70857380D01*
X162021547Y-70809761D01*
X162069166Y-70762142D01*
X162116785Y-70666904D01*
X162116785Y-70476428D01*
X162069166Y-70381190D01*
X162021547Y-70333571D01*
X161926309Y-70285952D01*
X163259642Y-69809761D02*
X162402500Y-71095476D01*
X163592976Y-70857380D02*
X163592976Y-69857380D01*
X163926309Y-70571666D01*
X164259642Y-69857380D01*
X164259642Y-70857380D01*
X164926309Y-69857380D02*
X165116785Y-69857380D01*
X165212023Y-69905000D01*
X165307261Y-70000238D01*
X165354880Y-70190714D01*
X165354880Y-70524047D01*
X165307261Y-70714523D01*
X165212023Y-70809761D01*
X165116785Y-70857380D01*
X164926309Y-70857380D01*
X164831071Y-70809761D01*
X164735833Y-70714523D01*
X164688214Y-70524047D01*
X164688214Y-70190714D01*
X164735833Y-70000238D01*
X164831071Y-69905000D01*
X164926309Y-69857380D01*
X165735833Y-70809761D02*
X165878690Y-70857380D01*
X166116785Y-70857380D01*
X166212023Y-70809761D01*
X166259642Y-70762142D01*
X166307261Y-70666904D01*
X166307261Y-70571666D01*
X166259642Y-70476428D01*
X166212023Y-70428809D01*
X166116785Y-70381190D01*
X165926309Y-70333571D01*
X165831071Y-70285952D01*
X165783452Y-70238333D01*
X165735833Y-70143095D01*
X165735833Y-70047857D01*
X165783452Y-69952619D01*
X165831071Y-69905000D01*
X165926309Y-69857380D01*
X166164404Y-69857380D01*
X166307261Y-69905000D01*
X166735833Y-70857380D02*
X166735833Y-69857380D01*
X159640595Y-68317380D02*
X159640595Y-67317380D01*
X160021547Y-67317380D01*
X160116785Y-67365000D01*
X160164404Y-67412619D01*
X160212023Y-67507857D01*
X160212023Y-67650714D01*
X160164404Y-67745952D01*
X160116785Y-67793571D01*
X160021547Y-67841190D01*
X159640595Y-67841190D01*
X161164404Y-68317380D02*
X160592976Y-68317380D01*
X160878690Y-68317380D02*
X160878690Y-67317380D01*
X160783452Y-67460238D01*
X160688214Y-67555476D01*
X160592976Y-67603095D01*
X161640595Y-68317380D02*
X161831071Y-68317380D01*
X161926309Y-68269761D01*
X161973928Y-68222142D01*
X162069166Y-68079285D01*
X162116785Y-67888809D01*
X162116785Y-67507857D01*
X162069166Y-67412619D01*
X162021547Y-67365000D01*
X161926309Y-67317380D01*
X161735833Y-67317380D01*
X161640595Y-67365000D01*
X161592976Y-67412619D01*
X161545357Y-67507857D01*
X161545357Y-67745952D01*
X161592976Y-67841190D01*
X161640595Y-67888809D01*
X161735833Y-67936428D01*
X161926309Y-67936428D01*
X162021547Y-67888809D01*
X162069166Y-67841190D01*
X162116785Y-67745952D01*
X163259642Y-67269761D02*
X162402500Y-68555476D01*
X163592976Y-68317380D02*
X163592976Y-67317380D01*
X163926309Y-68031666D01*
X164259642Y-67317380D01*
X164259642Y-68317380D01*
X164735833Y-68317380D02*
X164735833Y-67317380D01*
X165164404Y-68269761D02*
X165307261Y-68317380D01*
X165545357Y-68317380D01*
X165640595Y-68269761D01*
X165688214Y-68222142D01*
X165735833Y-68126904D01*
X165735833Y-68031666D01*
X165688214Y-67936428D01*
X165640595Y-67888809D01*
X165545357Y-67841190D01*
X165354880Y-67793571D01*
X165259642Y-67745952D01*
X165212023Y-67698333D01*
X165164404Y-67603095D01*
X165164404Y-67507857D01*
X165212023Y-67412619D01*
X165259642Y-67365000D01*
X165354880Y-67317380D01*
X165592976Y-67317380D01*
X165735833Y-67365000D01*
X166354880Y-67317380D02*
X166545357Y-67317380D01*
X166640595Y-67365000D01*
X166735833Y-67460238D01*
X166783452Y-67650714D01*
X166783452Y-67984047D01*
X166735833Y-68174523D01*
X166640595Y-68269761D01*
X166545357Y-68317380D01*
X166354880Y-68317380D01*
X166259642Y-68269761D01*
X166164404Y-68174523D01*
X166116785Y-67984047D01*
X166116785Y-67650714D01*
X166164404Y-67460238D01*
X166259642Y-67365000D01*
X166354880Y-67317380D01*
X159640595Y-65777380D02*
X159640595Y-64777380D01*
X160021547Y-64777380D01*
X160116785Y-64825000D01*
X160164404Y-64872619D01*
X160212023Y-64967857D01*
X160212023Y-65110714D01*
X160164404Y-65205952D01*
X160116785Y-65253571D01*
X160021547Y-65301190D01*
X159640595Y-65301190D01*
X161164404Y-65777380D02*
X160592976Y-65777380D01*
X160878690Y-65777380D02*
X160878690Y-64777380D01*
X160783452Y-64920238D01*
X160688214Y-65015476D01*
X160592976Y-65063095D01*
X162021547Y-64777380D02*
X161831071Y-64777380D01*
X161735833Y-64825000D01*
X161688214Y-64872619D01*
X161592976Y-65015476D01*
X161545357Y-65205952D01*
X161545357Y-65586904D01*
X161592976Y-65682142D01*
X161640595Y-65729761D01*
X161735833Y-65777380D01*
X161926309Y-65777380D01*
X162021547Y-65729761D01*
X162069166Y-65682142D01*
X162116785Y-65586904D01*
X162116785Y-65348809D01*
X162069166Y-65253571D01*
X162021547Y-65205952D01*
X161926309Y-65158333D01*
X161735833Y-65158333D01*
X161640595Y-65205952D01*
X161592976Y-65253571D01*
X161545357Y-65348809D01*
X163259642Y-64729761D02*
X162402500Y-66015476D01*
X164164404Y-65777380D02*
X163831071Y-65301190D01*
X163592976Y-65777380D02*
X163592976Y-64777380D01*
X163973928Y-64777380D01*
X164069166Y-64825000D01*
X164116785Y-64872619D01*
X164164404Y-64967857D01*
X164164404Y-65110714D01*
X164116785Y-65205952D01*
X164069166Y-65253571D01*
X163973928Y-65301190D01*
X163592976Y-65301190D01*
X164497738Y-64777380D02*
X165164404Y-65777380D01*
X165164404Y-64777380D02*
X164497738Y-65777380D01*
X166069166Y-65777380D02*
X165497738Y-65777380D01*
X165783452Y-65777380D02*
X165783452Y-64777380D01*
X165688214Y-64920238D01*
X165592976Y-65015476D01*
X165497738Y-65063095D01*
X159640595Y-63237380D02*
X159640595Y-62237380D01*
X160021547Y-62237380D01*
X160116785Y-62285000D01*
X160164404Y-62332619D01*
X160212023Y-62427857D01*
X160212023Y-62570714D01*
X160164404Y-62665952D01*
X160116785Y-62713571D01*
X160021547Y-62761190D01*
X159640595Y-62761190D01*
X161164404Y-63237380D02*
X160592976Y-63237380D01*
X160878690Y-63237380D02*
X160878690Y-62237380D01*
X160783452Y-62380238D01*
X160688214Y-62475476D01*
X160592976Y-62523095D01*
X161497738Y-62237380D02*
X162164404Y-62237380D01*
X161735833Y-63237380D01*
X163259642Y-62189761D02*
X162402500Y-63475476D01*
X163450119Y-62237380D02*
X164021547Y-62237380D01*
X163735833Y-63237380D02*
X163735833Y-62237380D01*
X164259642Y-62237380D02*
X164926309Y-63237380D01*
X164926309Y-62237380D02*
X164259642Y-63237380D01*
X165831071Y-63237380D02*
X165259642Y-63237380D01*
X165545357Y-63237380D02*
X165545357Y-62237380D01*
X165450119Y-62380238D01*
X165354880Y-62475476D01*
X165259642Y-62523095D01*
X159640595Y-60697380D02*
X159640595Y-59697380D01*
X160021547Y-59697380D01*
X160116785Y-59745000D01*
X160164404Y-59792619D01*
X160212023Y-59887857D01*
X160212023Y-60030714D01*
X160164404Y-60125952D01*
X160116785Y-60173571D01*
X160021547Y-60221190D01*
X159640595Y-60221190D01*
X160592976Y-59792619D02*
X160640595Y-59745000D01*
X160735833Y-59697380D01*
X160973928Y-59697380D01*
X161069166Y-59745000D01*
X161116785Y-59792619D01*
X161164404Y-59887857D01*
X161164404Y-59983095D01*
X161116785Y-60125952D01*
X160545357Y-60697380D01*
X161164404Y-60697380D01*
X162116785Y-60697380D02*
X161545357Y-60697380D01*
X161831071Y-60697380D02*
X161831071Y-59697380D01*
X161735833Y-59840238D01*
X161640595Y-59935476D01*
X161545357Y-59983095D01*
X130426547Y-87637380D02*
X130759880Y-88637380D01*
X131093214Y-87637380D01*
X131759880Y-88113571D02*
X131902738Y-88161190D01*
X131950357Y-88208809D01*
X131997976Y-88304047D01*
X131997976Y-88446904D01*
X131950357Y-88542142D01*
X131902738Y-88589761D01*
X131807500Y-88637380D01*
X131426547Y-88637380D01*
X131426547Y-87637380D01*
X131759880Y-87637380D01*
X131855119Y-87685000D01*
X131902738Y-87732619D01*
X131950357Y-87827857D01*
X131950357Y-87923095D01*
X131902738Y-88018333D01*
X131855119Y-88065952D01*
X131759880Y-88113571D01*
X131426547Y-88113571D01*
X132378928Y-88351666D02*
X132855119Y-88351666D01*
X132283690Y-88637380D02*
X132617023Y-87637380D01*
X132950357Y-88637380D01*
X133140833Y-87637380D02*
X133712261Y-87637380D01*
X133426547Y-88637380D02*
X133426547Y-87637380D01*
X132093214Y-85573571D02*
X132426547Y-85573571D01*
X132569404Y-86097380D02*
X132093214Y-86097380D01*
X132093214Y-85097380D01*
X132569404Y-85097380D01*
X132997976Y-86097380D02*
X132997976Y-85097380D01*
X133569404Y-86097380D01*
X133569404Y-85097380D01*
X130045595Y-82557380D02*
X130378928Y-83557380D01*
X130712261Y-82557380D01*
X131045595Y-82557380D02*
X131045595Y-83366904D01*
X131093214Y-83462142D01*
X131140833Y-83509761D01*
X131236071Y-83557380D01*
X131426547Y-83557380D01*
X131521785Y-83509761D01*
X131569404Y-83462142D01*
X131617023Y-83366904D01*
X131617023Y-82557380D01*
X132045595Y-83509761D02*
X132188452Y-83557380D01*
X132426547Y-83557380D01*
X132521785Y-83509761D01*
X132569404Y-83462142D01*
X132617023Y-83366904D01*
X132617023Y-83271666D01*
X132569404Y-83176428D01*
X132521785Y-83128809D01*
X132426547Y-83081190D01*
X132236071Y-83033571D01*
X132140833Y-82985952D01*
X132093214Y-82938333D01*
X132045595Y-82843095D01*
X132045595Y-82747857D01*
X132093214Y-82652619D01*
X132140833Y-82605000D01*
X132236071Y-82557380D01*
X132474166Y-82557380D01*
X132617023Y-82605000D01*
X133378928Y-83033571D02*
X133521785Y-83081190D01*
X133569404Y-83128809D01*
X133617023Y-83224047D01*
X133617023Y-83366904D01*
X133569404Y-83462142D01*
X133521785Y-83509761D01*
X133426547Y-83557380D01*
X133045595Y-83557380D01*
X133045595Y-82557380D01*
X133378928Y-82557380D01*
X133474166Y-82605000D01*
X133521785Y-82652619D01*
X133569404Y-82747857D01*
X133569404Y-82843095D01*
X133521785Y-82938333D01*
X133474166Y-82985952D01*
X133378928Y-83033571D01*
X133045595Y-83033571D01*
X131140833Y-81017380D02*
X131140833Y-80017380D01*
X131521785Y-80017380D01*
X131617023Y-80065000D01*
X131664642Y-80112619D01*
X131712261Y-80207857D01*
X131712261Y-80350714D01*
X131664642Y-80445952D01*
X131617023Y-80493571D01*
X131521785Y-80541190D01*
X131140833Y-80541190D01*
X132664642Y-81017380D02*
X132093214Y-81017380D01*
X132378928Y-81017380D02*
X132378928Y-80017380D01*
X132283690Y-80160238D01*
X132188452Y-80255476D01*
X132093214Y-80303095D01*
X132997976Y-80017380D02*
X133617023Y-80017380D01*
X133283690Y-80398333D01*
X133426547Y-80398333D01*
X133521785Y-80445952D01*
X133569404Y-80493571D01*
X133617023Y-80588809D01*
X133617023Y-80826904D01*
X133569404Y-80922142D01*
X133521785Y-80969761D01*
X133426547Y-81017380D01*
X133140833Y-81017380D01*
X133045595Y-80969761D01*
X132997976Y-80922142D01*
X131140833Y-78477380D02*
X131140833Y-77477380D01*
X131521785Y-77477380D01*
X131617023Y-77525000D01*
X131664642Y-77572619D01*
X131712261Y-77667857D01*
X131712261Y-77810714D01*
X131664642Y-77905952D01*
X131617023Y-77953571D01*
X131521785Y-78001190D01*
X131140833Y-78001190D01*
X132664642Y-78477380D02*
X132093214Y-78477380D01*
X132378928Y-78477380D02*
X132378928Y-77477380D01*
X132283690Y-77620238D01*
X132188452Y-77715476D01*
X132093214Y-77763095D01*
X133045595Y-77572619D02*
X133093214Y-77525000D01*
X133188452Y-77477380D01*
X133426547Y-77477380D01*
X133521785Y-77525000D01*
X133569404Y-77572619D01*
X133617023Y-77667857D01*
X133617023Y-77763095D01*
X133569404Y-77905952D01*
X132997976Y-78477380D01*
X133617023Y-78477380D01*
X131140833Y-75937380D02*
X131140833Y-74937380D01*
X131521785Y-74937380D01*
X131617023Y-74985000D01*
X131664642Y-75032619D01*
X131712261Y-75127857D01*
X131712261Y-75270714D01*
X131664642Y-75365952D01*
X131617023Y-75413571D01*
X131521785Y-75461190D01*
X131140833Y-75461190D01*
X132093214Y-75032619D02*
X132140833Y-74985000D01*
X132236071Y-74937380D01*
X132474166Y-74937380D01*
X132569404Y-74985000D01*
X132617023Y-75032619D01*
X132664642Y-75127857D01*
X132664642Y-75223095D01*
X132617023Y-75365952D01*
X132045595Y-75937380D01*
X132664642Y-75937380D01*
X132997976Y-74937380D02*
X133664642Y-74937380D01*
X133236071Y-75937380D01*
X131140833Y-73397380D02*
X131140833Y-72397380D01*
X131521785Y-72397380D01*
X131617023Y-72445000D01*
X131664642Y-72492619D01*
X131712261Y-72587857D01*
X131712261Y-72730714D01*
X131664642Y-72825952D01*
X131617023Y-72873571D01*
X131521785Y-72921190D01*
X131140833Y-72921190D01*
X132045595Y-72397380D02*
X132664642Y-72397380D01*
X132331309Y-72778333D01*
X132474166Y-72778333D01*
X132569404Y-72825952D01*
X132617023Y-72873571D01*
X132664642Y-72968809D01*
X132664642Y-73206904D01*
X132617023Y-73302142D01*
X132569404Y-73349761D01*
X132474166Y-73397380D01*
X132188452Y-73397380D01*
X132093214Y-73349761D01*
X132045595Y-73302142D01*
X132997976Y-72397380D02*
X133617023Y-72397380D01*
X133283690Y-72778333D01*
X133426547Y-72778333D01*
X133521785Y-72825952D01*
X133569404Y-72873571D01*
X133617023Y-72968809D01*
X133617023Y-73206904D01*
X133569404Y-73302142D01*
X133521785Y-73349761D01*
X133426547Y-73397380D01*
X133140833Y-73397380D01*
X133045595Y-73349761D01*
X132997976Y-73302142D01*
X131140833Y-70857380D02*
X131140833Y-69857380D01*
X131521785Y-69857380D01*
X131617023Y-69905000D01*
X131664642Y-69952619D01*
X131712261Y-70047857D01*
X131712261Y-70190714D01*
X131664642Y-70285952D01*
X131617023Y-70333571D01*
X131521785Y-70381190D01*
X131140833Y-70381190D01*
X132664642Y-70857380D02*
X132093214Y-70857380D01*
X132378928Y-70857380D02*
X132378928Y-69857380D01*
X132283690Y-70000238D01*
X132188452Y-70095476D01*
X132093214Y-70143095D01*
X133569404Y-69857380D02*
X133093214Y-69857380D01*
X133045595Y-70333571D01*
X133093214Y-70285952D01*
X133188452Y-70238333D01*
X133426547Y-70238333D01*
X133521785Y-70285952D01*
X133569404Y-70333571D01*
X133617023Y-70428809D01*
X133617023Y-70666904D01*
X133569404Y-70762142D01*
X133521785Y-70809761D01*
X133426547Y-70857380D01*
X133188452Y-70857380D01*
X133093214Y-70809761D01*
X133045595Y-70762142D01*
X131140833Y-68317380D02*
X131140833Y-67317380D01*
X131521785Y-67317380D01*
X131617023Y-67365000D01*
X131664642Y-67412619D01*
X131712261Y-67507857D01*
X131712261Y-67650714D01*
X131664642Y-67745952D01*
X131617023Y-67793571D01*
X131521785Y-67841190D01*
X131140833Y-67841190D01*
X132045595Y-67317380D02*
X132664642Y-67317380D01*
X132331309Y-67698333D01*
X132474166Y-67698333D01*
X132569404Y-67745952D01*
X132617023Y-67793571D01*
X132664642Y-67888809D01*
X132664642Y-68126904D01*
X132617023Y-68222142D01*
X132569404Y-68269761D01*
X132474166Y-68317380D01*
X132188452Y-68317380D01*
X132093214Y-68269761D01*
X132045595Y-68222142D01*
X133045595Y-67412619D02*
X133093214Y-67365000D01*
X133188452Y-67317380D01*
X133426547Y-67317380D01*
X133521785Y-67365000D01*
X133569404Y-67412619D01*
X133617023Y-67507857D01*
X133617023Y-67603095D01*
X133569404Y-67745952D01*
X132997976Y-68317380D01*
X133617023Y-68317380D01*
X131140833Y-65777380D02*
X131140833Y-64777380D01*
X131521785Y-64777380D01*
X131617023Y-64825000D01*
X131664642Y-64872619D01*
X131712261Y-64967857D01*
X131712261Y-65110714D01*
X131664642Y-65205952D01*
X131617023Y-65253571D01*
X131521785Y-65301190D01*
X131140833Y-65301190D01*
X132664642Y-65777380D02*
X132093214Y-65777380D01*
X132378928Y-65777380D02*
X132378928Y-64777380D01*
X132283690Y-64920238D01*
X132188452Y-65015476D01*
X132093214Y-65063095D01*
X133521785Y-65110714D02*
X133521785Y-65777380D01*
X133283690Y-64729761D02*
X133045595Y-65444047D01*
X133664642Y-65444047D01*
X127331309Y-63237380D02*
X127331309Y-62237380D01*
X127712261Y-62237380D01*
X127807500Y-62285000D01*
X127855119Y-62332619D01*
X127902738Y-62427857D01*
X127902738Y-62570714D01*
X127855119Y-62665952D01*
X127807500Y-62713571D01*
X127712261Y-62761190D01*
X127331309Y-62761190D01*
X128283690Y-62332619D02*
X128331309Y-62285000D01*
X128426547Y-62237380D01*
X128664642Y-62237380D01*
X128759880Y-62285000D01*
X128807500Y-62332619D01*
X128855119Y-62427857D01*
X128855119Y-62523095D01*
X128807500Y-62665952D01*
X128236071Y-63237380D01*
X128855119Y-63237380D01*
X129236071Y-62332619D02*
X129283690Y-62285000D01*
X129378928Y-62237380D01*
X129617023Y-62237380D01*
X129712261Y-62285000D01*
X129759880Y-62332619D01*
X129807500Y-62427857D01*
X129807500Y-62523095D01*
X129759880Y-62665952D01*
X129188452Y-63237380D01*
X129807500Y-63237380D01*
X130950357Y-62189761D02*
X130093214Y-63475476D01*
X131236071Y-63189761D02*
X131378928Y-63237380D01*
X131617023Y-63237380D01*
X131712261Y-63189761D01*
X131759880Y-63142142D01*
X131807500Y-63046904D01*
X131807500Y-62951666D01*
X131759880Y-62856428D01*
X131712261Y-62808809D01*
X131617023Y-62761190D01*
X131426547Y-62713571D01*
X131331309Y-62665952D01*
X131283690Y-62618333D01*
X131236071Y-62523095D01*
X131236071Y-62427857D01*
X131283690Y-62332619D01*
X131331309Y-62285000D01*
X131426547Y-62237380D01*
X131664642Y-62237380D01*
X131807500Y-62285000D01*
X132807500Y-63142142D02*
X132759880Y-63189761D01*
X132617023Y-63237380D01*
X132521785Y-63237380D01*
X132378928Y-63189761D01*
X132283690Y-63094523D01*
X132236071Y-62999285D01*
X132188452Y-62808809D01*
X132188452Y-62665952D01*
X132236071Y-62475476D01*
X132283690Y-62380238D01*
X132378928Y-62285000D01*
X132521785Y-62237380D01*
X132617023Y-62237380D01*
X132759880Y-62285000D01*
X132807500Y-62332619D01*
X133712261Y-63237380D02*
X133236071Y-63237380D01*
X133236071Y-62237380D01*
X127283690Y-60697380D02*
X127283690Y-59697380D01*
X127664642Y-59697380D01*
X127759880Y-59745000D01*
X127807500Y-59792619D01*
X127855119Y-59887857D01*
X127855119Y-60030714D01*
X127807500Y-60125952D01*
X127759880Y-60173571D01*
X127664642Y-60221190D01*
X127283690Y-60221190D01*
X128236071Y-59792619D02*
X128283690Y-59745000D01*
X128378928Y-59697380D01*
X128617023Y-59697380D01*
X128712261Y-59745000D01*
X128759880Y-59792619D01*
X128807500Y-59887857D01*
X128807500Y-59983095D01*
X128759880Y-60125952D01*
X128188452Y-60697380D01*
X128807500Y-60697380D01*
X129140833Y-59697380D02*
X129759880Y-59697380D01*
X129426547Y-60078333D01*
X129569404Y-60078333D01*
X129664642Y-60125952D01*
X129712261Y-60173571D01*
X129759880Y-60268809D01*
X129759880Y-60506904D01*
X129712261Y-60602142D01*
X129664642Y-60649761D01*
X129569404Y-60697380D01*
X129283690Y-60697380D01*
X129188452Y-60649761D01*
X129140833Y-60602142D01*
X130902738Y-59649761D02*
X130045595Y-60935476D01*
X131188452Y-60649761D02*
X131331309Y-60697380D01*
X131569404Y-60697380D01*
X131664642Y-60649761D01*
X131712261Y-60602142D01*
X131759880Y-60506904D01*
X131759880Y-60411666D01*
X131712261Y-60316428D01*
X131664642Y-60268809D01*
X131569404Y-60221190D01*
X131378928Y-60173571D01*
X131283690Y-60125952D01*
X131236071Y-60078333D01*
X131188452Y-59983095D01*
X131188452Y-59887857D01*
X131236071Y-59792619D01*
X131283690Y-59745000D01*
X131378928Y-59697380D01*
X131617023Y-59697380D01*
X131759880Y-59745000D01*
X132188452Y-60697380D02*
X132188452Y-59697380D01*
X132426547Y-59697380D01*
X132569404Y-59745000D01*
X132664642Y-59840238D01*
X132712261Y-59935476D01*
X132759880Y-60125952D01*
X132759880Y-60268809D01*
X132712261Y-60459285D01*
X132664642Y-60554523D01*
X132569404Y-60649761D01*
X132426547Y-60697380D01*
X132188452Y-60697380D01*
X133140833Y-60411666D02*
X133617023Y-60411666D01*
X133045595Y-60697380D02*
X133378928Y-59697380D01*
X133712261Y-60697380D01*
X153645952Y-56927380D02*
X154217380Y-56927380D01*
X153931666Y-57927380D02*
X153931666Y-56927380D01*
X154693571Y-57927380D02*
X154598333Y-57879761D01*
X154550714Y-57832142D01*
X154503095Y-57736904D01*
X154503095Y-57451190D01*
X154550714Y-57355952D01*
X154598333Y-57308333D01*
X154693571Y-57260714D01*
X154836428Y-57260714D01*
X154931666Y-57308333D01*
X154979285Y-57355952D01*
X155026904Y-57451190D01*
X155026904Y-57736904D01*
X154979285Y-57832142D01*
X154931666Y-57879761D01*
X154836428Y-57927380D01*
X154693571Y-57927380D01*
X155455476Y-57260714D02*
X155455476Y-58260714D01*
X155455476Y-57308333D02*
X155550714Y-57260714D01*
X155741190Y-57260714D01*
X155836428Y-57308333D01*
X155884047Y-57355952D01*
X155931666Y-57451190D01*
X155931666Y-57736904D01*
X155884047Y-57832142D01*
X155836428Y-57879761D01*
X155741190Y-57927380D01*
X155550714Y-57927380D01*
X155455476Y-57879761D01*
X156931666Y-57927380D02*
X156598333Y-57451190D01*
X156360238Y-57927380D02*
X156360238Y-56927380D01*
X156741190Y-56927380D01*
X156836428Y-56975000D01*
X156884047Y-57022619D01*
X156931666Y-57117857D01*
X156931666Y-57260714D01*
X156884047Y-57355952D01*
X156836428Y-57403571D01*
X156741190Y-57451190D01*
X156360238Y-57451190D01*
X157360238Y-57927380D02*
X157360238Y-57260714D01*
X157360238Y-56927380D02*
X157312619Y-56975000D01*
X157360238Y-57022619D01*
X157407857Y-56975000D01*
X157360238Y-56927380D01*
X157360238Y-57022619D01*
X158265000Y-57260714D02*
X158265000Y-58070238D01*
X158217380Y-58165476D01*
X158169761Y-58213095D01*
X158074523Y-58260714D01*
X157931666Y-58260714D01*
X157836428Y-58213095D01*
X158265000Y-57879761D02*
X158169761Y-57927380D01*
X157979285Y-57927380D01*
X157884047Y-57879761D01*
X157836428Y-57832142D01*
X157788809Y-57736904D01*
X157788809Y-57451190D01*
X157836428Y-57355952D01*
X157884047Y-57308333D01*
X157979285Y-57260714D01*
X158169761Y-57260714D01*
X158265000Y-57308333D01*
X158741190Y-57927380D02*
X158741190Y-56927380D01*
X159169761Y-57927380D02*
X159169761Y-57403571D01*
X159122142Y-57308333D01*
X159026904Y-57260714D01*
X158884047Y-57260714D01*
X158788809Y-57308333D01*
X158741190Y-57355952D01*
X159503095Y-57260714D02*
X159884047Y-57260714D01*
X159645952Y-56927380D02*
X159645952Y-57784523D01*
X159693571Y-57879761D01*
X159788809Y-57927380D01*
X159884047Y-57927380D01*
X133849761Y-56927380D02*
X134421190Y-56927380D01*
X134135476Y-57927380D02*
X134135476Y-56927380D01*
X134897380Y-57927380D02*
X134802142Y-57879761D01*
X134754523Y-57832142D01*
X134706904Y-57736904D01*
X134706904Y-57451190D01*
X134754523Y-57355952D01*
X134802142Y-57308333D01*
X134897380Y-57260714D01*
X135040238Y-57260714D01*
X135135476Y-57308333D01*
X135183095Y-57355952D01*
X135230714Y-57451190D01*
X135230714Y-57736904D01*
X135183095Y-57832142D01*
X135135476Y-57879761D01*
X135040238Y-57927380D01*
X134897380Y-57927380D01*
X135659285Y-57260714D02*
X135659285Y-58260714D01*
X135659285Y-57308333D02*
X135754523Y-57260714D01*
X135945000Y-57260714D01*
X136040238Y-57308333D01*
X136087857Y-57355952D01*
X136135476Y-57451190D01*
X136135476Y-57736904D01*
X136087857Y-57832142D01*
X136040238Y-57879761D01*
X135945000Y-57927380D01*
X135754523Y-57927380D01*
X135659285Y-57879761D01*
X137040238Y-57927380D02*
X136564047Y-57927380D01*
X136564047Y-56927380D01*
X137754523Y-57879761D02*
X137659285Y-57927380D01*
X137468809Y-57927380D01*
X137373571Y-57879761D01*
X137325952Y-57784523D01*
X137325952Y-57403571D01*
X137373571Y-57308333D01*
X137468809Y-57260714D01*
X137659285Y-57260714D01*
X137754523Y-57308333D01*
X137802142Y-57403571D01*
X137802142Y-57498809D01*
X137325952Y-57594047D01*
X138087857Y-57260714D02*
X138468809Y-57260714D01*
X138230714Y-57927380D02*
X138230714Y-57070238D01*
X138278333Y-56975000D01*
X138373571Y-56927380D01*
X138468809Y-56927380D01*
X138659285Y-57260714D02*
X139040238Y-57260714D01*
X138802142Y-56927380D02*
X138802142Y-57784523D01*
X138849761Y-57879761D01*
X138945000Y-57927380D01*
X139040238Y-57927380D01*
G04 #@! TO.C,0x48*
X106545238Y-56602380D02*
X106640476Y-56602380D01*
X106735714Y-56650000D01*
X106783333Y-56697619D01*
X106830952Y-56792857D01*
X106878571Y-56983333D01*
X106878571Y-57221428D01*
X106830952Y-57411904D01*
X106783333Y-57507142D01*
X106735714Y-57554761D01*
X106640476Y-57602380D01*
X106545238Y-57602380D01*
X106450000Y-57554761D01*
X106402380Y-57507142D01*
X106354761Y-57411904D01*
X106307142Y-57221428D01*
X106307142Y-56983333D01*
X106354761Y-56792857D01*
X106402380Y-56697619D01*
X106450000Y-56650000D01*
X106545238Y-56602380D01*
X107211904Y-57602380D02*
X107735714Y-56935714D01*
X107211904Y-56935714D02*
X107735714Y-57602380D01*
X108545238Y-56935714D02*
X108545238Y-57602380D01*
X108307142Y-56554761D02*
X108069047Y-57269047D01*
X108688095Y-57269047D01*
X109211904Y-57030952D02*
X109116666Y-56983333D01*
X109069047Y-56935714D01*
X109021428Y-56840476D01*
X109021428Y-56792857D01*
X109069047Y-56697619D01*
X109116666Y-56650000D01*
X109211904Y-56602380D01*
X109402380Y-56602380D01*
X109497619Y-56650000D01*
X109545238Y-56697619D01*
X109592857Y-56792857D01*
X109592857Y-56840476D01*
X109545238Y-56935714D01*
X109497619Y-56983333D01*
X109402380Y-57030952D01*
X109211904Y-57030952D01*
X109116666Y-57078571D01*
X109069047Y-57126190D01*
X109021428Y-57221428D01*
X109021428Y-57411904D01*
X109069047Y-57507142D01*
X109116666Y-57554761D01*
X109211904Y-57602380D01*
X109402380Y-57602380D01*
X109497619Y-57554761D01*
X109545238Y-57507142D01*
X109592857Y-57411904D01*
X109592857Y-57221428D01*
X109545238Y-57126190D01*
X109497619Y-57078571D01*
X109402380Y-57030952D01*
X103693452Y-82716666D02*
X104169642Y-82716666D01*
X103598214Y-83002380D02*
X103931547Y-82002380D01*
X104264880Y-83002380D01*
X104502976Y-82002380D02*
X105122023Y-82002380D01*
X104788690Y-82383333D01*
X104931547Y-82383333D01*
X105026785Y-82430952D01*
X105074404Y-82478571D01*
X105122023Y-82573809D01*
X105122023Y-82811904D01*
X105074404Y-82907142D01*
X105026785Y-82954761D01*
X104931547Y-83002380D01*
X104645833Y-83002380D01*
X104550595Y-82954761D01*
X104502976Y-82907142D01*
X103693452Y-80176666D02*
X104169642Y-80176666D01*
X103598214Y-80462380D02*
X103931547Y-79462380D01*
X104264880Y-80462380D01*
X104550595Y-79557619D02*
X104598214Y-79510000D01*
X104693452Y-79462380D01*
X104931547Y-79462380D01*
X105026785Y-79510000D01*
X105074404Y-79557619D01*
X105122023Y-79652857D01*
X105122023Y-79748095D01*
X105074404Y-79890952D01*
X104502976Y-80462380D01*
X105122023Y-80462380D01*
X103693452Y-77636666D02*
X104169642Y-77636666D01*
X103598214Y-77922380D02*
X103931547Y-76922380D01*
X104264880Y-77922380D01*
X105122023Y-77922380D02*
X104550595Y-77922380D01*
X104836309Y-77922380D02*
X104836309Y-76922380D01*
X104741071Y-77065238D01*
X104645833Y-77160476D01*
X104550595Y-77208095D01*
X103693452Y-75096666D02*
X104169642Y-75096666D01*
X103598214Y-75382380D02*
X103931547Y-74382380D01*
X104264880Y-75382380D01*
X104788690Y-74382380D02*
X104883928Y-74382380D01*
X104979166Y-74430000D01*
X105026785Y-74477619D01*
X105074404Y-74572857D01*
X105122023Y-74763333D01*
X105122023Y-75001428D01*
X105074404Y-75191904D01*
X105026785Y-75287142D01*
X104979166Y-75334761D01*
X104883928Y-75382380D01*
X104788690Y-75382380D01*
X104693452Y-75334761D01*
X104645833Y-75287142D01*
X104598214Y-75191904D01*
X104550595Y-75001428D01*
X104550595Y-74763333D01*
X104598214Y-74572857D01*
X104645833Y-74477619D01*
X104693452Y-74430000D01*
X104788690Y-74382380D01*
X102074404Y-72556666D02*
X102550595Y-72556666D01*
X101979166Y-72842380D02*
X102312500Y-71842380D01*
X102645833Y-72842380D01*
X103455357Y-72842380D02*
X102979166Y-72842380D01*
X102979166Y-71842380D01*
X104360119Y-72842380D02*
X104026785Y-72366190D01*
X103788690Y-72842380D02*
X103788690Y-71842380D01*
X104169642Y-71842380D01*
X104264880Y-71890000D01*
X104312500Y-71937619D01*
X104360119Y-72032857D01*
X104360119Y-72175714D01*
X104312500Y-72270952D01*
X104264880Y-72318571D01*
X104169642Y-72366190D01*
X103788690Y-72366190D01*
X104645833Y-71842380D02*
X105217261Y-71842380D01*
X104931547Y-72842380D02*
X104931547Y-71842380D01*
X101645833Y-70016666D02*
X102122023Y-70016666D01*
X101550595Y-70302380D02*
X101883928Y-69302380D01*
X102217261Y-70302380D01*
X102550595Y-70302380D02*
X102550595Y-69302380D01*
X102788690Y-69302380D01*
X102931547Y-69350000D01*
X103026785Y-69445238D01*
X103074404Y-69540476D01*
X103122023Y-69730952D01*
X103122023Y-69873809D01*
X103074404Y-70064285D01*
X103026785Y-70159523D01*
X102931547Y-70254761D01*
X102788690Y-70302380D01*
X102550595Y-70302380D01*
X103550595Y-70302380D02*
X103550595Y-69302380D01*
X103788690Y-69302380D01*
X103931547Y-69350000D01*
X104026785Y-69445238D01*
X104074404Y-69540476D01*
X104122023Y-69730952D01*
X104122023Y-69873809D01*
X104074404Y-70064285D01*
X104026785Y-70159523D01*
X103931547Y-70254761D01*
X103788690Y-70302380D01*
X103550595Y-70302380D01*
X105122023Y-70302380D02*
X104788690Y-69826190D01*
X104550595Y-70302380D02*
X104550595Y-69302380D01*
X104931547Y-69302380D01*
X105026785Y-69350000D01*
X105074404Y-69397619D01*
X105122023Y-69492857D01*
X105122023Y-69635714D01*
X105074404Y-69730952D01*
X105026785Y-69778571D01*
X104931547Y-69826190D01*
X104550595Y-69826190D01*
X102693452Y-67714761D02*
X102836309Y-67762380D01*
X103074404Y-67762380D01*
X103169642Y-67714761D01*
X103217261Y-67667142D01*
X103264880Y-67571904D01*
X103264880Y-67476666D01*
X103217261Y-67381428D01*
X103169642Y-67333809D01*
X103074404Y-67286190D01*
X102883928Y-67238571D01*
X102788690Y-67190952D01*
X102741071Y-67143333D01*
X102693452Y-67048095D01*
X102693452Y-66952857D01*
X102741071Y-66857619D01*
X102788690Y-66810000D01*
X102883928Y-66762380D01*
X103122023Y-66762380D01*
X103264880Y-66810000D01*
X103693452Y-67762380D02*
X103693452Y-66762380D01*
X103931547Y-66762380D01*
X104074404Y-66810000D01*
X104169642Y-66905238D01*
X104217261Y-67000476D01*
X104264880Y-67190952D01*
X104264880Y-67333809D01*
X104217261Y-67524285D01*
X104169642Y-67619523D01*
X104074404Y-67714761D01*
X103931547Y-67762380D01*
X103693452Y-67762380D01*
X104645833Y-67476666D02*
X105122023Y-67476666D01*
X104550595Y-67762380D02*
X104883928Y-66762380D01*
X105217261Y-67762380D01*
X102741071Y-65174761D02*
X102883928Y-65222380D01*
X103122023Y-65222380D01*
X103217261Y-65174761D01*
X103264880Y-65127142D01*
X103312500Y-65031904D01*
X103312500Y-64936666D01*
X103264880Y-64841428D01*
X103217261Y-64793809D01*
X103122023Y-64746190D01*
X102931547Y-64698571D01*
X102836309Y-64650952D01*
X102788690Y-64603333D01*
X102741071Y-64508095D01*
X102741071Y-64412857D01*
X102788690Y-64317619D01*
X102836309Y-64270000D01*
X102931547Y-64222380D01*
X103169642Y-64222380D01*
X103312500Y-64270000D01*
X104312500Y-65127142D02*
X104264880Y-65174761D01*
X104122023Y-65222380D01*
X104026785Y-65222380D01*
X103883928Y-65174761D01*
X103788690Y-65079523D01*
X103741071Y-64984285D01*
X103693452Y-64793809D01*
X103693452Y-64650952D01*
X103741071Y-64460476D01*
X103788690Y-64365238D01*
X103883928Y-64270000D01*
X104026785Y-64222380D01*
X104122023Y-64222380D01*
X104264880Y-64270000D01*
X104312500Y-64317619D01*
X105217261Y-65222380D02*
X104741071Y-65222380D01*
X104741071Y-64222380D01*
X103026785Y-61730000D02*
X102931547Y-61682380D01*
X102788690Y-61682380D01*
X102645833Y-61730000D01*
X102550595Y-61825238D01*
X102502976Y-61920476D01*
X102455357Y-62110952D01*
X102455357Y-62253809D01*
X102502976Y-62444285D01*
X102550595Y-62539523D01*
X102645833Y-62634761D01*
X102788690Y-62682380D01*
X102883928Y-62682380D01*
X103026785Y-62634761D01*
X103074404Y-62587142D01*
X103074404Y-62253809D01*
X102883928Y-62253809D01*
X103502976Y-62682380D02*
X103502976Y-61682380D01*
X104074404Y-62682380D01*
X104074404Y-61682380D01*
X104550595Y-62682380D02*
X104550595Y-61682380D01*
X104788690Y-61682380D01*
X104931547Y-61730000D01*
X105026785Y-61825238D01*
X105074404Y-61920476D01*
X105122023Y-62110952D01*
X105122023Y-62253809D01*
X105074404Y-62444285D01*
X105026785Y-62539523D01*
X104931547Y-62634761D01*
X104788690Y-62682380D01*
X104550595Y-62682380D01*
X99026785Y-59142380D02*
X99360119Y-60142380D01*
X99693452Y-59142380D01*
X100026785Y-60142380D02*
X100026785Y-59142380D01*
X100264880Y-59142380D01*
X100407738Y-59190000D01*
X100502976Y-59285238D01*
X100550595Y-59380476D01*
X100598214Y-59570952D01*
X100598214Y-59713809D01*
X100550595Y-59904285D01*
X100502976Y-59999523D01*
X100407738Y-60094761D01*
X100264880Y-60142380D01*
X100026785Y-60142380D01*
X101026785Y-60142380D02*
X101026785Y-59142380D01*
X101264880Y-59142380D01*
X101407738Y-59190000D01*
X101502976Y-59285238D01*
X101550595Y-59380476D01*
X101598214Y-59570952D01*
X101598214Y-59713809D01*
X101550595Y-59904285D01*
X101502976Y-59999523D01*
X101407738Y-60094761D01*
X101264880Y-60142380D01*
X101026785Y-60142380D01*
X102693452Y-59142380D02*
X103312500Y-59142380D01*
X102979166Y-59523333D01*
X103122023Y-59523333D01*
X103217261Y-59570952D01*
X103264880Y-59618571D01*
X103312500Y-59713809D01*
X103312500Y-59951904D01*
X103264880Y-60047142D01*
X103217261Y-60094761D01*
X103122023Y-60142380D01*
X102836309Y-60142380D01*
X102741071Y-60094761D01*
X102693452Y-60047142D01*
X103598214Y-59142380D02*
X103931547Y-60142380D01*
X104264880Y-59142380D01*
X104502976Y-59142380D02*
X105122023Y-59142380D01*
X104788690Y-59523333D01*
X104931547Y-59523333D01*
X105026785Y-59570952D01*
X105074404Y-59618571D01*
X105122023Y-59713809D01*
X105122023Y-59951904D01*
X105074404Y-60047142D01*
X105026785Y-60094761D01*
X104931547Y-60142380D01*
X104645833Y-60142380D01*
X104550595Y-60094761D01*
X104502976Y-60047142D01*
G04 #@! TO.C,0x49*
X106545238Y-88352380D02*
X106640476Y-88352380D01*
X106735714Y-88400000D01*
X106783333Y-88447619D01*
X106830952Y-88542857D01*
X106878571Y-88733333D01*
X106878571Y-88971428D01*
X106830952Y-89161904D01*
X106783333Y-89257142D01*
X106735714Y-89304761D01*
X106640476Y-89352380D01*
X106545238Y-89352380D01*
X106450000Y-89304761D01*
X106402380Y-89257142D01*
X106354761Y-89161904D01*
X106307142Y-88971428D01*
X106307142Y-88733333D01*
X106354761Y-88542857D01*
X106402380Y-88447619D01*
X106450000Y-88400000D01*
X106545238Y-88352380D01*
X107211904Y-89352380D02*
X107735714Y-88685714D01*
X107211904Y-88685714D02*
X107735714Y-89352380D01*
X108545238Y-88685714D02*
X108545238Y-89352380D01*
X108307142Y-88304761D02*
X108069047Y-89019047D01*
X108688095Y-89019047D01*
X109116666Y-89352380D02*
X109307142Y-89352380D01*
X109402380Y-89304761D01*
X109450000Y-89257142D01*
X109545238Y-89114285D01*
X109592857Y-88923809D01*
X109592857Y-88542857D01*
X109545238Y-88447619D01*
X109497619Y-88400000D01*
X109402380Y-88352380D01*
X109211904Y-88352380D01*
X109116666Y-88400000D01*
X109069047Y-88447619D01*
X109021428Y-88542857D01*
X109021428Y-88780952D01*
X109069047Y-88876190D01*
X109116666Y-88923809D01*
X109211904Y-88971428D01*
X109402380Y-88971428D01*
X109497619Y-88923809D01*
X109545238Y-88876190D01*
X109592857Y-88780952D01*
X103693452Y-114466666D02*
X104169642Y-114466666D01*
X103598214Y-114752380D02*
X103931547Y-113752380D01*
X104264880Y-114752380D01*
X104502976Y-113752380D02*
X105122023Y-113752380D01*
X104788690Y-114133333D01*
X104931547Y-114133333D01*
X105026785Y-114180952D01*
X105074404Y-114228571D01*
X105122023Y-114323809D01*
X105122023Y-114561904D01*
X105074404Y-114657142D01*
X105026785Y-114704761D01*
X104931547Y-114752380D01*
X104645833Y-114752380D01*
X104550595Y-114704761D01*
X104502976Y-114657142D01*
X103693452Y-111926666D02*
X104169642Y-111926666D01*
X103598214Y-112212380D02*
X103931547Y-111212380D01*
X104264880Y-112212380D01*
X104550595Y-111307619D02*
X104598214Y-111260000D01*
X104693452Y-111212380D01*
X104931547Y-111212380D01*
X105026785Y-111260000D01*
X105074404Y-111307619D01*
X105122023Y-111402857D01*
X105122023Y-111498095D01*
X105074404Y-111640952D01*
X104502976Y-112212380D01*
X105122023Y-112212380D01*
X103693452Y-109386666D02*
X104169642Y-109386666D01*
X103598214Y-109672380D02*
X103931547Y-108672380D01*
X104264880Y-109672380D01*
X105122023Y-109672380D02*
X104550595Y-109672380D01*
X104836309Y-109672380D02*
X104836309Y-108672380D01*
X104741071Y-108815238D01*
X104645833Y-108910476D01*
X104550595Y-108958095D01*
X103693452Y-106846666D02*
X104169642Y-106846666D01*
X103598214Y-107132380D02*
X103931547Y-106132380D01*
X104264880Y-107132380D01*
X104788690Y-106132380D02*
X104883928Y-106132380D01*
X104979166Y-106180000D01*
X105026785Y-106227619D01*
X105074404Y-106322857D01*
X105122023Y-106513333D01*
X105122023Y-106751428D01*
X105074404Y-106941904D01*
X105026785Y-107037142D01*
X104979166Y-107084761D01*
X104883928Y-107132380D01*
X104788690Y-107132380D01*
X104693452Y-107084761D01*
X104645833Y-107037142D01*
X104598214Y-106941904D01*
X104550595Y-106751428D01*
X104550595Y-106513333D01*
X104598214Y-106322857D01*
X104645833Y-106227619D01*
X104693452Y-106180000D01*
X104788690Y-106132380D01*
X102074404Y-104306666D02*
X102550595Y-104306666D01*
X101979166Y-104592380D02*
X102312500Y-103592380D01*
X102645833Y-104592380D01*
X103455357Y-104592380D02*
X102979166Y-104592380D01*
X102979166Y-103592380D01*
X104360119Y-104592380D02*
X104026785Y-104116190D01*
X103788690Y-104592380D02*
X103788690Y-103592380D01*
X104169642Y-103592380D01*
X104264880Y-103640000D01*
X104312500Y-103687619D01*
X104360119Y-103782857D01*
X104360119Y-103925714D01*
X104312500Y-104020952D01*
X104264880Y-104068571D01*
X104169642Y-104116190D01*
X103788690Y-104116190D01*
X104645833Y-103592380D02*
X105217261Y-103592380D01*
X104931547Y-104592380D02*
X104931547Y-103592380D01*
X101645833Y-101766666D02*
X102122023Y-101766666D01*
X101550595Y-102052380D02*
X101883928Y-101052380D01*
X102217261Y-102052380D01*
X102550595Y-102052380D02*
X102550595Y-101052380D01*
X102788690Y-101052380D01*
X102931547Y-101100000D01*
X103026785Y-101195238D01*
X103074404Y-101290476D01*
X103122023Y-101480952D01*
X103122023Y-101623809D01*
X103074404Y-101814285D01*
X103026785Y-101909523D01*
X102931547Y-102004761D01*
X102788690Y-102052380D01*
X102550595Y-102052380D01*
X103550595Y-102052380D02*
X103550595Y-101052380D01*
X103788690Y-101052380D01*
X103931547Y-101100000D01*
X104026785Y-101195238D01*
X104074404Y-101290476D01*
X104122023Y-101480952D01*
X104122023Y-101623809D01*
X104074404Y-101814285D01*
X104026785Y-101909523D01*
X103931547Y-102004761D01*
X103788690Y-102052380D01*
X103550595Y-102052380D01*
X105122023Y-102052380D02*
X104788690Y-101576190D01*
X104550595Y-102052380D02*
X104550595Y-101052380D01*
X104931547Y-101052380D01*
X105026785Y-101100000D01*
X105074404Y-101147619D01*
X105122023Y-101242857D01*
X105122023Y-101385714D01*
X105074404Y-101480952D01*
X105026785Y-101528571D01*
X104931547Y-101576190D01*
X104550595Y-101576190D01*
X102693452Y-99464761D02*
X102836309Y-99512380D01*
X103074404Y-99512380D01*
X103169642Y-99464761D01*
X103217261Y-99417142D01*
X103264880Y-99321904D01*
X103264880Y-99226666D01*
X103217261Y-99131428D01*
X103169642Y-99083809D01*
X103074404Y-99036190D01*
X102883928Y-98988571D01*
X102788690Y-98940952D01*
X102741071Y-98893333D01*
X102693452Y-98798095D01*
X102693452Y-98702857D01*
X102741071Y-98607619D01*
X102788690Y-98560000D01*
X102883928Y-98512380D01*
X103122023Y-98512380D01*
X103264880Y-98560000D01*
X103693452Y-99512380D02*
X103693452Y-98512380D01*
X103931547Y-98512380D01*
X104074404Y-98560000D01*
X104169642Y-98655238D01*
X104217261Y-98750476D01*
X104264880Y-98940952D01*
X104264880Y-99083809D01*
X104217261Y-99274285D01*
X104169642Y-99369523D01*
X104074404Y-99464761D01*
X103931547Y-99512380D01*
X103693452Y-99512380D01*
X104645833Y-99226666D02*
X105122023Y-99226666D01*
X104550595Y-99512380D02*
X104883928Y-98512380D01*
X105217261Y-99512380D01*
X102741071Y-96924761D02*
X102883928Y-96972380D01*
X103122023Y-96972380D01*
X103217261Y-96924761D01*
X103264880Y-96877142D01*
X103312500Y-96781904D01*
X103312500Y-96686666D01*
X103264880Y-96591428D01*
X103217261Y-96543809D01*
X103122023Y-96496190D01*
X102931547Y-96448571D01*
X102836309Y-96400952D01*
X102788690Y-96353333D01*
X102741071Y-96258095D01*
X102741071Y-96162857D01*
X102788690Y-96067619D01*
X102836309Y-96020000D01*
X102931547Y-95972380D01*
X103169642Y-95972380D01*
X103312500Y-96020000D01*
X104312500Y-96877142D02*
X104264880Y-96924761D01*
X104122023Y-96972380D01*
X104026785Y-96972380D01*
X103883928Y-96924761D01*
X103788690Y-96829523D01*
X103741071Y-96734285D01*
X103693452Y-96543809D01*
X103693452Y-96400952D01*
X103741071Y-96210476D01*
X103788690Y-96115238D01*
X103883928Y-96020000D01*
X104026785Y-95972380D01*
X104122023Y-95972380D01*
X104264880Y-96020000D01*
X104312500Y-96067619D01*
X105217261Y-96972380D02*
X104741071Y-96972380D01*
X104741071Y-95972380D01*
X103026785Y-93480000D02*
X102931547Y-93432380D01*
X102788690Y-93432380D01*
X102645833Y-93480000D01*
X102550595Y-93575238D01*
X102502976Y-93670476D01*
X102455357Y-93860952D01*
X102455357Y-94003809D01*
X102502976Y-94194285D01*
X102550595Y-94289523D01*
X102645833Y-94384761D01*
X102788690Y-94432380D01*
X102883928Y-94432380D01*
X103026785Y-94384761D01*
X103074404Y-94337142D01*
X103074404Y-94003809D01*
X102883928Y-94003809D01*
X103502976Y-94432380D02*
X103502976Y-93432380D01*
X104074404Y-94432380D01*
X104074404Y-93432380D01*
X104550595Y-94432380D02*
X104550595Y-93432380D01*
X104788690Y-93432380D01*
X104931547Y-93480000D01*
X105026785Y-93575238D01*
X105074404Y-93670476D01*
X105122023Y-93860952D01*
X105122023Y-94003809D01*
X105074404Y-94194285D01*
X105026785Y-94289523D01*
X104931547Y-94384761D01*
X104788690Y-94432380D01*
X104550595Y-94432380D01*
X103592380Y-92743214D02*
X104592380Y-92409880D01*
X103592380Y-92076547D01*
X104592380Y-91743214D02*
X103592380Y-91743214D01*
X103592380Y-91505119D01*
X103640000Y-91362261D01*
X103735238Y-91267023D01*
X103830476Y-91219404D01*
X104020952Y-91171785D01*
X104163809Y-91171785D01*
X104354285Y-91219404D01*
X104449523Y-91267023D01*
X104544761Y-91362261D01*
X104592380Y-91505119D01*
X104592380Y-91743214D01*
X104592380Y-90743214D02*
X103592380Y-90743214D01*
X103592380Y-90505119D01*
X103640000Y-90362261D01*
X103735238Y-90267023D01*
X103830476Y-90219404D01*
X104020952Y-90171785D01*
X104163809Y-90171785D01*
X104354285Y-90219404D01*
X104449523Y-90267023D01*
X104544761Y-90362261D01*
X104592380Y-90505119D01*
X104592380Y-90743214D01*
X103592380Y-89076547D02*
X103592380Y-88457500D01*
X103973333Y-88790833D01*
X103973333Y-88647976D01*
X104020952Y-88552738D01*
X104068571Y-88505119D01*
X104163809Y-88457500D01*
X104401904Y-88457500D01*
X104497142Y-88505119D01*
X104544761Y-88552738D01*
X104592380Y-88647976D01*
X104592380Y-88933690D01*
X104544761Y-89028928D01*
X104497142Y-89076547D01*
X103592380Y-88171785D02*
X104592380Y-87838452D01*
X103592380Y-87505119D01*
X103592380Y-87267023D02*
X103592380Y-86647976D01*
X103973333Y-86981309D01*
X103973333Y-86838452D01*
X104020952Y-86743214D01*
X104068571Y-86695595D01*
X104163809Y-86647976D01*
X104401904Y-86647976D01*
X104497142Y-86695595D01*
X104544761Y-86743214D01*
X104592380Y-86838452D01*
X104592380Y-87124166D01*
X104544761Y-87219404D01*
X104497142Y-87267023D01*
G04 #@! TO.C,R3*
X147942380Y-81446666D02*
X147466190Y-81780000D01*
X147942380Y-82018095D02*
X146942380Y-82018095D01*
X146942380Y-81637142D01*
X146990000Y-81541904D01*
X147037619Y-81494285D01*
X147132857Y-81446666D01*
X147275714Y-81446666D01*
X147370952Y-81494285D01*
X147418571Y-81541904D01*
X147466190Y-81637142D01*
X147466190Y-82018095D01*
X146942380Y-81113333D02*
X146942380Y-80494285D01*
X147323333Y-80827619D01*
X147323333Y-80684761D01*
X147370952Y-80589523D01*
X147418571Y-80541904D01*
X147513809Y-80494285D01*
X147751904Y-80494285D01*
X147847142Y-80541904D01*
X147894761Y-80589523D01*
X147942380Y-80684761D01*
X147942380Y-80970476D01*
X147894761Y-81065714D01*
X147847142Y-81113333D01*
G04 #@! TO.C,R7*
X141592380Y-66206666D02*
X141116190Y-66540000D01*
X141592380Y-66778095D02*
X140592380Y-66778095D01*
X140592380Y-66397142D01*
X140640000Y-66301904D01*
X140687619Y-66254285D01*
X140782857Y-66206666D01*
X140925714Y-66206666D01*
X141020952Y-66254285D01*
X141068571Y-66301904D01*
X141116190Y-66397142D01*
X141116190Y-66778095D01*
X140592380Y-65873333D02*
X140592380Y-65206666D01*
X141592380Y-65635238D01*
G04 #@! TO.C,R5*
X147942380Y-66206666D02*
X147466190Y-66540000D01*
X147942380Y-66778095D02*
X146942380Y-66778095D01*
X146942380Y-66397142D01*
X146990000Y-66301904D01*
X147037619Y-66254285D01*
X147132857Y-66206666D01*
X147275714Y-66206666D01*
X147370952Y-66254285D01*
X147418571Y-66301904D01*
X147466190Y-66397142D01*
X147466190Y-66778095D01*
X146942380Y-65301904D02*
X146942380Y-65778095D01*
X147418571Y-65825714D01*
X147370952Y-65778095D01*
X147323333Y-65682857D01*
X147323333Y-65444761D01*
X147370952Y-65349523D01*
X147418571Y-65301904D01*
X147513809Y-65254285D01*
X147751904Y-65254285D01*
X147847142Y-65301904D01*
X147894761Y-65349523D01*
X147942380Y-65444761D01*
X147942380Y-65682857D01*
X147894761Y-65778095D01*
X147847142Y-65825714D01*
G04 #@! TO.C,R6*
X141592380Y-81446666D02*
X141116190Y-81780000D01*
X141592380Y-82018095D02*
X140592380Y-82018095D01*
X140592380Y-81637142D01*
X140640000Y-81541904D01*
X140687619Y-81494285D01*
X140782857Y-81446666D01*
X140925714Y-81446666D01*
X141020952Y-81494285D01*
X141068571Y-81541904D01*
X141116190Y-81637142D01*
X141116190Y-82018095D01*
X140592380Y-80589523D02*
X140592380Y-80780000D01*
X140640000Y-80875238D01*
X140687619Y-80922857D01*
X140830476Y-81018095D01*
X141020952Y-81065714D01*
X141401904Y-81065714D01*
X141497142Y-81018095D01*
X141544761Y-80970476D01*
X141592380Y-80875238D01*
X141592380Y-80684761D01*
X141544761Y-80589523D01*
X141497142Y-80541904D01*
X141401904Y-80494285D01*
X141163809Y-80494285D01*
X141068571Y-80541904D01*
X141020952Y-80589523D01*
X140973333Y-80684761D01*
X140973333Y-80875238D01*
X141020952Y-80970476D01*
X141068571Y-81018095D01*
X141163809Y-81065714D01*
G04 #@! TO.C,C1*
X147073333Y-101897142D02*
X147025714Y-101944761D01*
X146882857Y-101992380D01*
X146787619Y-101992380D01*
X146644761Y-101944761D01*
X146549523Y-101849523D01*
X146501904Y-101754285D01*
X146454285Y-101563809D01*
X146454285Y-101420952D01*
X146501904Y-101230476D01*
X146549523Y-101135238D01*
X146644761Y-101040000D01*
X146787619Y-100992380D01*
X146882857Y-100992380D01*
X147025714Y-101040000D01*
X147073333Y-101087619D01*
X148025714Y-101992380D02*
X147454285Y-101992380D01*
X147740000Y-101992380D02*
X147740000Y-100992380D01*
X147644761Y-101135238D01*
X147549523Y-101230476D01*
X147454285Y-101278095D01*
G04 #@! TO.C,R4*
X117943333Y-62682380D02*
X117610000Y-62206190D01*
X117371904Y-62682380D02*
X117371904Y-61682380D01*
X117752857Y-61682380D01*
X117848095Y-61730000D01*
X117895714Y-61777619D01*
X117943333Y-61872857D01*
X117943333Y-62015714D01*
X117895714Y-62110952D01*
X117848095Y-62158571D01*
X117752857Y-62206190D01*
X117371904Y-62206190D01*
X118800476Y-62015714D02*
X118800476Y-62682380D01*
X118562380Y-61634761D02*
X118324285Y-62349047D01*
X118943333Y-62349047D01*
G04 #@! TO.C,R2*
X117943333Y-67762380D02*
X117610000Y-67286190D01*
X117371904Y-67762380D02*
X117371904Y-66762380D01*
X117752857Y-66762380D01*
X117848095Y-66810000D01*
X117895714Y-66857619D01*
X117943333Y-66952857D01*
X117943333Y-67095714D01*
X117895714Y-67190952D01*
X117848095Y-67238571D01*
X117752857Y-67286190D01*
X117371904Y-67286190D01*
X118324285Y-66857619D02*
X118371904Y-66810000D01*
X118467142Y-66762380D01*
X118705238Y-66762380D01*
X118800476Y-66810000D01*
X118848095Y-66857619D01*
X118895714Y-66952857D01*
X118895714Y-67048095D01*
X118848095Y-67190952D01*
X118276666Y-67762380D01*
X118895714Y-67762380D01*
G04 #@! TO.C,R1*
X117943333Y-72842380D02*
X117610000Y-72366190D01*
X117371904Y-72842380D02*
X117371904Y-71842380D01*
X117752857Y-71842380D01*
X117848095Y-71890000D01*
X117895714Y-71937619D01*
X117943333Y-72032857D01*
X117943333Y-72175714D01*
X117895714Y-72270952D01*
X117848095Y-72318571D01*
X117752857Y-72366190D01*
X117371904Y-72366190D01*
X118895714Y-72842380D02*
X118324285Y-72842380D01*
X118610000Y-72842380D02*
X118610000Y-71842380D01*
X118514761Y-71985238D01*
X118419523Y-72080476D01*
X118324285Y-72128095D01*
D13*
G04 #@! TO.C,PT1000*
X182700000Y-110790000D02*
X182700000Y-110290000D01*
X181960000Y-110790000D02*
X182700000Y-110790000D01*
X178823000Y-104097000D02*
X178869000Y-104144000D01*
X176525000Y-101800000D02*
X176561000Y-101835000D01*
X179039000Y-103904000D02*
X179074000Y-103939000D01*
X176731000Y-101595000D02*
X176777000Y-101642000D01*
X172539000Y-100270000D02*
X182460000Y-100270000D01*
X172539000Y-110550000D02*
X182460000Y-110550000D01*
X182460000Y-110550000D02*
X182460000Y-100270000D01*
X172539000Y-110550000D02*
X172539000Y-100270000D01*
X175499000Y-110550000D02*
X175499000Y-100270000D01*
X180400000Y-110550000D02*
X180400000Y-100270000D01*
X181900000Y-110550000D02*
X181900000Y-100270000D01*
X179480000Y-102870000D02*
G75*
G03*
X179480000Y-102870000I-1680000J0D01*
G01*
X179335000Y-108634000D02*
G75*
G03*
X179480253Y-107921195I-1535000J684000D01*
G01*
X177116000Y-109485001D02*
G75*
G03*
X178483042Y-109485427I684000J1535001D01*
G01*
X176264999Y-107266000D02*
G75*
G03*
X176264573Y-108633042I1535001J-684000D01*
G01*
X178484000Y-106414999D02*
G75*
G03*
X177116958Y-106414573I-684000J-1535001D01*
G01*
X179480000Y-107950000D02*
G75*
G03*
X179334756Y-107266682I-1680000J0D01*
G01*
G04 #@! TO.C,PSU1*
X136860000Y-114120000D02*
X137360000Y-114120000D01*
X136860000Y-113380000D02*
X136860000Y-114120000D01*
X143553000Y-110243000D02*
X143506000Y-110289000D01*
X145850000Y-107945000D02*
X145815000Y-107981000D01*
X143746000Y-110459000D02*
X143711000Y-110494000D01*
X146055000Y-108151000D02*
X146008000Y-108197000D01*
X147380000Y-103959000D02*
X147380000Y-113880000D01*
X137100000Y-103959000D02*
X137100000Y-113880000D01*
X137100000Y-113880000D02*
X147380000Y-113880000D01*
X137100000Y-103959000D02*
X147380000Y-103959000D01*
X137100000Y-106919000D02*
X147380000Y-106919000D01*
X137100000Y-111820000D02*
X147380000Y-111820000D01*
X137100000Y-113320000D02*
X147380000Y-113320000D01*
X146460000Y-109220000D02*
G75*
G03*
X146460000Y-109220000I-1680000J0D01*
G01*
X139016000Y-110755000D02*
G75*
G03*
X139728805Y-110900253I684000J1535000D01*
G01*
X138164999Y-108536000D02*
G75*
G03*
X138164573Y-109903042I1535001J-684000D01*
G01*
X140384000Y-107684999D02*
G75*
G03*
X139016958Y-107684573I-684000J-1535001D01*
G01*
X141235001Y-109904000D02*
G75*
G03*
X141235427Y-108536958I-1535001J684000D01*
G01*
X139700000Y-110900000D02*
G75*
G03*
X140383318Y-110754756I0J1680000D01*
G01*
G04 #@! TO.C,SSR1*
X147020000Y-114120000D02*
X147520000Y-114120000D01*
X147020000Y-113380000D02*
X147020000Y-114120000D01*
X153713000Y-110243000D02*
X153666000Y-110289000D01*
X156010000Y-107945000D02*
X155975000Y-107981000D01*
X153906000Y-110459000D02*
X153871000Y-110494000D01*
X156215000Y-108151000D02*
X156168000Y-108197000D01*
X157540000Y-103959000D02*
X157540000Y-113880000D01*
X147260000Y-103959000D02*
X147260000Y-113880000D01*
X147260000Y-113880000D02*
X157540000Y-113880000D01*
X147260000Y-103959000D02*
X157540000Y-103959000D01*
X147260000Y-106919000D02*
X157540000Y-106919000D01*
X147260000Y-111820000D02*
X157540000Y-111820000D01*
X147260000Y-113320000D02*
X157540000Y-113320000D01*
X156620000Y-109220000D02*
G75*
G03*
X156620000Y-109220000I-1680000J0D01*
G01*
X149176000Y-110755000D02*
G75*
G03*
X149888805Y-110900253I684000J1535000D01*
G01*
X148324999Y-108536000D02*
G75*
G03*
X148324573Y-109903042I1535001J-684000D01*
G01*
X150544000Y-107684999D02*
G75*
G03*
X149176958Y-107684573I-684000J-1535001D01*
G01*
X151395001Y-109904000D02*
G75*
G03*
X151395427Y-108536958I-1535001J684000D01*
G01*
X149860000Y-110900000D02*
G75*
G03*
X150543318Y-110754756I0J1680000D01*
G01*
G04 #@! TO.C,SENS4*
X182700000Y-70150000D02*
X182700000Y-69650000D01*
X181960000Y-70150000D02*
X182700000Y-70150000D01*
X178823000Y-63457000D02*
X178869000Y-63504000D01*
X176525000Y-61160000D02*
X176561000Y-61195000D01*
X179039000Y-63264000D02*
X179074000Y-63299000D01*
X176731000Y-60955000D02*
X176777000Y-61002000D01*
X172539000Y-59630000D02*
X182460000Y-59630000D01*
X172539000Y-69910000D02*
X182460000Y-69910000D01*
X182460000Y-69910000D02*
X182460000Y-59630000D01*
X172539000Y-69910000D02*
X172539000Y-59630000D01*
X175499000Y-69910000D02*
X175499000Y-59630000D01*
X180400000Y-69910000D02*
X180400000Y-59630000D01*
X181900000Y-69910000D02*
X181900000Y-59630000D01*
X179480000Y-62230000D02*
G75*
G03*
X179480000Y-62230000I-1680000J0D01*
G01*
X179335000Y-67994000D02*
G75*
G03*
X179480253Y-67281195I-1535000J684000D01*
G01*
X177116000Y-68845001D02*
G75*
G03*
X178483042Y-68845427I684000J1535001D01*
G01*
X176264999Y-66626000D02*
G75*
G03*
X176264573Y-67993042I1535001J-684000D01*
G01*
X178484000Y-65774999D02*
G75*
G03*
X177116958Y-65774573I-684000J-1535001D01*
G01*
X179480000Y-67310000D02*
G75*
G03*
X179334756Y-66626682I-1680000J0D01*
G01*
G04 #@! TO.C,SENS3*
X182700000Y-80310000D02*
X182700000Y-79810000D01*
X181960000Y-80310000D02*
X182700000Y-80310000D01*
X178823000Y-73617000D02*
X178869000Y-73664000D01*
X176525000Y-71320000D02*
X176561000Y-71355000D01*
X179039000Y-73424000D02*
X179074000Y-73459000D01*
X176731000Y-71115000D02*
X176777000Y-71162000D01*
X172539000Y-69790000D02*
X182460000Y-69790000D01*
X172539000Y-80070000D02*
X182460000Y-80070000D01*
X182460000Y-80070000D02*
X182460000Y-69790000D01*
X172539000Y-80070000D02*
X172539000Y-69790000D01*
X175499000Y-80070000D02*
X175499000Y-69790000D01*
X180400000Y-80070000D02*
X180400000Y-69790000D01*
X181900000Y-80070000D02*
X181900000Y-69790000D01*
X179480000Y-72390000D02*
G75*
G03*
X179480000Y-72390000I-1680000J0D01*
G01*
X179335000Y-78154000D02*
G75*
G03*
X179480253Y-77441195I-1535000J684000D01*
G01*
X177116000Y-79005001D02*
G75*
G03*
X178483042Y-79005427I684000J1535001D01*
G01*
X176264999Y-76786000D02*
G75*
G03*
X176264573Y-78153042I1535001J-684000D01*
G01*
X178484000Y-75934999D02*
G75*
G03*
X177116958Y-75934573I-684000J-1535001D01*
G01*
X179480000Y-77470000D02*
G75*
G03*
X179334756Y-76786682I-1680000J0D01*
G01*
G04 #@! TO.C,SENS2*
X182700000Y-90470000D02*
X182700000Y-89970000D01*
X181960000Y-90470000D02*
X182700000Y-90470000D01*
X178823000Y-83777000D02*
X178869000Y-83824000D01*
X176525000Y-81480000D02*
X176561000Y-81515000D01*
X179039000Y-83584000D02*
X179074000Y-83619000D01*
X176731000Y-81275000D02*
X176777000Y-81322000D01*
X172539000Y-79950000D02*
X182460000Y-79950000D01*
X172539000Y-90230000D02*
X182460000Y-90230000D01*
X182460000Y-90230000D02*
X182460000Y-79950000D01*
X172539000Y-90230000D02*
X172539000Y-79950000D01*
X175499000Y-90230000D02*
X175499000Y-79950000D01*
X180400000Y-90230000D02*
X180400000Y-79950000D01*
X181900000Y-90230000D02*
X181900000Y-79950000D01*
X179480000Y-82550000D02*
G75*
G03*
X179480000Y-82550000I-1680000J0D01*
G01*
X179335000Y-88314000D02*
G75*
G03*
X179480253Y-87601195I-1535000J684000D01*
G01*
X177116000Y-89165001D02*
G75*
G03*
X178483042Y-89165427I684000J1535001D01*
G01*
X176264999Y-86946000D02*
G75*
G03*
X176264573Y-88313042I1535001J-684000D01*
G01*
X178484000Y-86094999D02*
G75*
G03*
X177116958Y-86094573I-684000J-1535001D01*
G01*
X179480000Y-87630000D02*
G75*
G03*
X179334756Y-86946682I-1680000J0D01*
G01*
G04 #@! TO.C,SENS1*
X182700000Y-100630000D02*
X182700000Y-100130000D01*
X181960000Y-100630000D02*
X182700000Y-100630000D01*
X178823000Y-93937000D02*
X178869000Y-93984000D01*
X176525000Y-91640000D02*
X176561000Y-91675000D01*
X179039000Y-93744000D02*
X179074000Y-93779000D01*
X176731000Y-91435000D02*
X176777000Y-91482000D01*
X172539000Y-90110000D02*
X182460000Y-90110000D01*
X172539000Y-100390000D02*
X182460000Y-100390000D01*
X182460000Y-100390000D02*
X182460000Y-90110000D01*
X172539000Y-100390000D02*
X172539000Y-90110000D01*
X175499000Y-100390000D02*
X175499000Y-90110000D01*
X180400000Y-100390000D02*
X180400000Y-90110000D01*
X181900000Y-100390000D02*
X181900000Y-90110000D01*
X179480000Y-92710000D02*
G75*
G03*
X179480000Y-92710000I-1680000J0D01*
G01*
X179335000Y-98474000D02*
G75*
G03*
X179480253Y-97761195I-1535000J684000D01*
G01*
X177116000Y-99325001D02*
G75*
G03*
X178483042Y-99325427I684000J1535001D01*
G01*
X176264999Y-97106000D02*
G75*
G03*
X176264573Y-98473042I1535001J-684000D01*
G01*
X178484000Y-96254999D02*
G75*
G03*
X177116958Y-96254573I-684000J-1535001D01*
G01*
X179480000Y-97790000D02*
G75*
G03*
X179334756Y-97106682I-1680000J0D01*
G01*
G04 #@! TO.C,R3-4*
X123420000Y-100330000D02*
X122650000Y-100330000D01*
X115340000Y-100330000D02*
X116110000Y-100330000D01*
X122650000Y-98960000D02*
X116110000Y-98960000D01*
X122650000Y-101700000D02*
X122650000Y-98960000D01*
X116110000Y-101700000D02*
X122650000Y-101700000D01*
X116110000Y-98960000D02*
X116110000Y-101700000D01*
G04 #@! TO.C,R3-2*
X123420000Y-105410000D02*
X122650000Y-105410000D01*
X115340000Y-105410000D02*
X116110000Y-105410000D01*
X122650000Y-104040000D02*
X116110000Y-104040000D01*
X122650000Y-106780000D02*
X122650000Y-104040000D01*
X116110000Y-106780000D02*
X122650000Y-106780000D01*
X116110000Y-104040000D02*
X116110000Y-106780000D01*
G04 #@! TO.C,R3-1*
X115340000Y-110490000D02*
X116110000Y-110490000D01*
X123420000Y-110490000D02*
X122650000Y-110490000D01*
X116110000Y-111860000D02*
X122650000Y-111860000D01*
X116110000Y-109120000D02*
X116110000Y-111860000D01*
X122650000Y-109120000D02*
X116110000Y-109120000D01*
X122650000Y-111860000D02*
X122650000Y-109120000D01*
G04 #@! TO.C,R2-4*
X123420000Y-80010000D02*
X122650000Y-80010000D01*
X115340000Y-80010000D02*
X116110000Y-80010000D01*
X122650000Y-78640000D02*
X116110000Y-78640000D01*
X122650000Y-81380000D02*
X122650000Y-78640000D01*
X116110000Y-81380000D02*
X122650000Y-81380000D01*
X116110000Y-78640000D02*
X116110000Y-81380000D01*
G04 #@! TO.C,R2-2*
X123420000Y-85090000D02*
X122650000Y-85090000D01*
X115340000Y-85090000D02*
X116110000Y-85090000D01*
X122650000Y-83720000D02*
X116110000Y-83720000D01*
X122650000Y-86460000D02*
X122650000Y-83720000D01*
X116110000Y-86460000D02*
X122650000Y-86460000D01*
X116110000Y-83720000D02*
X116110000Y-86460000D01*
G04 #@! TO.C,R2-1*
X115340000Y-90170000D02*
X116110000Y-90170000D01*
X123420000Y-90170000D02*
X122650000Y-90170000D01*
X116110000Y-91540000D02*
X122650000Y-91540000D01*
X116110000Y-88800000D02*
X116110000Y-91540000D01*
X122650000Y-88800000D02*
X116110000Y-88800000D01*
X122650000Y-91540000D02*
X122650000Y-88800000D01*
G04 #@! TO.C,J1*
X132140000Y-111820000D02*
X130810000Y-111820000D01*
X132140000Y-110490000D02*
X132140000Y-111820000D01*
X132140000Y-109220000D02*
X129480000Y-109220000D01*
X129480000Y-109220000D02*
X129480000Y-96460000D01*
X132140000Y-109220000D02*
X132140000Y-96460000D01*
X132140000Y-96460000D02*
X129480000Y-96460000D01*
G04 #@! TO.C,ESP321*
X155495000Y-58975000D02*
X155495000Y-99615000D01*
X158035000Y-58975000D02*
X155495000Y-58975000D01*
X158035000Y-99615000D02*
X158035000Y-58975000D01*
X155495000Y-99615000D02*
X158035000Y-99615000D01*
X137715000Y-89455000D02*
X135175000Y-89455000D01*
X137715000Y-58975000D02*
X137715000Y-89455000D01*
X135175000Y-58975000D02*
X137715000Y-58975000D01*
X135175000Y-89455000D02*
X135175000Y-58975000D01*
G04 #@! TO.C,0x48*
X109220000Y-58420000D02*
X109220000Y-83820000D01*
X109220000Y-83820000D02*
X106680000Y-83820000D01*
X106680000Y-83820000D02*
X106680000Y-58420000D01*
X106680000Y-58420000D02*
X109220000Y-58420000D01*
G04 #@! TO.C,0x49*
X109220000Y-90170000D02*
X109220000Y-115570000D01*
X109220000Y-115570000D02*
X106680000Y-115570000D01*
X106680000Y-115570000D02*
X106680000Y-90170000D01*
X106680000Y-90170000D02*
X109220000Y-90170000D01*
G04 #@! TO.C,R3*
X148490000Y-84550000D02*
X151230000Y-84550000D01*
X151230000Y-84550000D02*
X151230000Y-78010000D01*
X151230000Y-78010000D02*
X148490000Y-78010000D01*
X148490000Y-78010000D02*
X148490000Y-84550000D01*
X149860000Y-85320000D02*
X149860000Y-84550000D01*
X149860000Y-77240000D02*
X149860000Y-78010000D01*
G04 #@! TO.C,R7*
X142140000Y-69310000D02*
X144880000Y-69310000D01*
X144880000Y-69310000D02*
X144880000Y-62770000D01*
X144880000Y-62770000D02*
X142140000Y-62770000D01*
X142140000Y-62770000D02*
X142140000Y-69310000D01*
X143510000Y-70080000D02*
X143510000Y-69310000D01*
X143510000Y-62000000D02*
X143510000Y-62770000D01*
G04 #@! TO.C,R5*
X148490000Y-69310000D02*
X151230000Y-69310000D01*
X151230000Y-69310000D02*
X151230000Y-62770000D01*
X151230000Y-62770000D02*
X148490000Y-62770000D01*
X148490000Y-62770000D02*
X148490000Y-69310000D01*
X149860000Y-70080000D02*
X149860000Y-69310000D01*
X149860000Y-62000000D02*
X149860000Y-62770000D01*
G04 #@! TO.C,R6*
X142140000Y-84550000D02*
X144880000Y-84550000D01*
X144880000Y-84550000D02*
X144880000Y-78010000D01*
X144880000Y-78010000D02*
X142140000Y-78010000D01*
X142140000Y-78010000D02*
X142140000Y-84550000D01*
X143510000Y-85320000D02*
X143510000Y-84550000D01*
X143510000Y-77240000D02*
X143510000Y-78010000D01*
G04 #@! TO.C,C1*
X153860000Y-100410000D02*
X140620000Y-100410000D01*
X153860000Y-95170000D02*
X140620000Y-95170000D01*
X153860000Y-100410000D02*
X153860000Y-95170000D01*
X140620000Y-100410000D02*
X140620000Y-95170000D01*
G04 #@! TO.C,R4*
X121380000Y-61060000D02*
X121380000Y-58320000D01*
X121380000Y-58320000D02*
X114840000Y-58320000D01*
X114840000Y-58320000D02*
X114840000Y-61060000D01*
X114840000Y-61060000D02*
X121380000Y-61060000D01*
X122150000Y-59690000D02*
X121380000Y-59690000D01*
X114070000Y-59690000D02*
X114840000Y-59690000D01*
G04 #@! TO.C,R2*
X121380000Y-66140000D02*
X121380000Y-63400000D01*
X121380000Y-63400000D02*
X114840000Y-63400000D01*
X114840000Y-63400000D02*
X114840000Y-66140000D01*
X114840000Y-66140000D02*
X121380000Y-66140000D01*
X122150000Y-64770000D02*
X121380000Y-64770000D01*
X114070000Y-64770000D02*
X114840000Y-64770000D01*
G04 #@! TO.C,R1*
X114840000Y-68480000D02*
X114840000Y-71220000D01*
X114840000Y-71220000D02*
X121380000Y-71220000D01*
X121380000Y-71220000D02*
X121380000Y-68480000D01*
X121380000Y-68480000D02*
X114840000Y-68480000D01*
X114070000Y-69850000D02*
X114840000Y-69850000D01*
X122150000Y-69850000D02*
X121380000Y-69850000D01*
G04 #@! TD*
%LPC*%
D14*
G04 #@! TO.C,PT1000*
X177800000Y-102870000D03*
D15*
X177800000Y-107950000D03*
G04 #@! TD*
D16*
G04 #@! TO.C,PSU1*
X144780000Y-109220000D03*
D17*
X139700000Y-109220000D03*
G04 #@! TD*
D16*
G04 #@! TO.C,SSR1*
X154940000Y-109220000D03*
D14*
X149860000Y-109220000D03*
G04 #@! TD*
D16*
G04 #@! TO.C,SENS4*
X177800000Y-62230000D03*
D14*
X177800000Y-67310000D03*
G04 #@! TD*
D16*
G04 #@! TO.C,SENS3*
X177800000Y-72390000D03*
D14*
X177800000Y-77470000D03*
G04 #@! TD*
G04 #@! TO.C,SENS2*
X177800000Y-82550000D03*
D15*
X177800000Y-87630000D03*
G04 #@! TD*
D14*
G04 #@! TO.C,SENS1*
X177800000Y-92710000D03*
D15*
X177800000Y-97790000D03*
G04 #@! TD*
D18*
G04 #@! TO.C,UR*
X180340000Y-113030000D03*
G04 #@! TD*
G04 #@! TO.C,UL*
X99060000Y-113030000D03*
G04 #@! TD*
G04 #@! TO.C,OL*
X99060000Y-57150000D03*
G04 #@! TD*
G04 #@! TO.C,OR*
X180340000Y-57150000D03*
G04 #@! TD*
D19*
G04 #@! TO.C,R3-4*
X124460000Y-100330000D03*
D20*
X114300000Y-100330000D03*
G04 #@! TD*
D19*
G04 #@! TO.C,R3-2*
X124460000Y-105410000D03*
D20*
X114300000Y-105410000D03*
G04 #@! TD*
D19*
G04 #@! TO.C,R3-1*
X114300000Y-110490000D03*
D20*
X124460000Y-110490000D03*
G04 #@! TD*
D19*
G04 #@! TO.C,R2-4*
X124460000Y-80010000D03*
D20*
X114300000Y-80010000D03*
G04 #@! TD*
D19*
G04 #@! TO.C,R2-2*
X124460000Y-85090000D03*
D20*
X114300000Y-85090000D03*
G04 #@! TD*
D19*
G04 #@! TO.C,R2-1*
X114300000Y-90170000D03*
D20*
X124460000Y-90170000D03*
G04 #@! TD*
D21*
G04 #@! TO.C,J1*
X130810000Y-97790000D03*
D22*
X130810000Y-100330000D03*
X130810000Y-102870000D03*
X130810000Y-105410000D03*
X130810000Y-107950000D03*
D23*
X130810000Y-110490000D03*
G04 #@! TD*
D22*
G04 #@! TO.C,ESP321*
X156765000Y-83105000D03*
X156765000Y-85645000D03*
X156765000Y-75485000D03*
X156765000Y-88185000D03*
X156765000Y-80565000D03*
X156765000Y-70405000D03*
X156765000Y-93265000D03*
D23*
X156765000Y-90725000D03*
D24*
X156765000Y-95805000D03*
D25*
X156765000Y-60245000D03*
D22*
X156765000Y-72945000D03*
X156765000Y-65325000D03*
X156765000Y-78025000D03*
X156765000Y-62785000D03*
X156765000Y-67865000D03*
X156765000Y-98345000D03*
X136445000Y-78025000D03*
X136445000Y-62785000D03*
X136445000Y-80565000D03*
X136445000Y-88185000D03*
X136445000Y-72945000D03*
X136445000Y-65325000D03*
D24*
X136445000Y-83105000D03*
D22*
X136445000Y-85645000D03*
X136445000Y-75485000D03*
X136445000Y-67865000D03*
X136445000Y-60245000D03*
X136445000Y-70405000D03*
G04 #@! TD*
D23*
G04 #@! TO.C,0x48*
X107950000Y-62230000D03*
D24*
X107950000Y-59690000D03*
D22*
X107950000Y-69850000D03*
X107950000Y-77470000D03*
X107950000Y-67310000D03*
X107950000Y-82550000D03*
X107950000Y-64770000D03*
X107950000Y-72390000D03*
X107950000Y-74930000D03*
X107950000Y-80010000D03*
G04 #@! TD*
D23*
G04 #@! TO.C,0x49*
X107950000Y-93980000D03*
D24*
X107950000Y-91440000D03*
D22*
X107950000Y-101600000D03*
X107950000Y-109220000D03*
X107950000Y-99060000D03*
X107950000Y-114300000D03*
X107950000Y-96520000D03*
X107950000Y-104140000D03*
X107950000Y-106680000D03*
X107950000Y-111760000D03*
G04 #@! TD*
D19*
G04 #@! TO.C,R3*
X149860000Y-76200000D03*
D20*
X149860000Y-86360000D03*
G04 #@! TD*
D19*
G04 #@! TO.C,R7*
X143510000Y-60960000D03*
D20*
X143510000Y-71120000D03*
G04 #@! TD*
D19*
G04 #@! TO.C,R5*
X149860000Y-60960000D03*
D20*
X149860000Y-71120000D03*
G04 #@! TD*
D19*
G04 #@! TO.C,R6*
X143510000Y-76200000D03*
D20*
X143510000Y-86360000D03*
G04 #@! TD*
D26*
G04 #@! TO.C,C1*
X142240000Y-97790000D03*
X152240000Y-97790000D03*
G04 #@! TD*
D19*
G04 #@! TO.C,R4*
X113030000Y-59690000D03*
D20*
X123190000Y-59690000D03*
G04 #@! TD*
D19*
G04 #@! TO.C,R2*
X113030000Y-64770000D03*
D20*
X123190000Y-64770000D03*
G04 #@! TD*
D19*
G04 #@! TO.C,R1*
X123190000Y-69850000D03*
D20*
X113030000Y-69850000D03*
G04 #@! TD*
M02*
