G04 #@! TF.GenerationSoftware,KiCad,Pcbnew,6.0.11+dfsg-1*
G04 #@! TF.CreationDate,2023-06-04T21:15:00+02:00*
G04 #@! TF.ProjectId,EspressoV1,45737072-6573-4736-9f56-312e6b696361,rev?*
G04 #@! TF.SameCoordinates,Original*
G04 #@! TF.FileFunction,Copper,L1,Top*
G04 #@! TF.FilePolarity,Positive*
%FSLAX46Y46*%
G04 Gerber Fmt 4.6, Leading zero omitted, Abs format (unit mm)*
G04 Created by KiCad (PCBNEW 6.0.11+dfsg-1) date 2023-06-04 21:15:00*
%MOMM*%
%LPD*%
G01*
G04 APERTURE LIST*
G04 Aperture macros list*
%AMRoundRect*
0 Rectangle with rounded corners*
0 $1 Rounding radius*
0 $2 $3 $4 $5 $6 $7 $8 $9 X,Y pos of 4 corners*
0 Add a 4 corners polygon primitive as box body*
4,1,4,$2,$3,$4,$5,$6,$7,$8,$9,$2,$3,0*
0 Add four circle primitives for the rounded corners*
1,1,$1+$1,$2,$3*
1,1,$1+$1,$4,$5*
1,1,$1+$1,$6,$7*
1,1,$1+$1,$8,$9*
0 Add four rect primitives between the rounded corners*
20,1,$1+$1,$2,$3,$4,$5,0*
20,1,$1+$1,$4,$5,$6,$7,0*
20,1,$1+$1,$6,$7,$8,$9,0*
20,1,$1+$1,$8,$9,$2,$3,0*%
G04 Aperture macros list end*
G04 #@! TA.AperFunction,ComponentPad*
%ADD10C,2.600000*%
G04 #@! TD*
G04 #@! TA.AperFunction,ComponentPad*
%ADD11RoundRect,0.650000X0.650000X-0.650000X0.650000X0.650000X-0.650000X0.650000X-0.650000X-0.650000X0*%
G04 #@! TD*
G04 #@! TA.AperFunction,ComponentPad*
%ADD12R,2.600000X2.600000*%
G04 #@! TD*
G04 #@! TA.AperFunction,ComponentPad*
%ADD13RoundRect,0.650000X-0.650000X-0.650000X0.650000X-0.650000X0.650000X0.650000X-0.650000X0.650000X0*%
G04 #@! TD*
G04 #@! TA.AperFunction,ComponentPad*
%ADD14O,1.600000X1.600000*%
G04 #@! TD*
G04 #@! TA.AperFunction,ComponentPad*
%ADD15C,1.600000*%
G04 #@! TD*
G04 #@! TA.AperFunction,ComponentPad*
%ADD16RoundRect,0.425000X0.425000X0.425000X-0.425000X0.425000X-0.425000X-0.425000X0.425000X-0.425000X0*%
G04 #@! TD*
G04 #@! TA.AperFunction,ComponentPad*
%ADD17O,1.700000X1.700000*%
G04 #@! TD*
G04 #@! TA.AperFunction,ComponentPad*
%ADD18R,1.700000X1.700000*%
G04 #@! TD*
G04 #@! TA.AperFunction,ComponentPad*
%ADD19RoundRect,0.425000X-0.425000X-0.425000X0.425000X-0.425000X0.425000X0.425000X-0.425000X0.425000X0*%
G04 #@! TD*
G04 #@! TA.AperFunction,ComponentPad*
%ADD20C,1.700000*%
G04 #@! TD*
G04 #@! TA.AperFunction,ComponentPad*
%ADD21C,2.000000*%
G04 #@! TD*
G04 #@! TA.AperFunction,Conductor*
%ADD22C,0.350000*%
G04 #@! TD*
G04 APERTURE END LIST*
D10*
G04 #@! TO.P,PT1000,2*
G04 #@! TO.N,Net-(0x48-Pad5)*
X177800000Y-102870000D03*
D11*
G04 #@! TO.P,PT1000,1*
G04 #@! TO.N,Net-(0x48-Pad8)*
X177800000Y-107950000D03*
G04 #@! TD*
D12*
G04 #@! TO.P,PSU1,2*
G04 #@! TO.N,GND*
X144780000Y-109220000D03*
D13*
G04 #@! TO.P,PSU1,1*
G04 #@! TO.N,Net-(ESP321-PadVUSB)*
X139700000Y-109220000D03*
G04 #@! TD*
D12*
G04 #@! TO.P,SSR1,2*
G04 #@! TO.N,GND*
X154940000Y-109220000D03*
D10*
G04 #@! TO.P,SSR1,1*
G04 #@! TO.N,Net-(ESP321-PadP21)*
X149860000Y-109220000D03*
G04 #@! TD*
D12*
G04 #@! TO.P,SENS4,2*
G04 #@! TO.N,GND*
X177800000Y-62230000D03*
D10*
G04 #@! TO.P,SENS4,1*
G04 #@! TO.N,Net-(0x48-Pad7)*
X177800000Y-67310000D03*
G04 #@! TD*
D12*
G04 #@! TO.P,SENS3,2*
G04 #@! TO.N,GND*
X177800000Y-72390000D03*
D10*
G04 #@! TO.P,SENS3,1*
G04 #@! TO.N,Net-(0x48-Pad6)*
X177800000Y-77470000D03*
G04 #@! TD*
G04 #@! TO.P,SENS2,2*
G04 #@! TO.N,Net-(0x49-Pad7)*
X177800000Y-82550000D03*
D11*
G04 #@! TO.P,SENS2,1*
G04 #@! TO.N,Net-(0x48-Pad8)*
X177800000Y-87630000D03*
G04 #@! TD*
D10*
G04 #@! TO.P,SENS1,2*
G04 #@! TO.N,Net-(0x49-Pad5)*
X177800000Y-92710000D03*
D11*
G04 #@! TO.P,SENS1,1*
G04 #@! TO.N,Net-(0x48-Pad8)*
X177800000Y-97790000D03*
G04 #@! TD*
D14*
G04 #@! TO.P,R3-4,2*
G04 #@! TO.N,GND*
X124460000Y-100330000D03*
D15*
G04 #@! TO.P,R3-4,1*
G04 #@! TO.N,Net-(0x49-Pad7)*
X114300000Y-100330000D03*
G04 #@! TD*
D14*
G04 #@! TO.P,R3-2,2*
G04 #@! TO.N,GND*
X124460000Y-105410000D03*
D15*
G04 #@! TO.P,R3-2,1*
G04 #@! TO.N,Net-(0x49-Pad6)*
X114300000Y-105410000D03*
G04 #@! TD*
D14*
G04 #@! TO.P,R3-1,2*
G04 #@! TO.N,Net-(0x49-Pad6)*
X114300000Y-110490000D03*
D15*
G04 #@! TO.P,R3-1,1*
G04 #@! TO.N,Net-(0x48-Pad8)*
X124460000Y-110490000D03*
G04 #@! TD*
D14*
G04 #@! TO.P,R2-4,2*
G04 #@! TO.N,GND*
X124460000Y-80010000D03*
D15*
G04 #@! TO.P,R2-4,1*
G04 #@! TO.N,Net-(0x49-Pad5)*
X114300000Y-80010000D03*
G04 #@! TD*
D14*
G04 #@! TO.P,R2-2,2*
G04 #@! TO.N,GND*
X124460000Y-85090000D03*
D15*
G04 #@! TO.P,R2-2,1*
G04 #@! TO.N,Net-(0x49-Pad4)*
X114300000Y-85090000D03*
G04 #@! TD*
D14*
G04 #@! TO.P,R2-1,2*
G04 #@! TO.N,Net-(0x49-Pad4)*
X114300000Y-90170000D03*
D15*
G04 #@! TO.P,R2-1,1*
G04 #@! TO.N,Net-(0x48-Pad8)*
X124460000Y-90170000D03*
G04 #@! TD*
D16*
G04 #@! TO.P,J1,6*
G04 #@! TO.N,Net-(ESP321-PadVUSB)*
X130810000Y-97790000D03*
D17*
G04 #@! TO.P,J1,5*
G04 #@! TO.N,Net-(ESP321-PadP33)*
X130810000Y-100330000D03*
G04 #@! TO.P,J1,4*
G04 #@! TO.N,Net-(ESP321-PadP27)*
X130810000Y-102870000D03*
G04 #@! TO.P,J1,3*
G04 #@! TO.N,Net-(ESP321-PadP12)*
X130810000Y-105410000D03*
G04 #@! TO.P,J1,2*
G04 #@! TO.N,Net-(ESP321-PadP13)*
X130810000Y-107950000D03*
D18*
G04 #@! TO.P,J1,1*
G04 #@! TO.N,GND*
X130810000Y-110490000D03*
G04 #@! TD*
D17*
G04 #@! TO.P,ESP321,P34*
G04 #@! TO.N,Net-(ESP321-PadP34)*
X156765000Y-83105000D03*
G04 #@! TO.P,ESP321,P25*
G04 #@! TO.N,Net-(ESP321-PadP25)*
X156765000Y-85645000D03*
G04 #@! TO.P,ESP321,P04*
G04 #@! TO.N,Net-(ESP321-PadP04)*
X156765000Y-75485000D03*
G04 #@! TO.P,ESP321,P26*
G04 #@! TO.N,Net-(ESP321-PadP26)*
X156765000Y-88185000D03*
G04 #@! TO.P,ESP321,P39*
G04 #@! TO.N,Net-(ESP321-PadP39)*
X156765000Y-80565000D03*
G04 #@! TO.P,ESP321,P18*
G04 #@! TO.N,Net-(ESP321-PadP18)*
X156765000Y-70405000D03*
G04 #@! TO.P,ESP321,NC*
G04 #@! TO.N,Net-(ESP321-PadNC)*
X156765000Y-93265000D03*
D18*
G04 #@! TO.P,ESP321,GND*
G04 #@! TO.N,GND*
X156765000Y-90725000D03*
D19*
G04 #@! TO.P,ESP321,3V3*
G04 #@! TO.N,Net-(0x48-Pad8)*
X156765000Y-95805000D03*
D20*
G04 #@! TO.P,ESP321,P21*
G04 #@! TO.N,Net-(ESP321-PadP21)*
X156765000Y-60245000D03*
D17*
G04 #@! TO.P,ESP321,P05*
G04 #@! TO.N,Net-(ESP321-PadP05)*
X156765000Y-72945000D03*
G04 #@! TO.P,ESP321,P16*
G04 #@! TO.N,Net-(ESP321-PadP16)*
X156765000Y-65325000D03*
G04 #@! TO.P,ESP321,P36*
G04 #@! TO.N,Net-(ESP321-PadP36)*
X156765000Y-78025000D03*
G04 #@! TO.P,ESP321,P17*
G04 #@! TO.N,Net-(ESP321-PadP17)*
X156765000Y-62785000D03*
G04 #@! TO.P,ESP321,P19*
G04 #@! TO.N,Net-(ESP321-PadP19)*
X156765000Y-67865000D03*
G04 #@! TO.P,ESP321,RESET*
G04 #@! TO.N,Net-(ESP321-PadRESET)*
X156765000Y-98345000D03*
G04 #@! TO.P,ESP321,P12*
G04 #@! TO.N,Net-(ESP321-PadP12)*
X136445000Y-78025000D03*
G04 #@! TO.P,ESP321,P22*
G04 #@! TO.N,Net-(0x48-Pad10)*
X136445000Y-62785000D03*
G04 #@! TO.P,ESP321,P13*
G04 #@! TO.N,Net-(ESP321-PadP13)*
X136445000Y-80565000D03*
G04 #@! TO.P,ESP321,VBAT*
G04 #@! TO.N,Net-(ESP321-PadVBAT)*
X136445000Y-88185000D03*
G04 #@! TO.P,ESP321,P33*
G04 #@! TO.N,Net-(ESP321-PadP33)*
X136445000Y-72945000D03*
G04 #@! TO.P,ESP321,P14*
G04 #@! TO.N,Net-(0x48-Pad2)*
X136445000Y-65325000D03*
D19*
G04 #@! TO.P,ESP321,VUSB*
G04 #@! TO.N,Net-(ESP321-PadVUSB)*
X136445000Y-83105000D03*
D17*
G04 #@! TO.P,ESP321,EN*
G04 #@! TO.N,Net-(ESP321-PadEN)*
X136445000Y-85645000D03*
G04 #@! TO.P,ESP321,P27*
G04 #@! TO.N,Net-(ESP321-PadP27)*
X136445000Y-75485000D03*
G04 #@! TO.P,ESP321,P32*
G04 #@! TO.N,Net-(0x49-Pad2)*
X136445000Y-67865000D03*
G04 #@! TO.P,ESP321,P23*
G04 #@! TO.N,Net-(0x48-Pad9)*
X136445000Y-60245000D03*
G04 #@! TO.P,ESP321,P15*
G04 #@! TO.N,Net-(ESP321-PadP15)*
X136445000Y-70405000D03*
G04 #@! TD*
D18*
G04 #@! TO.P,0x48,3*
G04 #@! TO.N,GND*
X107950000Y-62230000D03*
D19*
G04 #@! TO.P,0x48,8*
G04 #@! TO.N,Net-(0x48-Pad8)*
X107950000Y-59690000D03*
D17*
G04 #@! TO.P,0x48,1*
G04 #@! TO.N,GND*
X107950000Y-69850000D03*
G04 #@! TO.P,0x48,5*
G04 #@! TO.N,Net-(0x48-Pad5)*
X107950000Y-77470000D03*
G04 #@! TO.P,0x48,9*
G04 #@! TO.N,Net-(0x48-Pad9)*
X107950000Y-67310000D03*
G04 #@! TO.P,0x48,7*
G04 #@! TO.N,Net-(0x48-Pad7)*
X107950000Y-82550000D03*
G04 #@! TO.P,0x48,10*
G04 #@! TO.N,Net-(0x48-Pad10)*
X107950000Y-64770000D03*
G04 #@! TO.P,0x48,2*
G04 #@! TO.N,Net-(0x48-Pad2)*
X107950000Y-72390000D03*
G04 #@! TO.P,0x48,4*
G04 #@! TO.N,Net-(0x48-Pad4)*
X107950000Y-74930000D03*
G04 #@! TO.P,0x48,6*
G04 #@! TO.N,Net-(0x48-Pad6)*
X107950000Y-80010000D03*
G04 #@! TD*
D18*
G04 #@! TO.P,0x49,3*
G04 #@! TO.N,GND*
X107950000Y-93980000D03*
D19*
G04 #@! TO.P,0x49,8*
G04 #@! TO.N,Net-(0x48-Pad8)*
X107950000Y-91440000D03*
D17*
G04 #@! TO.P,0x49,1*
X107950000Y-101600000D03*
G04 #@! TO.P,0x49,5*
G04 #@! TO.N,Net-(0x49-Pad5)*
X107950000Y-109220000D03*
G04 #@! TO.P,0x49,9*
G04 #@! TO.N,Net-(0x48-Pad9)*
X107950000Y-99060000D03*
G04 #@! TO.P,0x49,7*
G04 #@! TO.N,Net-(0x49-Pad7)*
X107950000Y-114300000D03*
G04 #@! TO.P,0x49,10*
G04 #@! TO.N,Net-(0x48-Pad10)*
X107950000Y-96520000D03*
G04 #@! TO.P,0x49,2*
G04 #@! TO.N,Net-(0x49-Pad2)*
X107950000Y-104140000D03*
G04 #@! TO.P,0x49,4*
G04 #@! TO.N,Net-(0x49-Pad4)*
X107950000Y-106680000D03*
G04 #@! TO.P,0x49,6*
G04 #@! TO.N,Net-(0x49-Pad6)*
X107950000Y-111760000D03*
G04 #@! TD*
D14*
G04 #@! TO.P,R3,2*
G04 #@! TO.N,Net-(0x48-Pad9)*
X149860000Y-76200000D03*
D15*
G04 #@! TO.P,R3,1*
G04 #@! TO.N,Net-(0x48-Pad8)*
X149860000Y-86360000D03*
G04 #@! TD*
D14*
G04 #@! TO.P,R7,2*
G04 #@! TO.N,Net-(0x48-Pad10)*
X143510000Y-60960000D03*
D15*
G04 #@! TO.P,R7,1*
G04 #@! TO.N,Net-(0x48-Pad8)*
X143510000Y-71120000D03*
G04 #@! TD*
D14*
G04 #@! TO.P,R5,2*
G04 #@! TO.N,Net-(0x49-Pad2)*
X149860000Y-60960000D03*
D15*
G04 #@! TO.P,R5,1*
G04 #@! TO.N,Net-(0x48-Pad8)*
X149860000Y-71120000D03*
G04 #@! TD*
D14*
G04 #@! TO.P,R6,2*
G04 #@! TO.N,Net-(0x48-Pad2)*
X143510000Y-76200000D03*
D15*
G04 #@! TO.P,R6,1*
G04 #@! TO.N,Net-(0x48-Pad8)*
X143510000Y-86360000D03*
G04 #@! TD*
D21*
G04 #@! TO.P,C1,2*
G04 #@! TO.N,GND*
X142240000Y-97790000D03*
G04 #@! TO.P,C1,1*
G04 #@! TO.N,Net-(0x48-Pad8)*
X152240000Y-97790000D03*
G04 #@! TD*
D14*
G04 #@! TO.P,R4,2*
G04 #@! TO.N,GND*
X113030000Y-59690000D03*
D15*
G04 #@! TO.P,R4,1*
G04 #@! TO.N,Net-(0x48-Pad5)*
X123190000Y-59690000D03*
G04 #@! TD*
D14*
G04 #@! TO.P,R2,2*
G04 #@! TO.N,GND*
X113030000Y-64770000D03*
D15*
G04 #@! TO.P,R2,1*
G04 #@! TO.N,Net-(0x48-Pad4)*
X123190000Y-64770000D03*
G04 #@! TD*
D14*
G04 #@! TO.P,R1,2*
G04 #@! TO.N,Net-(0x48-Pad4)*
X123190000Y-69850000D03*
D15*
G04 #@! TO.P,R1,1*
G04 #@! TO.N,Net-(0x48-Pad8)*
X113030000Y-69850000D03*
G04 #@! TD*
D22*
G04 #@! TO.N,Net-(0x48-Pad2)*
X136445000Y-65325000D02*
X135169700Y-65325000D01*
X135169700Y-65325000D02*
X134267900Y-66226800D01*
X134267900Y-66226800D02*
X114055200Y-66226800D01*
X114055200Y-66226800D02*
X107950000Y-72332000D01*
X107950000Y-72332000D02*
X107950000Y-72390000D01*
G04 #@! TO.N,Net-(0x48-Pad4)*
X123190000Y-69850000D02*
X121964700Y-69850000D01*
X121964700Y-69850000D02*
X120736500Y-68621800D01*
X120736500Y-68621800D02*
X112515300Y-68621800D01*
X112515300Y-68621800D02*
X111716600Y-69420500D01*
X111716600Y-69420500D02*
X111716600Y-71163400D01*
X111716600Y-71163400D02*
X107950000Y-74930000D01*
G04 #@! TO.N,Net-(0x48-Pad5)*
X107950000Y-77470000D02*
X109849200Y-77470000D01*
X109849200Y-77470000D02*
X125996900Y-93617700D01*
X125996900Y-93617700D02*
X145438000Y-93617700D01*
X145438000Y-93617700D02*
X154690300Y-102870000D01*
X154690300Y-102870000D02*
X177800000Y-102870000D01*
G04 #@! TO.N,Net-(0x48-Pad6)*
X107950000Y-80010000D02*
X111017800Y-80010000D01*
X111017800Y-80010000D02*
X125225900Y-94218100D01*
X125225900Y-94218100D02*
X136138000Y-94218100D01*
X136138000Y-94218100D02*
X146526200Y-104606300D01*
X146526200Y-104606300D02*
X178537600Y-104606300D01*
X178537600Y-104606300D02*
X179580600Y-103563300D01*
X179580600Y-103563300D02*
X179580600Y-79250600D01*
X179580600Y-79250600D02*
X177800000Y-77470000D01*
G04 #@! TO.N,Net-(0x48-Pad8)*
X175815000Y-95805000D02*
X177800000Y-97790000D01*
X175815000Y-95805000D02*
X175815000Y-89615000D01*
X175815000Y-89615000D02*
X177800000Y-87630000D01*
X107950000Y-101600000D02*
X109225300Y-101600000D01*
X124460000Y-110490000D02*
X117586800Y-110490000D01*
X117586800Y-110490000D02*
X109225300Y-102128500D01*
X109225300Y-102128500D02*
X109225300Y-101600000D01*
X113030000Y-69850000D02*
X121447800Y-78267800D01*
X121447800Y-78267800D02*
X121447800Y-87157800D01*
X121447800Y-87157800D02*
X124460000Y-90170000D01*
X143510000Y-86360000D02*
X139700000Y-90170000D01*
X139700000Y-90170000D02*
X124460000Y-90170000D01*
X146685000Y-86360000D02*
X143510000Y-86360000D01*
X146685000Y-71120000D02*
X143510000Y-71120000D01*
X149860000Y-71120000D02*
X146685000Y-71120000D01*
X146685000Y-86360000D02*
X146685000Y-71120000D01*
X149860000Y-86360000D02*
X146685000Y-86360000D01*
X154225000Y-95805000D02*
X154225000Y-90725000D01*
X154225000Y-90725000D02*
X149860000Y-86360000D01*
X152240000Y-97790000D02*
X154225000Y-95805000D01*
X106680000Y-91440000D02*
X107950000Y-91440000D01*
X104140000Y-93980000D02*
X106680000Y-91440000D01*
X104140000Y-99060000D02*
X104140000Y-93980000D01*
X106680000Y-101600000D02*
X104140000Y-99060000D01*
X107950000Y-101600000D02*
X106680000Y-101600000D01*
X156765000Y-95805000D02*
X175815000Y-95805000D01*
X154225000Y-95805000D02*
X156765000Y-95805000D01*
G04 #@! TO.N,Net-(0x48-Pad9)*
X107950000Y-99060000D02*
X109255200Y-97754800D01*
X109255200Y-97754800D02*
X109255200Y-88245700D01*
X109255200Y-88245700D02*
X106630600Y-85621100D01*
X106630600Y-85621100D02*
X106630600Y-68629400D01*
X106630600Y-68629400D02*
X107950000Y-67310000D01*
X107950000Y-67310000D02*
X109225300Y-67310000D01*
X136445000Y-60245000D02*
X135169700Y-60245000D01*
X135169700Y-60245000D02*
X132011600Y-63403100D01*
X132011600Y-63403100D02*
X112603700Y-63403100D01*
X112603700Y-63403100D02*
X109225300Y-66781500D01*
X109225300Y-66781500D02*
X109225300Y-67310000D01*
G04 #@! TO.N,Net-(0x48-Pad10)*
X139285100Y-61220200D02*
X137032900Y-58968100D01*
X137032900Y-58968100D02*
X135471400Y-58968100D01*
X135471400Y-58968100D02*
X133893100Y-60546400D01*
X133893100Y-60546400D02*
X133044200Y-60546400D01*
X133044200Y-60546400D02*
X132443900Y-61146700D01*
X132443900Y-61146700D02*
X112848600Y-61146700D01*
X112848600Y-61146700D02*
X109225300Y-64770000D01*
X139285100Y-61220200D02*
X137720300Y-62785000D01*
X143510000Y-60960000D02*
X139545300Y-60960000D01*
X139545300Y-60960000D02*
X139285100Y-61220200D01*
X107950000Y-64770000D02*
X109225300Y-64770000D01*
X136445000Y-62785000D02*
X137720300Y-62785000D01*
G04 #@! TO.N,Net-(0x49-Pad6)*
X114300000Y-110490000D02*
X113074700Y-110490000D01*
X107950000Y-111760000D02*
X111804700Y-111760000D01*
X111804700Y-111760000D02*
X113074700Y-110490000D01*
G04 #@! TO.N,Net-(0x49-Pad2)*
X149860000Y-60960000D02*
X148634700Y-60960000D01*
X148634700Y-60960000D02*
X141729700Y-67865000D01*
X141729700Y-67865000D02*
X136445000Y-67865000D01*
G04 #@! TO.N,Net-(ESP321-PadVUSB)*
X130810000Y-97790000D02*
X139700000Y-106680000D01*
X139700000Y-106680000D02*
X139700000Y-109220000D01*
G04 #@! TD*
M02*
