M48
; DRILL file {KiCad (5.1.10)-1} date 06/12/21 21:43:56
; FORMAT={-:-/ absolute / metric / decimal}
; #@! TF.CreationDate,2021-06-12T21:43:56+02:00
; #@! TF.GenerationSoftware,Kicad,Pcbnew,(5.1.10)-1
; #@! TF.FileFunction,Plated,1,2,PTH
FMAT,2
METRIC
T1C0.400
T2C0.800
T3C1.000
T4C1.100
%
G90
G05
T1
X135.373Y-70.214
T2
X114.3Y-59.69
X114.3Y-64.77
X114.3Y-69.85
X114.3Y-80.01
X114.3Y-85.09
X114.3Y-90.17
X114.3Y-100.33
X114.3Y-105.41
X114.3Y-110.49
X124.46Y-59.69
X124.46Y-64.77
X124.46Y-69.85
X124.46Y-80.01
X124.46Y-85.09
X124.46Y-90.17
X124.46Y-100.33
X124.46Y-105.41
X124.46Y-110.49
X143.51Y-74.93
X143.51Y-85.09
X143.51Y-90.17
X143.51Y-100.33
X149.86Y-74.93
X149.86Y-85.09
X149.86Y-90.17
X149.86Y-100.33
T3
X106.68Y-59.69
X106.68Y-62.23
X106.68Y-64.77
X106.68Y-67.31
X106.68Y-69.85
X106.68Y-72.39
X106.68Y-74.93
X106.68Y-77.47
X106.68Y-80.01
X106.68Y-82.55
X106.68Y-91.44
X106.68Y-93.98
X106.68Y-96.52
X106.68Y-99.06
X106.68Y-101.6
X106.68Y-104.14
X106.68Y-106.68
X106.68Y-109.22
X106.68Y-111.76
X106.68Y-114.3
X136.445Y-74.215
X136.445Y-76.755
X136.445Y-79.295
X136.445Y-81.835
X136.445Y-84.375
X136.445Y-86.915
X136.445Y-89.455
X136.445Y-91.995
X136.445Y-94.535
X136.445Y-97.075
X136.445Y-99.615
X136.445Y-102.155
X142.24Y-111.76
X152.24Y-111.76
X156.765Y-74.215
X156.765Y-76.755
X156.765Y-79.295
X156.765Y-81.835
X156.765Y-84.375
X156.765Y-86.915
X156.765Y-89.455
X156.765Y-91.995
X156.765Y-94.535
X156.765Y-97.075
X156.765Y-99.615
X156.765Y-102.155
X156.765Y-104.695
X156.765Y-107.235
X156.765Y-109.775
X156.765Y-112.315
X173.99Y-85.09
X173.99Y-87.63
X173.99Y-90.17
X173.99Y-92.71
X173.99Y-95.25
X173.99Y-97.79
T4
X133.35Y-63.5
X135.89Y-63.5
X143.51Y-63.5
X146.05Y-63.5
X153.67Y-63.5
X156.21Y-63.5
X163.83Y-63.5
X166.37Y-63.5
X173.99Y-63.5
X173.99Y-74.93
X173.99Y-77.47
X175.26Y-105.41
X175.26Y-107.95
X176.53Y-63.5
T0
M30
